<?xml version="1.0" encoding="UTF-8" standalone="no"?>
<svg xmlns="http://www.w3.org/2000/svg" xmlns:xlink="http://www.w3.org/1999/xlink" contentScriptType="application/ecmascript" contentStyleType="text/css" height="537px" preserveAspectRatio="none" style="width:393px;height:537px;background:#FFFFFF;" version="1.1" viewBox="0 0 393 537" width="393px" zoomAndPan="magnify"><defs><filter height="300%" id="f1r2hro9w3ferw" width="300%" x="-1" y="-1"><feGaussianBlur result="blurOut" stdDeviation="2.0"/><feColorMatrix in="blurOut" result="blurOut2" type="matrix" values="0 0 0 0 0 0 0 0 0 0 0 0 0 0 0 0 0 0 .4 0"/><feOffset dx="4.0" dy="4.0" in="blurOut2" result="blurOut3"/><feBlend in="SourceGraphic" in2="blurOut3" mode="normal"/></filter></defs><g><!--MD5=[0200d2478479e31c355c635ce9e90e83]
cluster AWS VPC--><path d="M71.9077,37.0278 C78.8376,14.9104 96.5474,16.3274 109.4655,30.8975 C121.6059,16.7327 134.0991,17.6834 144.5788,32.8832 C150.9484,14.8481 163.9444,12.2267 176.7502,26.468 C187.8662,6 200.2783,8.0397 213.8119,24.009 C226.2511,9.2325 239.8108,8.1437 250.3425,26.1355 C262.9101,10.1766 278.9932,12.2081 286.1302,31.6288 C297.229,17.8553 308.042,14.4815 319.2774,31.4816 C338.1863,15.7336 351.6479,15.189 361.5,40.7407 C363.5945,39.5419 365.269,40.011 365.6364,42.6179 C381.1045,52.4219 378.1466,68.7632 363.3676,76.5446 C380.5657,84.4045 378.4478,98.6739 365.1005,108.2056 C380.8201,118.5665 383.4013,130.8816 366.2132,142.316 C378.8764,150.5396 381.6856,159.3614 368.3335,169.6062 C383.0393,178.8906 380.0603,194.3127 366.5675,202.0628 C383.178,208.6584 385.7963,221.1645 370.9828,232.3424 C386.0768,241.6647 385.9741,256.8012 371.1562,266.2764 C384.4979,277.664 382.5811,289.3369 368.4518,298.4126 C384.3945,307.2562 383.5907,321.8883 366.4979,328.5931 C383.2567,336.9506 384.707,348.3088 370.7113,360.702 C383.2274,372.9751 381.4013,387.1612 365.1216,394.6999 C379.7275,404.6139 383.018,418.6059 364.7005,428.1049 C377.7229,438.5819 376.5008,447.9636 363.6622,457.528 C379.3396,472.0179 371.8954,488.3938 354.5,494.7407 C356.6708,494.3436 358.1838,495.776 357.315,498.0023 C348.3745,515.9364 334.4396,517.8391 322.5295,500.9704 C316.1979,520.4298 299.5557,521.8573 288.8849,504.9892 C277.2858,523.1155 264.6532,525.3989 251.1615,506.9407 C243.6188,525.6259 227.2012,530.5034 214.7075,511.763 C199.4021,524.8434 186.4917,523.5288 177.2102,504.6871 C167.7466,522.4148 151.8102,525.4443 140.8355,506.1728 C128.6486,518.4472 113.237,517.1476 107.1456,499.3451 C87.2773,516.6531 71.2954,510.0544 61.5,487.7407 C64.4169,487.6447 65.2086,489.955 63.8063,492.1289 C47.0167,481.5823 47.0081,469.4785 62.489,457.6972 C46.8227,449.2319 44.0299,433.9223 61.3286,424.3113 C45.7591,414.3663 48.1168,401.6941 63.7511,394.265 C49.4363,386.6674 48.0585,375.3257 61.7174,365.7342 C44.1464,355.1932 41.8399,340.4657 61.2843,329.4824 C45.7916,321.2195 46.6627,306.7612 60.44,297.7203 C44.772,289.0309 44.8676,277.9099 58.6574,267.4838 C45.0478,256.4996 41.3722,242.4354 60.4898,233.2005 C44.6956,222.8284 47.6406,213.4077 59.9049,202.501 C46.7779,194.25 45.5781,181.0694 61.395,174.3504 C42.3155,162.2872 44.8809,151.1274 61.6749,139.351 C42.4205,128.4678 41.912,117.4718 60.2842,105.0626 C49.7961,96.031 50.9146,82.7613 64.2752,77.138 C44.2276,60.7251 48.0916,46.2152 68.5,33.7407 C71.2625,33.051 72.4004,34.3428 71.9077,37.0278 " fill="#FFFFFF" filter="url(#f1r2hro9w3ferw)" style="stroke:#000000;stroke-width:1.5;"/><text fill="#000000" font-family="sans-serif" font-size="14" font-weight="bold" lengthAdjust="spacing" textLength="72" x="175.5" y="51.7358">AWS VPC</text><!--MD5=[92d3238ea4bfd3a5f1b1bfed64127829]
cluster EC2 instance--><polygon fill="#FFFFFF" filter="url(#f1r2hro9w3ferw)" points="77.5,78.7407,87.5,68.7407,345.5,68.7407,345.5,468.7407,335.5,478.7407,77.5,478.7407,77.5,78.7407" style="stroke:#000000;stroke-width:1.5;"/><line style="stroke:#000000;stroke-width:1.5;" x1="335.5" x2="345.5" y1="78.7407" y2="68.7407"/><line style="stroke:#000000;stroke-width:1.5;" x1="77.5" x2="335.5" y1="78.7407" y2="78.7407"/><line style="stroke:#000000;stroke-width:1.5;" x1="335.5" x2="335.5" y1="78.7407" y2="478.7407"/><text fill="#000000" font-family="sans-serif" font-size="14" font-weight="bold" lengthAdjust="spacing" textLength="104" x="155.5" y="94.7358">EC2 instance</text><!--MD5=[dd9c856f1f895b615b18709bc087a7ee]
cluster Node server--><rect fill="#FFFFFF" filter="url(#f1r2hro9w3ferw)" height="90" style="stroke:#000000;stroke-width:1.5;" width="128" x="124.5" y="116.7407"/><text fill="#000000" font-family="sans-serif" font-size="14" font-weight="bold" lengthAdjust="spacing" textLength="95" x="141" y="131.7358">Node server</text><!--MD5=[2b81a4f0dde58f64175bd85480babfd4]
cluster docker-compose--><rect fill="#FFFFFF" height="224" style="stroke:none;stroke-width:1.5;" width="190" x="116.5" y="230.7407"/><path d="M101.5,230.7407 L116.5,230.7407 L116.5,454.7407 L306.5,454.7407 L306.5,230.7407 L321.5,230.7407 " fill="none" filter="url(#f1r2hro9w3ferw)" style="stroke:#000000;stroke-width:1.5;"/><text fill="#000000" font-family="sans-serif" font-size="14" font-weight="bold" lengthAdjust="spacing" textLength="132" x="145.5" y="256.7358">docker-compose</text><!--MD5=[0d778b63c6b13f16489ecabdd5b86e2a]
cluster d2--><rect fill="#FFFFFF" filter="url(#f1r2hro9w3ferw)" height="157" style="stroke:#000000;stroke-width:1.5;" width="172" x="125.5" y="273.7407"/><text fill="#000000" font-family="sans-serif" font-size="14" font-weight="bold" lengthAdjust="spacing" textLength="138" x="142.5" y="288.7358">Docker container</text><!--MD5=[37bcb1ca240264b4a3abb5ae9aaad17e]
cluster JVM--><rect fill="#FFFFFF" filter="url(#f1r2hro9w3ferw)" height="90" style="stroke:#000000;stroke-width:1.5;" width="124" x="149.5" y="316.7407"/><text fill="#000000" font-family="sans-serif" font-size="14" font-weight="bold" lengthAdjust="spacing" textLength="30" x="196.5" y="331.7358">JVM</text><!--MD5=[8f89c3b771be60a8fe1c771d5b27a045]
entity f--><rect fill="#FEFECE" filter="url(#f1r2hro9w3ferw)" height="39.2969" style="stroke:#000000;stroke-width:1.5;" width="96" x="140.5" y="151.7407"/><polygon fill="#FEFECE" points="219.5,156.7407,219.5,170.7407,231.5,170.7407,231.5,162.7407,225.5,156.7407,219.5,156.7407" style="stroke:#000000;stroke-width:1.5;"/><line style="stroke:#000000;stroke-width:1.5;" x1="225.5" x2="225.5" y1="156.7407" y2="162.7407"/><line style="stroke:#000000;stroke-width:1.5;" x1="231.5" x2="225.5" y1="162.7407" y2="162.7407"/><text fill="#000000" font-family="sans-serif" font-size="14" lengthAdjust="spacing" textLength="66" x="150.5" y="177.7358">Frontend</text><!--MD5=[5d12e840fb55afd9ed7b3559a638e8f7]
entity b--><rect fill="#FEFECE" filter="url(#f1r2hro9w3ferw)" height="39.2969" style="stroke:#000000;stroke-width:1.5;" width="92" x="165.5" y="351.7407"/><polygon fill="#FEFECE" points="240.5,356.7407,240.5,370.7407,252.5,370.7407,252.5,362.7407,246.5,356.7407,240.5,356.7407" style="stroke:#000000;stroke-width:1.5;"/><line style="stroke:#000000;stroke-width:1.5;" x1="246.5" x2="246.5" y1="356.7407" y2="362.7407"/><line style="stroke:#000000;stroke-width:1.5;" x1="252.5" x2="246.5" y1="362.7407" y2="362.7407"/><text fill="#000000" font-family="sans-serif" font-size="14" lengthAdjust="spacing" textLength="62" x="175.5" y="377.7358">Backend</text><!--MD5=[7d46d6cd919e02e6168a09ad91eae8b4]
entity u--><ellipse cx="21.5" cy="140.2407" fill="#FEFECE" filter="url(#f1r2hro9w3ferw)" rx="8" ry="8" style="stroke:#A80036;stroke-width:1.5;"/><path d="M21.5,148.2407 L21.5,175.2407 M8.5,156.2407 L34.5,156.2407 M21.5,175.2407 L8.5,190.2407 M21.5,175.2407 L34.5,190.2407 " fill="none" filter="url(#f1r2hro9w3ferw)" style="stroke:#A80036;stroke-width:1.5;"/><text fill="#000000" font-family="sans-serif" font-size="14" lengthAdjust="spacing" textLength="31" x="6" y="208.7358">User</text><!--MD5=[23028308107397a9d06885933acc5b97]
link f to b--><path d="M190.664,190.8677 C194.859,226.9837 204.093,306.4767 208.729,346.3897 " fill="none" id="f-to-b" style="stroke:#A80036;stroke-width:1.0;"/><polygon fill="#A80036" points="209.325,351.5187,212.2595,342.1172,208.7479,346.5521,204.313,343.0405,209.325,351.5187" style="stroke:#A80036;stroke-width:1.0;"/><!--MD5=[46b61569db4b5c872f694cb309bf8b0f]
link u to f--><path d="M37.1562,171.2407 C69.7974,171.2407 102.4385,171.2407 135.08,171.2407 " fill="none" id="u-to-f" style="stroke:#A80036;stroke-width:1.0;"/><polygon fill="#A80036" points="140.318,171.2407,131.318,167.2407,135.318,171.2407,131.318,175.2407,140.318,171.2407" style="stroke:#A80036;stroke-width:1.0;"/><!--MD5=[eb99b345a8e802e6c9d703ef36b0afd3]
@startuml
actor "User" as u

cloud "AWS VPC" {
    node "EC2 instance" {
      rectangle "Node server" {
        artifact "Frontend" as f
      }
        stack "docker-compose" {
            rectangle "Docker container" as d2 {
                rectangle "JVM" {
                    artifact "Backend" as b
                }
            }
        }
        f -down-> b
    }
}

u -right-> f
@enduml

PlantUML version 1.2021.17beta10(Unknown compile time)
(GPL source distribution)
Java Runtime: Java(TM) SE Runtime Environment
JVM: Java HotSpot(TM) 64-Bit Server VM
Default Encoding: UTF-8
Language: en
Country: US
--></g></svg>