<?xml version="1.0" encoding="UTF-8" standalone="no"?>
<svg xmlns="http://www.w3.org/2000/svg" xmlns:xlink="http://www.w3.org/1999/xlink" contentScriptType="application/ecmascript" contentStyleType="text/css" height="801px" preserveAspectRatio="none" style="width:547px;height:801px;background:#FFFFFF;" version="1.1" viewBox="0 0 547 801" width="547px" zoomAndPan="magnify"><defs><filter height="300%" id="f1uzw0yitrfuls" width="300%" x="-1" y="-1"><feGaussianBlur result="blurOut" stdDeviation="2.0"/><feColorMatrix in="blurOut" result="blurOut2" type="matrix" values="0 0 0 0 0 0 0 0 0 0 0 0 0 0 0 0 0 0 .4 0"/><feOffset dx="4.0" dy="4.0" in="blurOut2" result="blurOut3"/><feBlend in="SourceGraphic" in2="blurOut3" mode="normal"/></filter></defs><g><!--MD5=[0200d2478479e31c355c635ce9e90e83]
cluster AWS VPC--><path d="M41.5266,40.9745 C57.4669,9.0382 88.099,7.1 104.4869,40.5434 C113.6838,10.8993 136.3387,7.0906 155.1647,31.5188 C172.389,6 198.2663,14.1019 209.4148,38.1664 C227.0246,15.1475 242.7919,14.6996 261.7194,36.6333 C279.0003,15.1921 298.3904,9.3677 315.0012,37.3556 C333.3524,7.5146 351.4246,11.5544 370.7865,36.3232 C388.2892,9.0861 411.5832,13.127 424.2319,41.0281 C439.9559,9.8616 469.9502,7.8708 485.3232,41.3598 C486.7172,41.0568 487.4616,41.3693 487.3359,42.9681 C511.8981,54.9777 520.6396,79.7574 493.114,97.3059 C516.7615,114.6514 512.8318,131.0103 489.1967,144.425 C513.9084,158.5653 513.9182,182.0925 487.6162,194.6267 C511.1674,208.7635 517.8847,226.7424 491.6085,244.8407 C514.8891,260.9304 515.5436,280.7163 493.6522,298.5256 C519.7511,310.7032 518.3565,331.6658 495.7389,345.9854 C521.9776,362.8049 518.6526,379.0281 495.1206,395.2226 C513.8629,412.9127 512.9972,431.6022 489.0411,443.9668 C513.9151,454.7556 515.1943,478.1255 496.0984,494.9954 C516.0532,510.6163 516.6367,534.3779 489.1779,543.1906 C513.86,555.111 518.7076,577.0345 493.9597,593.64 C514.6953,612.1288 515.8774,632.5002 488.3303,645.7756 C514.4182,653.9274 515.1622,676.9255 494.9099,691.7144 C516.7178,719.1549 509.5215,736.4404 478.3232,748.3598 C483.1974,745.6492 486.7454,748.1405 486.4896,753.5311 C467.4292,780.5439 449.9842,784.2088 429.2004,755.2965 C413.2531,778.3117 392.6179,778.0849 376.2515,755.7863 C365.5761,782.1699 340.6033,784.7156 321.9469,765.2363 C306.3118,791.6474 281.0478,790.9455 263.8515,767.0388 C242.5811,794.4005 225.3852,794.6517 207.171,764.0502 C186.7989,786.1789 164.4284,781.7834 152.3388,754.8025 C138.0293,783.3884 115.1976,784.6497 96.5828,759.2488 C69.5086,784.2456 43.3363,779.2214 34.3232,741.3598 C38.2262,739.6246 41.081,742.2711 40.7761,746.175 C19.1693,733.602 19.3034,710.1831 42.3472,699.1002 C16.9514,687.7744 12.6918,666.9235 35.186,648.7821 C6,634.4735 7.4866,609.8701 33.9742,594.3228 C16.2148,580.062 14.0873,558.6459 38.3668,548.4068 C13.1504,535.6647 9.8875,509.7278 36.9649,495.5975 C12.2236,481.5594 12.168,461.0378 35.436,445.5335 C10.287,431.2997 11.5824,406.5587 37.0407,393.8977 C14.6621,380.4547 13.4101,358.9882 36.0039,344.5993 C17.5661,331.1825 13.451,314.9624 34.3766,300.106 C9.6165,278.8081 10.0079,259.6902 39.0511,242.7795 C15.7941,230.0949 14.9421,208.8303 37.1761,194.3831 C17.9277,181.8775 14.0482,160.7267 36.4618,147.5852 C12.7816,131.7838 11.5913,104.9408 41.2684,93.9184 C10.2434,74.1562 13.4826,54.0678 41.3232,34.3598 C44.7916,35.9381 44.5786,39.1957 41.5266,40.9745 " fill="#FFFFFF" filter="url(#f1uzw0yitrfuls)" style="stroke:#000000;stroke-width:1.5;"/><text fill="#000000" font-family="sans-serif" font-size="14" font-weight="bold" lengthAdjust="spacing" textLength="72" x="223.8232" y="52.3549">AWS VPC</text><!--MD5=[92d3238ea4bfd3a5f1b1bfed64127829]
cluster EC2 instance--><polygon fill="#FFFFFF" filter="url(#f1uzw0yitrfuls)" points="50.3232,79.3598,60.3232,69.3598,469.3232,69.3598,469.3232,722.3598,459.3232,732.3598,50.3232,732.3598,50.3232,79.3598" style="stroke:#000000;stroke-width:1.5;"/><line style="stroke:#000000;stroke-width:1.5;" x1="459.3232" x2="469.3232" y1="79.3598" y2="69.3598"/><line style="stroke:#000000;stroke-width:1.5;" x1="50.3232" x2="459.3232" y1="79.3598" y2="79.3598"/><line style="stroke:#000000;stroke-width:1.5;" x1="459.3232" x2="459.3232" y1="79.3598" y2="732.3598"/><text fill="#000000" font-family="sans-serif" font-size="14" font-weight="bold" lengthAdjust="spacing" textLength="104" x="203.8232" y="95.3549">EC2 instance</text><!--MD5=[2b81a4f0dde58f64175bd85480babfd4]
cluster docker-compose--><rect fill="#FFFFFF" height="525" style="stroke:none;stroke-width:1.5;" width="341" x="89.3232" y="117.3598"/><path d="M74.3232,117.3598 L89.3232,117.3598 L89.3232,642.3598 L430.3232,642.3598 L430.3232,117.3598 L445.3232,117.3598 " fill="none" filter="url(#f1uzw0yitrfuls)" style="stroke:#000000;stroke-width:1.5;"/><text fill="#000000" font-family="sans-serif" font-size="14" font-weight="bold" lengthAdjust="spacing" textLength="132" x="193.8232" y="143.3549">docker-compose</text><!--MD5=[c62417b3667b672f263bb943042d915b]
cluster d1--><rect fill="#FFFFFF" filter="url(#f1uzw0yitrfuls)" height="157" style="stroke:#000000;stroke-width:1.5;" width="176" x="245.3232" y="160.3598"/><text fill="#000000" font-family="sans-serif" font-size="14" font-weight="bold" lengthAdjust="spacing" textLength="138" x="264.3232" y="175.3549">Docker container</text><!--MD5=[dd9c856f1f895b615b18709bc087a7ee]
cluster Node server--><rect fill="#FFFFFF" filter="url(#f1uzw0yitrfuls)" height="90" style="stroke:#000000;stroke-width:1.5;" width="128" x="269.3232" y="203.3598"/><text fill="#000000" font-family="sans-serif" font-size="14" font-weight="bold" lengthAdjust="spacing" textLength="95" x="285.8232" y="218.3549">Node server</text><!--MD5=[0d778b63c6b13f16489ecabdd5b86e2a]
cluster d2--><rect fill="#FFFFFF" filter="url(#f1uzw0yitrfuls)" height="157" style="stroke:#000000;stroke-width:1.5;" width="172" x="248.3232" y="341.3598"/><text fill="#000000" font-family="sans-serif" font-size="14" font-weight="bold" lengthAdjust="spacing" textLength="138" x="265.3232" y="356.3549">Docker container</text><!--MD5=[37bcb1ca240264b4a3abb5ae9aaad17e]
cluster JVM--><rect fill="#FFFFFF" filter="url(#f1uzw0yitrfuls)" height="90" style="stroke:#000000;stroke-width:1.5;" width="124" x="272.3232" y="384.3598"/><text fill="#000000" font-family="sans-serif" font-size="14" font-weight="bold" lengthAdjust="spacing" textLength="30" x="319.3232" y="399.3549">JVM</text><!--MD5=[4986f6fbcce848c8e3189a00b163028b]
cluster d3--><rect fill="#FFFFFF" filter="url(#f1uzw0yitrfuls)" height="96" style="stroke:#000000;stroke-width:1.5;" width="323" x="98.3232" y="522.3598"/><text fill="#000000" font-family="sans-serif" font-size="14" font-weight="bold" lengthAdjust="spacing" textLength="138" x="190.8232" y="537.3549">Docker container</text><!--MD5=[43bcaead8f28996b84bf96da3b5e73d0]
entity pvf--><polygon fill="#FEFECE" filter="url(#f1uzw0yitrfuls)" points="109.8232,662.3598,155.8232,662.3598,162.8232,683.3598,270.8232,683.3598,270.8232,716.6566,109.8232,716.6566,109.8232,662.3598" style="stroke:#000000;stroke-width:1.5;"/><line style="stroke:#000000;stroke-width:1.5;" x1="109.8232" x2="162.8232" y1="683.3598" y2="683.3598"/><text fill="#000000" font-family="sans-serif" font-size="14" lengthAdjust="spacing" textLength="131" x="119.8232" y="703.3549">persistent volume</text><!--MD5=[8f89c3b771be60a8fe1c771d5b27a045]
entity f--><rect fill="#FEFECE" filter="url(#f1uzw0yitrfuls)" height="39.2969" style="stroke:#000000;stroke-width:1.5;" width="96" x="285.3232" y="238.3598"/><polygon fill="#FEFECE" points="364.3232,243.3598,364.3232,257.3598,376.3232,257.3598,376.3232,249.3598,370.3232,243.3598,364.3232,243.3598" style="stroke:#000000;stroke-width:1.5;"/><line style="stroke:#000000;stroke-width:1.5;" x1="370.3232" x2="370.3232" y1="243.3598" y2="249.3598"/><line style="stroke:#000000;stroke-width:1.5;" x1="376.3232" x2="370.3232" y1="249.3598" y2="249.3598"/><text fill="#000000" font-family="sans-serif" font-size="14" lengthAdjust="spacing" textLength="66" x="295.3232" y="264.3549">Frontend</text><!--MD5=[5d12e840fb55afd9ed7b3559a638e8f7]
entity b--><rect fill="#FEFECE" filter="url(#f1uzw0yitrfuls)" height="39.2969" style="stroke:#000000;stroke-width:1.5;" width="92" x="288.3232" y="419.3598"/><polygon fill="#FEFECE" points="363.3232,424.3598,363.3232,438.3598,375.3232,438.3598,375.3232,430.3598,369.3232,424.3598,363.3232,424.3598" style="stroke:#000000;stroke-width:1.5;"/><line style="stroke:#000000;stroke-width:1.5;" x1="369.3232" x2="369.3232" y1="424.3598" y2="430.3598"/><line style="stroke:#000000;stroke-width:1.5;" x1="375.3232" x2="369.3232" y1="430.3598" y2="430.3598"/><text fill="#000000" font-family="sans-serif" font-size="14" lengthAdjust="spacing" textLength="62" x="298.3232" y="445.3549">Backend</text><!--MD5=[7468467f3b6b392f1d176d828c753b77]
entity db--><path d="M301.3232,567.3598 C301.3232,557.3598 353.3232,557.3598 353.3232,557.3598 C353.3232,557.3598 405.3232,557.3598 405.3232,567.3598 L405.3232,592.6566 C405.3232,602.6566 353.3232,602.6566 353.3232,602.6566 C353.3232,602.6566 301.3232,602.6566 301.3232,592.6566 L301.3232,567.3598 " fill="#FEFECE" filter="url(#f1uzw0yitrfuls)" style="stroke:#000000;stroke-width:1.5;"/><path d="M301.3232,567.3598 C301.3232,577.3598 353.3232,577.3598 353.3232,577.3598 C353.3232,577.3598 405.3232,577.3598 405.3232,567.3598 " fill="none" style="stroke:#000000;stroke-width:1.5;"/><text fill="#000000" font-family="sans-serif" font-size="14" lengthAdjust="spacing" textLength="84" x="311.3232" y="594.3549">PostgreSQL</text><!--MD5=[ff7cd607ad67bf09180f35fad2371073]
entity pv--><rect fill="#FEFECE" filter="url(#f1uzw0yitrfuls)" height="36.2969" rx="35" ry="35" style="stroke:#000000;stroke-width:1.5;" width="151" x="114.8232" y="561.8598"/><text fill="#000000" font-family="sans-serif" font-size="14" lengthAdjust="spacing" textLength="131" x="124.8232" y="584.8549">persistent volume</text><!--MD5=[7d46d6cd919e02e6168a09ad91eae8b4]
entity u--><ellipse cx="525.3232" cy="226.8598" fill="#FEFECE" filter="url(#f1uzw0yitrfuls)" rx="8" ry="8" style="stroke:#A80036;stroke-width:1.5;"/><path d="M525.3232,234.8598 L525.3232,261.8598 M512.3232,242.8598 L538.3232,242.8598 M525.3232,261.8598 L512.3232,276.8598 M525.3232,261.8598 L538.3232,276.8598 " fill="none" filter="url(#f1uzw0yitrfuls)" style="stroke:#A80036;stroke-width:1.5;"/><text fill="#000000" font-family="sans-serif" font-size="14" lengthAdjust="spacing" textLength="31" x="509.8232" y="295.3549">User</text><!--MD5=[1e7dfc03f0c4b0e4e8d37253309f5e1a]
link pv to db--><path d="M266.0932,579.8598 C277.7912,579.8598 289.4902,579.8598 301.1892,579.8598 " fill="none" id="pv-db" style="stroke:#A80036;stroke-width:1.0;"/><ellipse cx="283.6408" cy="579.8598" fill="#FFFFFF" rx="10" ry="10" style="stroke:#FFFFFF;stroke-width:1.0;"/><path d="M290.7119,586.9308 A10,10 0 0 0 290.7119 572.7887" style="stroke:#A80036;stroke-width:1.5;fill:none;"/><path d="M276.5698,572.7887 A10,10 0 0 0 276.5698 586.9308" style="stroke:#A80036;stroke-width:1.5;fill:none;"/><ellipse cx="283.6408" cy="579.8598" fill="#FFFFFF" rx="6" ry="6" style="stroke:#A80036;stroke-width:1.5;"/><!--MD5=[23028308107397a9d06885933acc5b97]
link f to b--><path d="M333.4282,277.6778 C333.6122,310.5298 333.9902,378.2668 334.1912,414.2268 " fill="none" id="f-to-b" style="stroke:#A80036;stroke-width:1.0;"/><polygon fill="#A80036" points="334.2192,419.2938,338.1703,410.2722,334.1921,414.2938,330.1704,410.3156,334.2192,419.2938" style="stroke:#A80036;stroke-width:1.0;"/><!--MD5=[1af955627fe5c01d640c23f947c88812]
link b to db--><path d="M336.8852,458.6058 C340.1712,482.6438 345.8912,524.4908 349.6422,551.9328 " fill="none" id="b-to-db" style="stroke:#A80036;stroke-width:1.0;"/><polygon fill="#A80036" points="350.3652,557.2198,353.1096,547.761,349.6881,552.2658,345.1833,548.8443,350.3652,557.2198" style="stroke:#A80036;stroke-width:1.0;"/><!--MD5=[4b34d629b832c988ce925edf64f64cd5]
link pv to pvf--><path d="M190.3232,598.1318 C190.3232,615.4618 190.3232,642.3718 190.3232,662.2988 " fill="none" id="pv-pvf" style="stroke:#A80036;stroke-width:1.0;stroke-dasharray:7.0,7.0;"/><!--MD5=[46b61569db4b5c872f694cb309bf8b0f]
link u to f--><path d="M509.6142,257.8598 C468.8072,257.8598 428.0012,257.8598 387.1942,257.8598 " fill="none" id="u-to-f" style="stroke:#A80036;stroke-width:1.0;"/><polygon fill="#A80036" points="381.6982,257.8598,390.6982,261.8598,386.6982,257.8598,390.6982,253.8598,381.6982,257.8598" style="stroke:#A80036;stroke-width:1.0;"/><!--MD5=[eb5c19911bf1c1a0e9c48a1d738f3d97]
@startuml
actor "User" as u

cloud "AWS VPC" {
    node "EC2 instance" {
        stack "docker-compose" {
            rectangle "Docker container" as d1 {
                rectangle "Node server" {
                    artifact "Frontend" as f
                }
            }
            rectangle "Docker container" as d2 {
                rectangle "JVM" {
                    artifact "Backend" as b
                }
            }
            rectangle "Docker container" as d3 {
                database "PostgreSQL" as db
                storage "persistent volume" as pv
                db -left(0)- pv
            }
            f -down-> b
            b -down-> db
        }
        folder "persistent volume" as pvf
        pv .down. pvf
    }
}

u -right-> f
@enduml

PlantUML version 1.2021.16beta3(Unknown compile time)
(GPL source distribution)
Java Runtime: Java(TM) SE Runtime Environment
JVM: Java HotSpot(TM) 64-Bit Server VM
Default Encoding: UTF-8
Language: en
Country: US
--></g></svg>