<?xml version="1.0" encoding="UTF-8" standalone="no"?>
<svg xmlns="http://www.w3.org/2000/svg" xmlns:xlink="http://www.w3.org/1999/xlink" contentScriptType="application/ecmascript" contentStyleType="text/css" height="1165px" preserveAspectRatio="none" style="width:1943px;height:1165px;background:#FFFFFF;" version="1.1" viewBox="0 0 1943 1165" width="1943px" zoomAndPan="magnify"><defs/><g><rect fill="#FEFECE" height="1146.1328" style="stroke:#A80036;stroke-width:1.0;" width="152" x="546.5" y="6"/><text fill="#000000" font-family="sans-serif" font-size="13" font-weight="bold" lengthAdjust="spacing" textLength="146" x="549.5" y="18.0669">Presentation Layer</text><rect fill="#F4A460" height="1146.1328" style="stroke:#A80036;stroke-width:1.0;" width="480.5" x="850" y="6"/><text fill="#000000" font-family="sans-serif" font-size="13" font-weight="bold" lengthAdjust="spacing" textLength="130" x="1025.25" y="18.0669">Application Layer</text><rect fill="#87CEEB" height="1146.1328" style="stroke:#A80036;stroke-width:1.0;" width="573" x="1352.5" y="6"/><text fill="#000000" font-family="sans-serif" font-size="13" font-weight="bold" lengthAdjust="spacing" textLength="135" x="1571.5" y="18.0669">Persistence Layer</text><rect fill="#FFFFFF" height="373.2891" style="stroke:#A80036;stroke-width:1.0;" width="10" x="362" y="118.5625"/><rect fill="#FFFFFF" height="576.0156" style="stroke:#A80036;stroke-width:1.0;" width="10" x="362" y="564.1172"/><rect fill="#FFFFFF" height="214.7266" style="stroke:#A80036;stroke-width:1.0;" width="10" x="617.5" y="263.125"/><rect fill="#FFFFFF" height="172.5938" style="stroke:#A80036;stroke-width:1.0;" width="10" x="617.5" y="593.25"/><rect fill="#FFFFFF" height="331.1563" style="stroke:#A80036;stroke-width:1.0;" width="10" x="617.5" y="794.9766"/><rect fill="#FFFFFF" height="161.5938" style="stroke:#A80036;stroke-width:1.0;" width="10" x="906" y="302.2578"/><rect fill="#FFFFFF" height="278.0234" style="stroke:#A80036;stroke-width:1.0;" width="10" x="1056.5" y="834.1094"/><rect fill="#FFFFFF" height="119.4609" style="stroke:#A80036;stroke-width:1.0;" width="10" x="1250.5" y="632.3828"/><rect fill="#FFFFFF" height="57.1328" style="stroke:#A80036;stroke-width:1.0;" width="10" x="1250.5" y="882.4063"/><line style="stroke:#A80036;stroke-width:1.0;stroke-dasharray:5.0,5.0;" x1="43" x2="43" y1="87.4297" y2="1158.1328"/><line style="stroke:#A80036;stroke-width:1.0;stroke-dasharray:5.0,5.0;" x1="367" x2="367" y1="87.4297" y2="1158.1328"/><line style="stroke:#A80036;stroke-width:1.0;stroke-dasharray:5.0,5.0;" x1="622" x2="622" y1="208.8438" y2="1158.1328"/><line style="stroke:#A80036;stroke-width:1.0;stroke-dasharray:5.0,5.0;" x1="911" x2="911" y1="310.2734" y2="1158.1328"/><line style="stroke:#A80036;stroke-width:1.0;stroke-dasharray:5.0,5.0;" x1="1061" x2="1061" y1="842.125" y2="1158.1328"/><line style="stroke:#A80036;stroke-width:1.0;stroke-dasharray:5.0,5.0;" x1="1255.5" x2="1255.5" y1="640.3984" y2="1158.1328"/><line style="stroke:#A80036;stroke-width:1.0;stroke-dasharray:5.0,5.0;" x1="1410.5" x2="1410.5" y1="417.7031" y2="1158.1328"/><line style="stroke:#A80036;stroke-width:1.0;stroke-dasharray:5.0,5.0;" x1="1543.5" x2="1543.5" y1="705.6953" y2="1158.1328"/><line style="stroke:#A80036;stroke-width:1.0;stroke-dasharray:5.0,5.0;" x1="1703.5" x2="1703.5" y1="993.6875" y2="1158.1328"/><line style="stroke:#A80036;stroke-width:1.0;stroke-dasharray:5.0,5.0;" x1="1857.5" x2="1857.5" y1="1079.9844" y2="1158.1328"/><text fill="#000000" font-family="sans-serif" font-size="14" lengthAdjust="spacing" textLength="70" x="5" y="84.1279">Customer</text><ellipse cx="43" cy="18.1328" fill="#FEFECE" rx="8" ry="8" style="stroke:#A80036;stroke-width:2.0;"/><path d="M43,26.1328 L43,53.1328 M30,34.1328 L56,34.1328 M43,53.1328 L30,68.1328 M43,53.1328 L56,68.1328 " fill="none" style="stroke:#A80036;stroke-width:2.0;"/><text fill="#000000" font-family="sans-serif" font-size="14" lengthAdjust="spacing" textLength="100" x="314" y="84.1279">Administrator</text><ellipse cx="367" cy="18.1328" fill="#FEFECE" rx="8" ry="8" style="stroke:#A80036;stroke-width:2.0;"/><path d="M367,26.1328 L367,53.1328 M354,34.1328 L380,34.1328 M367,53.1328 L354,68.1328 M367,53.1328 L380,68.1328 " fill="none" style="stroke:#A80036;stroke-width:2.0;"/><rect fill="#FFFFFF" height="373.2891" style="stroke:#A80036;stroke-width:1.0;" width="10" x="362" y="118.5625"/><rect fill="#FFFFFF" height="576.0156" style="stroke:#A80036;stroke-width:1.0;" width="10" x="362" y="564.1172"/><rect fill="#FFFFFF" height="214.7266" style="stroke:#A80036;stroke-width:1.0;" width="10" x="617.5" y="263.125"/><rect fill="#FFFFFF" height="172.5938" style="stroke:#A80036;stroke-width:1.0;" width="10" x="617.5" y="593.25"/><rect fill="#FFFFFF" height="331.1563" style="stroke:#A80036;stroke-width:1.0;" width="10" x="617.5" y="794.9766"/><rect fill="#FFFFFF" height="161.5938" style="stroke:#A80036;stroke-width:1.0;" width="10" x="906" y="302.2578"/><rect fill="#FFFFFF" height="278.0234" style="stroke:#A80036;stroke-width:1.0;" width="10" x="1056.5" y="834.1094"/><rect fill="#FFFFFF" height="119.4609" style="stroke:#A80036;stroke-width:1.0;" width="10" x="1250.5" y="632.3828"/><rect fill="#FFFFFF" height="57.1328" style="stroke:#A80036;stroke-width:1.0;" width="10" x="1250.5" y="882.4063"/><polygon fill="#A80036" points="350,114.5625,360,118.5625,350,122.5625" style="stroke:#A80036;stroke-width:1.0;"/><line style="stroke:#A80036;stroke-width:1.0;" x1="43" x2="356" y1="118.5625" y2="118.5625"/><text fill="#000000" font-family="sans-serif" font-size="13" lengthAdjust="spacing" textLength="300" x="50" y="113.4966">Request adding money to the account balance</text><rect fill="#EEEEEE" height="3" style="stroke:#EEEEEE;stroke-width:1.0;" width="1936.5" x="0" y="147.1289"/><line style="stroke:#000000;stroke-width:1.0;" x1="0" x2="1936.5" y1="147.1289" y2="147.1289"/><line style="stroke:#000000;stroke-width:1.0;" x1="0" x2="1936.5" y1="150.1289" y2="150.1289"/><rect fill="#EEEEEE" height="23.1328" style="stroke:#000000;stroke-width:2.0;" width="172" x="882.25" y="136.5625"/><text fill="#000000" font-family="sans-serif" font-size="13" font-weight="bold" lengthAdjust="spacing" textLength="153" x="888.25" y="152.6294">Administrator log in</text><polygon fill="#A80036" points="563,186.8281,573,190.8281,563,194.8281" style="stroke:#A80036;stroke-width:1.0;"/><line style="stroke:#A80036;stroke-width:1.0;" x1="372" x2="569" y1="190.8281" y2="190.8281"/><text fill="#000000" font-family="sans-serif" font-size="13" lengthAdjust="spacing" textLength="117" x="379" y="185.7622">Open admin panel</text><text fill="#000000" font-family="sans-serif" font-size="14" lengthAdjust="spacing" textLength="89" x="575" y="214.6904">Admin Panel</text><path d="M602,173.6953 L602,197.6953 M602,185.6953 L619,185.6953 " fill="none" style="stroke:#A80036;stroke-width:2.0;"/><ellipse cx="631" cy="185.6953" fill="#FEFECE" rx="12" ry="12" style="stroke:#A80036;stroke-width:2.0;"/><polygon fill="#A80036" points="383,229.9922,373,233.9922,383,237.9922" style="stroke:#A80036;stroke-width:1.0;"/><line style="stroke:#A80036;stroke-width:1.0;stroke-dasharray:2.0,2.0;" x1="377" x2="621.5" y1="233.9922" y2="233.9922"/><polygon fill="#A80036" points="605.5,259.125,615.5,263.125,605.5,267.125" style="stroke:#A80036;stroke-width:1.0;"/><line style="stroke:#A80036;stroke-width:1.0;" x1="372" x2="611.5" y1="263.125" y2="263.125"/><text fill="#000000" font-family="sans-serif" font-size="13" lengthAdjust="spacing" textLength="38" x="379" y="258.0591">Log in</text><polygon fill="#A80036" points="842,288.2578,852,292.2578,842,296.2578" style="stroke:#A80036;stroke-width:1.0;"/><line style="stroke:#A80036;stroke-width:1.0;" x1="627.5" x2="848" y1="292.2578" y2="292.2578"/><text fill="#000000" font-family="sans-serif" font-size="13" lengthAdjust="spacing" textLength="178" x="634.5" y="287.1919">Administrator log in request</text><text fill="#000000" font-family="sans-serif" font-size="14" lengthAdjust="spacing" textLength="108" x="854" y="316.1201">User Controller</text><ellipse cx="911" cy="287.125" fill="#FEFECE" rx="12" ry="12" style="stroke:#A80036;stroke-width:2.0;"/><polygon fill="#A80036" points="907,275.125,913,270.125,911,275.125,913,280.125,907,275.125" style="stroke:#A80036;stroke-width:1.0;"/><line style="stroke:#A80036;stroke-width:1.0;" x1="916" x2="958" y1="350.5547" y2="350.5547"/><line style="stroke:#A80036;stroke-width:1.0;" x1="958" x2="958" y1="350.5547" y2="363.5547"/><line style="stroke:#A80036;stroke-width:1.0;" x1="917" x2="958" y1="363.5547" y2="363.5547"/><polygon fill="#A80036" points="927,359.5547,917,363.5547,927,367.5547" style="stroke:#A80036;stroke-width:1.0;"/><text fill="#000000" font-family="sans-serif" font-size="13" lengthAdjust="spacing" textLength="126" x="923" y="345.4888">Validate credentials</text><polygon fill="#A80036" points="1344.5,388.6875,1354.5,392.6875,1344.5,396.6875" style="stroke:#A80036;stroke-width:1.0;"/><line style="stroke:#A80036;stroke-width:1.0;" x1="916" x2="1350.5" y1="392.6875" y2="392.6875"/><text fill="#000000" font-family="sans-serif" font-size="13" lengthAdjust="spacing" textLength="159" x="923" y="387.6216">Check for user existence</text><text fill="#000000" font-family="sans-serif" font-size="14" lengthAdjust="spacing" textLength="103" x="1356.5" y="430.5498">User Database</text><path d="M1393,381.5547 C1393,371.5547 1411,371.5547 1411,371.5547 C1411,371.5547 1429,371.5547 1429,381.5547 L1429,407.5547 C1429,417.5547 1411,417.5547 1411,417.5547 C1411,417.5547 1393,417.5547 1393,407.5547 L1393,381.5547 " fill="#FEFECE" style="stroke:#000000;stroke-width:1.5;"/><path d="M1393,381.5547 C1393,391.5547 1411,391.5547 1411,391.5547 C1411,391.5547 1429,391.5547 1429,381.5547 " fill="none" style="stroke:#000000;stroke-width:1.5;"/><polygon fill="#A80036" points="927,445.8516,917,449.8516,927,453.8516" style="stroke:#A80036;stroke-width:1.0;"/><line style="stroke:#A80036;stroke-width:1.0;stroke-dasharray:2.0,2.0;" x1="921" x2="1410" y1="449.8516" y2="449.8516"/><polygon fill="#A80036" points="638.5,459.8516,628.5,463.8516,638.5,467.8516" style="stroke:#A80036;stroke-width:1.0;"/><line style="stroke:#A80036;stroke-width:1.0;stroke-dasharray:2.0,2.0;" x1="632.5" x2="910" y1="463.8516" y2="463.8516"/><polygon fill="#A80036" points="383,473.8516,373,477.8516,383,481.8516" style="stroke:#A80036;stroke-width:1.0;"/><line style="stroke:#A80036;stroke-width:1.0;stroke-dasharray:2.0,2.0;" x1="377" x2="621.5" y1="477.8516" y2="477.8516"/><polygon fill="#A80036" points="54,487.8516,44,491.8516,54,495.8516" style="stroke:#A80036;stroke-width:1.0;"/><line style="stroke:#A80036;stroke-width:1.0;stroke-dasharray:2.0,2.0;" x1="48" x2="366" y1="491.8516" y2="491.8516"/><rect fill="#EEEEEE" height="3" style="stroke:#EEEEEE;stroke-width:1.0;" width="1936.5" x="0" y="520.418"/><line style="stroke:#000000;stroke-width:1.0;" x1="0" x2="1936.5" y1="520.418" y2="520.418"/><line style="stroke:#000000;stroke-width:1.0;" x1="0" x2="1936.5" y1="523.418" y2="523.418"/><rect fill="#EEEEEE" height="23.1328" style="stroke:#000000;stroke-width:2.0;" width="124" x="906.25" y="509.8516"/><text fill="#000000" font-family="sans-serif" font-size="13" font-weight="bold" lengthAdjust="spacing" textLength="105" x="912.25" y="525.9185">Adding money</text><polygon fill="#A80036" points="350,560.1172,360,564.1172,350,568.1172" style="stroke:#A80036;stroke-width:1.0;"/><line style="stroke:#A80036;stroke-width:1.0;" x1="43" x2="356" y1="564.1172" y2="564.1172"/><text fill="#000000" font-family="sans-serif" font-size="13" lengthAdjust="spacing" textLength="243" x="50" y="559.0513">Provide cash and account information</text><polygon fill="#A80036" points="605.5,589.25,615.5,593.25,605.5,597.25" style="stroke:#A80036;stroke-width:1.0;"/><line style="stroke:#A80036;stroke-width:1.0;" x1="372" x2="611.5" y1="593.25" y2="593.25"/><text fill="#000000" font-family="sans-serif" font-size="13" lengthAdjust="spacing" textLength="202" x="379" y="588.1841">Open Customer's account page</text><polygon fill="#A80036" points="1172.5,618.3828,1182.5,622.3828,1172.5,626.3828" style="stroke:#A80036;stroke-width:1.0;"/><line style="stroke:#A80036;stroke-width:1.0;" x1="627.5" x2="1178.5" y1="622.3828" y2="622.3828"/><text fill="#000000" font-family="sans-serif" font-size="13" lengthAdjust="spacing" textLength="155" x="634.5" y="617.3169">Get Customer's account</text><text fill="#000000" font-family="sans-serif" font-size="14" lengthAdjust="spacing" textLength="136" x="1184.5" y="646.2451">Account Controller</text><ellipse cx="1255.5" cy="617.25" fill="#FEFECE" rx="12" ry="12" style="stroke:#A80036;stroke-width:2.0;"/><polygon fill="#A80036" points="1251.5,605.25,1257.5,600.25,1255.5,605.25,1257.5,610.25,1251.5,605.25" style="stroke:#A80036;stroke-width:1.0;"/><polygon fill="#A80036" points="1463.5,676.6797,1473.5,680.6797,1463.5,684.6797" style="stroke:#A80036;stroke-width:1.0;"/><line style="stroke:#A80036;stroke-width:1.0;" x1="1260.5" x2="1469.5" y1="680.6797" y2="680.6797"/><text fill="#000000" font-family="sans-serif" font-size="13" lengthAdjust="spacing" textLength="155" x="1267.5" y="675.6138">Get Customer's account</text><text fill="#000000" font-family="sans-serif" font-size="14" lengthAdjust="spacing" textLength="131" x="1475.5" y="718.542">Account Database</text><path d="M1526,669.5469 C1526,659.5469 1544,659.5469 1544,659.5469 C1544,659.5469 1562,659.5469 1562,669.5469 L1562,695.5469 C1562,705.5469 1544,705.5469 1544,705.5469 C1544,705.5469 1526,705.5469 1526,695.5469 L1526,669.5469 " fill="#FEFECE" style="stroke:#000000;stroke-width:1.5;"/><path d="M1526,669.5469 C1526,679.5469 1544,679.5469 1544,679.5469 C1544,679.5469 1562,679.5469 1562,669.5469 " fill="none" style="stroke:#000000;stroke-width:1.5;"/><polygon fill="#A80036" points="1271.5,733.8438,1261.5,737.8438,1271.5,741.8438" style="stroke:#A80036;stroke-width:1.0;"/><line style="stroke:#A80036;stroke-width:1.0;stroke-dasharray:2.0,2.0;" x1="1265.5" x2="1543" y1="737.8438" y2="737.8438"/><polygon fill="#A80036" points="638.5,747.8438,628.5,751.8438,638.5,755.8438" style="stroke:#A80036;stroke-width:1.0;"/><line style="stroke:#A80036;stroke-width:1.0;stroke-dasharray:2.0,2.0;" x1="632.5" x2="1254.5" y1="751.8438" y2="751.8438"/><polygon fill="#A80036" points="383,761.8438,373,765.8438,383,769.8438" style="stroke:#A80036;stroke-width:1.0;"/><line style="stroke:#A80036;stroke-width:1.0;stroke-dasharray:2.0,2.0;" x1="377" x2="621.5" y1="765.8438" y2="765.8438"/><polygon fill="#A80036" points="605.5,790.9766,615.5,794.9766,605.5,798.9766" style="stroke:#A80036;stroke-width:1.0;"/><line style="stroke:#A80036;stroke-width:1.0;" x1="372" x2="611.5" y1="794.9766" y2="794.9766"/><text fill="#000000" font-family="sans-serif" font-size="13" lengthAdjust="spacing" textLength="171" x="379" y="789.9106">Add money to the account</text><polygon fill="#A80036" points="966,820.1094,976,824.1094,966,828.1094" style="stroke:#A80036;stroke-width:1.0;"/><line style="stroke:#A80036;stroke-width:1.0;" x1="627.5" x2="972" y1="824.1094" y2="824.1094"/><text fill="#000000" font-family="sans-serif" font-size="13" lengthAdjust="spacing" textLength="167" x="634.5" y="819.0435">Create special transaction</text><text fill="#000000" font-family="sans-serif" font-size="14" lengthAdjust="spacing" textLength="161" x="978" y="847.9717">Transaction Controller</text><ellipse cx="1061.5" cy="818.9766" fill="#FEFECE" rx="12" ry="12" style="stroke:#A80036;stroke-width:2.0;"/><polygon fill="#A80036" points="1057.5,806.9766,1063.5,801.9766,1061.5,806.9766,1063.5,811.9766,1057.5,806.9766" style="stroke:#A80036;stroke-width:1.0;"/><polygon fill="#A80036" points="1238.5,878.4063,1248.5,882.4063,1238.5,886.4063" style="stroke:#A80036;stroke-width:1.0;"/><line style="stroke:#A80036;stroke-width:1.0;" x1="1066.5" x2="1244.5" y1="882.4063" y2="882.4063"/><text fill="#000000" font-family="sans-serif" font-size="13" lengthAdjust="spacing" textLength="165" x="1073.5" y="877.3403">Update account's balance</text><polygon fill="#A80036" points="1532,907.5391,1542,911.5391,1532,915.5391" style="stroke:#A80036;stroke-width:1.0;"/><line style="stroke:#A80036;stroke-width:1.0;" x1="1260.5" x2="1538" y1="911.5391" y2="911.5391"/><text fill="#000000" font-family="sans-serif" font-size="13" lengthAdjust="spacing" textLength="165" x="1267.5" y="906.4731">Update account's balance</text><polygon fill="#A80036" points="1271.5,921.5391,1261.5,925.5391,1271.5,929.5391" style="stroke:#A80036;stroke-width:1.0;"/><line style="stroke:#A80036;stroke-width:1.0;stroke-dasharray:2.0,2.0;" x1="1265.5" x2="1543" y1="925.5391" y2="925.5391"/><polygon fill="#A80036" points="1077.5,935.5391,1067.5,939.5391,1077.5,943.5391" style="stroke:#A80036;stroke-width:1.0;"/><line style="stroke:#A80036;stroke-width:1.0;stroke-dasharray:2.0,2.0;" x1="1071.5" x2="1254.5" y1="939.5391" y2="939.5391"/><polygon fill="#A80036" points="1610.5,964.6719,1620.5,968.6719,1610.5,972.6719" style="stroke:#A80036;stroke-width:1.0;"/><line style="stroke:#A80036;stroke-width:1.0;" x1="1066.5" x2="1616.5" y1="968.6719" y2="968.6719"/><text fill="#000000" font-family="sans-serif" font-size="13" lengthAdjust="spacing" textLength="119" x="1073.5" y="963.606">Create transaction</text><text fill="#000000" font-family="sans-serif" font-size="14" lengthAdjust="spacing" textLength="156" x="1622.5" y="1006.5342">Transaction Database</text><path d="M1685.5,957.5391 C1685.5,947.5391 1703.5,947.5391 1703.5,947.5391 C1703.5,947.5391 1721.5,947.5391 1721.5,957.5391 L1721.5,983.5391 C1721.5,993.5391 1703.5,993.5391 1703.5,993.5391 C1703.5,993.5391 1685.5,993.5391 1685.5,983.5391 L1685.5,957.5391 " fill="#FEFECE" style="stroke:#000000;stroke-width:1.5;"/><path d="M1685.5,957.5391 C1685.5,967.5391 1703.5,967.5391 1703.5,967.5391 C1703.5,967.5391 1721.5,967.5391 1721.5,957.5391 " fill="none" style="stroke:#000000;stroke-width:1.5;"/><polygon fill="#A80036" points="1077.5,1021.8359,1067.5,1025.8359,1077.5,1029.8359" style="stroke:#A80036;stroke-width:1.0;"/><line style="stroke:#A80036;stroke-width:1.0;stroke-dasharray:2.0,2.0;" x1="1071.5" x2="1702.5" y1="1025.8359" y2="1025.8359"/><line style="stroke:#A80036;stroke-width:1.0;" x1="1792.5" x2="1782.5" y1="1054.9688" y2="1050.9688"/><line style="stroke:#A80036;stroke-width:1.0;" x1="1792.5" x2="1782.5" y1="1054.9688" y2="1058.9688"/><line style="stroke:#A80036;stroke-width:1.0;" x1="1066.5" x2="1793.5" y1="1054.9688" y2="1054.9688"/><text fill="#000000" font-family="sans-serif" font-size="13" lengthAdjust="spacing" textLength="180" x="1073.5" y="1049.9028">Log creating the transaction</text><text fill="#000000" font-family="sans-serif" font-size="14" lengthAdjust="spacing" textLength="121" x="1794.5" y="1092.8311">Transaction Logs</text><path d="M1840,1043.8359 C1840,1033.8359 1858,1033.8359 1858,1033.8359 C1858,1033.8359 1876,1033.8359 1876,1043.8359 L1876,1069.8359 C1876,1079.8359 1858,1079.8359 1858,1079.8359 C1858,1079.8359 1840,1079.8359 1840,1069.8359 L1840,1043.8359 " fill="#FEFECE" style="stroke:#000000;stroke-width:1.5;"/><path d="M1840,1043.8359 C1840,1053.8359 1858,1053.8359 1858,1053.8359 C1858,1053.8359 1876,1053.8359 1876,1043.8359 " fill="none" style="stroke:#000000;stroke-width:1.5;"/><polygon fill="#A80036" points="638.5,1108.1328,628.5,1112.1328,638.5,1116.1328" style="stroke:#A80036;stroke-width:1.0;"/><line style="stroke:#A80036;stroke-width:1.0;stroke-dasharray:2.0,2.0;" x1="632.5" x2="1060.5" y1="1112.1328" y2="1112.1328"/><polygon fill="#A80036" points="383,1122.1328,373,1126.1328,383,1130.1328" style="stroke:#A80036;stroke-width:1.0;"/><line style="stroke:#A80036;stroke-width:1.0;stroke-dasharray:2.0,2.0;" x1="377" x2="621.5" y1="1126.1328" y2="1126.1328"/><polygon fill="#A80036" points="54,1136.1328,44,1140.1328,54,1144.1328" style="stroke:#A80036;stroke-width:1.0;"/><line style="stroke:#A80036;stroke-width:1.0;stroke-dasharray:2.0,2.0;" x1="48" x2="366" y1="1140.1328" y2="1140.1328"/><!--MD5=[f8f801371edf44e261dd74efb2108588]
@startuml
skinparam style strictuml
skinparam BoxPadding 10

actor Customer as user
actor Administrator as admin

box "Presentation Layer" #fefece
boundary "Admin Panel" as panel
end box

box "Application Layer" #SandyBrown
control "User Controller" as userc
control "Transaction Controller" as transactionc
control "Account Controller" as accountc
end box

box "Persistence Layer" #SkyBlue
database "User Database" as users
database "Account Database" as accounts
database "Transaction Database" as transactions
database "Transaction Logs" as logs
end box

user -> admin ++ : Request adding money to the account balance

== Administrator log in ==

create panel
admin -> panel : Open admin panel
panel - -> admin
admin -> panel ++ : Log in
create userc
panel -> userc ++ : Administrator log in request
userc -> userc : Validate credentials
create users
userc -> users : Check for user existence
users - -> userc
userc - -> panel - -
panel - -> admin - -
admin - -> user - -

== Adding money ==

user -> admin ++ : Provide cash and account information
admin -> panel ++ : Open Customer's account page
create accountc
panel -> accountc ++ : Get Customer's account
create accounts
accountc -> accounts : Get Customer's account
accounts - -> accountc - -
accountc - -> panel - -
panel - -> admin - -
admin -> panel ++ : Add money to the account
create transactionc
panel -> transactionc ++ : Create special transaction
transactionc -> accountc ++ : Update account's balance
accountc -> accounts : Update account's balance
accounts - -> accountc
accountc - -> transactionc - -
create transactions
transactionc -> transactions : Create transaction
transactions - -> transactionc
create logs
transactionc ->> logs : Log creating the transaction
transactionc - -> panel - -
panel - -> admin - -
admin - -> user - -
@enduml

PlantUML version 1.2021.16beta3(Unknown compile time)
(GPL source distribution)
Java Runtime: Java(TM) SE Runtime Environment
JVM: Java HotSpot(TM) 64-Bit Server VM
Default Encoding: UTF-8
Language: en
Country: US
--></g></svg>