<?xml version="1.0" encoding="UTF-8" standalone="no"?>
<svg xmlns="http://www.w3.org/2000/svg" xmlns:xlink="http://www.w3.org/1999/xlink" contentScriptType="application/ecmascript" contentStyleType="text/css" height="1165px" preserveAspectRatio="none" style="width:1649px;height:1165px;background:#FFFFFF;" version="1.1" viewBox="0 0 1649 1165" width="1649px" zoomAndPan="magnify"><defs/><g><rect fill="#FEFECE" height="1146.1328" style="stroke:#A80036;stroke-width:1.0;" width="152" x="169" y="6"/><text fill="#000000" font-family="sans-serif" font-size="13" font-weight="bold" lengthAdjust="spacing" textLength="146" x="172" y="18.0669">Presentation Layer</text><rect fill="#F4A460" height="1146.1328" style="stroke:#A80036;stroke-width:1.0;" width="580.5" x="453" y="6"/><text fill="#000000" font-family="sans-serif" font-size="13" font-weight="bold" lengthAdjust="spacing" textLength="130" x="678.25" y="18.0669">Application Layer</text><rect fill="#87CEEB" height="1146.1328" style="stroke:#A80036;stroke-width:1.0;" width="576" x="1055.5" y="6"/><text fill="#000000" font-family="sans-serif" font-size="13" font-weight="bold" lengthAdjust="spacing" textLength="135" x="1276" y="18.0669">Persistence Layer</text><rect fill="#FFFFFF" height="214.7266" style="stroke:#A80036;stroke-width:1.0;" width="10" x="240" y="233.9922"/><rect fill="#FFFFFF" height="576.0156" style="stroke:#A80036;stroke-width:1.0;" width="10" x="240" y="564.1172"/><rect fill="#FFFFFF" height="161.5938" style="stroke:#A80036;stroke-width:1.0;" width="10" x="509" y="273.125"/><rect fill="#FFFFFF" height="522.8828" style="stroke:#A80036;stroke-width:1.0;" width="10" x="659.5" y="603.25"/><rect fill="#FFFFFF" height="119.4609" style="stroke:#A80036;stroke-width:1.0;" width="10" x="953.5" y="661.5469"/><rect fill="#FFFFFF" height="57.1328" style="stroke:#A80036;stroke-width:1.0;" width="10" x="953.5" y="810.1406"/><rect fill="#FFFFFF" height="57.1328" style="stroke:#A80036;stroke-width:1.0;" width="10" x="953.5" y="896.4063"/><line style="stroke:#A80036;stroke-width:1.0;stroke-dasharray:5.0,5.0;" x1="43" x2="43" y1="87.4297" y2="1158.1328"/><line style="stroke:#A80036;stroke-width:1.0;stroke-dasharray:5.0,5.0;" x1="245" x2="245" y1="179.7109" y2="1158.1328"/><line style="stroke:#A80036;stroke-width:1.0;stroke-dasharray:5.0,5.0;" x1="514" x2="514" y1="281.1406" y2="1158.1328"/><line style="stroke:#A80036;stroke-width:1.0;stroke-dasharray:5.0,5.0;" x1="664" x2="664" y1="611.2656" y2="1158.1328"/><line style="stroke:#A80036;stroke-width:1.0;stroke-dasharray:5.0,5.0;" x1="958.5" x2="958.5" y1="669.5625" y2="1158.1328"/><line style="stroke:#A80036;stroke-width:1.0;stroke-dasharray:5.0,5.0;" x1="1113.5" x2="1113.5" y1="388.5703" y2="1158.1328"/><line style="stroke:#A80036;stroke-width:1.0;stroke-dasharray:5.0,5.0;" x1="1249.5" x2="1249.5" y1="734.8594" y2="1158.1328"/><line style="stroke:#A80036;stroke-width:1.0;stroke-dasharray:5.0,5.0;" x1="1409.5" x2="1409.5" y1="1007.6875" y2="1158.1328"/><line style="stroke:#A80036;stroke-width:1.0;stroke-dasharray:5.0,5.0;" x1="1563.5" x2="1563.5" y1="1093.9844" y2="1158.1328"/><text fill="#000000" font-family="sans-serif" font-size="14" lengthAdjust="spacing" textLength="70" x="5" y="84.1279">Customer</text><ellipse cx="43" cy="18.1328" fill="#FEFECE" rx="8" ry="8" style="stroke:#A80036;stroke-width:2.0;"/><path d="M43,26.1328 L43,53.1328 M30,34.1328 L56,34.1328 M43,53.1328 L30,68.1328 M43,53.1328 L56,68.1328 " fill="none" style="stroke:#A80036;stroke-width:2.0;"/><rect fill="#FFFFFF" height="214.7266" style="stroke:#A80036;stroke-width:1.0;" width="10" x="240" y="233.9922"/><rect fill="#FFFFFF" height="576.0156" style="stroke:#A80036;stroke-width:1.0;" width="10" x="240" y="564.1172"/><rect fill="#FFFFFF" height="161.5938" style="stroke:#A80036;stroke-width:1.0;" width="10" x="509" y="273.125"/><rect fill="#FFFFFF" height="522.8828" style="stroke:#A80036;stroke-width:1.0;" width="10" x="659.5" y="603.25"/><rect fill="#FFFFFF" height="119.4609" style="stroke:#A80036;stroke-width:1.0;" width="10" x="953.5" y="661.5469"/><rect fill="#FFFFFF" height="57.1328" style="stroke:#A80036;stroke-width:1.0;" width="10" x="953.5" y="810.1406"/><rect fill="#FFFFFF" height="57.1328" style="stroke:#A80036;stroke-width:1.0;" width="10" x="953.5" y="896.4063"/><rect fill="#EEEEEE" height="3" style="stroke:#EEEEEE;stroke-width:1.0;" width="1642.5" x="0" y="117.9961"/><line style="stroke:#000000;stroke-width:1.0;" x1="0" x2="1642.5" y1="117.9961" y2="117.9961"/><line style="stroke:#000000;stroke-width:1.0;" x1="0" x2="1642.5" y1="120.9961" y2="120.9961"/><rect fill="#EEEEEE" height="23.1328" style="stroke:#000000;stroke-width:2.0;" width="140" x="751.25" y="107.4297"/><text fill="#000000" font-family="sans-serif" font-size="13" font-weight="bold" lengthAdjust="spacing" textLength="121" x="757.25" y="123.4966">Customer log in</text><polygon fill="#A80036" points="190,157.6953,200,161.6953,190,165.6953" style="stroke:#A80036;stroke-width:1.0;"/><line style="stroke:#A80036;stroke-width:1.0;" x1="43" x2="196" y1="161.6953" y2="161.6953"/><text fill="#000000" font-family="sans-serif" font-size="13" lengthAdjust="spacing" textLength="103" x="50" y="156.6294">Open web client</text><text fill="#000000" font-family="sans-serif" font-size="14" lengthAdjust="spacing" textLength="80" x="202" y="185.5576">Web Client</text><path d="M224.5,144.5625 L224.5,168.5625 M224.5,156.5625 L241.5,156.5625 " fill="none" style="stroke:#A80036;stroke-width:2.0;"/><ellipse cx="253.5" cy="156.5625" fill="#FEFECE" rx="12" ry="12" style="stroke:#A80036;stroke-width:2.0;"/><polygon fill="#A80036" points="54,200.8594,44,204.8594,54,208.8594" style="stroke:#A80036;stroke-width:1.0;"/><line style="stroke:#A80036;stroke-width:1.0;stroke-dasharray:2.0,2.0;" x1="48" x2="244" y1="204.8594" y2="204.8594"/><polygon fill="#A80036" points="228,229.9922,238,233.9922,228,237.9922" style="stroke:#A80036;stroke-width:1.0;"/><line style="stroke:#A80036;stroke-width:1.0;" x1="43" x2="234" y1="233.9922" y2="233.9922"/><text fill="#000000" font-family="sans-serif" font-size="13" lengthAdjust="spacing" textLength="38" x="50" y="228.9263">Log in</text><polygon fill="#A80036" points="445,259.125,455,263.125,445,267.125" style="stroke:#A80036;stroke-width:1.0;"/><line style="stroke:#A80036;stroke-width:1.0;" x1="250" x2="451" y1="263.125" y2="263.125"/><text fill="#000000" font-family="sans-serif" font-size="13" lengthAdjust="spacing" textLength="154" x="257" y="258.0591">Customer log in request</text><text fill="#000000" font-family="sans-serif" font-size="14" lengthAdjust="spacing" textLength="108" x="457" y="286.9873">User Controller</text><ellipse cx="514" cy="257.9922" fill="#FEFECE" rx="12" ry="12" style="stroke:#A80036;stroke-width:2.0;"/><polygon fill="#A80036" points="510,245.9922,516,240.9922,514,245.9922,516,250.9922,510,245.9922" style="stroke:#A80036;stroke-width:1.0;"/><line style="stroke:#A80036;stroke-width:1.0;" x1="519" x2="561" y1="321.4219" y2="321.4219"/><line style="stroke:#A80036;stroke-width:1.0;" x1="561" x2="561" y1="321.4219" y2="334.4219"/><line style="stroke:#A80036;stroke-width:1.0;" x1="520" x2="561" y1="334.4219" y2="334.4219"/><polygon fill="#A80036" points="530,330.4219,520,334.4219,530,338.4219" style="stroke:#A80036;stroke-width:1.0;"/><text fill="#000000" font-family="sans-serif" font-size="13" lengthAdjust="spacing" textLength="126" x="526" y="316.356">Validate credentials</text><polygon fill="#A80036" points="1047.5,359.5547,1057.5,363.5547,1047.5,367.5547" style="stroke:#A80036;stroke-width:1.0;"/><line style="stroke:#A80036;stroke-width:1.0;" x1="519" x2="1053.5" y1="363.5547" y2="363.5547"/><text fill="#000000" font-family="sans-serif" font-size="13" lengthAdjust="spacing" textLength="159" x="526" y="358.4888">Check for user existence</text><text fill="#000000" font-family="sans-serif" font-size="14" lengthAdjust="spacing" textLength="103" x="1059.5" y="401.417">User Database</text><path d="M1096,352.4219 C1096,342.4219 1114,342.4219 1114,342.4219 C1114,342.4219 1132,342.4219 1132,352.4219 L1132,378.4219 C1132,388.4219 1114,388.4219 1114,388.4219 C1114,388.4219 1096,388.4219 1096,378.4219 L1096,352.4219 " fill="#FEFECE" style="stroke:#000000;stroke-width:1.5;"/><path d="M1096,352.4219 C1096,362.4219 1114,362.4219 1114,362.4219 C1114,362.4219 1132,362.4219 1132,352.4219 " fill="none" style="stroke:#000000;stroke-width:1.5;"/><polygon fill="#A80036" points="530,416.7188,520,420.7188,530,424.7188" style="stroke:#A80036;stroke-width:1.0;"/><line style="stroke:#A80036;stroke-width:1.0;stroke-dasharray:2.0,2.0;" x1="524" x2="1113" y1="420.7188" y2="420.7188"/><polygon fill="#A80036" points="261,430.7188,251,434.7188,261,438.7188" style="stroke:#A80036;stroke-width:1.0;"/><line style="stroke:#A80036;stroke-width:1.0;stroke-dasharray:2.0,2.0;" x1="255" x2="513" y1="434.7188" y2="434.7188"/><polygon fill="#A80036" points="54,444.7188,44,448.7188,54,452.7188" style="stroke:#A80036;stroke-width:1.0;"/><line style="stroke:#A80036;stroke-width:1.0;stroke-dasharray:2.0,2.0;" x1="48" x2="244" y1="448.7188" y2="448.7188"/><rect fill="#EEEEEE" height="3" style="stroke:#EEEEEE;stroke-width:1.0;" width="1642.5" x="0" y="477.2852"/><line style="stroke:#000000;stroke-width:1.0;" x1="0" x2="1642.5" y1="477.2852" y2="477.2852"/><line style="stroke:#000000;stroke-width:1.0;" x1="0" x2="1642.5" y1="480.2852" y2="480.2852"/><rect fill="#EEEEEE" height="23.1328" style="stroke:#000000;stroke-width:2.0;" width="172" x="735.25" y="466.7188"/><text fill="#000000" font-family="sans-serif" font-size="13" font-weight="bold" lengthAdjust="spacing" textLength="153" x="741.25" y="482.7856">Making the transfer</text><polygon fill="#A80036" points="233,516.9844,243,520.9844,233,524.9844" style="stroke:#A80036;stroke-width:1.0;"/><line style="stroke:#A80036;stroke-width:1.0;" x1="43" x2="239" y1="520.9844" y2="520.9844"/><text fill="#000000" font-family="sans-serif" font-size="13" lengthAdjust="spacing" textLength="119" x="50" y="515.9185">Make new transfer</text><polygon fill="#A80036" points="54,530.9844,44,534.9844,54,538.9844" style="stroke:#A80036;stroke-width:1.0;"/><line style="stroke:#A80036;stroke-width:1.0;stroke-dasharray:2.0,2.0;" x1="48" x2="244" y1="534.9844" y2="534.9844"/><polygon fill="#A80036" points="228,560.1172,238,564.1172,228,568.1172" style="stroke:#A80036;stroke-width:1.0;"/><line style="stroke:#A80036;stroke-width:1.0;" x1="43" x2="234" y1="564.1172" y2="564.1172"/><text fill="#000000" font-family="sans-serif" font-size="13" lengthAdjust="spacing" textLength="149" x="50" y="559.0513">Provide transfer details</text><polygon fill="#A80036" points="569,589.25,579,593.25,569,597.25" style="stroke:#A80036;stroke-width:1.0;"/><line style="stroke:#A80036;stroke-width:1.0;" x1="250" x2="575" y1="593.25" y2="593.25"/><text fill="#000000" font-family="sans-serif" font-size="13" lengthAdjust="spacing" textLength="144" x="257" y="588.1841">Create the transaction</text><text fill="#000000" font-family="sans-serif" font-size="14" lengthAdjust="spacing" textLength="161" x="581" y="617.1123">Transaction Controller</text><ellipse cx="664.5" cy="588.1172" fill="#FEFECE" rx="12" ry="12" style="stroke:#A80036;stroke-width:2.0;"/><polygon fill="#A80036" points="660.5,576.1172,666.5,571.1172,664.5,576.1172,666.5,581.1172,660.5,576.1172" style="stroke:#A80036;stroke-width:1.0;"/><polygon fill="#A80036" points="875.5,647.5469,885.5,651.5469,875.5,655.5469" style="stroke:#A80036;stroke-width:1.0;"/><line style="stroke:#A80036;stroke-width:1.0;" x1="669.5" x2="881.5" y1="651.5469" y2="651.5469"/><text fill="#000000" font-family="sans-serif" font-size="13" lengthAdjust="spacing" textLength="194" x="676.5" y="646.481">Check whether receiver exists</text><text fill="#000000" font-family="sans-serif" font-size="14" lengthAdjust="spacing" textLength="136" x="887.5" y="675.4092">Account Controller</text><ellipse cx="958.5" cy="646.4141" fill="#FEFECE" rx="12" ry="12" style="stroke:#A80036;stroke-width:2.0;"/><polygon fill="#A80036" points="954.5,634.4141,960.5,629.4141,958.5,634.4141,960.5,639.4141,954.5,634.4141" style="stroke:#A80036;stroke-width:1.0;"/><polygon fill="#A80036" points="1169.5,705.8438,1179.5,709.8438,1169.5,713.8438" style="stroke:#A80036;stroke-width:1.0;"/><line style="stroke:#A80036;stroke-width:1.0;" x1="963.5" x2="1175.5" y1="709.8438" y2="709.8438"/><text fill="#000000" font-family="sans-serif" font-size="13" lengthAdjust="spacing" textLength="194" x="970.5" y="704.7778">Check whether receiver exists</text><text fill="#000000" font-family="sans-serif" font-size="14" lengthAdjust="spacing" textLength="131" x="1181.5" y="747.7061">Account Database</text><path d="M1232,698.7109 C1232,688.7109 1250,688.7109 1250,688.7109 C1250,688.7109 1268,688.7109 1268,698.7109 L1268,724.7109 C1268,734.7109 1250,734.7109 1250,734.7109 C1250,734.7109 1232,734.7109 1232,724.7109 L1232,698.7109 " fill="#FEFECE" style="stroke:#000000;stroke-width:1.5;"/><path d="M1232,698.7109 C1232,708.7109 1250,708.7109 1250,708.7109 C1250,708.7109 1268,708.7109 1268,698.7109 " fill="none" style="stroke:#000000;stroke-width:1.5;"/><polygon fill="#A80036" points="974.5,763.0078,964.5,767.0078,974.5,771.0078" style="stroke:#A80036;stroke-width:1.0;"/><line style="stroke:#A80036;stroke-width:1.0;stroke-dasharray:2.0,2.0;" x1="968.5" x2="1249" y1="767.0078" y2="767.0078"/><polygon fill="#A80036" points="680.5,777.0078,670.5,781.0078,680.5,785.0078" style="stroke:#A80036;stroke-width:1.0;"/><line style="stroke:#A80036;stroke-width:1.0;stroke-dasharray:2.0,2.0;" x1="674.5" x2="957.5" y1="781.0078" y2="781.0078"/><polygon fill="#A80036" points="941.5,806.1406,951.5,810.1406,941.5,814.1406" style="stroke:#A80036;stroke-width:1.0;"/><line style="stroke:#A80036;stroke-width:1.0;" x1="669.5" x2="947.5" y1="810.1406" y2="810.1406"/><text fill="#000000" font-family="sans-serif" font-size="13" lengthAdjust="spacing" textLength="148" x="676.5" y="805.0747">Check account balance</text><polygon fill="#A80036" points="1238,835.2734,1248,839.2734,1238,843.2734" style="stroke:#A80036;stroke-width:1.0;"/><line style="stroke:#A80036;stroke-width:1.0;" x1="963.5" x2="1244" y1="839.2734" y2="839.2734"/><text fill="#000000" font-family="sans-serif" font-size="13" lengthAdjust="spacing" textLength="132" x="970.5" y="834.2075">Get account balance</text><polygon fill="#A80036" points="974.5,849.2734,964.5,853.2734,974.5,857.2734" style="stroke:#A80036;stroke-width:1.0;"/><line style="stroke:#A80036;stroke-width:1.0;stroke-dasharray:2.0,2.0;" x1="968.5" x2="1249" y1="853.2734" y2="853.2734"/><polygon fill="#A80036" points="680.5,863.2734,670.5,867.2734,680.5,871.2734" style="stroke:#A80036;stroke-width:1.0;"/><line style="stroke:#A80036;stroke-width:1.0;stroke-dasharray:2.0,2.0;" x1="674.5" x2="957.5" y1="867.2734" y2="867.2734"/><polygon fill="#A80036" points="941.5,892.4063,951.5,896.4063,941.5,900.4063" style="stroke:#A80036;stroke-width:1.0;"/><line style="stroke:#A80036;stroke-width:1.0;" x1="669.5" x2="947.5" y1="896.4063" y2="896.4063"/><text fill="#000000" font-family="sans-serif" font-size="13" lengthAdjust="spacing" textLength="172" x="676.5" y="891.3403">Change accounts balances</text><polygon fill="#A80036" points="1238,921.5391,1248,925.5391,1238,929.5391" style="stroke:#A80036;stroke-width:1.0;"/><line style="stroke:#A80036;stroke-width:1.0;" x1="963.5" x2="1244" y1="925.5391" y2="925.5391"/><text fill="#000000" font-family="sans-serif" font-size="13" lengthAdjust="spacing" textLength="169" x="970.5" y="920.4731">Update accounts balances</text><polygon fill="#A80036" points="974.5,935.5391,964.5,939.5391,974.5,943.5391" style="stroke:#A80036;stroke-width:1.0;"/><line style="stroke:#A80036;stroke-width:1.0;stroke-dasharray:2.0,2.0;" x1="968.5" x2="1249" y1="939.5391" y2="939.5391"/><polygon fill="#A80036" points="680.5,949.5391,670.5,953.5391,680.5,957.5391" style="stroke:#A80036;stroke-width:1.0;"/><line style="stroke:#A80036;stroke-width:1.0;stroke-dasharray:2.0,2.0;" x1="674.5" x2="957.5" y1="953.5391" y2="953.5391"/><polygon fill="#A80036" points="1316.5,978.6719,1326.5,982.6719,1316.5,986.6719" style="stroke:#A80036;stroke-width:1.0;"/><line style="stroke:#A80036;stroke-width:1.0;" x1="669.5" x2="1322.5" y1="982.6719" y2="982.6719"/><text fill="#000000" font-family="sans-serif" font-size="13" lengthAdjust="spacing" textLength="144" x="676.5" y="977.606">Create the transaction</text><text fill="#000000" font-family="sans-serif" font-size="14" lengthAdjust="spacing" textLength="156" x="1328.5" y="1020.5342">Transaction Database</text><path d="M1391.5,971.5391 C1391.5,961.5391 1409.5,961.5391 1409.5,961.5391 C1409.5,961.5391 1427.5,961.5391 1427.5,971.5391 L1427.5,997.5391 C1427.5,1007.5391 1409.5,1007.5391 1409.5,1007.5391 C1409.5,1007.5391 1391.5,1007.5391 1391.5,997.5391 L1391.5,971.5391 " fill="#FEFECE" style="stroke:#000000;stroke-width:1.5;"/><path d="M1391.5,971.5391 C1391.5,981.5391 1409.5,981.5391 1409.5,981.5391 C1409.5,981.5391 1427.5,981.5391 1427.5,971.5391 " fill="none" style="stroke:#000000;stroke-width:1.5;"/><polygon fill="#A80036" points="680.5,1035.8359,670.5,1039.8359,680.5,1043.8359" style="stroke:#A80036;stroke-width:1.0;"/><line style="stroke:#A80036;stroke-width:1.0;stroke-dasharray:2.0,2.0;" x1="674.5" x2="1408.5" y1="1039.8359" y2="1039.8359"/><line style="stroke:#A80036;stroke-width:1.0;" x1="1498.5" x2="1488.5" y1="1068.9688" y2="1064.9688"/><line style="stroke:#A80036;stroke-width:1.0;" x1="1498.5" x2="1488.5" y1="1068.9688" y2="1072.9688"/><line style="stroke:#A80036;stroke-width:1.0;" x1="669.5" x2="1499.5" y1="1068.9688" y2="1068.9688"/><text fill="#000000" font-family="sans-serif" font-size="13" lengthAdjust="spacing" textLength="180" x="676.5" y="1063.9028">Log creating the transaction</text><text fill="#000000" font-family="sans-serif" font-size="14" lengthAdjust="spacing" textLength="121" x="1500.5" y="1106.8311">Transaction Logs</text><path d="M1546,1057.8359 C1546,1047.8359 1564,1047.8359 1564,1047.8359 C1564,1047.8359 1582,1047.8359 1582,1057.8359 L1582,1083.8359 C1582,1093.8359 1564,1093.8359 1564,1093.8359 C1564,1093.8359 1546,1093.8359 1546,1083.8359 L1546,1057.8359 " fill="#FEFECE" style="stroke:#000000;stroke-width:1.5;"/><path d="M1546,1057.8359 C1546,1067.8359 1564,1067.8359 1564,1067.8359 C1564,1067.8359 1582,1067.8359 1582,1057.8359 " fill="none" style="stroke:#000000;stroke-width:1.5;"/><polygon fill="#A80036" points="261,1122.1328,251,1126.1328,261,1130.1328" style="stroke:#A80036;stroke-width:1.0;"/><line style="stroke:#A80036;stroke-width:1.0;stroke-dasharray:2.0,2.0;" x1="255" x2="663.5" y1="1126.1328" y2="1126.1328"/><polygon fill="#A80036" points="54,1136.1328,44,1140.1328,54,1144.1328" style="stroke:#A80036;stroke-width:1.0;"/><line style="stroke:#A80036;stroke-width:1.0;stroke-dasharray:2.0,2.0;" x1="48" x2="244" y1="1140.1328" y2="1140.1328"/><!--MD5=[4124f0412d083fa3fe01e6bf2579d6fc]
@startuml
skinparam style strictuml
skinparam BoxPadding 10

actor Customer as user

box "Presentation Layer" #fefece
boundary "Web Client" as panel
end box

box "Application Layer" #SandyBrown
control "User Controller" as userc
control "Transaction Controller" as transactionc
control "Account Controller" as accountc
end box

box "Persistence Layer" #SkyBlue
database "User Database" as users
database "Account Database" as accounts
database "Transaction Database" as transactions
database "Transaction Logs" as logs
end box

== Customer log in ==

create panel
user -> panel : Open web client
panel - -> user
user -> panel ++ : Log in
create userc
panel -> userc ++ : Customer log in request
userc -> userc : Validate credentials
create users
userc -> users : Check for user existence
users - -> userc
userc - -> panel - -
panel - -> user - -

== Making the transfer ==

user -> panel : Make new transfer
panel - -> user
user -> panel ++ : Provide transfer details
create transactionc
panel -> transactionc ++ : Create the transaction
create accountc
transactionc -> accountc ++ : Check whether receiver exists
create accounts
accountc -> accounts : Check whether receiver exists
accounts - -> accountc - -
accountc - -> transactionc - -
transactionc -> accountc ++ : Check account balance
accountc -> accounts : Get account balance
accounts - -> accountc - -
accountc - -> transactionc - -
transactionc -> accountc ++ : Change accounts balances
accountc -> accounts : Update accounts balances
accounts - -> accountc
accountc - -> transactionc - -
create transactions
transactionc -> transactions : Create the transaction
transactions - -> transactionc
create logs
transactionc ->> logs : Log creating the transaction
transactionc - -> panel - -
panel - -> user - -
@enduml

PlantUML version 1.2021.16beta3(Unknown compile time)
(GPL source distribution)
Java Runtime: Java(TM) SE Runtime Environment
JVM: Java HotSpot(TM) 64-Bit Server VM
Default Encoding: UTF-8
Language: en
Country: US
--></g></svg>