<?xml version="1.0" encoding="UTF-8" standalone="no"?>
<svg xmlns="http://www.w3.org/2000/svg" xmlns:xlink="http://www.w3.org/1999/xlink" contentScriptType="application/ecmascript" contentStyleType="text/css" height="1295px" preserveAspectRatio="none" style="width:2027px;height:1295px;background:#FFFFFF;" version="1.1" viewBox="0 0 2027 1295" width="2027px" zoomAndPan="magnify"><defs/><g><rect fill="#FEFECE" height="1276.6641" style="stroke:#A80036;stroke-width:1.0;" width="152" x="552.5" y="6"/><text fill="#000000" font-family="sans-serif" font-size="13" font-weight="bold" lengthAdjust="spacing" textLength="146" x="555.5" y="18.0669">Presentation Layer</text><rect fill="#F4A460" height="1276.6641" style="stroke:#A80036;stroke-width:1.0;" width="558.5" x="856" y="6"/><text fill="#000000" font-family="sans-serif" font-size="13" font-weight="bold" lengthAdjust="spacing" textLength="130" x="1070.25" y="18.0669">Application Layer</text><rect fill="#87CEEB" height="1276.6641" style="stroke:#A80036;stroke-width:1.0;" width="573" x="1436.5" y="6"/><text fill="#000000" font-family="sans-serif" font-size="13" font-weight="bold" lengthAdjust="spacing" textLength="135" x="1655.5" y="18.0669">Persistence Layer</text><rect fill="#FFFFFF" height="1152.1016" style="stroke:#A80036;stroke-width:1.0;" width="10" x="340" y="118.5625"/><rect fill="#FFFFFF" height="214.7266" style="stroke:#A80036;stroke-width:1.0;" width="10" x="623.5" y="292.2578"/><rect fill="#FFFFFF" height="172.5938" style="stroke:#A80036;stroke-width:1.0;" width="10" x="623.5" y="579.25"/><rect fill="#FFFFFF" height="100.2656" style="stroke:#A80036;stroke-width:1.0;" width="10" x="623.5" y="780.9766"/><rect fill="#FFFFFF" height="331.1563" style="stroke:#A80036;stroke-width:1.0;" width="10" x="623.5" y="910.375"/><rect fill="#FFFFFF" height="161.5938" style="stroke:#A80036;stroke-width:1.0;" width="10" x="912" y="331.3906"/><rect fill="#FFFFFF" height="119.4609" style="stroke:#A80036;stroke-width:1.0;" width="10" x="1062.5" y="618.3828"/><rect fill="#FFFFFF" height="57.1328" style="stroke:#A80036;stroke-width:1.0;" width="10" x="1062.5" y="810.1094"/><rect fill="#FFFFFF" height="288.0234" style="stroke:#A80036;stroke-width:1.0;" width="10" x="1062.5" y="939.5078"/><rect fill="#FFFFFF" height="119.4609" style="stroke:#A80036;stroke-width:1.0;" width="10" x="1334.5" y="978.6406"/><line style="stroke:#A80036;stroke-width:1.0;stroke-dasharray:5.0,5.0;" x1="43" x2="43" y1="87.4297" y2="1288.6641"/><line style="stroke:#A80036;stroke-width:1.0;stroke-dasharray:5.0,5.0;" x1="345" x2="345" y1="87.4297" y2="1288.6641"/><line style="stroke:#A80036;stroke-width:1.0;stroke-dasharray:5.0,5.0;" x1="628" x2="628" y1="237.9766" y2="1288.6641"/><line style="stroke:#A80036;stroke-width:1.0;stroke-dasharray:5.0,5.0;" x1="917" x2="917" y1="339.4063" y2="1288.6641"/><line style="stroke:#A80036;stroke-width:1.0;stroke-dasharray:5.0,5.0;" x1="1067" x2="1067" y1="626.3984" y2="1288.6641"/><line style="stroke:#A80036;stroke-width:1.0;stroke-dasharray:5.0,5.0;" x1="1339.5" x2="1339.5" y1="986.6563" y2="1288.6641"/><line style="stroke:#A80036;stroke-width:1.0;stroke-dasharray:5.0,5.0;" x1="1494.5" x2="1494.5" y1="446.8359" y2="1288.6641"/><line style="stroke:#A80036;stroke-width:1.0;stroke-dasharray:5.0,5.0;" x1="1640.5" x2="1640.5" y1="691.6953" y2="1288.6641"/><line style="stroke:#A80036;stroke-width:1.0;stroke-dasharray:5.0,5.0;" x1="1799.5" x2="1799.5" y1="1051.9531" y2="1288.6641"/><line style="stroke:#A80036;stroke-width:1.0;stroke-dasharray:5.0,5.0;" x1="1941.5" x2="1941.5" y1="1195.3828" y2="1288.6641"/><text fill="#000000" font-family="sans-serif" font-size="14" lengthAdjust="spacing" textLength="70" x="5" y="84.1279">Customer</text><ellipse cx="43" cy="18.1328" fill="#FEFECE" rx="8" ry="8" style="stroke:#A80036;stroke-width:2.0;"/><path d="M43,26.1328 L43,53.1328 M30,34.1328 L56,34.1328 M43,53.1328 L30,68.1328 M43,53.1328 L56,68.1328 " fill="none" style="stroke:#A80036;stroke-width:2.0;"/><text fill="#000000" font-family="sans-serif" font-size="14" lengthAdjust="spacing" textLength="100" x="292" y="84.1279">Administrator</text><ellipse cx="345" cy="18.1328" fill="#FEFECE" rx="8" ry="8" style="stroke:#A80036;stroke-width:2.0;"/><path d="M345,26.1328 L345,53.1328 M332,34.1328 L358,34.1328 M345,53.1328 L332,68.1328 M345,53.1328 L358,68.1328 " fill="none" style="stroke:#A80036;stroke-width:2.0;"/><rect fill="#FFFFFF" height="1152.1016" style="stroke:#A80036;stroke-width:1.0;" width="10" x="340" y="118.5625"/><rect fill="#FFFFFF" height="214.7266" style="stroke:#A80036;stroke-width:1.0;" width="10" x="623.5" y="292.2578"/><rect fill="#FFFFFF" height="172.5938" style="stroke:#A80036;stroke-width:1.0;" width="10" x="623.5" y="579.25"/><rect fill="#FFFFFF" height="100.2656" style="stroke:#A80036;stroke-width:1.0;" width="10" x="623.5" y="780.9766"/><rect fill="#FFFFFF" height="331.1563" style="stroke:#A80036;stroke-width:1.0;" width="10" x="623.5" y="910.375"/><rect fill="#FFFFFF" height="161.5938" style="stroke:#A80036;stroke-width:1.0;" width="10" x="912" y="331.3906"/><rect fill="#FFFFFF" height="119.4609" style="stroke:#A80036;stroke-width:1.0;" width="10" x="1062.5" y="618.3828"/><rect fill="#FFFFFF" height="57.1328" style="stroke:#A80036;stroke-width:1.0;" width="10" x="1062.5" y="810.1094"/><rect fill="#FFFFFF" height="288.0234" style="stroke:#A80036;stroke-width:1.0;" width="10" x="1062.5" y="939.5078"/><rect fill="#FFFFFF" height="119.4609" style="stroke:#A80036;stroke-width:1.0;" width="10" x="1334.5" y="978.6406"/><polygon fill="#A80036" points="328,114.5625,338,118.5625,328,122.5625" style="stroke:#A80036;stroke-width:1.0;"/><line style="stroke:#A80036;stroke-width:1.0;" x1="43" x2="334" y1="118.5625" y2="118.5625"/><text fill="#000000" font-family="sans-serif" font-size="13" lengthAdjust="spacing" textLength="201" x="50" y="113.4966">Request editing the transaction</text><polygon fill="#A80036" points="54,143.6953,44,147.6953,54,151.6953" style="stroke:#A80036;stroke-width:1.0;"/><line style="stroke:#A80036;stroke-width:1.0;stroke-dasharray:2.0,2.0;" x1="48" x2="339" y1="147.6953" y2="147.6953"/><text fill="#000000" font-family="sans-serif" font-size="13" lengthAdjust="spacing" textLength="112" x="60" y="142.6294">Request received</text><rect fill="#EEEEEE" height="3" style="stroke:#EEEEEE;stroke-width:1.0;" width="2020.5" x="0" y="176.2617"/><line style="stroke:#000000;stroke-width:1.0;" x1="0" x2="2020.5" y1="176.2617" y2="176.2617"/><line style="stroke:#000000;stroke-width:1.0;" x1="0" x2="2020.5" y1="179.2617" y2="179.2617"/><rect fill="#EEEEEE" height="23.1328" style="stroke:#000000;stroke-width:2.0;" width="172" x="924.25" y="165.6953"/><text fill="#000000" font-family="sans-serif" font-size="13" font-weight="bold" lengthAdjust="spacing" textLength="153" x="930.25" y="181.7622">Administrator log in</text><polygon fill="#A80036" points="569,215.9609,579,219.9609,569,223.9609" style="stroke:#A80036;stroke-width:1.0;"/><line style="stroke:#A80036;stroke-width:1.0;" x1="350" x2="575" y1="219.9609" y2="219.9609"/><text fill="#000000" font-family="sans-serif" font-size="13" lengthAdjust="spacing" textLength="117" x="357" y="214.895">Open admin panel</text><text fill="#000000" font-family="sans-serif" font-size="14" lengthAdjust="spacing" textLength="89" x="581" y="243.8232">Admin Panel</text><path d="M608,202.8281 L608,226.8281 M608,214.8281 L625,214.8281 " fill="none" style="stroke:#A80036;stroke-width:2.0;"/><ellipse cx="637" cy="214.8281" fill="#FEFECE" rx="12" ry="12" style="stroke:#A80036;stroke-width:2.0;"/><polygon fill="#A80036" points="361,259.125,351,263.125,361,267.125" style="stroke:#A80036;stroke-width:1.0;"/><line style="stroke:#A80036;stroke-width:1.0;stroke-dasharray:2.0,2.0;" x1="355" x2="627.5" y1="263.125" y2="263.125"/><polygon fill="#A80036" points="611.5,288.2578,621.5,292.2578,611.5,296.2578" style="stroke:#A80036;stroke-width:1.0;"/><line style="stroke:#A80036;stroke-width:1.0;" x1="350" x2="617.5" y1="292.2578" y2="292.2578"/><text fill="#000000" font-family="sans-serif" font-size="13" lengthAdjust="spacing" textLength="38" x="357" y="287.1919">Log in</text><polygon fill="#A80036" points="848,317.3906,858,321.3906,848,325.3906" style="stroke:#A80036;stroke-width:1.0;"/><line style="stroke:#A80036;stroke-width:1.0;" x1="633.5" x2="854" y1="321.3906" y2="321.3906"/><text fill="#000000" font-family="sans-serif" font-size="13" lengthAdjust="spacing" textLength="178" x="640.5" y="316.3247">Administrator log in request</text><text fill="#000000" font-family="sans-serif" font-size="14" lengthAdjust="spacing" textLength="108" x="860" y="345.2529">User Controller</text><ellipse cx="917" cy="316.2578" fill="#FEFECE" rx="12" ry="12" style="stroke:#A80036;stroke-width:2.0;"/><polygon fill="#A80036" points="913,304.2578,919,299.2578,917,304.2578,919,309.2578,913,304.2578" style="stroke:#A80036;stroke-width:1.0;"/><line style="stroke:#A80036;stroke-width:1.0;" x1="922" x2="964" y1="379.6875" y2="379.6875"/><line style="stroke:#A80036;stroke-width:1.0;" x1="964" x2="964" y1="379.6875" y2="392.6875"/><line style="stroke:#A80036;stroke-width:1.0;" x1="923" x2="964" y1="392.6875" y2="392.6875"/><polygon fill="#A80036" points="933,388.6875,923,392.6875,933,396.6875" style="stroke:#A80036;stroke-width:1.0;"/><text fill="#000000" font-family="sans-serif" font-size="13" lengthAdjust="spacing" textLength="126" x="929" y="374.6216">Validate credentials</text><polygon fill="#A80036" points="1428.5,417.8203,1438.5,421.8203,1428.5,425.8203" style="stroke:#A80036;stroke-width:1.0;"/><line style="stroke:#A80036;stroke-width:1.0;" x1="922" x2="1434.5" y1="421.8203" y2="421.8203"/><text fill="#000000" font-family="sans-serif" font-size="13" lengthAdjust="spacing" textLength="159" x="929" y="416.7544">Check for user existence</text><text fill="#000000" font-family="sans-serif" font-size="14" lengthAdjust="spacing" textLength="103" x="1440.5" y="459.6826">User Database</text><path d="M1477,410.6875 C1477,400.6875 1495,400.6875 1495,400.6875 C1495,400.6875 1513,400.6875 1513,410.6875 L1513,436.6875 C1513,446.6875 1495,446.6875 1495,446.6875 C1495,446.6875 1477,446.6875 1477,436.6875 L1477,410.6875 " fill="#FEFECE" style="stroke:#000000;stroke-width:1.5;"/><path d="M1477,410.6875 C1477,420.6875 1495,420.6875 1495,420.6875 C1495,420.6875 1513,420.6875 1513,410.6875 " fill="none" style="stroke:#000000;stroke-width:1.5;"/><polygon fill="#A80036" points="933,474.9844,923,478.9844,933,482.9844" style="stroke:#A80036;stroke-width:1.0;"/><line style="stroke:#A80036;stroke-width:1.0;stroke-dasharray:2.0,2.0;" x1="927" x2="1494" y1="478.9844" y2="478.9844"/><polygon fill="#A80036" points="644.5,488.9844,634.5,492.9844,644.5,496.9844" style="stroke:#A80036;stroke-width:1.0;"/><line style="stroke:#A80036;stroke-width:1.0;stroke-dasharray:2.0,2.0;" x1="638.5" x2="916" y1="492.9844" y2="492.9844"/><polygon fill="#A80036" points="361,502.9844,351,506.9844,361,510.9844" style="stroke:#A80036;stroke-width:1.0;"/><line style="stroke:#A80036;stroke-width:1.0;stroke-dasharray:2.0,2.0;" x1="355" x2="627.5" y1="506.9844" y2="506.9844"/><rect fill="#EEEEEE" height="3" style="stroke:#EEEEEE;stroke-width:1.0;" width="2020.5" x="0" y="535.5508"/><line style="stroke:#000000;stroke-width:1.0;" x1="0" x2="2020.5" y1="535.5508" y2="535.5508"/><line style="stroke:#000000;stroke-width:1.0;" x1="0" x2="2020.5" y1="538.5508" y2="538.5508"/><rect fill="#EEEEEE" height="23.1328" style="stroke:#000000;stroke-width:2.0;" width="196" x="912.25" y="524.9844"/><text fill="#000000" font-family="sans-serif" font-size="13" font-weight="bold" lengthAdjust="spacing" textLength="177" x="918.25" y="541.0513">Editing the transaction</text><polygon fill="#A80036" points="611.5,575.25,621.5,579.25,611.5,583.25" style="stroke:#A80036;stroke-width:1.0;"/><line style="stroke:#A80036;stroke-width:1.0;" x1="350" x2="617.5" y1="579.25" y2="579.25"/><text fill="#000000" font-family="sans-serif" font-size="13" lengthAdjust="spacing" textLength="230" x="357" y="574.1841">Open Customer's transactions page</text><polygon fill="#A80036" points="972,604.3828,982,608.3828,972,612.3828" style="stroke:#A80036;stroke-width:1.0;"/><line style="stroke:#A80036;stroke-width:1.0;" x1="633.5" x2="978" y1="608.3828" y2="608.3828"/><text fill="#000000" font-family="sans-serif" font-size="13" lengthAdjust="spacing" textLength="183" x="640.5" y="603.3169">Get Customer's transactions</text><text fill="#000000" font-family="sans-serif" font-size="14" lengthAdjust="spacing" textLength="161" x="984" y="632.2451">Transaction Controller</text><ellipse cx="1067.5" cy="603.25" fill="#FEFECE" rx="12" ry="12" style="stroke:#A80036;stroke-width:2.0;"/><polygon fill="#A80036" points="1063.5,591.25,1069.5,586.25,1067.5,591.25,1069.5,596.25,1063.5,591.25" style="stroke:#A80036;stroke-width:1.0;"/><polygon fill="#A80036" points="1547.5,662.6797,1557.5,666.6797,1547.5,670.6797" style="stroke:#A80036;stroke-width:1.0;"/><line style="stroke:#A80036;stroke-width:1.0;" x1="1072.5" x2="1553.5" y1="666.6797" y2="666.6797"/><text fill="#000000" font-family="sans-serif" font-size="13" lengthAdjust="spacing" textLength="183" x="1079.5" y="661.6138">Get Customer's transactions</text><text fill="#000000" font-family="sans-serif" font-size="14" lengthAdjust="spacing" textLength="156" x="1559.5" y="704.542">Transaction Database</text><path d="M1622.5,655.5469 C1622.5,645.5469 1640.5,645.5469 1640.5,645.5469 C1640.5,645.5469 1658.5,645.5469 1658.5,655.5469 L1658.5,681.5469 C1658.5,691.5469 1640.5,691.5469 1640.5,691.5469 C1640.5,691.5469 1622.5,691.5469 1622.5,681.5469 L1622.5,655.5469 " fill="#FEFECE" style="stroke:#000000;stroke-width:1.5;"/><path d="M1622.5,655.5469 C1622.5,665.5469 1640.5,665.5469 1640.5,665.5469 C1640.5,665.5469 1658.5,665.5469 1658.5,655.5469 " fill="none" style="stroke:#000000;stroke-width:1.5;"/><polygon fill="#A80036" points="1083.5,719.8438,1073.5,723.8438,1083.5,727.8438" style="stroke:#A80036;stroke-width:1.0;"/><line style="stroke:#A80036;stroke-width:1.0;stroke-dasharray:2.0,2.0;" x1="1077.5" x2="1639.5" y1="723.8438" y2="723.8438"/><polygon fill="#A80036" points="644.5,733.8438,634.5,737.8438,644.5,741.8438" style="stroke:#A80036;stroke-width:1.0;"/><line style="stroke:#A80036;stroke-width:1.0;stroke-dasharray:2.0,2.0;" x1="638.5" x2="1066.5" y1="737.8438" y2="737.8438"/><polygon fill="#A80036" points="361,747.8438,351,751.8438,361,755.8438" style="stroke:#A80036;stroke-width:1.0;"/><line style="stroke:#A80036;stroke-width:1.0;stroke-dasharray:2.0,2.0;" x1="355" x2="627.5" y1="751.8438" y2="751.8438"/><polygon fill="#A80036" points="611.5,776.9766,621.5,780.9766,611.5,784.9766" style="stroke:#A80036;stroke-width:1.0;"/><line style="stroke:#A80036;stroke-width:1.0;" x1="350" x2="617.5" y1="780.9766" y2="780.9766"/><text fill="#000000" font-family="sans-serif" font-size="13" lengthAdjust="spacing" textLength="155" x="357" y="775.9106">Open transaction to edit</text><polygon fill="#A80036" points="1050.5,806.1094,1060.5,810.1094,1050.5,814.1094" style="stroke:#A80036;stroke-width:1.0;"/><line style="stroke:#A80036;stroke-width:1.0;" x1="633.5" x2="1056.5" y1="810.1094" y2="810.1094"/><text fill="#000000" font-family="sans-serif" font-size="13" lengthAdjust="spacing" textLength="157" x="640.5" y="805.0435">Request transaction edit</text><polygon fill="#A80036" points="1628.5,835.2422,1638.5,839.2422,1628.5,843.2422" style="stroke:#A80036;stroke-width:1.0;"/><line style="stroke:#A80036;stroke-width:1.0;" x1="1072.5" x2="1634.5" y1="839.2422" y2="839.2422"/><text fill="#000000" font-family="sans-serif" font-size="13" lengthAdjust="spacing" textLength="177" x="1079.5" y="834.1763">Get transaction information</text><polygon fill="#A80036" points="1083.5,849.2422,1073.5,853.2422,1083.5,857.2422" style="stroke:#A80036;stroke-width:1.0;"/><line style="stroke:#A80036;stroke-width:1.0;stroke-dasharray:2.0,2.0;" x1="1077.5" x2="1639.5" y1="853.2422" y2="853.2422"/><polygon fill="#A80036" points="644.5,863.2422,634.5,867.2422,644.5,871.2422" style="stroke:#A80036;stroke-width:1.0;"/><line style="stroke:#A80036;stroke-width:1.0;stroke-dasharray:2.0,2.0;" x1="638.5" x2="1066.5" y1="867.2422" y2="867.2422"/><polygon fill="#A80036" points="361,877.2422,351,881.2422,361,885.2422" style="stroke:#A80036;stroke-width:1.0;"/><line style="stroke:#A80036;stroke-width:1.0;stroke-dasharray:2.0,2.0;" x1="355" x2="627.5" y1="881.2422" y2="881.2422"/><polygon fill="#A80036" points="611.5,906.375,621.5,910.375,611.5,914.375" style="stroke:#A80036;stroke-width:1.0;"/><line style="stroke:#A80036;stroke-width:1.0;" x1="350" x2="617.5" y1="910.375" y2="910.375"/><text fill="#000000" font-family="sans-serif" font-size="13" lengthAdjust="spacing" textLength="90" x="357" y="905.3091">Input changes</text><polygon fill="#A80036" points="1050.5,935.5078,1060.5,939.5078,1050.5,943.5078" style="stroke:#A80036;stroke-width:1.0;"/><line style="stroke:#A80036;stroke-width:1.0;" x1="633.5" x2="1056.5" y1="939.5078" y2="939.5078"/><text fill="#000000" font-family="sans-serif" font-size="13" lengthAdjust="spacing" textLength="125" x="640.5" y="934.4419">Edit the transaction</text><polygon fill="#A80036" points="1256.5,964.6406,1266.5,968.6406,1256.5,972.6406" style="stroke:#A80036;stroke-width:1.0;"/><line style="stroke:#A80036;stroke-width:1.0;" x1="1072.5" x2="1262.5" y1="968.6406" y2="968.6406"/><text fill="#000000" font-family="sans-serif" font-size="13" lengthAdjust="spacing" textLength="172" x="1079.5" y="963.5747">Change accounts balances</text><text fill="#000000" font-family="sans-serif" font-size="14" lengthAdjust="spacing" textLength="136" x="1268.5" y="992.5029">Account Controller</text><ellipse cx="1339.5" cy="963.5078" fill="#FEFECE" rx="12" ry="12" style="stroke:#A80036;stroke-width:2.0;"/><polygon fill="#A80036" points="1335.5,951.5078,1341.5,946.5078,1339.5,951.5078,1341.5,956.5078,1335.5,951.5078" style="stroke:#A80036;stroke-width:1.0;"/><polygon fill="#A80036" points="1719.5,1022.9375,1729.5,1026.9375,1719.5,1030.9375" style="stroke:#A80036;stroke-width:1.0;"/><line style="stroke:#A80036;stroke-width:1.0;" x1="1344.5" x2="1725.5" y1="1026.9375" y2="1026.9375"/><text fill="#000000" font-family="sans-serif" font-size="13" lengthAdjust="spacing" textLength="169" x="1351.5" y="1021.8716">Update accounts balances</text><text fill="#000000" font-family="sans-serif" font-size="14" lengthAdjust="spacing" textLength="131" x="1731.5" y="1064.7998">Account Database</text><path d="M1782,1015.8047 C1782,1005.8047 1800,1005.8047 1800,1005.8047 C1800,1005.8047 1818,1005.8047 1818,1015.8047 L1818,1041.8047 C1818,1051.8047 1800,1051.8047 1800,1051.8047 C1800,1051.8047 1782,1051.8047 1782,1041.8047 L1782,1015.8047 " fill="#FEFECE" style="stroke:#000000;stroke-width:1.5;"/><path d="M1782,1015.8047 C1782,1025.8047 1800,1025.8047 1800,1025.8047 C1800,1025.8047 1818,1025.8047 1818,1015.8047 " fill="none" style="stroke:#000000;stroke-width:1.5;"/><polygon fill="#A80036" points="1355.5,1080.1016,1345.5,1084.1016,1355.5,1088.1016" style="stroke:#A80036;stroke-width:1.0;"/><line style="stroke:#A80036;stroke-width:1.0;stroke-dasharray:2.0,2.0;" x1="1349.5" x2="1799" y1="1084.1016" y2="1084.1016"/><polygon fill="#A80036" points="1083.5,1094.1016,1073.5,1098.1016,1083.5,1102.1016" style="stroke:#A80036;stroke-width:1.0;"/><line style="stroke:#A80036;stroke-width:1.0;stroke-dasharray:2.0,2.0;" x1="1077.5" x2="1338.5" y1="1098.1016" y2="1098.1016"/><polygon fill="#A80036" points="1628.5,1123.2344,1638.5,1127.2344,1628.5,1131.2344" style="stroke:#A80036;stroke-width:1.0;"/><line style="stroke:#A80036;stroke-width:1.0;" x1="1072.5" x2="1634.5" y1="1127.2344" y2="1127.2344"/><text fill="#000000" font-family="sans-serif" font-size="13" lengthAdjust="spacing" textLength="125" x="1079.5" y="1122.1685">Edit the transaction</text><polygon fill="#A80036" points="1083.5,1137.2344,1073.5,1141.2344,1083.5,1145.2344" style="stroke:#A80036;stroke-width:1.0;"/><line style="stroke:#A80036;stroke-width:1.0;stroke-dasharray:2.0,2.0;" x1="1077.5" x2="1639.5" y1="1141.2344" y2="1141.2344"/><line style="stroke:#A80036;stroke-width:1.0;" x1="1876.5" x2="1866.5" y1="1170.3672" y2="1166.3672"/><line style="stroke:#A80036;stroke-width:1.0;" x1="1876.5" x2="1866.5" y1="1170.3672" y2="1174.3672"/><line style="stroke:#A80036;stroke-width:1.0;" x1="1072.5" x2="1877.5" y1="1170.3672" y2="1170.3672"/><text fill="#000000" font-family="sans-serif" font-size="13" lengthAdjust="spacing" textLength="171" x="1079.5" y="1165.3013">Log editing the transaction</text><text fill="#000000" font-family="sans-serif" font-size="14" lengthAdjust="spacing" textLength="121" x="1878.5" y="1208.2295">Transaction Logs</text><path d="M1924,1159.2344 C1924,1149.2344 1942,1149.2344 1942,1149.2344 C1942,1149.2344 1960,1149.2344 1960,1159.2344 L1960,1185.2344 C1960,1195.2344 1942,1195.2344 1942,1195.2344 C1942,1195.2344 1924,1195.2344 1924,1185.2344 L1924,1159.2344 " fill="#FEFECE" style="stroke:#000000;stroke-width:1.5;"/><path d="M1924,1159.2344 C1924,1169.2344 1942,1169.2344 1942,1169.2344 C1942,1169.2344 1960,1169.2344 1960,1159.2344 " fill="none" style="stroke:#000000;stroke-width:1.5;"/><polygon fill="#A80036" points="644.5,1223.5313,634.5,1227.5313,644.5,1231.5313" style="stroke:#A80036;stroke-width:1.0;"/><line style="stroke:#A80036;stroke-width:1.0;stroke-dasharray:2.0,2.0;" x1="638.5" x2="1066.5" y1="1227.5313" y2="1227.5313"/><polygon fill="#A80036" points="361,1237.5313,351,1241.5313,361,1245.5313" style="stroke:#A80036;stroke-width:1.0;"/><line style="stroke:#A80036;stroke-width:1.0;stroke-dasharray:2.0,2.0;" x1="355" x2="627.5" y1="1241.5313" y2="1241.5313"/><line style="stroke:#A80036;stroke-width:1.0;" x1="43" x2="53" y1="1270.6641" y2="1266.6641"/><line style="stroke:#A80036;stroke-width:1.0;" x1="43" x2="53" y1="1270.6641" y2="1274.6641"/><line style="stroke:#A80036;stroke-width:1.0;" x1="43" x2="344" y1="1270.6641" y2="1270.6641"/><text fill="#000000" font-family="sans-serif" font-size="13" lengthAdjust="spacing" textLength="273" x="60" y="1265.5981">Notify about successful transaction editing</text><!--MD5=[37c524337cefdd80a755a4663415fbd3]
@startuml
skinparam style strictuml
skinparam BoxPadding 10

actor Customer as user
actor Administrator as admin

box "Presentation Layer" #fefece
boundary "Admin Panel" as panel
end box

box "Application Layer" #SandyBrown
control "User Controller" as userc
control "Transaction Controller" as transactionc
control "Account Controller" as accountc
end box

box "Persistence Layer" #SkyBlue
database "User Database" as users
database "Transaction Database" as transactions
database "Account Database" as accounts
database "Transaction Logs" as logs
end box

user -> admin ++ : Request editing the transaction
admin - -> user : Request received

== Administrator log in ==

create panel
admin -> panel : Open admin panel
panel - -> admin
admin -> panel ++ : Log in
create userc
panel -> userc ++ : Administrator log in request
userc -> userc : Validate credentials
create users
userc -> users : Check for user existence
users - -> userc
userc - -> panel - -
panel - -> admin - -

== Editing the transaction ==

admin -> panel ++ : Open Customer's transactions page
create transactionc
panel -> transactionc ++ : Get Customer's transactions
create transactions
transactionc -> transactions : Get Customer's transactions
transactions - -> transactionc
transactionc - -> panel - -
panel - -> admin - -
admin -> panel ++ : Open transaction to edit
panel -> transactionc ++ : Request transaction edit
transactionc -> transactions : Get transaction information
transactions - -> transactionc
transactionc - -> panel - -
panel - -> admin - -
admin -> panel ++ : Input changes
panel -> transactionc ++ : Edit the transaction
create accountc
transactionc -> accountc ++ : Change accounts balances
create accounts
accountc -> accounts : Update accounts balances
accounts - -> accountc
accountc - -> transactionc - -
transactionc -> transactions : Edit the transaction
transactions - -> transactionc
create logs
transactionc ->> logs : Log editing the transaction
transactionc - -> panel - -
panel - -> admin - -
admin ->> user - - : Notify about successful transaction editing
@enduml

PlantUML version 1.2021.16beta3(Unknown compile time)
(GPL source distribution)
Java Runtime: Java(TM) SE Runtime Environment
JVM: Java HotSpot(TM) 64-Bit Server VM
Default Encoding: UTF-8
Language: en
Country: US
--></g></svg>