<?xml version="1.0" encoding="UTF-8" standalone="no"?><svg xmlns="http://www.w3.org/2000/svg" xmlns:xlink="http://www.w3.org/1999/xlink" contentScriptType="application/ecmascript" contentStyleType="text/css" height="2180px" preserveAspectRatio="none" style="width:1229px;height:2180px;background:#FFFFFF;" version="1.1" viewBox="0 0 1229 2180" width="1229px" zoomAndPan="magnify"><defs><filter height="300%" id="fq3pr831ygus5" width="300%" x="-1" y="-1"><feGaussianBlur result="blurOut" stdDeviation="2.0"/><feColorMatrix in="blurOut" result="blurOut2" type="matrix" values="0 0 0 0 0 0 0 0 0 0 0 0 0 0 0 0 0 0 .4 0"/><feOffset dx="4.0" dy="4.0" in="blurOut2" result="blurOut3"/><feBlend in="SourceGraphic" in2="blurOut3" mode="normal"/></filter></defs><g><!--MD5=[27f772719433d509ddbc20ff768eba08]
cluster domain--><rect fill="#FFD700" filter="url(#fq3pr831ygus5)" height="2077" style="stroke:#000000;stroke-width:1.5;" width="798" x="30.5" y="89"/><rect fill="#FFD700" height="10" style="stroke:#000000;stroke-width:1.5;" width="15" x="808.5" y="94"/><rect fill="#FFD700" height="2" style="stroke:#000000;stroke-width:1.5;" width="4" x="806.5" y="96"/><rect fill="#FFD700" height="2" style="stroke:#000000;stroke-width:1.5;" width="4" x="806.5" y="100"/><text fill="#000000" font-family="sans-serif" font-size="14" font-weight="bold" lengthAdjust="spacing" textLength="113" x="373" y="116.5332">&lt;&lt;Component&gt;&gt;</text><text fill="#000000" font-family="sans-serif" font-size="14" font-weight="bold" lengthAdjust="spacing" textLength="52" x="403.5" y="134.1426">Domain</text><!--MD5=[cb8ac4b308bf29cccff4fabd2ec04d9c]
cluster user--><rect fill="#FFE4C4" filter="url(#fq3pr831ygus5)" height="530" style="stroke:#000000;stroke-width:1.5;" width="710" x="70.5" y="167"/><rect fill="#FFE4C4" height="10" style="stroke:#000000;stroke-width:1.5;" width="15" x="760.5" y="172"/><rect fill="#FFE4C4" height="2" style="stroke:#000000;stroke-width:1.5;" width="4" x="758.5" y="174"/><rect fill="#FFE4C4" height="2" style="stroke:#000000;stroke-width:1.5;" width="4" x="758.5" y="178"/><text fill="#000000" font-family="sans-serif" font-size="14" font-weight="bold" lengthAdjust="spacing" textLength="101" x="375" y="194.5332">&lt;&lt;sub-comp&gt;&gt;</text><text fill="#000000" font-family="sans-serif" font-size="14" font-weight="bold" lengthAdjust="spacing" textLength="32" x="409.5" y="212.1426">user</text><!--MD5=[c3f73ca7a1e85901c8e4bfbb11c9c20a]
cluster account--><rect fill="#FFE4C4" filter="url(#fq3pr831ygus5)" height="409" style="stroke:#000000;stroke-width:1.5;" width="444" x="336.5" y="758"/><rect fill="#FFE4C4" height="10" style="stroke:#000000;stroke-width:1.5;" width="15" x="760.5" y="763"/><rect fill="#FFE4C4" height="2" style="stroke:#000000;stroke-width:1.5;" width="4" x="758.5" y="765"/><rect fill="#FFE4C4" height="2" style="stroke:#000000;stroke-width:1.5;" width="4" x="758.5" y="769"/><text fill="#000000" font-family="sans-serif" font-size="14" font-weight="bold" lengthAdjust="spacing" textLength="101" x="508" y="785.5332">&lt;&lt;sub-comp&gt;&gt;</text><text fill="#000000" font-family="sans-serif" font-size="14" font-weight="bold" lengthAdjust="spacing" textLength="56" x="530.5" y="803.1426">account</text><!--MD5=[f9c58d90839a0c7c212d8c6553ac9eb7]
cluster transaction--><rect fill="#FFE4C4" filter="url(#fq3pr831ygus5)" height="898" style="stroke:#000000;stroke-width:1.5;" width="506" x="70.5" y="1228"/><rect fill="#FFE4C4" height="10" style="stroke:#000000;stroke-width:1.5;" width="15" x="556.5" y="1233"/><rect fill="#FFE4C4" height="2" style="stroke:#000000;stroke-width:1.5;" width="4" x="554.5" y="1235"/><rect fill="#FFE4C4" height="2" style="stroke:#000000;stroke-width:1.5;" width="4" x="554.5" y="1239"/><text fill="#000000" font-family="sans-serif" font-size="14" font-weight="bold" lengthAdjust="spacing" textLength="101" x="273" y="1255.5332">&lt;&lt;sub-comp&gt;&gt;</text><text fill="#000000" font-family="sans-serif" font-size="14" font-weight="bold" lengthAdjust="spacing" textLength="79" x="284" y="1273.1426">transaction</text><!--MD5=[24add822970012a00cd97a40cd79feff]
class UserManager--><rect codeLine="16" fill="#FEFECE" filter="url(#fq3pr831ygus5)" height="89.5078" id="UserManager" style="stroke:#A80036;stroke-width:1.5;" width="197" x="107" y="229"/><ellipse cx="163.75" cy="245" fill="#ADD1B2" rx="11" ry="11" style="stroke:#A80036;stroke-width:1.0;"/><path d="M166.5156,240.875 Q166.6719,240.6563 166.8594,240.5469 Q167.0469,240.4375 167.2656,240.4375 Q167.6406,240.4375 167.875,240.7031 Q168.1094,240.9531 168.1094,241.5625 L168.1094,243.0156 Q168.1094,243.625 167.875,243.8906 Q167.6406,244.1563 167.2656,244.1563 Q166.9219,244.1563 166.7188,243.9531 Q166.5156,243.7656 166.4063,243.25 Q166.3594,242.8906 166.1719,242.7031 Q165.8438,242.3281 165.2344,242.1094 Q164.625,241.8906 164,241.8906 Q163.2344,241.8906 162.5938,242.2188 Q161.9688,242.5469 161.4688,243.2969 Q160.9844,244.0469 160.9844,245.0781 L160.9844,246.1719 Q160.9844,247.4063 161.875,248.2344 Q162.7656,249.0469 164.3594,249.0469 Q165.2969,249.0469 165.9531,248.7969 Q166.3438,248.6406 166.7656,248.2031 Q167.0313,247.9375 167.1719,247.8594 Q167.3281,247.7813 167.5313,247.7813 Q167.8594,247.7813 168.1094,248.0469 Q168.375,248.2969 168.375,248.6406 Q168.375,248.9844 168.0313,249.3906 Q167.5313,249.9688 166.7344,250.2969 Q165.6563,250.75 164.3594,250.75 Q162.8438,250.75 161.6406,250.125 Q160.6563,249.625 159.9688,248.5625 Q159.2813,247.4844 159.2813,246.2031 L159.2813,245.0469 Q159.2813,243.7188 159.8906,242.5781 Q160.5156,241.4219 161.6094,240.8125 Q162.7031,240.1875 163.9375,240.1875 Q164.6719,240.1875 165.3125,240.3594 Q165.9688,240.5156 166.5156,240.875 Z " fill="#000000"/><text fill="#000000" font-family="sans-serif" font-size="12" lengthAdjust="spacing" textLength="75" x="184.25" y="249.9102">UserManager</text><line style="stroke:#A80036;stroke-width:1.5;" x1="108" x2="303" y1="261" y2="261"/><line style="stroke:#A80036;stroke-width:1.5;" x1="108" x2="303" y1="269" y2="269"/><ellipse cx="118" cy="280" fill="#84BE84" rx="3" ry="3" style="stroke:#038048;stroke-width:1.0;"/><text fill="#000000" font-family="sans-serif" font-size="11" lengthAdjust="spacing" textLength="124" x="127" y="284.4189">User getUserById(long id)</text><ellipse cx="118" cy="293.8359" fill="#84BE84" rx="3" ry="3" style="stroke:#038048;stroke-width:1.0;"/><text fill="#000000" font-family="sans-serif" font-size="11" lengthAdjust="spacing" textLength="90" x="127" y="298.2549">List&lt;User&gt; getAll()</text><ellipse cx="118" cy="307.6719" fill="#84BE84" rx="3" ry="3" style="stroke:#038048;stroke-width:1.0;"/><text fill="#000000" font-family="sans-serif" font-size="11" lengthAdjust="spacing" textLength="171" x="127" y="312.0908">User addAdmin(Administrator user)</text><!--MD5=[d0ff23a00683977d87fe89c795304054]
class IUsersRepo--><rect codeLine="22" fill="#FEFECE" filter="url(#fq3pr831ygus5)" height="75.6719" id="IUsersRepo" style="stroke:#A80036;stroke-width:1.5;" width="130" x="339.5" y="236"/><ellipse cx="368.9" cy="252" fill="#B4A7E5" rx="11" ry="11" style="stroke:#A80036;stroke-width:1.0;"/><path d="M369.8531,248.6406 L369.8531,255.2969 L371.5719,255.2969 Q372.1813,255.2969 372.4469,255.5313 Q372.7125,255.7656 372.7125,256.1563 Q372.7125,256.5313 372.4469,256.7656 Q372.1813,257 371.5719,257 L366.4313,257 Q365.8219,257 365.5563,256.7656 Q365.2906,256.5313 365.2906,256.1406 Q365.2906,255.7656 365.5563,255.5313 Q365.8219,255.2969 366.4313,255.2969 L368.15,255.2969 L368.15,248.6406 L366.4313,248.6406 Q365.8219,248.6406 365.5563,248.4063 Q365.2906,248.1719 365.2906,247.7813 Q365.2906,247.4063 365.5563,247.1719 Q365.8219,246.9375 366.4313,246.9375 L371.5719,246.9375 Q372.1813,246.9375 372.4469,247.1719 Q372.7125,247.4063 372.7125,247.7813 Q372.7125,248.1719 372.4469,248.4063 Q372.1813,248.6406 371.5719,248.6406 L369.8531,248.6406 Z " fill="#000000"/><text fill="#000000" font-family="sans-serif" font-size="12" font-style="italic" lengthAdjust="spacing" textLength="66" x="386.1" y="256.9102">IUsersRepo</text><line style="stroke:#A80036;stroke-width:1.5;" x1="340.5" x2="468.5" y1="268" y2="268"/><line style="stroke:#A80036;stroke-width:1.5;" x1="340.5" x2="468.5" y1="276" y2="276"/><ellipse cx="350.5" cy="287" fill="#84BE84" rx="3" ry="3" style="stroke:#038048;stroke-width:1.0;"/><text fill="#000000" font-family="sans-serif" font-size="11" lengthAdjust="spacing" textLength="64" x="359.5" y="291.4189">User findAll()</text><ellipse cx="350.5" cy="300.8359" fill="#84BE84" rx="3" ry="3" style="stroke:#038048;stroke-width:1.0;"/><text fill="#000000" font-family="sans-serif" font-size="11" lengthAdjust="spacing" textLength="104" x="359.5" y="305.2549">User findById(long id)</text><!--MD5=[3fd616f346a44cd59a91eb10b19e157c]
class User--><rect codeLine="27" fill="#FEFECE" filter="url(#fq3pr831ygus5)" height="131.0156" id="User" style="stroke:#A80036;stroke-width:1.5;" width="107" x="326" y="379"/><ellipse cx="362.6" cy="395" fill="#ADD1B2" rx="11" ry="11" style="stroke:#A80036;stroke-width:1.0;"/><path d="M365.3656,390.875 Q365.5219,390.6563 365.7094,390.5469 Q365.8969,390.4375 366.1156,390.4375 Q366.4906,390.4375 366.725,390.7031 Q366.9594,390.9531 366.9594,391.5625 L366.9594,393.0156 Q366.9594,393.625 366.725,393.8906 Q366.4906,394.1563 366.1156,394.1563 Q365.7719,394.1563 365.5688,393.9531 Q365.3656,393.7656 365.2563,393.25 Q365.2094,392.8906 365.0219,392.7031 Q364.6938,392.3281 364.0844,392.1094 Q363.475,391.8906 362.85,391.8906 Q362.0844,391.8906 361.4438,392.2188 Q360.8188,392.5469 360.3188,393.2969 Q359.8344,394.0469 359.8344,395.0781 L359.8344,396.1719 Q359.8344,397.4063 360.725,398.2344 Q361.6156,399.0469 363.2094,399.0469 Q364.1469,399.0469 364.8031,398.7969 Q365.1938,398.6406 365.6156,398.2031 Q365.8813,397.9375 366.0219,397.8594 Q366.1781,397.7813 366.3813,397.7813 Q366.7094,397.7813 366.9594,398.0469 Q367.225,398.2969 367.225,398.6406 Q367.225,398.9844 366.8813,399.3906 Q366.3813,399.9688 365.5844,400.2969 Q364.5063,400.75 363.2094,400.75 Q361.6938,400.75 360.4906,400.125 Q359.5063,399.625 358.8188,398.5625 Q358.1313,397.4844 358.1313,396.2031 L358.1313,395.0469 Q358.1313,393.7188 358.7406,392.5781 Q359.3656,391.4219 360.4594,390.8125 Q361.5531,390.1875 362.7875,390.1875 Q363.5219,390.1875 364.1625,390.3594 Q364.8188,390.5156 365.3656,390.875 Z " fill="#000000"/><text fill="#000000" font-family="sans-serif" font-size="12" lengthAdjust="spacing" textLength="27" x="381.4" y="399.9102">User</text><line style="stroke:#A80036;stroke-width:1.5;" x1="327" x2="432" y1="411" y2="411"/><rect fill="none" height="6" style="stroke:#C82930;stroke-width:1.0;" width="6" x="334" y="419"/><text fill="#000000" font-family="sans-serif" font-size="11" lengthAdjust="spacing" textLength="31" x="346" y="426.4189">long id</text><rect fill="none" height="6" style="stroke:#C82930;stroke-width:1.0;" width="6" x="334" y="432.8359"/><text fill="#000000" font-family="sans-serif" font-size="11" lengthAdjust="spacing" textLength="44" x="346" y="440.2549">int userId</text><rect fill="none" height="6" style="stroke:#C82930;stroke-width:1.0;" width="6" x="334" y="446.6719"/><text fill="#000000" font-family="sans-serif" font-size="11" lengthAdjust="spacing" textLength="55" x="346" y="454.0908">String email</text><rect fill="none" height="6" style="stroke:#C82930;stroke-width:1.0;" width="6" x="334" y="460.5078"/><text fill="#000000" font-family="sans-serif" font-size="11" lengthAdjust="spacing" textLength="81" x="346" y="467.9268">String password</text><rect fill="none" height="6" style="stroke:#C82930;stroke-width:1.0;" width="6" x="334" y="474.3438"/><text fill="#000000" font-family="sans-serif" font-size="11" lengthAdjust="spacing" textLength="72" x="346" y="481.7627">String fullName</text><rect fill="none" height="6" style="stroke:#C82930;stroke-width:1.0;" width="6" x="334" y="488.1797"/><text fill="#000000" font-family="sans-serif" font-size="11" lengthAdjust="spacing" textLength="42" x="346" y="495.5986">Role role</text><line style="stroke:#A80036;stroke-width:1.5;" x1="327" x2="432" y1="502.0156" y2="502.0156"/><!--MD5=[da547346deef918ea16944ba046651ef]
class Administrator--><rect codeLine="36" fill="#FEFECE" filter="url(#fq3pr831ygus5)" height="48" id="Administrator" style="stroke:#A80036;stroke-width:1.5;" width="105" x="468" y="420.5"/><ellipse cx="483" cy="436.5" fill="#ADD1B2" rx="11" ry="11" style="stroke:#A80036;stroke-width:1.0;"/><path d="M485.7656,432.375 Q485.9219,432.1563 486.1094,432.0469 Q486.2969,431.9375 486.5156,431.9375 Q486.8906,431.9375 487.125,432.2031 Q487.3594,432.4531 487.3594,433.0625 L487.3594,434.5156 Q487.3594,435.125 487.125,435.3906 Q486.8906,435.6563 486.5156,435.6563 Q486.1719,435.6563 485.9688,435.4531 Q485.7656,435.2656 485.6563,434.75 Q485.6094,434.3906 485.4219,434.2031 Q485.0938,433.8281 484.4844,433.6094 Q483.875,433.3906 483.25,433.3906 Q482.4844,433.3906 481.8438,433.7188 Q481.2188,434.0469 480.7188,434.7969 Q480.2344,435.5469 480.2344,436.5781 L480.2344,437.6719 Q480.2344,438.9063 481.125,439.7344 Q482.0156,440.5469 483.6094,440.5469 Q484.5469,440.5469 485.2031,440.2969 Q485.5938,440.1406 486.0156,439.7031 Q486.2813,439.4375 486.4219,439.3594 Q486.5781,439.2813 486.7813,439.2813 Q487.1094,439.2813 487.3594,439.5469 Q487.625,439.7969 487.625,440.1406 Q487.625,440.4844 487.2813,440.8906 Q486.7813,441.4688 485.9844,441.7969 Q484.9063,442.25 483.6094,442.25 Q482.0938,442.25 480.8906,441.625 Q479.9063,441.125 479.2188,440.0625 Q478.5313,438.9844 478.5313,437.7031 L478.5313,436.5469 Q478.5313,435.2188 479.1406,434.0781 Q479.7656,432.9219 480.8594,432.3125 Q481.9531,431.6875 483.1875,431.6875 Q483.9219,431.6875 484.5625,431.8594 Q485.2188,432.0156 485.7656,432.375 Z " fill="#000000"/><text fill="#000000" font-family="sans-serif" font-size="12" lengthAdjust="spacing" textLength="73" x="497" y="441.4102">Administrator</text><line style="stroke:#A80036;stroke-width:1.5;" x1="469" x2="572" y1="452.5" y2="452.5"/><line style="stroke:#A80036;stroke-width:1.5;" x1="469" x2="572" y1="460.5" y2="460.5"/><!--MD5=[a3638c1e5b65d287ecad7f06f5c0f212]
class Role--><rect codeLine="40" fill="#FEFECE" filter="url(#fq3pr831ygus5)" height="75.6719" id="Role" style="stroke:#A80036;stroke-width:1.5;" width="58" x="147.5" y="406.5"/><ellipse cx="162.5" cy="422.5" fill="#EB937F" rx="11" ry="11" style="stroke:#A80036;stroke-width:1.0;"/><path d="M161.3594,423.2969 L161.3594,425.7969 L165.6875,425.7969 L165.6875,424.875 Q165.6875,424.2656 165.9219,424 Q166.1719,423.7344 166.5469,423.7344 Q166.9219,423.7344 167.1563,424 Q167.3906,424.2656 167.3906,424.875 L167.3906,427.5 L159.3906,427.5 Q158.7656,427.5 158.5,427.2656 Q158.25,427.0313 158.25,426.6406 Q158.25,426.2656 158.5156,426.0313 Q158.7813,425.7969 159.3906,425.7969 L159.6563,425.7969 L159.6563,419.1406 L159.3906,419.1406 Q158.7656,419.1406 158.5,418.9063 Q158.25,418.6719 158.25,418.2813 Q158.25,417.9063 158.5,417.6719 Q158.7656,417.4375 159.3906,417.4375 L167.0156,417.4375 L167.0156,420.0313 Q167.0156,420.6406 166.7813,420.9063 Q166.5625,421.1563 166.1719,421.1563 Q165.7969,421.1563 165.5625,420.9063 Q165.3281,420.6406 165.3281,420.0313 L165.3281,419.1406 L161.3594,419.1406 L161.3594,421.5938 L162.8438,421.5938 Q162.8438,420.9375 162.9688,420.75 Q163.2344,420.3438 163.7031,420.3438 Q164.0781,420.3438 164.3125,420.6094 Q164.5469,420.8594 164.5469,421.4688 L164.5469,423.4375 Q164.5469,423.9844 164.4219,424.1719 Q164.1563,424.5625 163.7031,424.5625 Q163.2344,424.5625 162.9688,424.1563 Q162.8438,423.9688 162.8438,423.2969 L161.3594,423.2969 Z " fill="#000000"/><text fill="#000000" font-family="sans-serif" font-size="12" lengthAdjust="spacing" textLength="26" x="176.5" y="427.4102">Role</text><line style="stroke:#A80036;stroke-width:1.5;" x1="148.5" x2="204.5" y1="438.5" y2="438.5"/><text fill="#000000" font-family="sans-serif" font-size="11" lengthAdjust="spacing" textLength="27" x="153.5" y="453.9189">USER</text><text fill="#000000" font-family="sans-serif" font-size="11" lengthAdjust="spacing" textLength="32" x="153.5" y="467.7549">ADMIN</text><line style="stroke:#A80036;stroke-width:1.5;" x1="148.5" x2="204.5" y1="474.1719" y2="474.1719"/><!--MD5=[f0038396a8717327c40983dd0a817a23]
class CustomerManager--><rect codeLine="45" fill="#FEFECE" filter="url(#fq3pr831ygus5)" height="89.5078" id="CustomerManager" style="stroke:#A80036;stroke-width:1.5;" width="246" x="94.5" y="576.5"/><ellipse cx="161.75" cy="592.5" fill="#ADD1B2" rx="11" ry="11" style="stroke:#A80036;stroke-width:1.0;"/><path d="M164.5156,588.375 Q164.6719,588.1563 164.8594,588.0469 Q165.0469,587.9375 165.2656,587.9375 Q165.6406,587.9375 165.875,588.2031 Q166.1094,588.4531 166.1094,589.0625 L166.1094,590.5156 Q166.1094,591.125 165.875,591.3906 Q165.6406,591.6563 165.2656,591.6563 Q164.9219,591.6563 164.7188,591.4531 Q164.5156,591.2656 164.4063,590.75 Q164.3594,590.3906 164.1719,590.2031 Q163.8438,589.8281 163.2344,589.6094 Q162.625,589.3906 162,589.3906 Q161.2344,589.3906 160.5938,589.7188 Q159.9688,590.0469 159.4688,590.7969 Q158.9844,591.5469 158.9844,592.5781 L158.9844,593.6719 Q158.9844,594.9063 159.875,595.7344 Q160.7656,596.5469 162.3594,596.5469 Q163.2969,596.5469 163.9531,596.2969 Q164.3438,596.1406 164.7656,595.7031 Q165.0313,595.4375 165.1719,595.3594 Q165.3281,595.2813 165.5313,595.2813 Q165.8594,595.2813 166.1094,595.5469 Q166.375,595.7969 166.375,596.1406 Q166.375,596.4844 166.0313,596.8906 Q165.5313,597.4688 164.7344,597.7969 Q163.6563,598.25 162.3594,598.25 Q160.8438,598.25 159.6406,597.625 Q158.6563,597.125 157.9688,596.0625 Q157.2813,594.9844 157.2813,593.7031 L157.2813,592.5469 Q157.2813,591.2188 157.8906,590.0781 Q158.5156,588.9219 159.6094,588.3125 Q160.7031,587.6875 161.9375,587.6875 Q162.6719,587.6875 163.3125,587.8594 Q163.9688,588.0156 164.5156,588.375 Z " fill="#000000"/><text fill="#000000" font-family="sans-serif" font-size="12" lengthAdjust="spacing" textLength="103" x="182.25" y="597.4102">CustomerManager</text><line style="stroke:#A80036;stroke-width:1.5;" x1="95.5" x2="339.5" y1="608.5" y2="608.5"/><line style="stroke:#A80036;stroke-width:1.5;" x1="95.5" x2="339.5" y1="616.5" y2="616.5"/><ellipse cx="105.5" cy="627.5" fill="#84BE84" rx="3" ry="3" style="stroke:#038048;stroke-width:1.0;"/><text fill="#000000" font-family="sans-serif" font-size="11" lengthAdjust="spacing" textLength="113" x="114.5" y="631.9189">List&lt;Customer&gt; getAll()</text><ellipse cx="105.5" cy="641.3359" fill="#84BE84" rx="3" ry="3" style="stroke:#038048;stroke-width:1.0;"/><text fill="#000000" font-family="sans-serif" font-size="11" lengthAdjust="spacing" textLength="170" x="114.5" y="645.7549">Customer getCustomerById(long id)</text><ellipse cx="105.5" cy="655.1719" fill="#84BE84" rx="3" ry="3" style="stroke:#038048;stroke-width:1.0;"/><text fill="#000000" font-family="sans-serif" font-size="11" lengthAdjust="spacing" textLength="220" x="114.5" y="659.5908">boolean createCustomer(Customer customer)</text><!--MD5=[002ae683d7f409c5ece12e53748bdc0a]
class ICustomersRepo--><rect codeLine="51" fill="#FEFECE" filter="url(#fq3pr831ygus5)" height="61.8359" id="ICustomersRepo" style="stroke:#A80036;stroke-width:1.5;" width="153" x="376" y="590.5"/><ellipse cx="403.15" cy="606.5" fill="#B4A7E5" rx="11" ry="11" style="stroke:#A80036;stroke-width:1.0;"/><path d="M404.1031,603.1406 L404.1031,609.7969 L405.8219,609.7969 Q406.4313,609.7969 406.6969,610.0313 Q406.9625,610.2656 406.9625,610.6563 Q406.9625,611.0313 406.6969,611.2656 Q406.4313,611.5 405.8219,611.5 L400.6813,611.5 Q400.0719,611.5 399.8063,611.2656 Q399.5406,611.0313 399.5406,610.6406 Q399.5406,610.2656 399.8063,610.0313 Q400.0719,609.7969 400.6813,609.7969 L402.4,609.7969 L402.4,603.1406 L400.6813,603.1406 Q400.0719,603.1406 399.8063,602.9063 Q399.5406,602.6719 399.5406,602.2813 Q399.5406,601.9063 399.8063,601.6719 Q400.0719,601.4375 400.6813,601.4375 L405.8219,601.4375 Q406.4313,601.4375 406.6969,601.6719 Q406.9625,601.9063 406.9625,602.2813 Q406.9625,602.6719 406.6969,602.9063 Q406.4313,603.1406 405.8219,603.1406 L404.1031,603.1406 Z " fill="#000000"/><text fill="#000000" font-family="sans-serif" font-size="12" font-style="italic" lengthAdjust="spacing" textLength="94" x="419.85" y="611.4102">ICustomersRepo</text><line style="stroke:#A80036;stroke-width:1.5;" x1="377" x2="528" y1="622.5" y2="622.5"/><line style="stroke:#A80036;stroke-width:1.5;" x1="377" x2="528" y1="630.5" y2="630.5"/><ellipse cx="387" cy="641.5" fill="#84BE84" rx="3" ry="3" style="stroke:#038048;stroke-width:1.0;"/><text fill="#000000" font-family="sans-serif" font-size="11" lengthAdjust="spacing" textLength="127" x="396" y="645.9189">Customer findById(long id)</text><!--MD5=[2ce0c9fb7f55b1e256ab28a8ea6b25ec]
class Customer--><rect codeLine="55" fill="#FEFECE" filter="url(#fq3pr831ygus5)" height="103.3438" id="Customer" style="stroke:#A80036;stroke-width:1.5;" width="184" x="564.5" y="570"/><ellipse cx="624.75" cy="586" fill="#ADD1B2" rx="11" ry="11" style="stroke:#A80036;stroke-width:1.0;"/><path d="M627.5156,581.875 Q627.6719,581.6563 627.8594,581.5469 Q628.0469,581.4375 628.2656,581.4375 Q628.6406,581.4375 628.875,581.7031 Q629.1094,581.9531 629.1094,582.5625 L629.1094,584.0156 Q629.1094,584.625 628.875,584.8906 Q628.6406,585.1563 628.2656,585.1563 Q627.9219,585.1563 627.7188,584.9531 Q627.5156,584.7656 627.4063,584.25 Q627.3594,583.8906 627.1719,583.7031 Q626.8438,583.3281 626.2344,583.1094 Q625.625,582.8906 625,582.8906 Q624.2344,582.8906 623.5938,583.2188 Q622.9688,583.5469 622.4688,584.2969 Q621.9844,585.0469 621.9844,586.0781 L621.9844,587.1719 Q621.9844,588.4063 622.875,589.2344 Q623.7656,590.0469 625.3594,590.0469 Q626.2969,590.0469 626.9531,589.7969 Q627.3438,589.6406 627.7656,589.2031 Q628.0313,588.9375 628.1719,588.8594 Q628.3281,588.7813 628.5313,588.7813 Q628.8594,588.7813 629.1094,589.0469 Q629.375,589.2969 629.375,589.6406 Q629.375,589.9844 629.0313,590.3906 Q628.5313,590.9688 627.7344,591.2969 Q626.6563,591.75 625.3594,591.75 Q623.8438,591.75 622.6406,591.125 Q621.6563,590.625 620.9688,589.5625 Q620.2813,588.4844 620.2813,587.2031 L620.2813,586.0469 Q620.2813,584.7188 620.8906,583.5781 Q621.5156,582.4219 622.6094,581.8125 Q623.7031,581.1875 624.9375,581.1875 Q625.6719,581.1875 626.3125,581.3594 Q626.9688,581.5156 627.5156,581.875 Z " fill="#000000"/><text fill="#000000" font-family="sans-serif" font-size="12" lengthAdjust="spacing" textLength="55" x="645.25" y="590.9102">Customer</text><line style="stroke:#A80036;stroke-width:1.5;" x1="565.5" x2="747.5" y1="602" y2="602"/><rect fill="none" height="6" style="stroke:#C82930;stroke-width:1.0;" width="6" x="572.5" y="610"/><text fill="#000000" font-family="sans-serif" font-size="11" lengthAdjust="spacing" textLength="98" x="584.5" y="617.4189">String phoneNumber</text><rect fill="none" height="6" style="stroke:#C82930;stroke-width:1.0;" width="6" x="572.5" y="623.8359"/><text fill="#000000" font-family="sans-serif" font-size="11" lengthAdjust="spacing" textLength="118" x="584.5" y="631.2549">List&lt;Account&gt; accounts</text><rect fill="none" height="6" style="stroke:#C82930;stroke-width:1.0;" width="6" x="572.5" y="637.6719"/><text fill="#000000" font-family="sans-serif" font-size="11" lengthAdjust="spacing" textLength="158" x="584.5" y="645.0908">ICustomersRepo customersRepo</text><rect fill="none" height="6" style="stroke:#C82930;stroke-width:1.0;" width="6" x="572.5" y="651.5078"/><text fill="#000000" font-family="sans-serif" font-size="11" lengthAdjust="spacing" textLength="112" x="584.5" y="658.9268">IUsersRepo usersRepo</text><line style="stroke:#A80036;stroke-width:1.5;" x1="565.5" x2="747.5" y1="665.3438" y2="665.3438"/><!--MD5=[6007011eca2e8fa8fa5ff82c58f58b50]
class AccountManager--><rect codeLine="81" fill="#FEFECE" filter="url(#fq3pr831ygus5)" height="89.5078" id="AccountManager" style="stroke:#A80036;stroke-width:1.5;" width="194" x="562.5" y="820"/><ellipse cx="609.75" cy="836" fill="#ADD1B2" rx="11" ry="11" style="stroke:#A80036;stroke-width:1.0;"/><path d="M612.5156,831.875 Q612.6719,831.6563 612.8594,831.5469 Q613.0469,831.4375 613.2656,831.4375 Q613.6406,831.4375 613.875,831.7031 Q614.1094,831.9531 614.1094,832.5625 L614.1094,834.0156 Q614.1094,834.625 613.875,834.8906 Q613.6406,835.1563 613.2656,835.1563 Q612.9219,835.1563 612.7188,834.9531 Q612.5156,834.7656 612.4063,834.25 Q612.3594,833.8906 612.1719,833.7031 Q611.8438,833.3281 611.2344,833.1094 Q610.625,832.8906 610,832.8906 Q609.2344,832.8906 608.5938,833.2188 Q607.9688,833.5469 607.4688,834.2969 Q606.9844,835.0469 606.9844,836.0781 L606.9844,837.1719 Q606.9844,838.4063 607.875,839.2344 Q608.7656,840.0469 610.3594,840.0469 Q611.2969,840.0469 611.9531,839.7969 Q612.3438,839.6406 612.7656,839.2031 Q613.0313,838.9375 613.1719,838.8594 Q613.3281,838.7813 613.5313,838.7813 Q613.8594,838.7813 614.1094,839.0469 Q614.375,839.2969 614.375,839.6406 Q614.375,839.9844 614.0313,840.3906 Q613.5313,840.9688 612.7344,841.2969 Q611.6563,841.75 610.3594,841.75 Q608.8438,841.75 607.6406,841.125 Q606.6563,840.625 605.9688,839.5625 Q605.2813,838.4844 605.2813,837.2031 L605.2813,836.0469 Q605.2813,834.7188 605.8906,833.5781 Q606.5156,832.4219 607.6094,831.8125 Q608.7031,831.1875 609.9375,831.1875 Q610.6719,831.1875 611.3125,831.3594 Q611.9688,831.5156 612.5156,831.875 Z " fill="#000000"/><text fill="#000000" font-family="sans-serif" font-size="12" lengthAdjust="spacing" textLength="91" x="630.25" y="840.9102">AccountManager</text><line style="stroke:#A80036;stroke-width:1.5;" x1="563.5" x2="755.5" y1="852" y2="852"/><line style="stroke:#A80036;stroke-width:1.5;" x1="563.5" x2="755.5" y1="860" y2="860"/><ellipse cx="573.5" cy="871" fill="#84BE84" rx="3" ry="3" style="stroke:#038048;stroke-width:1.0;"/><text fill="#000000" font-family="sans-serif" font-size="11" lengthAdjust="spacing" textLength="160" x="582.5" y="875.4189">Account getAccountById(long id)</text><ellipse cx="573.5" cy="884.8359" fill="#84BE84" rx="3" ry="3" style="stroke:#038048;stroke-width:1.0;"/><text fill="#000000" font-family="sans-serif" font-size="11" lengthAdjust="spacing" textLength="108" x="582.5" y="889.2549">List&lt;Account&gt; getAll()</text><ellipse cx="573.5" cy="898.6719" fill="#84BE84" rx="3" ry="3" style="stroke:#038048;stroke-width:1.0;"/><text fill="#000000" font-family="sans-serif" font-size="11" lengthAdjust="spacing" textLength="168" x="582.5" y="903.0908">getAccountsByCustomerId(long id)</text><!--MD5=[84f2a341280963c6818f86475dcd9e4a]
class IAccountsRepo--><rect codeLine="87" fill="#FEFECE" filter="url(#fq3pr831ygus5)" height="61.8359" id="IAccountsRepo" style="stroke:#A80036;stroke-width:1.5;" width="148" x="379.5" y="834"/><ellipse cx="408.9" cy="850" fill="#B4A7E5" rx="11" ry="11" style="stroke:#A80036;stroke-width:1.0;"/><path d="M409.8531,846.6406 L409.8531,853.2969 L411.5719,853.2969 Q412.1813,853.2969 412.4469,853.5313 Q412.7125,853.7656 412.7125,854.1563 Q412.7125,854.5313 412.4469,854.7656 Q412.1813,855 411.5719,855 L406.4313,855 Q405.8219,855 405.5563,854.7656 Q405.2906,854.5313 405.2906,854.1406 Q405.2906,853.7656 405.5563,853.5313 Q405.8219,853.2969 406.4313,853.2969 L408.15,853.2969 L408.15,846.6406 L406.4313,846.6406 Q405.8219,846.6406 405.5563,846.4063 Q405.2906,846.1719 405.2906,845.7813 Q405.2906,845.4063 405.5563,845.1719 Q405.8219,844.9375 406.4313,844.9375 L411.5719,844.9375 Q412.1813,844.9375 412.4469,845.1719 Q412.7125,845.4063 412.7125,845.7813 Q412.7125,846.1719 412.4469,846.4063 Q412.1813,846.6406 411.5719,846.6406 L409.8531,846.6406 Z " fill="#000000"/><text fill="#000000" font-family="sans-serif" font-size="12" font-style="italic" lengthAdjust="spacing" textLength="84" x="426.1" y="854.9102">IAccountsRepo</text><line style="stroke:#A80036;stroke-width:1.5;" x1="380.5" x2="526.5" y1="866" y2="866"/><line style="stroke:#A80036;stroke-width:1.5;" x1="380.5" x2="526.5" y1="874" y2="874"/><ellipse cx="390.5" cy="885" fill="#84BE84" rx="3" ry="3" style="stroke:#038048;stroke-width:1.0;"/><text fill="#000000" font-family="sans-serif" font-size="11" lengthAdjust="spacing" textLength="122" x="399.5" y="889.4189">Account findById(long id)</text><!--MD5=[f9a29335b499db729be669fd1bd54958]
class Account--><rect codeLine="91" fill="#FEFECE" filter="url(#fq3pr831ygus5)" height="172.5234" id="Account" style="stroke:#A80036;stroke-width:1.5;" width="175" x="445" y="970"/><ellipse cx="506.75" cy="986" fill="#ADD1B2" rx="11" ry="11" style="stroke:#A80036;stroke-width:1.0;"/><path d="M509.5156,981.875 Q509.6719,981.6563 509.8594,981.5469 Q510.0469,981.4375 510.2656,981.4375 Q510.6406,981.4375 510.875,981.7031 Q511.1094,981.9531 511.1094,982.5625 L511.1094,984.0156 Q511.1094,984.625 510.875,984.8906 Q510.6406,985.1563 510.2656,985.1563 Q509.9219,985.1563 509.7188,984.9531 Q509.5156,984.7656 509.4063,984.25 Q509.3594,983.8906 509.1719,983.7031 Q508.8438,983.3281 508.2344,983.1094 Q507.625,982.8906 507,982.8906 Q506.2344,982.8906 505.5938,983.2188 Q504.9688,983.5469 504.4688,984.2969 Q503.9844,985.0469 503.9844,986.0781 L503.9844,987.1719 Q503.9844,988.4063 504.875,989.2344 Q505.7656,990.0469 507.3594,990.0469 Q508.2969,990.0469 508.9531,989.7969 Q509.3438,989.6406 509.7656,989.2031 Q510.0313,988.9375 510.1719,988.8594 Q510.3281,988.7813 510.5313,988.7813 Q510.8594,988.7813 511.1094,989.0469 Q511.375,989.2969 511.375,989.6406 Q511.375,989.9844 511.0313,990.3906 Q510.5313,990.9688 509.7344,991.2969 Q508.6563,991.75 507.3594,991.75 Q505.8438,991.75 504.6406,991.125 Q503.6563,990.625 502.9688,989.5625 Q502.2813,988.4844 502.2813,987.2031 L502.2813,986.0469 Q502.2813,984.7188 502.8906,983.5781 Q503.5156,982.4219 504.6094,981.8125 Q505.7031,981.1875 506.9375,981.1875 Q507.6719,981.1875 508.3125,981.3594 Q508.9688,981.5156 509.5156,981.875 Z " fill="#000000"/><text fill="#000000" font-family="sans-serif" font-size="12" lengthAdjust="spacing" textLength="43" x="527.25" y="990.9102">Account</text><line style="stroke:#A80036;stroke-width:1.5;" x1="446" x2="619" y1="1002" y2="1002"/><rect fill="none" height="6" style="stroke:#C82930;stroke-width:1.0;" width="6" x="453" y="1010"/><text fill="#000000" font-family="sans-serif" font-size="11" lengthAdjust="spacing" textLength="31" x="465" y="1017.4189">long id</text><rect fill="none" height="6" style="stroke:#C82930;stroke-width:1.0;" width="6" x="453" y="1023.8359"/><text fill="#000000" font-family="sans-serif" font-size="11" lengthAdjust="spacing" textLength="55" x="465" y="1031.2549">String IBAN</text><rect fill="none" height="6" style="stroke:#C82930;stroke-width:1.0;" width="6" x="453" y="1037.6719"/><text fill="#000000" font-family="sans-serif" font-size="11" lengthAdjust="spacing" textLength="131" x="465" y="1045.0908">AccountType accountType</text><rect fill="none" height="6" style="stroke:#C82930;stroke-width:1.0;" width="6" x="453" y="1051.5078"/><text fill="#000000" font-family="sans-serif" font-size="11" lengthAdjust="spacing" textLength="71" x="465" y="1058.9268">Date openDate</text><rect fill="none" height="6" style="stroke:#C82930;stroke-width:1.0;" width="6" x="453" y="1065.3438"/><text fill="#000000" font-family="sans-serif" font-size="11" lengthAdjust="spacing" textLength="93" x="465" y="1072.7627">BigDecimal balance</text><rect fill="none" height="6" style="stroke:#C82930;stroke-width:1.0;" width="6" x="453" y="1079.1797"/><text fill="#000000" font-family="sans-serif" font-size="11" lengthAdjust="spacing" textLength="92" x="465" y="1086.5986">Currency currency</text><rect fill="none" height="6" style="stroke:#C82930;stroke-width:1.0;" width="6" x="453" y="1093.0156"/><text fill="#000000" font-family="sans-serif" font-size="11" lengthAdjust="spacing" textLength="96" x="465" y="1100.4346">ICustomer customer</text><rect fill="none" height="6" style="stroke:#C82930;stroke-width:1.0;" width="6" x="453" y="1106.8516"/><text fill="#000000" font-family="sans-serif" font-size="11" lengthAdjust="spacing" textLength="149" x="465" y="1114.2705">List&lt;Transaction&gt; transactions</text><rect fill="none" height="6" style="stroke:#C82930;stroke-width:1.0;" width="6" x="453" y="1120.6875"/><text fill="#000000" font-family="sans-serif" font-size="11" lengthAdjust="spacing" textLength="147" x="465" y="1128.1064">IAccountsRepo accountsRepo</text><line style="stroke:#A80036;stroke-width:1.5;" x1="446" x2="619" y1="1134.5234" y2="1134.5234"/><!--MD5=[c74927aacb7973460d2c24e2e8ccb9a0]
class AccountType--><rect codeLine="103" fill="#FEFECE" filter="url(#fq3pr831ygus5)" height="75.6719" id="AccountType" style="stroke:#A80036;stroke-width:1.5;" width="101" x="655" y="1018.5"/><ellipse cx="670" cy="1034.5" fill="#EB937F" rx="11" ry="11" style="stroke:#A80036;stroke-width:1.0;"/><path d="M668.8594,1035.2969 L668.8594,1037.7969 L673.1875,1037.7969 L673.1875,1036.875 Q673.1875,1036.2656 673.4219,1036 Q673.6719,1035.7344 674.0469,1035.7344 Q674.4219,1035.7344 674.6563,1036 Q674.8906,1036.2656 674.8906,1036.875 L674.8906,1039.5 L666.8906,1039.5 Q666.2656,1039.5 666,1039.2656 Q665.75,1039.0313 665.75,1038.6406 Q665.75,1038.2656 666.0156,1038.0313 Q666.2813,1037.7969 666.8906,1037.7969 L667.1563,1037.7969 L667.1563,1031.1406 L666.8906,1031.1406 Q666.2656,1031.1406 666,1030.9063 Q665.75,1030.6719 665.75,1030.2813 Q665.75,1029.9063 666,1029.6719 Q666.2656,1029.4375 666.8906,1029.4375 L674.5156,1029.4375 L674.5156,1032.0313 Q674.5156,1032.6406 674.2813,1032.9063 Q674.0625,1033.1563 673.6719,1033.1563 Q673.2969,1033.1563 673.0625,1032.9063 Q672.8281,1032.6406 672.8281,1032.0313 L672.8281,1031.1406 L668.8594,1031.1406 L668.8594,1033.5938 L670.3438,1033.5938 Q670.3438,1032.9375 670.4688,1032.75 Q670.7344,1032.3438 671.2031,1032.3438 Q671.5781,1032.3438 671.8125,1032.6094 Q672.0469,1032.8594 672.0469,1033.4688 L672.0469,1035.4375 Q672.0469,1035.9844 671.9219,1036.1719 Q671.6563,1036.5625 671.2031,1036.5625 Q670.7344,1036.5625 670.4688,1036.1563 Q670.3438,1035.9688 670.3438,1035.2969 L668.8594,1035.2969 Z " fill="#000000"/><text fill="#000000" font-family="sans-serif" font-size="12" lengthAdjust="spacing" textLength="69" x="684" y="1039.4102">AccountType</text><line style="stroke:#A80036;stroke-width:1.5;" x1="656" x2="755" y1="1050.5" y2="1050.5"/><text fill="#000000" font-family="sans-serif" font-size="11" lengthAdjust="spacing" textLength="46" x="661" y="1065.9189">PRIMARY</text><text fill="#000000" font-family="sans-serif" font-size="11" lengthAdjust="spacing" textLength="65" x="661" y="1079.7549">SECONDARY</text><line style="stroke:#A80036;stroke-width:1.5;" x1="656" x2="755" y1="1086.1719" y2="1086.1719"/><!--MD5=[e53526c0f050b9edca6a8358e072d9e5]
class TransactionManager--><rect codeLine="120" fill="#FEFECE" filter="url(#fq3pr831ygus5)" height="131.0156" id="TransactionManager" style="stroke:#A80036;stroke-width:1.5;" width="220" x="312.5" y="1290"/><ellipse cx="361.75" cy="1306" fill="#ADD1B2" rx="11" ry="11" style="stroke:#A80036;stroke-width:1.0;"/><path d="M364.5156,1301.875 Q364.6719,1301.6563 364.8594,1301.5469 Q365.0469,1301.4375 365.2656,1301.4375 Q365.6406,1301.4375 365.875,1301.7031 Q366.1094,1301.9531 366.1094,1302.5625 L366.1094,1304.0156 Q366.1094,1304.625 365.875,1304.8906 Q365.6406,1305.1563 365.2656,1305.1563 Q364.9219,1305.1563 364.7188,1304.9531 Q364.5156,1304.7656 364.4063,1304.25 Q364.3594,1303.8906 364.1719,1303.7031 Q363.8438,1303.3281 363.2344,1303.1094 Q362.625,1302.8906 362,1302.8906 Q361.2344,1302.8906 360.5938,1303.2188 Q359.9688,1303.5469 359.4688,1304.2969 Q358.9844,1305.0469 358.9844,1306.0781 L358.9844,1307.1719 Q358.9844,1308.4063 359.875,1309.2344 Q360.7656,1310.0469 362.3594,1310.0469 Q363.2969,1310.0469 363.9531,1309.7969 Q364.3438,1309.6406 364.7656,1309.2031 Q365.0313,1308.9375 365.1719,1308.8594 Q365.3281,1308.7813 365.5313,1308.7813 Q365.8594,1308.7813 366.1094,1309.0469 Q366.375,1309.2969 366.375,1309.6406 Q366.375,1309.9844 366.0313,1310.3906 Q365.5313,1310.9688 364.7344,1311.2969 Q363.6563,1311.75 362.3594,1311.75 Q360.8438,1311.75 359.6406,1311.125 Q358.6563,1310.625 357.9688,1309.5625 Q357.2813,1308.4844 357.2813,1307.2031 L357.2813,1306.0469 Q357.2813,1304.7188 357.8906,1303.5781 Q358.5156,1302.4219 359.6094,1301.8125 Q360.7031,1301.1875 361.9375,1301.1875 Q362.6719,1301.1875 363.3125,1301.3594 Q363.9688,1301.5156 364.5156,1301.875 Z " fill="#000000"/><text fill="#000000" font-family="sans-serif" font-size="12" lengthAdjust="spacing" textLength="113" x="382.25" y="1310.9102">TransactionManager</text><line style="stroke:#A80036;stroke-width:1.5;" x1="313.5" x2="531.5" y1="1322" y2="1322"/><line style="stroke:#A80036;stroke-width:1.5;" x1="313.5" x2="531.5" y1="1330" y2="1330"/><ellipse cx="323.5" cy="1341" fill="#84BE84" rx="3" ry="3" style="stroke:#038048;stroke-width:1.0;"/><text fill="#000000" font-family="sans-serif" font-size="11" lengthAdjust="spacing" textLength="124" x="332.5" y="1345.4189">List&lt;Transaction&gt; getAll()</text><ellipse cx="323.5" cy="1354.8359" fill="#84BE84" rx="3" ry="3" style="stroke:#038048;stroke-width:1.0;"/><text fill="#000000" font-family="sans-serif" font-size="11" lengthAdjust="spacing" textLength="124" x="332.5" y="1359.2549">Transaction getById(long)</text><ellipse cx="323.5" cy="1368.6719" fill="#84BE84" rx="3" ry="3" style="stroke:#038048;stroke-width:1.0;"/><text fill="#000000" font-family="sans-serif" font-size="11" lengthAdjust="spacing" textLength="194" x="332.5" y="1373.0908">List&lt;Transaction&gt; getByAccountId(long)</text><ellipse cx="323.5" cy="1382.5078" fill="#84BE84" rx="3" ry="3" style="stroke:#038048;stroke-width:1.0;"/><text fill="#000000" font-family="sans-serif" font-size="11" lengthAdjust="spacing" textLength="176" x="332.5" y="1386.9268">void createTransaction(Transaction)</text><ellipse cx="323.5" cy="1396.3438" fill="#84BE84" rx="3" ry="3" style="stroke:#038048;stroke-width:1.0;"/><text fill="#000000" font-family="sans-serif" font-size="11" lengthAdjust="spacing" textLength="162" x="332.5" y="1400.7627">void editTransaction(Transaction)</text><ellipse cx="323.5" cy="1410.1797" fill="#84BE84" rx="3" ry="3" style="stroke:#038048;stroke-width:1.0;"/><text fill="#000000" font-family="sans-serif" font-size="11" lengthAdjust="spacing" textLength="176" x="332.5" y="1414.5986">void stornoTransaction(Transaction)</text><!--MD5=[ce8da3c268ad22531c71932ed6f7c72d]
class ITransactionsRepo--><rect codeLine="129" fill="#FEFECE" filter="url(#fq3pr831ygus5)" height="61.8359" id="ITransactionsRepo" style="stroke:#A80036;stroke-width:1.5;" width="164" x="113.5" y="1324.5"/><ellipse cx="141.1" cy="1340.5" fill="#B4A7E5" rx="11" ry="11" style="stroke:#A80036;stroke-width:1.0;"/><path d="M142.0531,1337.1406 L142.0531,1343.7969 L143.7719,1343.7969 Q144.3813,1343.7969 144.6469,1344.0313 Q144.9125,1344.2656 144.9125,1344.6563 Q144.9125,1345.0313 144.6469,1345.2656 Q144.3813,1345.5 143.7719,1345.5 L138.6313,1345.5 Q138.0219,1345.5 137.7563,1345.2656 Q137.4906,1345.0313 137.4906,1344.6406 Q137.4906,1344.2656 137.7563,1344.0313 Q138.0219,1343.7969 138.6313,1343.7969 L140.35,1343.7969 L140.35,1337.1406 L138.6313,1337.1406 Q138.0219,1337.1406 137.7563,1336.9063 Q137.4906,1336.6719 137.4906,1336.2813 Q137.4906,1335.9063 137.7563,1335.6719 Q138.0219,1335.4375 138.6313,1335.4375 L143.7719,1335.4375 Q144.3813,1335.4375 144.6469,1335.6719 Q144.9125,1335.9063 144.9125,1336.2813 Q144.9125,1336.6719 144.6469,1336.9063 Q144.3813,1337.1406 143.7719,1337.1406 L142.0531,1337.1406 Z " fill="#000000"/><text fill="#000000" font-family="sans-serif" font-size="12" font-style="italic" lengthAdjust="spacing" textLength="104" x="157.9" y="1345.4102">ITransactionsRepo</text><line style="stroke:#A80036;stroke-width:1.5;" x1="114.5" x2="276.5" y1="1356.5" y2="1356.5"/><line style="stroke:#A80036;stroke-width:1.5;" x1="114.5" x2="276.5" y1="1364.5" y2="1364.5"/><ellipse cx="124.5" cy="1375.5" fill="#84BE84" rx="3" ry="3" style="stroke:#038048;stroke-width:1.0;"/><text fill="#000000" font-family="sans-serif" font-size="11" lengthAdjust="spacing" textLength="138" x="133.5" y="1379.9189">Transaction findById(long id)</text><!--MD5=[102b03025ee24d4b51c425a88ecde043]
class ITransactionsLogRepo--><rect codeLine="133" fill="#FEFECE" filter="url(#fq3pr831ygus5)" height="61.8359" id="ITransactionsLogRepo" style="stroke:#A80036;stroke-width:1.5;" width="164" x="217.5" y="1481"/><ellipse cx="235.65" cy="1497" fill="#B4A7E5" rx="11" ry="11" style="stroke:#A80036;stroke-width:1.0;"/><path d="M236.6031,1493.6406 L236.6031,1500.2969 L238.3219,1500.2969 Q238.9313,1500.2969 239.1969,1500.5313 Q239.4625,1500.7656 239.4625,1501.1563 Q239.4625,1501.5313 239.1969,1501.7656 Q238.9313,1502 238.3219,1502 L233.1813,1502 Q232.5719,1502 232.3063,1501.7656 Q232.0406,1501.5313 232.0406,1501.1406 Q232.0406,1500.7656 232.3063,1500.5313 Q232.5719,1500.2969 233.1813,1500.2969 L234.9,1500.2969 L234.9,1493.6406 L233.1813,1493.6406 Q232.5719,1493.6406 232.3063,1493.4063 Q232.0406,1493.1719 232.0406,1492.7813 Q232.0406,1492.4063 232.3063,1492.1719 Q232.5719,1491.9375 233.1813,1491.9375 L238.3219,1491.9375 Q238.9313,1491.9375 239.1969,1492.1719 Q239.4625,1492.4063 239.4625,1492.7813 Q239.4625,1493.1719 239.1969,1493.4063 Q238.9313,1493.6406 238.3219,1493.6406 L236.6031,1493.6406 Z " fill="#000000"/><text fill="#000000" font-family="sans-serif" font-size="12" font-style="italic" lengthAdjust="spacing" textLength="125" x="250.35" y="1501.9102">ITransactionsLogRepo</text><line style="stroke:#A80036;stroke-width:1.5;" x1="218.5" x2="380.5" y1="1513" y2="1513"/><line style="stroke:#A80036;stroke-width:1.5;" x1="218.5" x2="380.5" y1="1521" y2="1521"/><ellipse cx="228.5" cy="1532" fill="#84BE84" rx="3" ry="3" style="stroke:#038048;stroke-width:1.0;"/><text fill="#000000" font-family="sans-serif" font-size="11" lengthAdjust="spacing" textLength="138" x="237.5" y="1536.4189">Transaction findById(long id)</text><!--MD5=[4555bb1b0911a5adf28ce6dbe60fed2e]
class Transaction--><rect codeLine="137" fill="#FEFECE" filter="url(#fq3pr831ygus5)" height="144.8516" id="Transaction" style="stroke:#A80036;stroke-width:1.5;" width="245" x="103" y="1603"/><ellipse cx="188.75" cy="1619" fill="#ADD1B2" rx="11" ry="11" style="stroke:#A80036;stroke-width:1.0;"/><path d="M191.5156,1614.875 Q191.6719,1614.6563 191.8594,1614.5469 Q192.0469,1614.4375 192.2656,1614.4375 Q192.6406,1614.4375 192.875,1614.7031 Q193.1094,1614.9531 193.1094,1615.5625 L193.1094,1617.0156 Q193.1094,1617.625 192.875,1617.8906 Q192.6406,1618.1563 192.2656,1618.1563 Q191.9219,1618.1563 191.7188,1617.9531 Q191.5156,1617.7656 191.4063,1617.25 Q191.3594,1616.8906 191.1719,1616.7031 Q190.8438,1616.3281 190.2344,1616.1094 Q189.625,1615.8906 189,1615.8906 Q188.2344,1615.8906 187.5938,1616.2188 Q186.9688,1616.5469 186.4688,1617.2969 Q185.9844,1618.0469 185.9844,1619.0781 L185.9844,1620.1719 Q185.9844,1621.4063 186.875,1622.2344 Q187.7656,1623.0469 189.3594,1623.0469 Q190.2969,1623.0469 190.9531,1622.7969 Q191.3438,1622.6406 191.7656,1622.2031 Q192.0313,1621.9375 192.1719,1621.8594 Q192.3281,1621.7813 192.5313,1621.7813 Q192.8594,1621.7813 193.1094,1622.0469 Q193.375,1622.2969 193.375,1622.6406 Q193.375,1622.9844 193.0313,1623.3906 Q192.5313,1623.9688 191.7344,1624.2969 Q190.6563,1624.75 189.3594,1624.75 Q187.8438,1624.75 186.6406,1624.125 Q185.6563,1623.625 184.9688,1622.5625 Q184.2813,1621.4844 184.2813,1620.2031 L184.2813,1619.0469 Q184.2813,1617.7188 184.8906,1616.5781 Q185.5156,1615.4219 186.6094,1614.8125 Q187.7031,1614.1875 188.9375,1614.1875 Q189.6719,1614.1875 190.3125,1614.3594 Q190.9688,1614.5156 191.5156,1614.875 Z " fill="#000000"/><text fill="#000000" font-family="sans-serif" font-size="12" lengthAdjust="spacing" textLength="65" x="209.25" y="1623.9102">Transaction</text><line style="stroke:#A80036;stroke-width:1.5;" x1="104" x2="347" y1="1635" y2="1635"/><rect fill="none" height="6" style="stroke:#C82930;stroke-width:1.0;" width="6" x="111" y="1643"/><text fill="#000000" font-family="sans-serif" font-size="11" lengthAdjust="spacing" textLength="31" x="123" y="1650.4189">long id</text><rect fill="none" height="6" style="stroke:#C82930;stroke-width:1.0;" width="6" x="111" y="1656.8359"/><text fill="#000000" font-family="sans-serif" font-size="11" lengthAdjust="spacing" textLength="87" x="123" y="1664.2549">User sessionUser</text><rect fill="none" height="6" style="stroke:#C82930;stroke-width:1.0;" width="6" x="111" y="1670.6719"/><text fill="#000000" font-family="sans-serif" font-size="11" lengthAdjust="spacing" textLength="121" x="123" y="1678.0908">TransactionStatus status</text><rect fill="none" height="6" style="stroke:#C82930;stroke-width:1.0;" width="6" x="111" y="1684.5078"/><text fill="#000000" font-family="sans-serif" font-size="11" lengthAdjust="spacing" textLength="84" x="123" y="1691.9268">String description</text><rect fill="none" height="6" style="stroke:#C82930;stroke-width:1.0;" width="6" x="111" y="1698.3438"/><text fill="#000000" font-family="sans-serif" font-size="11" lengthAdjust="spacing" textLength="116" x="123" y="1705.7627">LocalDateTime dateTime</text><rect fill="none" height="6" style="stroke:#C82930;stroke-width:1.0;" width="6" x="111" y="1712.1797"/><text fill="#000000" font-family="sans-serif" font-size="11" lengthAdjust="spacing" textLength="219" x="123" y="1719.5986">List&lt;TransactionRecord&gt; transactionRecords</text><rect fill="none" height="6" style="stroke:#C82930;stroke-width:1.0;" width="6" x="111" y="1726.0156"/><text fill="#000000" font-family="sans-serif" font-size="11" lengthAdjust="spacing" textLength="178" x="123" y="1733.4346">ITransactionsRepo transactionsRepo</text><line style="stroke:#A80036;stroke-width:1.5;" x1="104" x2="347" y1="1739.8516" y2="1739.8516"/><!--MD5=[2550263cdaad177f73c4ad0f861dcf34]
class TransactionStatus--><rect codeLine="147" fill="#FEFECE" filter="url(#fq3pr831ygus5)" height="103.3438" id="TransactionStatus" style="stroke:#A80036;stroke-width:1.5;" width="132" x="383.5" y="1624"/><ellipse cx="398.5" cy="1640" fill="#EB937F" rx="11" ry="11" style="stroke:#A80036;stroke-width:1.0;"/><path d="M397.3594,1640.7969 L397.3594,1643.2969 L401.6875,1643.2969 L401.6875,1642.375 Q401.6875,1641.7656 401.9219,1641.5 Q402.1719,1641.2344 402.5469,1641.2344 Q402.9219,1641.2344 403.1563,1641.5 Q403.3906,1641.7656 403.3906,1642.375 L403.3906,1645 L395.3906,1645 Q394.7656,1645 394.5,1644.7656 Q394.25,1644.5313 394.25,1644.1406 Q394.25,1643.7656 394.5156,1643.5313 Q394.7813,1643.2969 395.3906,1643.2969 L395.6563,1643.2969 L395.6563,1636.6406 L395.3906,1636.6406 Q394.7656,1636.6406 394.5,1636.4063 Q394.25,1636.1719 394.25,1635.7813 Q394.25,1635.4063 394.5,1635.1719 Q394.7656,1634.9375 395.3906,1634.9375 L403.0156,1634.9375 L403.0156,1637.5313 Q403.0156,1638.1406 402.7813,1638.4063 Q402.5625,1638.6563 402.1719,1638.6563 Q401.7969,1638.6563 401.5625,1638.4063 Q401.3281,1638.1406 401.3281,1637.5313 L401.3281,1636.6406 L397.3594,1636.6406 L397.3594,1639.0938 L398.8438,1639.0938 Q398.8438,1638.4375 398.9688,1638.25 Q399.2344,1637.8438 399.7031,1637.8438 Q400.0781,1637.8438 400.3125,1638.1094 Q400.5469,1638.3594 400.5469,1638.9688 L400.5469,1640.9375 Q400.5469,1641.4844 400.4219,1641.6719 Q400.1563,1642.0625 399.7031,1642.0625 Q399.2344,1642.0625 398.9688,1641.6563 Q398.8438,1641.4688 398.8438,1640.7969 L397.3594,1640.7969 Z " fill="#000000"/><text fill="#000000" font-family="sans-serif" font-size="12" lengthAdjust="spacing" textLength="100" x="412.5" y="1644.9102">TransactionStatus</text><line style="stroke:#A80036;stroke-width:1.5;" x1="384.5" x2="514.5" y1="1656" y2="1656"/><text fill="#000000" font-family="sans-serif" font-size="11" lengthAdjust="spacing" textLength="15" x="389.5" y="1671.4189">OK</text><text fill="#000000" font-family="sans-serif" font-size="11" lengthAdjust="spacing" textLength="58" x="389.5" y="1685.2549">CORECTION</text><text fill="#000000" font-family="sans-serif" font-size="11" lengthAdjust="spacing" textLength="48" x="389.5" y="1699.0908">STORNED</text><text fill="#000000" font-family="sans-serif" font-size="11" lengthAdjust="spacing" textLength="43" x="389.5" y="1712.9268">STORNO</text><line style="stroke:#A80036;stroke-width:1.5;" x1="384.5" x2="514.5" y1="1719.3438" y2="1719.3438"/><!--MD5=[77630cde98bd2a27fb0d26409ebe7473]
class TransactionRecord--><rect codeLine="154" fill="#FEFECE" filter="url(#fq3pr831ygus5)" height="131.0156" id="TransactionRecord" style="stroke:#A80036;stroke-width:1.5;" width="140" x="123.5" y="1808"/><ellipse cx="139.85" cy="1824" fill="#ADD1B2" rx="11" ry="11" style="stroke:#A80036;stroke-width:1.0;"/><path d="M142.6156,1819.875 Q142.7719,1819.6563 142.9594,1819.5469 Q143.1469,1819.4375 143.3656,1819.4375 Q143.7406,1819.4375 143.975,1819.7031 Q144.2094,1819.9531 144.2094,1820.5625 L144.2094,1822.0156 Q144.2094,1822.625 143.975,1822.8906 Q143.7406,1823.1563 143.3656,1823.1563 Q143.0219,1823.1563 142.8188,1822.9531 Q142.6156,1822.7656 142.5063,1822.25 Q142.4594,1821.8906 142.2719,1821.7031 Q141.9438,1821.3281 141.3344,1821.1094 Q140.725,1820.8906 140.1,1820.8906 Q139.3344,1820.8906 138.6938,1821.2188 Q138.0688,1821.5469 137.5688,1822.2969 Q137.0844,1823.0469 137.0844,1824.0781 L137.0844,1825.1719 Q137.0844,1826.4063 137.975,1827.2344 Q138.8656,1828.0469 140.4594,1828.0469 Q141.3969,1828.0469 142.0531,1827.7969 Q142.4438,1827.6406 142.8656,1827.2031 Q143.1313,1826.9375 143.2719,1826.8594 Q143.4281,1826.7813 143.6313,1826.7813 Q143.9594,1826.7813 144.2094,1827.0469 Q144.475,1827.2969 144.475,1827.6406 Q144.475,1827.9844 144.1313,1828.3906 Q143.6313,1828.9688 142.8344,1829.2969 Q141.7563,1829.75 140.4594,1829.75 Q138.9438,1829.75 137.7406,1829.125 Q136.7563,1828.625 136.0688,1827.5625 Q135.3813,1826.4844 135.3813,1825.2031 L135.3813,1824.0469 Q135.3813,1822.7188 135.9906,1821.5781 Q136.6156,1820.4219 137.7094,1819.8125 Q138.8031,1819.1875 140.0375,1819.1875 Q140.7719,1819.1875 141.4125,1819.3594 Q142.0688,1819.5156 142.6156,1819.875 Z " fill="#000000"/><text fill="#000000" font-family="sans-serif" font-size="12" lengthAdjust="spacing" textLength="105" x="154.15" y="1828.9102">TransactionRecord</text><line style="stroke:#A80036;stroke-width:1.5;" x1="124.5" x2="262.5" y1="1840" y2="1840"/><rect fill="none" height="6" style="stroke:#C82930;stroke-width:1.0;" width="6" x="131.5" y="1848"/><text fill="#000000" font-family="sans-serif" font-size="11" lengthAdjust="spacing" textLength="31" x="143.5" y="1855.4189">long id</text><rect fill="none" height="6" style="stroke:#C82930;stroke-width:1.0;" width="6" x="131.5" y="1861.8359"/><text fill="#000000" font-family="sans-serif" font-size="11" lengthAdjust="spacing" textLength="83" x="143.5" y="1869.2549">Account account</text><rect fill="none" height="6" style="stroke:#C82930;stroke-width:1.0;" width="6" x="131.5" y="1875.6719"/><text fill="#000000" font-family="sans-serif" font-size="11" lengthAdjust="spacing" textLength="86" x="143.5" y="1883.0908">Direction direction</text><rect fill="none" height="6" style="stroke:#C82930;stroke-width:1.0;" width="6" x="131.5" y="1889.5078"/><text fill="#000000" font-family="sans-serif" font-size="11" lengthAdjust="spacing" textLength="90" x="143.5" y="1896.9268">BigDecimal amount</text><rect fill="none" height="6" style="stroke:#C82930;stroke-width:1.0;" width="6" x="131.5" y="1903.3438"/><text fill="#000000" font-family="sans-serif" font-size="11" lengthAdjust="spacing" textLength="114" x="143.5" y="1910.7627">Transaction transaction</text><rect fill="none" height="6" style="stroke:#C82930;stroke-width:1.0;" width="6" x="131.5" y="1917.1797"/><text fill="#000000" font-family="sans-serif" font-size="11" lengthAdjust="spacing" textLength="92" x="143.5" y="1924.5986">Currency currency</text><line style="stroke:#A80036;stroke-width:1.5;" x1="124.5" x2="262.5" y1="1931.0156" y2="1931.0156"/><!--MD5=[02f7077ed79257124e28b791f351f1d7]
class Direction--><rect codeLine="163" fill="#FEFECE" filter="url(#fq3pr831ygus5)" height="75.6719" id="Direction" style="stroke:#A80036;stroke-width:1.5;" width="81" x="299" y="1835.5"/><ellipse cx="314" cy="1851.5" fill="#ADD1B2" rx="11" ry="11" style="stroke:#A80036;stroke-width:1.0;"/><path d="M316.7656,1847.375 Q316.9219,1847.1563 317.1094,1847.0469 Q317.2969,1846.9375 317.5156,1846.9375 Q317.8906,1846.9375 318.125,1847.2031 Q318.3594,1847.4531 318.3594,1848.0625 L318.3594,1849.5156 Q318.3594,1850.125 318.125,1850.3906 Q317.8906,1850.6563 317.5156,1850.6563 Q317.1719,1850.6563 316.9688,1850.4531 Q316.7656,1850.2656 316.6563,1849.75 Q316.6094,1849.3906 316.4219,1849.2031 Q316.0938,1848.8281 315.4844,1848.6094 Q314.875,1848.3906 314.25,1848.3906 Q313.4844,1848.3906 312.8438,1848.7188 Q312.2188,1849.0469 311.7188,1849.7969 Q311.2344,1850.5469 311.2344,1851.5781 L311.2344,1852.6719 Q311.2344,1853.9063 312.125,1854.7344 Q313.0156,1855.5469 314.6094,1855.5469 Q315.5469,1855.5469 316.2031,1855.2969 Q316.5938,1855.1406 317.0156,1854.7031 Q317.2813,1854.4375 317.4219,1854.3594 Q317.5781,1854.2813 317.7813,1854.2813 Q318.1094,1854.2813 318.3594,1854.5469 Q318.625,1854.7969 318.625,1855.1406 Q318.625,1855.4844 318.2813,1855.8906 Q317.7813,1856.4688 316.9844,1856.7969 Q315.9063,1857.25 314.6094,1857.25 Q313.0938,1857.25 311.8906,1856.625 Q310.9063,1856.125 310.2188,1855.0625 Q309.5313,1853.9844 309.5313,1852.7031 L309.5313,1851.5469 Q309.5313,1850.2188 310.1406,1849.0781 Q310.7656,1847.9219 311.8594,1847.3125 Q312.9531,1846.6875 314.1875,1846.6875 Q314.9219,1846.6875 315.5625,1846.8594 Q316.2188,1847.0156 316.7656,1847.375 Z " fill="#000000"/><text fill="#000000" font-family="sans-serif" font-size="12" lengthAdjust="spacing" textLength="49" x="328" y="1856.4102">Direction</text><line style="stroke:#A80036;stroke-width:1.5;" x1="300" x2="379" y1="1867.5" y2="1867.5"/><text fill="#000000" font-family="sans-serif" font-size="11" lengthAdjust="spacing" textLength="35" x="305" y="1882.9189">CREDIT</text><text fill="#000000" font-family="sans-serif" font-size="11" lengthAdjust="spacing" textLength="28" x="305" y="1896.7549">DEBIT</text><line style="stroke:#A80036;stroke-width:1.5;" x1="300" x2="379" y1="1903.1719" y2="1903.1719"/><!--MD5=[dd16168fc711c6a2afc257d469fa0498]
class TransferManager--><rect codeLine="168" fill="#FEFECE" filter="url(#fq3pr831ygus5)" height="89.5078" id="TransferManager" style="stroke:#A80036;stroke-width:1.5;" width="194" x="177.5" y="2005.5"/><ellipse cx="223.25" cy="2021.5" fill="#ADD1B2" rx="11" ry="11" style="stroke:#A80036;stroke-width:1.0;"/><path d="M226.0156,2017.375 Q226.1719,2017.1563 226.3594,2017.0469 Q226.5469,2016.9375 226.7656,2016.9375 Q227.1406,2016.9375 227.375,2017.2031 Q227.6094,2017.4531 227.6094,2018.0625 L227.6094,2019.5156 Q227.6094,2020.125 227.375,2020.3906 Q227.1406,2020.6563 226.7656,2020.6563 Q226.4219,2020.6563 226.2188,2020.4531 Q226.0156,2020.2656 225.9063,2019.75 Q225.8594,2019.3906 225.6719,2019.2031 Q225.3438,2018.8281 224.7344,2018.6094 Q224.125,2018.3906 223.5,2018.3906 Q222.7344,2018.3906 222.0938,2018.7188 Q221.4688,2019.0469 220.9688,2019.7969 Q220.4844,2020.5469 220.4844,2021.5781 L220.4844,2022.6719 Q220.4844,2023.9063 221.375,2024.7344 Q222.2656,2025.5469 223.8594,2025.5469 Q224.7969,2025.5469 225.4531,2025.2969 Q225.8438,2025.1406 226.2656,2024.7031 Q226.5313,2024.4375 226.6719,2024.3594 Q226.8281,2024.2813 227.0313,2024.2813 Q227.3594,2024.2813 227.6094,2024.5469 Q227.875,2024.7969 227.875,2025.1406 Q227.875,2025.4844 227.5313,2025.8906 Q227.0313,2026.4688 226.2344,2026.7969 Q225.1563,2027.25 223.8594,2027.25 Q222.3438,2027.25 221.1406,2026.625 Q220.1563,2026.125 219.4688,2025.0625 Q218.7813,2023.9844 218.7813,2022.7031 L218.7813,2021.5469 Q218.7813,2020.2188 219.3906,2019.0781 Q220.0156,2017.9219 221.1094,2017.3125 Q222.2031,2016.6875 223.4375,2016.6875 Q224.1719,2016.6875 224.8125,2016.8594 Q225.4688,2017.0156 226.0156,2017.375 Z " fill="#000000"/><text fill="#000000" font-family="sans-serif" font-size="12" lengthAdjust="spacing" textLength="94" x="243.75" y="2026.4102">TransferManager</text><line style="stroke:#A80036;stroke-width:1.5;" x1="178.5" x2="370.5" y1="2037.5" y2="2037.5"/><line style="stroke:#A80036;stroke-width:1.5;" x1="178.5" x2="370.5" y1="2045.5" y2="2045.5"/><ellipse cx="188.5" cy="2056.5" fill="#84BE84" rx="3" ry="3" style="stroke:#038048;stroke-width:1.0;"/><text fill="#000000" font-family="sans-serif" font-size="11" lengthAdjust="spacing" textLength="109" x="197.5" y="2060.9189">List&lt;Transfer&gt; getAll()</text><ellipse cx="188.5" cy="2070.3359" fill="#84BE84" rx="3" ry="3" style="stroke:#038048;stroke-width:1.0;"/><text fill="#000000" font-family="sans-serif" font-size="11" lengthAdjust="spacing" textLength="140" x="197.5" y="2074.7549">void makeTransfer(Transfer)</text><ellipse cx="188.5" cy="2084.1719" fill="#84BE84" rx="3" ry="3" style="stroke:#038048;stroke-width:1.0;"/><text fill="#000000" font-family="sans-serif" font-size="11" lengthAdjust="spacing" textLength="168" x="197.5" y="2088.5908">void requestForTransfer(Transfer)</text><!--MD5=[02f52dd76b6d93c484e98adf8cb1a92d]
class Transfer--><rect codeLine="174" fill="#FEFECE" filter="url(#fq3pr831ygus5)" height="103.3438" id="Transfer" style="stroke:#A80036;stroke-width:1.5;" width="146" x="406.5" y="1999"/><ellipse cx="452.25" cy="2015" fill="#ADD1B2" rx="11" ry="11" style="stroke:#A80036;stroke-width:1.0;"/><path d="M455.0156,2010.875 Q455.1719,2010.6563 455.3594,2010.5469 Q455.5469,2010.4375 455.7656,2010.4375 Q456.1406,2010.4375 456.375,2010.7031 Q456.6094,2010.9531 456.6094,2011.5625 L456.6094,2013.0156 Q456.6094,2013.625 456.375,2013.8906 Q456.1406,2014.1563 455.7656,2014.1563 Q455.4219,2014.1563 455.2188,2013.9531 Q455.0156,2013.7656 454.9063,2013.25 Q454.8594,2012.8906 454.6719,2012.7031 Q454.3438,2012.3281 453.7344,2012.1094 Q453.125,2011.8906 452.5,2011.8906 Q451.7344,2011.8906 451.0938,2012.2188 Q450.4688,2012.5469 449.9688,2013.2969 Q449.4844,2014.0469 449.4844,2015.0781 L449.4844,2016.1719 Q449.4844,2017.4063 450.375,2018.2344 Q451.2656,2019.0469 452.8594,2019.0469 Q453.7969,2019.0469 454.4531,2018.7969 Q454.8438,2018.6406 455.2656,2018.2031 Q455.5313,2017.9375 455.6719,2017.8594 Q455.8281,2017.7813 456.0313,2017.7813 Q456.3594,2017.7813 456.6094,2018.0469 Q456.875,2018.2969 456.875,2018.6406 Q456.875,2018.9844 456.5313,2019.3906 Q456.0313,2019.9688 455.2344,2020.2969 Q454.1563,2020.75 452.8594,2020.75 Q451.3438,2020.75 450.1406,2020.125 Q449.1563,2019.625 448.4688,2018.5625 Q447.7813,2017.4844 447.7813,2016.2031 L447.7813,2015.0469 Q447.7813,2013.7188 448.3906,2012.5781 Q449.0156,2011.4219 450.1094,2010.8125 Q451.2031,2010.1875 452.4375,2010.1875 Q453.1719,2010.1875 453.8125,2010.3594 Q454.4688,2010.5156 455.0156,2010.875 Z " fill="#000000"/><text fill="#000000" font-family="sans-serif" font-size="12" lengthAdjust="spacing" textLength="46" x="472.75" y="2019.9102">Transfer</text><line style="stroke:#A80036;stroke-width:1.5;" x1="407.5" x2="551.5" y1="2031" y2="2031"/><rect fill="none" height="6" style="stroke:#C82930;stroke-width:1.0;" width="6" x="414.5" y="2039"/><text fill="#000000" font-family="sans-serif" font-size="11" lengthAdjust="spacing" textLength="84" x="426.5" y="2046.4189">String description</text><rect fill="none" height="6" style="stroke:#C82930;stroke-width:1.0;" width="6" x="414.5" y="2052.8359"/><text fill="#000000" font-family="sans-serif" font-size="11" lengthAdjust="spacing" textLength="120" x="426.5" y="2060.2549">String receiversFullName</text><rect fill="none" height="6" style="stroke:#C82930;stroke-width:1.0;" width="6" x="414.5" y="2066.6719"/><text fill="#000000" font-family="sans-serif" font-size="11" lengthAdjust="spacing" textLength="94" x="426.5" y="2074.0908">String accountIBAN</text><rect fill="none" height="6" style="stroke:#C82930;stroke-width:1.0;" width="6" x="414.5" y="2080.5078"/><text fill="#000000" font-family="sans-serif" font-size="11" lengthAdjust="spacing" textLength="90" x="426.5" y="2087.9268">BigDecimal amount</text><line style="stroke:#A80036;stroke-width:1.5;" x1="407.5" x2="551.5" y1="2094.3438" y2="2094.3438"/><!--MD5=[47cb5ffa569d3b373fc939939c2ef199]
class Currency--><rect codeLine="181" fill="#FEFECE" filter="url(#fq3pr831ygus5)" height="103.3438" id="Currency" style="stroke:#A80036;stroke-width:1.5;" width="100" x="452.5" y="1822"/><ellipse cx="476.05" cy="1838" fill="#ADD1B2" rx="11" ry="11" style="stroke:#A80036;stroke-width:1.0;"/><path d="M478.8156,1833.875 Q478.9719,1833.6563 479.1594,1833.5469 Q479.3469,1833.4375 479.5656,1833.4375 Q479.9406,1833.4375 480.175,1833.7031 Q480.4094,1833.9531 480.4094,1834.5625 L480.4094,1836.0156 Q480.4094,1836.625 480.175,1836.8906 Q479.9406,1837.1563 479.5656,1837.1563 Q479.2219,1837.1563 479.0188,1836.9531 Q478.8156,1836.7656 478.7063,1836.25 Q478.6594,1835.8906 478.4719,1835.7031 Q478.1438,1835.3281 477.5344,1835.1094 Q476.925,1834.8906 476.3,1834.8906 Q475.5344,1834.8906 474.8938,1835.2188 Q474.2688,1835.5469 473.7688,1836.2969 Q473.2844,1837.0469 473.2844,1838.0781 L473.2844,1839.1719 Q473.2844,1840.4063 474.175,1841.2344 Q475.0656,1842.0469 476.6594,1842.0469 Q477.5969,1842.0469 478.2531,1841.7969 Q478.6438,1841.6406 479.0656,1841.2031 Q479.3313,1840.9375 479.4719,1840.8594 Q479.6281,1840.7813 479.8313,1840.7813 Q480.1594,1840.7813 480.4094,1841.0469 Q480.675,1841.2969 480.675,1841.6406 Q480.675,1841.9844 480.3313,1842.3906 Q479.8313,1842.9688 479.0344,1843.2969 Q477.9563,1843.75 476.6594,1843.75 Q475.1438,1843.75 473.9406,1843.125 Q472.9563,1842.625 472.2688,1841.5625 Q471.5813,1840.4844 471.5813,1839.2031 L471.5813,1838.0469 Q471.5813,1836.7188 472.1906,1835.5781 Q472.8156,1834.4219 473.9094,1833.8125 Q475.0031,1833.1875 476.2375,1833.1875 Q476.9719,1833.1875 477.6125,1833.3594 Q478.2688,1833.5156 478.8156,1833.875 Z " fill="#000000"/><text fill="#000000" font-family="sans-serif" font-size="12" lengthAdjust="spacing" textLength="49" x="491.95" y="1842.9102">Currency</text><line style="stroke:#A80036;stroke-width:1.5;" x1="453.5" x2="551.5" y1="1854" y2="1854"/><rect fill="none" height="6" style="stroke:#C82930;stroke-width:1.0;" width="6" x="460.5" y="1862"/><text fill="#000000" font-family="sans-serif" font-size="11" lengthAdjust="spacing" textLength="31" x="472.5" y="1869.4189">long id</text><rect fill="none" height="6" style="stroke:#C82930;stroke-width:1.0;" width="6" x="460.5" y="1875.8359"/><text fill="#000000" font-family="sans-serif" font-size="11" lengthAdjust="spacing" textLength="55" x="472.5" y="1883.2549">String code</text><rect fill="none" height="6" style="stroke:#C82930;stroke-width:1.0;" width="6" x="460.5" y="1889.6719"/><text fill="#000000" font-family="sans-serif" font-size="11" lengthAdjust="spacing" textLength="57" x="472.5" y="1897.0908">String name</text><rect fill="none" height="6" style="stroke:#C82930;stroke-width:1.0;" width="6" x="460.5" y="1903.5078"/><text fill="#000000" font-family="sans-serif" font-size="11" lengthAdjust="spacing" textLength="74" x="472.5" y="1910.9268">BigDecimal rate</text><line style="stroke:#A80036;stroke-width:1.5;" x1="453.5" x2="551.5" y1="1917.3438" y2="1917.3438"/><path d="M941,22.5 L941,48.8516 L1220,48.8516 L1220,32.5 L1210,22.5 L941,22.5 " fill="#FBFB77" filter="url(#fq3pr831ygus5)" style="stroke:#A80036;stroke-width:1.0;"/><path d="M1210,22.5 L1210,32.5 L1220,32.5 L1210,22.5 " fill="#FBFB77" style="stroke:#A80036;stroke-width:1.0;"/><text fill="#000000" font-family="sans-serif" font-size="13" lengthAdjust="spacing" textLength="258" x="947" y="40.9951">TODO: add missing methods and properties.</text><path d="M613.5,14 L613.5,56.7031 L905.5,56.7031 L905.5,24 L895.5,14 L613.5,14 " fill="#FBFB77" filter="url(#fq3pr831ygus5)" style="stroke:#A80036;stroke-width:1.0;"/><path d="M895.5,14 L895.5,24 L905.5,24 L895.5,14 " fill="#FBFB77" style="stroke:#A80036;stroke-width:1.0;"/><text fill="#000000" font-family="sans-serif" font-size="13" lengthAdjust="spacing" textLength="271" x="619.5" y="32.4951">It is better to split these classes into 3 different</text><text fill="#000000" font-family="sans-serif" font-size="13" lengthAdjust="spacing" textLength="229" x="619.5" y="48.8467">subcomponents to have a clearlier view.</text><path d="M286,14 L286,56.7031 A0,0 0 0 0 286,56.7031 L413.28,56.7031 L406.7,235.8 L421.28,56.7031 L551,56.7031 A0,0 0 0 0 551,56.7031 L551,24 L541,14 L286,14 A0,0 0 0 0 286,14 " fill="#FBFB77" filter="url(#fq3pr831ygus5)" style="stroke:#A80036;stroke-width:1.0;"/><path d="M541,14 L541,24 L551,24 L541,14 " fill="#FBFB77" style="stroke:#A80036;stroke-width:1.0;"/><text fill="#000000" font-family="sans-serif" font-size="13" lengthAdjust="spacing" textLength="244" x="292" y="32.4951">Repo interfaces inside Domain component</text><text fill="#000000" font-family="sans-serif" font-size="13" lengthAdjust="spacing" textLength="215" x="292" y="48.8467">should not know anything about JPA.</text><path d="M6,6 L6,65.0547 A0,0 0 0 0 6,65.0547 L133.79,65.0547 L191.06,228.65 L141.79,65.0547 L251,65.0547 A0,0 0 0 0 251,65.0547 L251,16 L241,6 L6,6 A0,0 0 0 0 6,6 " fill="#FBFB77" filter="url(#fq3pr831ygus5)" style="stroke:#A80036;stroke-width:1.0;"/><path d="M241,6 L241,16 L251,16 L241,6 " fill="#FBFB77" style="stroke:#A80036;stroke-width:1.0;"/><text fill="#000000" font-family="sans-serif" font-size="13" lengthAdjust="spacing" textLength="224" x="12" y="24.4951">It it better to have as much as possible</text><text fill="#000000" font-family="sans-serif" font-size="13" lengthAdjust="spacing" textLength="224" x="12" y="40.8467">business logic inside manager classes</text><text fill="#000000" font-family="sans-serif" font-size="13" lengthAdjust="spacing" textLength="124" x="12" y="57.1982">instead of controllers.</text><!--MD5=[7bc161a3346b811eb8ebd384473853c5]
link UserManager to CustomerManager--><!--MD5=[a9026419919f15845b3401e3443232fb]
link UserManager to IUsersRepo--><path codeLine="64" d="M316.22,274 C316.22,274 323.41,274 326.39,274 " fill="none" id="UserManager-IUsersRepo" style="stroke:#A80036;stroke-width:1.0;"/><polygon fill="#A80036" points="339.48,274,330.48,270,334.48,274,330.48,278,339.48,274" style="stroke:#A80036;stroke-width:1.0;"/><line style="stroke:#A80036;stroke-width:1.0;" x1="334.48" x2="326.48" y1="274" y2="274"/><polygon fill="#FFFFFF" points="304.22,274,310.22,278,316.22,274,310.22,270,304.22,274" style="stroke:#A80036;stroke-width:1.0;"/><!--MD5=[04099762baa36f536b34882b20eeb77e]
link UserManager to User--><path codeLine="65" d="M251.22,319.27 C272.91,340.28 299.07,365.61 322.09,387.9 " fill="none" id="UserManager-to-User" style="stroke:#A80036;stroke-width:1.0;"/><polygon fill="#A80036" points="325.75,391.45,322.0848,382.3085,322.1648,387.9648,316.5085,388.0448,325.75,391.45" style="stroke:#A80036;stroke-width:1.0;"/><!--MD5=[2c4c47e214141b227d2bd4bcf80a5f0b]
link UserManager to Role--><path codeLine="66" d="M197.88,319.27 C193.53,344.58 188.09,376.15 183.79,401.13 " fill="none" id="UserManager-to-Role" style="stroke:#A80036;stroke-width:1.0;"/><polygon fill="#A80036" points="182.89,406.36,188.3729,398.1785,183.7467,401.4339,180.4912,396.8077,182.89,406.36" style="stroke:#A80036;stroke-width:1.0;"/><!--MD5=[70c37dc9bfbc8656942103c36f1181e4]
link User to Role--><path codeLine="67" d="M313.91,444.5 C313.91,444.5 250.16,444.5 218.97,444.5 " fill="none" id="User-Role" style="stroke:#A80036;stroke-width:1.0;"/><polygon fill="#A80036" points="205.84,444.5,214.84,448.5,210.84,444.5,214.84,440.5,205.84,444.5" style="stroke:#A80036;stroke-width:1.0;"/><line style="stroke:#A80036;stroke-width:1.0;" x1="210.84" x2="218.84" y1="444.5" y2="444.5"/><polygon fill="#FFFFFF" points="325.91,444.5,319.91,440.5,313.91,444.5,319.91,448.5,325.91,444.5" style="stroke:#A80036;stroke-width:1.0;"/><!--MD5=[c0f029b9f128166d3cb885e52bfdfcda]
link CustomerManager to ICustomersRepo--><path codeLine="69" d="M352.51,621.5 C352.51,621.5 359.59,621.5 362.63,621.5 " fill="none" id="CustomerManager-ICustomersRepo" style="stroke:#A80036;stroke-width:1.0;"/><polygon fill="#A80036" points="375.94,621.5,366.94,617.5,370.94,621.5,366.94,625.5,375.94,621.5" style="stroke:#A80036;stroke-width:1.0;"/><line style="stroke:#A80036;stroke-width:1.0;" x1="370.94" x2="362.94" y1="621.5" y2="621.5"/><polygon fill="#FFFFFF" points="340.51,621.5,346.51,625.5,352.51,621.5,346.51,617.5,340.51,621.5" style="stroke:#A80036;stroke-width:1.0;"/><!--MD5=[e9e85f692808b84677da88daefb125f6]
link CustomerManager to Customer--><path codeLine="70" d="M287.66,576.35 C314.24,561.73 345.48,547.39 376,540 C442.09,524 463.73,520.92 529,540 C548.99,545.84 568.83,555.88 586.69,566.96 " fill="none" id="CustomerManager-to-Customer" style="stroke:#A80036;stroke-width:1.0;"/><polygon fill="#A80036" points="591.19,569.8,585.6978,561.6247,586.9564,567.1397,581.4414,568.3984,591.19,569.8" style="stroke:#A80036;stroke-width:1.0;"/><!--MD5=[01a41ffe728356ae3116655ed66131ce]
reverse link User to Customer--><path codeLine="72" d="M448.85,508.83 C449.4,509.22 449.95,509.61 450.5,510 C485.97,535.05 527.78,558.47 564.43,577.23 " fill="none" id="User-backto-Customer" style="stroke:#A80036;stroke-width:1.0;"/><polygon fill="none" points="444.55,514.35,433.02,496.57,453.12,503.27,444.55,514.35" style="stroke:#A80036;stroke-width:1.0;"/><!--MD5=[b4e501b81d36e0a0ad004b01a879159d]
reverse link User to Administrator--><path codeLine="73" d="M453.31,444.5 C458.2,444.5 463.09,444.5 467.98,444.5 " fill="none" id="User-backto-Administrator" style="stroke:#A80036;stroke-width:1.0;"/><polygon fill="none" points="453.2,451.5,433.2,444.5,453.2,437.5,453.2,451.5" style="stroke:#A80036;stroke-width:1.0;"/><!--MD5=[89740977fd1acb003b8f81662033ac1a]
link IUsersRepo to User--><path codeLine="75" d="M397.1957,324.2711 C397.1957,324.2711 393.08,351.97 391.05,365.69 " fill="none" id="IUsersRepo-User" style="stroke:#A80036;stroke-width:1.0;"/><polygon fill="#A80036" points="389.11,378.72,394.3918,370.4072,389.8463,373.7745,386.479,369.2291,389.11,378.72" style="stroke:#A80036;stroke-width:1.0;"/><line style="stroke:#A80036;stroke-width:1.0;" x1="389.8463" x2="391.02" y1="373.7745" y2="365.86"/><polygon fill="#FFFFFF" points="398.95,312.4,394.1158,317.7508,397.1957,324.2711,402.0299,318.9203,398.95,312.4" style="stroke:#A80036;stroke-width:1.0;"/><!--MD5=[143a0dcf59eb6a38c7d7f4ac0cb0679d]
link ICustomersRepo to Customer--><path codeLine="76" d="M541.4,621.5 C541.4,621.5 548.09,621.5 550.92,621.5 " fill="none" id="ICustomersRepo-Customer" style="stroke:#A80036;stroke-width:1.0;"/><polygon fill="#A80036" points="564.15,621.5,555.15,617.5,559.15,621.5,555.15,625.5,564.15,621.5" style="stroke:#A80036;stroke-width:1.0;"/><line style="stroke:#A80036;stroke-width:1.0;" x1="559.15" x2="551.15" y1="621.5" y2="621.5"/><polygon fill="#FFFFFF" points="529.4,621.5,535.4,625.5,541.4,621.5,535.4,617.5,529.4,621.5" style="stroke:#A80036;stroke-width:1.0;"/><!--MD5=[3d4e40144f49d2e7defccbd200a10e43]
link AccountManager to IAccountsRepo--><path codeLine="108" d="M550.33,865 C550.33,865 543.41,865 540.58,865 " fill="none" id="AccountManager-IAccountsRepo" style="stroke:#A80036;stroke-width:1.0;"/><polygon fill="#A80036" points="527.53,865,536.53,869,532.53,865,536.53,861,527.53,865" style="stroke:#A80036;stroke-width:1.0;"/><line style="stroke:#A80036;stroke-width:1.0;" x1="532.53" x2="540.53" y1="865" y2="865"/><polygon fill="#FFFFFF" points="562.33,865,556.33,861,550.33,865,556.33,869,562.33,865" style="stroke:#A80036;stroke-width:1.0;"/><!--MD5=[5df15bedf6a6be9ab8ced9df8a1d8af9]
link AccountManager to Account--><path codeLine="109" d="M629.72,910.43 C618.68,926.91 605.72,946.24 592.93,965.33 " fill="none" id="AccountManager-to-Account" style="stroke:#A80036;stroke-width:1.0;"/><polygon fill="#A80036" points="590.03,969.65,598.3505,964.3803,592.8035,965.4897,591.6941,959.9427,590.03,969.65" style="stroke:#A80036;stroke-width:1.0;"/><!--MD5=[242a6e964aa151ee91d0a1d3b727c1e2]
link AccountManager to AccountType--><path codeLine="110" d="M670.28,910.43 C677.82,941.45 687.81,982.62 695.22,1013.17 " fill="none" id="AccountManager-to-AccountType" style="stroke:#A80036;stroke-width:1.0;"/><polygon fill="#A80036" points="696.48,1018.36,698.2381,1008.6693,695.2975,1013.5018,690.465,1010.5613,696.48,1018.36" style="stroke:#A80036;stroke-width:1.0;"/><!--MD5=[9ff4578158bf875387dd15a1f2d5b101]
link IAccountsRepo to Account--><path codeLine="112" d="M470.6354,907.1069 C470.6354,907.1069 484.53,940.44 491.81,957.89 " fill="none" id="IAccountsRepo-Account" style="stroke:#A80036;stroke-width:1.0;"/><polygon fill="#A80036" points="496.84,969.97,497.0708,960.1238,494.9169,965.3546,489.6862,963.2008,496.84,969.97" style="stroke:#A80036;stroke-width:1.0;"/><line style="stroke:#A80036;stroke-width:1.0;" x1="494.9169" x2="491.84" y1="965.3546" y2="957.97"/><polygon fill="#FFFFFF" points="466.02,896.03,464.6354,903.1069,470.6354,907.1069,472.02,900.03,466.02,896.03" style="stroke:#A80036;stroke-width:1.0;"/><!--MD5=[1a0f3950aea44cf48f445cfd977d0e2d]
link Account to AccountType--><path codeLine="113" d="M632.01,1056.5 C632.01,1056.5 638.69,1056.5 641.52,1056.5 " fill="none" id="Account-AccountType" style="stroke:#A80036;stroke-width:1.0;"/><polygon fill="#A80036" points="654.74,1056.5,645.74,1052.5,649.74,1056.5,645.74,1060.5,654.74,1056.5" style="stroke:#A80036;stroke-width:1.0;"/><line style="stroke:#A80036;stroke-width:1.0;" x1="649.74" x2="641.74" y1="1056.5" y2="1056.5"/><polygon fill="#FFFFFF" points="620.01,1056.5,626.01,1060.5,632.01,1056.5,626.01,1052.5,620.01,1056.5" style="stroke:#A80036;stroke-width:1.0;"/><!--MD5=[97184228edf75e075871ef3d2a9ea388]
reverse link ICustomersRepo to AccountManager--><path codeLine="116" d="M481.77,656.64 C518.48,699.47 581.48,772.98 621.78,819.99 " fill="none" id="ICustomersRepo-backto-AccountManager" style="stroke:#A80036;stroke-width:1.0;"/><polygon fill="#A80036" points="478.3,652.6,481.0996,662.0426,481.5457,656.4033,487.1849,656.8494,478.3,652.6" style="stroke:#A80036;stroke-width:1.0;"/><!--MD5=[55dac25b53b9494606c2ce64ca33cfc4]
reverse link Customer to AccountManager--><path codeLine="117" d="M657.19,678.3 C657.73,721.36 658.46,780.12 658.95,819.93 " fill="none" id="Customer-backto-AccountManager" style="stroke:#A80036;stroke-width:1.0;"/><polygon fill="#A80036" points="657.13,673.13,653.259,682.1862,657.2014,678.1295,661.2582,682.0719,657.13,673.13" style="stroke:#A80036;stroke-width:1.0;"/><!--MD5=[af0e3622bb5a4a915d7686526b4b685b]
link TransactionManager to TransferManager--><!--MD5=[af0e3622bb5a4a915d7686526b4b685b]
link TransactionManager to TransferManager--><path codeLine="204" d="M489.48,1431.8 C545.58,1513.74 607.31,1646.61 550.5,1748 C525.54,1792.55 483.34,1767.29 452.5,1808 C415.97,1856.22 447.49,1887.65 415.5,1939 C402.12,1960.48 362.7992,1997.8089 362.7992,1997.8089 " fill="none" id="TransactionManager-TransferManager" style="stroke:#A80036;stroke-width:1.0;"/><polygon fill="#FFFFFF" points="353.53,2005.43,360.705,2004.7092,362.7992,1997.8089,355.6243,1998.5297,353.53,2005.43" style="stroke:#A80036;stroke-width:1.0;"/><polygon fill="#A80036" points="481.97,1421.07,483.8525,1430.7373,484.8366,1425.1667,490.4072,1426.1508,481.97,1421.07" style="stroke:#A80036;stroke-width:1.0;"/><line style="stroke:#A80036;stroke-width:1.0;" x1="484.8366" x2="489.43" y1="1425.1667" y2="1431.72"/><!--MD5=[898fbbeebfbd213e53176122281ac043]
link TransactionManager to ITransactionsRepo--><path codeLine="191" d="M300.35,1355.5 C300.35,1355.5 293.42,1355.5 290.58,1355.5 " fill="none" id="TransactionManager-ITransactionsRepo" style="stroke:#A80036;stroke-width:1.0;"/><polygon fill="#A80036" points="277.52,1355.5,286.52,1359.5,282.52,1355.5,286.52,1351.5,277.52,1355.5" style="stroke:#A80036;stroke-width:1.0;"/><line style="stroke:#A80036;stroke-width:1.0;" x1="282.52" x2="290.52" y1="1355.5" y2="1355.5"/><polygon fill="#FFFFFF" points="312.35,1355.5,306.35,1351.5,300.35,1355.5,306.35,1359.5,312.35,1355.5" style="stroke:#A80036;stroke-width:1.0;"/><!--MD5=[9d508d3ef3717defa372b3526d0d99b8]
link TransactionManager to ITransactionsLogRepo--><path codeLine="192" d="M363.5746,1430.5171 C363.5746,1430.5171 341.5,1458.24 331.98,1470.21 " fill="none" id="TransactionManager-ITransactionsLogRepo" style="stroke:#A80036;stroke-width:1.0;"/><polygon fill="#A80036" points="323.6,1480.72,332.3356,1476.1715,326.7148,1476.8087,326.0775,1471.1879,323.6,1480.72" style="stroke:#A80036;stroke-width:1.0;"/><line style="stroke:#A80036;stroke-width:1.0;" x1="326.7148" x2="331.7" y1="1476.8087" y2="1470.555"/><polygon fill="#FFFFFF" points="371.05,1421.13,364.1832,1423.3318,363.5746,1430.5171,370.4413,1428.3154,371.05,1421.13" style="stroke:#A80036;stroke-width:1.0;"/><!--MD5=[b59c0813786aceaf5240b3b5bca14d26]
link TransactionManager to Transaction--><path codeLine="193" d="M426.22,1421.3 C425.56,1459.11 419.67,1506.41 398.5,1543 C386.19,1564.28 368.94,1583.24 350.06,1599.69 " fill="none" id="TransactionManager-to-Transaction" style="stroke:#A80036;stroke-width:1.0;"/><polygon fill="#A80036" points="346.27,1602.95,355.7012,1600.1123,350.0602,1599.689,350.4836,1594.048,346.27,1602.95" style="stroke:#A80036;stroke-width:1.0;"/><!--MD5=[c6457ff4883b9b3bd9eb8eaee33d678f]
link TransactionManager to TransactionStatus--><path codeLine="194" d="M428,1421.24 C432.93,1479.29 440.08,1563.59 444.76,1618.72 " fill="none" id="TransactionManager-to-TransactionStatus" style="stroke:#A80036;stroke-width:1.0;"/><polygon fill="#A80036" points="445.21,1623.96,448.4245,1614.6505,444.7818,1618.9784,440.4539,1615.3356,445.21,1623.96" style="stroke:#A80036;stroke-width:1.0;"/><!--MD5=[6c8f9dbf35cbbdff39dc1dea29fd1431]
reverse link ITransactionsRepo to Transaction--><path codeLine="195" d="M194.31,1399.71 C193.77,1437.6 194.18,1494.11 199.5,1543 C201.63,1562.55 205.18,1583.52 208.99,1602.84 " fill="none" id="ITransactionsRepo-backto-Transaction" style="stroke:#A80036;stroke-width:1.0;"/><polygon fill="#FFFFFF" points="194.54,1386.64,190.4351,1392.5688,194.329,1398.6381,198.4339,1392.7094,194.54,1386.64" style="stroke:#A80036;stroke-width:1.0;"/><!--MD5=[28c72fdc240ebd8d3c74686668a23c4b]
reverse link ITransactionsLogRepo to Transaction--><path codeLine="196" d="M280.03,1555.49 C273.4,1569.96 265.79,1586.58 258.4,1602.71 " fill="none" id="ITransactionsLogRepo-backto-Transaction" style="stroke:#A80036;stroke-width:1.0;"/><polygon fill="#FFFFFF" points="285.58,1543.38,279.444,1547.168,280.5806,1554.289,286.7166,1550.501,285.58,1543.38" style="stroke:#A80036;stroke-width:1.0;"/><!--MD5=[57def9d965bb9d3615c7dfcec7671dc9]
link Transaction to TransactionStatus--><path codeLine="197" d="M360.44,1675.5 C360.44,1675.5 367.12,1675.5 369.95,1675.5 " fill="none" id="Transaction-TransactionStatus" style="stroke:#A80036;stroke-width:1.0;"/><polygon fill="#A80036" points="383.18,1675.5,374.18,1671.5,378.18,1675.5,374.18,1679.5,383.18,1675.5" style="stroke:#A80036;stroke-width:1.0;"/><line style="stroke:#A80036;stroke-width:1.0;" x1="378.18" x2="370.18" y1="1675.5" y2="1675.5"/><polygon fill="#FFFFFF" points="348.44,1675.5,354.44,1679.5,360.44,1675.5,354.44,1671.5,348.44,1675.5" style="stroke:#A80036;stroke-width:1.0;"/><!--MD5=[2bcff3ab89b2db22218bf4e7ff8374e7]
link Transaction to TransactionRecord--><path codeLine="199" d="M211.8714,1759.9324 C211.8714,1759.9324 207.96,1783.9 206.15,1795.05 " fill="none" id="Transaction-TransactionRecord" style="stroke:#A80036;stroke-width:1.0;"/><polygon fill="#A80036" points="204.04,1807.92,209.4324,1799.6785,204.8424,1802.9848,201.5361,1798.3947,204.04,1807.92" style="stroke:#A80036;stroke-width:1.0;"/><line style="stroke:#A80036;stroke-width:1.0;" x1="204.8424" x2="206.14" y1="1802.9848" y2="1795.09"/><polygon fill="#FFFFFF" points="213.81,1748.09,208.8933,1753.365,211.8714,1759.9324,216.7882,1754.6574,213.81,1748.09" style="stroke:#A80036;stroke-width:1.0;"/><!--MD5=[772d740367d337b7f40b81821072c195]
link TransactionRecord to Direction--><path codeLine="200" d="M275.65,1873.5 C275.65,1873.5 282.84,1873.5 285.82,1873.5 " fill="none" id="TransactionRecord-Direction" style="stroke:#A80036;stroke-width:1.0;"/><polygon fill="#A80036" points="298.91,1873.5,289.91,1869.5,293.91,1873.5,289.91,1877.5,298.91,1873.5" style="stroke:#A80036;stroke-width:1.0;"/><line style="stroke:#A80036;stroke-width:1.0;" x1="293.91" x2="285.91" y1="1873.5" y2="1873.5"/><polygon fill="#FFFFFF" points="263.65,1873.5,269.65,1877.5,275.65,1873.5,269.65,1869.5,263.65,1873.5" style="stroke:#A80036;stroke-width:1.0;"/><!--MD5=[39a1a64348ca1d2f19251b35338eccc9]
link Currency to TransactionRecord--><path codeLine="201" d="M456.18,1812.16 C442.35,1798.33 426.01,1785.52 408,1778 C363.29,1759.34 344.2,1760.58 299,1778 C285.76,1783.1 260.5676,1800.2676 260.5676,1800.2676 " fill="none" id="Currency-TransactionRecord" style="stroke:#A80036;stroke-width:1.0;"/><polygon fill="#FFFFFF" points="251.21,1807.78,258.3929,1807.143,260.5676,1800.2676,253.3846,1800.9046,251.21,1807.78" style="stroke:#A80036;stroke-width:1.0;"/><polygon fill="#A80036" points="465.34,1821.85,462.0701,1812.5598,461.9075,1818.2143,456.253,1818.0518,465.34,1821.85" style="stroke:#A80036;stroke-width:1.0;"/><line style="stroke:#A80036;stroke-width:1.0;" x1="461.9075" x2="456.41" y1="1818.2143" y2="1812.405"/><!--MD5=[f3a5fc8b08b4cd066689595ed78a9755]
link TransferManager to Transfer--><path codeLine="203" d="M371.79,2050.5 C381.59,2050.5 391.38,2050.5 401.17,2050.5 " fill="none" id="TransferManager-to-Transfer" style="stroke:#A80036;stroke-width:1.0;"/><polygon fill="#A80036" points="406.29,2050.5,397.29,2046.5,401.29,2050.5,397.29,2054.5,406.29,2050.5" style="stroke:#A80036;stroke-width:1.0;"/><!--MD5=[b13562d8e7a70c2caa4e78e93b534238]
reverse link IAccountsRepo to TransactionManager--><path codeLine="207" d="M442.57,901.09 C436.89,921.07 430.52,946.69 427.5,970 C413.01,1081.72 415.45,1213.23 418.8,1289.89 " fill="none" id="IAccountsRepo-backto-TransactionManager" style="stroke:#A80036;stroke-width:1.0;"/><polygon fill="#A80036" points="443.99,896.13,437.6507,903.6674,442.6032,900.9338,445.3368,905.8863,443.99,896.13" style="stroke:#A80036;stroke-width:1.0;"/><!--MD5=[f3b760849c393ffe0ee45d9644143739]
reverse link Account to TransactionManager--><path codeLine="208" d="M499.09,1147.7 C482.11,1193.56 461.86,1248.24 446.44,1289.85 " fill="none" id="Account-backto-TransactionManager" style="stroke:#A80036;stroke-width:1.0;"/><polygon fill="#A80036" points="500.83,1143.01,493.9693,1150.0761,499.1041,1147.7027,501.4776,1152.8375,500.83,1143.01" style="stroke:#A80036;stroke-width:1.0;"/><!--MD5=[19a51b439c0d7d4bbf98db03d99cc6f1]
reverse link ICustomersRepo to TransactionManager--><path codeLine="209" d="M423.48,656.6 C405.97,675.4 382.31,697.9 357.5,713 C334.21,727.17 317.57,712.58 299.5,733 C260.03,777.58 271.5,804.46 271.5,864 C271.5,864 271.5,864 271.5,1057.5 C271.5,1123.79 271.44,1143.94 299.5,1204 C313.92,1234.88 336.11,1264.82 357.69,1289.75 " fill="none" id="ICustomersRepo-backto-TransactionManager" style="stroke:#A80036;stroke-width:1.0;"/><polygon fill="#A80036" points="426.89,652.9,417.8482,656.8045,423.5004,656.5757,423.7292,662.2279,426.89,652.9" style="stroke:#A80036;stroke-width:1.0;"/><!--MD5=[f74ee223e04ee253645d77265828dec5]
reverse link Customer to TransactionManager--><path codeLine="210" d="M602.88,676.6 C586.11,690.62 566.67,704.22 546.5,713 C501.69,732.5 363.58,707.97 328.5,742 C289.06,780.26 308.5,809.05 308.5,864 C308.5,864 308.5,864 308.5,1057.5 C308.5,1142 349.22,1231.58 381.99,1289.99 " fill="none" id="Customer-backto-TransactionManager" style="stroke:#A80036;stroke-width:1.0;"/><polygon fill="#A80036" points="607.09,673.03,597.6362,675.7915,603.2736,676.2604,602.8048,681.8977,607.09,673.03" style="stroke:#A80036;stroke-width:1.0;"/><!--MD5=[84c32eefec6af3f9f6af46d7e35e36f1]
link Account to Currency--><path codeLine="211" d="M560.2911,1154.764 C560.2911,1154.764 588.5,1287.43 588.5,1354.5 C588.5,1354.5 588.5,1354.5 588.5,1513 C588.5,1618.6 581.49,1646.18 553.5,1748 C547.83,1768.6 539.71,1790.38 531.6,1809.86 " fill="none" id="Account-Currency" style="stroke:#A80036;stroke-width:1.0;"/><polygon fill="#A80036" points="526.43,1821.98,533.6374,1815.2678,528.3897,1817.38,526.2774,1812.1323,526.43,1821.98" style="stroke:#A80036;stroke-width:1.0;"/><line style="stroke:#A80036;stroke-width:1.0;" x1="528.3897" x2="531.53" y1="1817.38" y2="1810.025"/><polygon fill="#FFFFFF" points="557.39,1143.12,554.9592,1149.9091,560.2911,1154.764,562.7219,1147.975,557.39,1143.12" style="stroke:#A80036;stroke-width:1.0;"/><!--MD5=[72f27f29b95d385624474c8bcff4891d]
link user to account--><!--MD5=[2f6668734ca3a6fc2923b684e37b0558]
link account to transaction--><!--MD5=[d0a3b25bac08f7c0c58f1ff1007a7442]
link note1 to domain--><path codeLine="237" d="M1067.25,48.55 C1041.17,72.27 980.9875,127.0125 926.59,176.4937 C899.3913,201.2344 873.6388,224.6597 854.3184,242.2342 C844.6583,251.0215 836.6062,258.3461 830.7854,263.641 C830.0577,264.3029 829.365,264.933 828.7084,265.5304 " fill="none" id="note1-domain" style="stroke:#A80036;stroke-width:1.0;"/><!--MD5=[d586e5af2f34bc08f57af550b18a16df]
link note2 to user--><path codeLine="238" d="M762.7,57.31 C763.39,62.43 764.05,67.9 764.5,73 C766.425,94.8075 767.8869,117.9938 768.997,140.5595 C769.2746,146.201 769.5301,151.8036 769.7654,157.3363 C769.8831,160.1026 769.9957,162.8514 770.1035,165.5788 C770.1169,165.9198 770.1303,166.2604 770.1436,166.6006 " fill="none" id="note2-user" style="stroke:#A80036;stroke-width:1.0;"/><!--MD5=[f2e743d3cc9987cadb9b79eefe1a4cdd]
@startuml ClassDomain

skinparam class {
    BackgroundColor<<Repository>> SkyBlue
    BorderColor<<Repository>> Navy
    BackgroundColor<<Access>> Snow
    BorderColor<<Access>> Plum
    BackgroundColor<<Integration>> SandyBrown
    BorderColor<<Integration>> Tomato
    BackgroundColor<<Domain>> Gold
    BorderColor<<Domain>> Red
}

component "<<Component>>\nDomain" as domain #Gold {
    
    component "<<sub-comp>>\nuser" as user #Bisque {
        class UserManager {
            + User getUserById(long id)
            + List<User> getAll()
            + User addAdmin(Administrator user)
        }

        interface IUsersRepo {
            + User findAll()
            + User findById(long id)
        }

        class User {
            - long id
            - int userId
            - String email
            - String password
            - String fullName
            - Role role
        }

        class Administrator {

        }

        enum Role {
            USER
            ADMIN
        }

        class CustomerManager {
            + List<Customer> getAll()
            + Customer getCustomerById(long id)
            + boolean createCustomer(Customer customer)
        }

        interface ICustomersRepo {
            + Customer findById(long id)
        }

        class Customer {
            - String phoneNumber
            - List<Account> accounts
            - ICustomersRepo customersRepo
            - IUsersRepo usersRepo
        }

        UserManager - - -[hidden]> CustomerManager

        UserManager o-> IUsersRepo
        UserManager - -> User
        UserManager - -> Role
        User o-> Role

        CustomerManager o-> ICustomersRepo
        CustomerManager -> Customer

        User <|- - Customer
        User <|- Administrator

        IUsersRepo o- -> User
        ICustomersRepo o-> Customer

    }

    component "<<sub-comp>>\naccount" as account #Bisque {
        class AccountManager {
            + Account getAccountById(long id)
            + List<Account> getAll()
            + getAccountsByCustomerId(long id)
        }

        interface IAccountsRepo {
            + Account findById(long id)
        }

        class Account {
            - long id
            - String IBAN
            - AccountType accountType
            - Date openDate
            - BigDecimal balance
            - Currency currency
            - ICustomer customer
            - List<Transaction> transactions
            - IAccountsRepo accountsRepo
        }

        enum AccountType {
            PRIMARY
            SECONDARY
        }

        AccountManager o-> IAccountsRepo
        AccountManager - -> Account
        AccountManager - -> AccountType

        IAccountsRepo o- -> Account
        Account o-> AccountType
    }

    ICustomersRepo <- - AccountManager
    Customer <- - AccountManager

    component "<<sub-comp>>\ntransaction" as transaction #Bisque {
        class TransactionManager {
            + List<Transaction> getAll()
            + Transaction getById(long)
            + List<Transaction> getByAccountId(long)
            + void createTransaction(Transaction)
            + void editTransaction(Transaction)
            + void stornoTransaction(Transaction)
        }

        interface ITransactionsRepo {
            + Transaction findById(long id)
        }

        interface ITransactionsLogRepo {
            + Transaction findById(long id)
        }

        class Transaction {
            - long id
            - User sessionUser
            - TransactionStatus status
            - String description
            - LocalDateTime dateTime
            - List<TransactionRecord> transactionRecords
            - ITransactionsRepo transactionsRepo
        }

        enum TransactionStatus {
            OK
            CORECTION
            STORNED
            STORNO
        }

        class TransactionRecord {
            - long id
            - Account account
            - Direction direction
            - BigDecimal amount
            - Transaction transaction
            - Currency currency
        }

        class Direction {
            CREDIT
            DEBIT
        }

        class TransferManager {
            + List<Transfer> getAll()
            + void makeTransfer(Transfer)
            + void requestForTransfer(Transfer)
        }

        class Transfer {
            - String description
            - String receiversFullName
            - String accountIBAN
            - BigDecimal amount
        }

        class Currency {
            - long id
            - String code
            - String name
            - BigDecimal rate
        }


        TransactionManager - - - - -[hidden]> TransferManager

        TransactionManager o-> ITransactionsRepo
        TransactionManager o- -> ITransactionsLogRepo
        TransactionManager - - -> Transaction
        TransactionManager - - -> TransactionStatus
        ITransactionsRepo o- - - Transaction
        ITransactionsLogRepo o- - Transaction
        Transaction o-> TransactionStatus

        Transaction o- -> TransactionRecord
        TransactionRecord o-> Direction
        Currency <-o TransactionRecord

        TransferManager -> Transfer
        TransactionManager <- - - - -o TransferManager
    }

    IAccountsRepo <- - - - TransactionManager
    Account <- - - TransactionManager
    ICustomersRepo <- - - - - - TransactionManager
    Customer <- - - - - - TransactionManager
    Account o- - - - - -> Currency
}

user - - - - -[hidden]> account
account - - - -[hidden]> transaction

note as note1
    TODO: add missing methods and properties.
end note

note as note2
    It is better to split these classes into 3 different
    subcomponents to have a clearlier view.
end note

note as note3
    Repo interfaces inside Domain component
    should not know anything about JPA.
end note

note as note4
    It it better to have as much as possible
    business logic inside manager classes
    instead of controllers.
end note

domain -up- note1
user -up- note2
IUsersRepo -up- note3
UserManager -up- note4

@enduml

PlantUML version 1.2021.7(Sun May 23 15:40:07 EEST 2021)
(GPL source distribution)
Java Runtime: OpenJDK Runtime Environment
JVM: OpenJDK 64-Bit Server VM
Default Encoding: Cp1252
Language: en
Country: US
--></g></svg>