<?xml version="1.0" encoding="UTF-8" standalone="no"?><svg xmlns="http://www.w3.org/2000/svg" xmlns:xlink="http://www.w3.org/1999/xlink" contentScriptType="application/ecmascript" contentStyleType="text/css" height="1087px" preserveAspectRatio="none" style="width:816px;height:1087px;background:#FFFFFF;" version="1.1" viewBox="0 0 816 1087" width="816px" zoomAndPan="magnify"><defs><filter height="300%" id="f164vnib1glbok" width="300%" x="-1" y="-1"><feGaussianBlur result="blurOut" stdDeviation="2.0"/><feColorMatrix in="blurOut" result="blurOut2" type="matrix" values="0 0 0 0 0 0 0 0 0 0 0 0 0 0 0 0 0 0 .4 0"/><feOffset dx="4.0" dy="4.0" in="blurOut2" result="blurOut3"/><feBlend in="SourceGraphic" in2="blurOut3" mode="normal"/></filter></defs><g><!--MD5=[bd0bd4c41e0e5269e37474fd45a6abb7]
cluster repository--><rect fill="#87CEEB" filter="url(#f164vnib1glbok)" height="1066" style="stroke:#000000;stroke-width:1.5;" width="256" x="221" y="7"/><rect fill="#87CEEB" height="10" style="stroke:#000000;stroke-width:1.5;" width="15" x="457" y="12"/><rect fill="#87CEEB" height="2" style="stroke:#000000;stroke-width:1.5;" width="4" x="455" y="14"/><rect fill="#87CEEB" height="2" style="stroke:#000000;stroke-width:1.5;" width="4" x="455" y="18"/><text fill="#000000" font-family="sans-serif" font-size="14" font-weight="bold" lengthAdjust="spacing" textLength="113" x="292.5" y="34.5332">&lt;&lt;Component&gt;&gt;</text><text fill="#000000" font-family="sans-serif" font-size="14" font-weight="bold" lengthAdjust="spacing" textLength="76" x="311" y="52.1426">Repository</text><!--MD5=[27f772719433d509ddbc20ff768eba08]
cluster domain--><rect fill="#FFD700" filter="url(#f164vnib1glbok)" height="1052" style="stroke:#000000;stroke-width:1.5;" width="190" x="7" y="14"/><rect fill="#FFD700" height="10" style="stroke:#000000;stroke-width:1.5;" width="15" x="177" y="19"/><rect fill="#FFD700" height="2" style="stroke:#000000;stroke-width:1.5;" width="4" x="175" y="21"/><rect fill="#FFD700" height="2" style="stroke:#000000;stroke-width:1.5;" width="4" x="175" y="25"/><text fill="#000000" font-family="sans-serif" font-size="14" font-weight="bold" lengthAdjust="spacing" textLength="113" x="45.5" y="41.5332">&lt;&lt;Component&gt;&gt;</text><text fill="#000000" font-family="sans-serif" font-size="14" font-weight="bold" lengthAdjust="spacing" textLength="52" x="76" y="59.1426">Domain</text><!--MD5=[cd09a31e374d3ba35fd45e1567298dba]
cluster org.springframework.data.jpa.repository--><polygon fill="#FFFFFF" filter="url(#f164vnib1glbok)" points="501,32,789,32,796,55.6094,799,55.6094,799,132,501,132,501,32" style="stroke:#000000;stroke-width:1.5;"/><line style="stroke:#000000;stroke-width:1.5;" x1="501" x2="796" y1="55.6094" y2="55.6094"/><text fill="#000000" font-family="sans-serif" font-size="14" font-weight="bold" lengthAdjust="spacing" textLength="282" x="505" y="48.5332">org.springframework.data.jpa.repository</text><!--MD5=[20776e890796aa6b297ed820009aeef6]
class UsersRepo--><rect codeLine="14" fill="#FEFECE" filter="url(#f164vnib1glbok)" height="61.8359" id="UsersRepo" style="stroke:#A80036;stroke-width:1.5;" width="130" x="240" y="61"/><ellipse cx="271.2" cy="77" fill="#B4A7E5" rx="11" ry="11" style="stroke:#A80036;stroke-width:1.0;"/><path d="M272.1531,73.6406 L272.1531,80.2969 L273.8719,80.2969 Q274.4813,80.2969 274.7469,80.5313 Q275.0125,80.7656 275.0125,81.1563 Q275.0125,81.5313 274.7469,81.7656 Q274.4813,82 273.8719,82 L268.7313,82 Q268.1219,82 267.8563,81.7656 Q267.5906,81.5313 267.5906,81.1406 Q267.5906,80.7656 267.8563,80.5313 Q268.1219,80.2969 268.7313,80.2969 L270.45,80.2969 L270.45,73.6406 L268.7313,73.6406 Q268.1219,73.6406 267.8563,73.4063 Q267.5906,73.1719 267.5906,72.7813 Q267.5906,72.4063 267.8563,72.1719 Q268.1219,71.9375 268.7313,71.9375 L273.8719,71.9375 Q274.4813,71.9375 274.7469,72.1719 Q275.0125,72.4063 275.0125,72.7813 Q275.0125,73.1719 274.7469,73.4063 Q274.4813,73.6406 273.8719,73.6406 L272.1531,73.6406 Z " fill="#000000"/><text fill="#000000" font-family="sans-serif" font-size="12" font-style="italic" lengthAdjust="spacing" textLength="62" x="288.8" y="81.9102">UsersRepo</text><line style="stroke:#A80036;stroke-width:1.5;" x1="241" x2="369" y1="93" y2="93"/><line style="stroke:#A80036;stroke-width:1.5;" x1="241" x2="369" y1="101" y2="101"/><ellipse cx="251" cy="112" fill="#84BE84" rx="3" ry="3" style="stroke:#038048;stroke-width:1.0;"/><text fill="#000000" font-family="sans-serif" font-size="11" lengthAdjust="spacing" textLength="104" x="260" y="116.4189">User findById(long id)</text><!--MD5=[59eb87ef88f9b87b21e96ec07c1e6969]
class CustomersRepo--><rect codeLine="18" fill="#FEFECE" filter="url(#f164vnib1glbok)" height="61.8359" id="CustomersRepo" style="stroke:#A80036;stroke-width:1.5;" width="153" x="237.5" y="291"/><ellipse cx="266.45" cy="307" fill="#B4A7E5" rx="11" ry="11" style="stroke:#A80036;stroke-width:1.0;"/><path d="M267.4031,303.6406 L267.4031,310.2969 L269.1219,310.2969 Q269.7313,310.2969 269.9969,310.5313 Q270.2625,310.7656 270.2625,311.1563 Q270.2625,311.5313 269.9969,311.7656 Q269.7313,312 269.1219,312 L263.9813,312 Q263.3719,312 263.1063,311.7656 Q262.8406,311.5313 262.8406,311.1406 Q262.8406,310.7656 263.1063,310.5313 Q263.3719,310.2969 263.9813,310.2969 L265.7,310.2969 L265.7,303.6406 L263.9813,303.6406 Q263.3719,303.6406 263.1063,303.4063 Q262.8406,303.1719 262.8406,302.7813 Q262.8406,302.4063 263.1063,302.1719 Q263.3719,301.9375 263.9813,301.9375 L269.1219,301.9375 Q269.7313,301.9375 269.9969,302.1719 Q270.2625,302.4063 270.2625,302.7813 Q270.2625,303.1719 269.9969,303.4063 Q269.7313,303.6406 269.1219,303.6406 L267.4031,303.6406 Z " fill="#000000"/><text fill="#000000" font-family="sans-serif" font-size="12" font-style="italic" lengthAdjust="spacing" textLength="90" x="283.55" y="311.9102">CustomersRepo</text><line style="stroke:#A80036;stroke-width:1.5;" x1="238.5" x2="389.5" y1="323" y2="323"/><line style="stroke:#A80036;stroke-width:1.5;" x1="238.5" x2="389.5" y1="331" y2="331"/><ellipse cx="248.5" cy="342" fill="#84BE84" rx="3" ry="3" style="stroke:#038048;stroke-width:1.0;"/><text fill="#000000" font-family="sans-serif" font-size="11" lengthAdjust="spacing" textLength="127" x="257.5" y="346.4189">Customer findById(long id)</text><!--MD5=[ccb9a3d982c49c887df730845b4bc38f]
class AccountsRepo--><rect codeLine="22" fill="#FEFECE" filter="url(#f164vnib1glbok)" height="75.6719" id="AccountsRepo" style="stroke:#A80036;stroke-width:1.5;" width="223" x="237.5" y="521"/><ellipse cx="304.75" cy="537" fill="#B4A7E5" rx="11" ry="11" style="stroke:#A80036;stroke-width:1.0;"/><path d="M305.7031,533.6406 L305.7031,540.2969 L307.4219,540.2969 Q308.0313,540.2969 308.2969,540.5313 Q308.5625,540.7656 308.5625,541.1563 Q308.5625,541.5313 308.2969,541.7656 Q308.0313,542 307.4219,542 L302.2813,542 Q301.6719,542 301.4063,541.7656 Q301.1406,541.5313 301.1406,541.1406 Q301.1406,540.7656 301.4063,540.5313 Q301.6719,540.2969 302.2813,540.2969 L304,540.2969 L304,533.6406 L302.2813,533.6406 Q301.6719,533.6406 301.4063,533.4063 Q301.1406,533.1719 301.1406,532.7813 Q301.1406,532.4063 301.4063,532.1719 Q301.6719,531.9375 302.2813,531.9375 L307.4219,531.9375 Q308.0313,531.9375 308.2969,532.1719 Q308.5625,532.4063 308.5625,532.7813 Q308.5625,533.1719 308.2969,533.4063 Q308.0313,533.6406 307.4219,533.6406 L305.7031,533.6406 Z " fill="#000000"/><text fill="#000000" font-family="sans-serif" font-size="12" font-style="italic" lengthAdjust="spacing" textLength="80" x="325.25" y="541.9102">AccountsRepo</text><line style="stroke:#A80036;stroke-width:1.5;" x1="238.5" x2="459.5" y1="553" y2="553"/><line style="stroke:#A80036;stroke-width:1.5;" x1="238.5" x2="459.5" y1="561" y2="561"/><ellipse cx="248.5" cy="572" fill="#84BE84" rx="3" ry="3" style="stroke:#038048;stroke-width:1.0;"/><text fill="#000000" font-family="sans-serif" font-size="11" lengthAdjust="spacing" textLength="122" x="257.5" y="576.4189">Account findById(long id)</text><ellipse cx="248.5" cy="585.8359" fill="#84BE84" rx="3" ry="3" style="stroke:#038048;stroke-width:1.0;"/><text fill="#000000" font-family="sans-serif" font-size="11" lengthAdjust="spacing" textLength="197" x="257.5" y="590.2549">List&lt;Account&gt; findByCustomerId(long id)</text><!--MD5=[87b865dbee3a09092802f8d2a95bbdcf]
class TransactionsRepo--><rect codeLine="27" fill="#FEFECE" filter="url(#f164vnib1glbok)" height="61.8359" id="TransactionsRepo" style="stroke:#A80036;stroke-width:1.5;" width="148" x="238" y="765"/><ellipse cx="260.2" cy="781" fill="#B4A7E5" rx="11" ry="11" style="stroke:#A80036;stroke-width:1.0;"/><path d="M261.1531,777.6406 L261.1531,784.2969 L262.8719,784.2969 Q263.4813,784.2969 263.7469,784.5313 Q264.0125,784.7656 264.0125,785.1563 Q264.0125,785.5313 263.7469,785.7656 Q263.4813,786 262.8719,786 L257.7313,786 Q257.1219,786 256.8563,785.7656 Q256.5906,785.5313 256.5906,785.1406 Q256.5906,784.7656 256.8563,784.5313 Q257.1219,784.2969 257.7313,784.2969 L259.45,784.2969 L259.45,777.6406 L257.7313,777.6406 Q257.1219,777.6406 256.8563,777.4063 Q256.5906,777.1719 256.5906,776.7813 Q256.5906,776.4063 256.8563,776.1719 Q257.1219,775.9375 257.7313,775.9375 L262.8719,775.9375 Q263.4813,775.9375 263.7469,776.1719 Q264.0125,776.4063 264.0125,776.7813 Q264.0125,777.1719 263.7469,777.4063 Q263.4813,777.6406 262.8719,777.6406 L261.1531,777.6406 Z " fill="#000000"/><text fill="#000000" font-family="sans-serif" font-size="12" font-style="italic" lengthAdjust="spacing" textLength="100" x="275.8" y="785.9102">TransactionsRepo</text><line style="stroke:#A80036;stroke-width:1.5;" x1="239" x2="385" y1="797" y2="797"/><line style="stroke:#A80036;stroke-width:1.5;" x1="239" x2="385" y1="805" y2="805"/><ellipse cx="249" cy="816" fill="#84BE84" rx="3" ry="3" style="stroke:#038048;stroke-width:1.0;"/><text fill="#000000" font-family="sans-serif" font-size="11" lengthAdjust="spacing" textLength="122" x="258" y="820.4189">Account findById(long id)</text><!--MD5=[a22cb3f875ee40bdc44f4a55c714cbe4]
class TransactionsLogRepo--><rect codeLine="31" fill="#FEFECE" filter="url(#f164vnib1glbok)" height="61.8359" id="TransactionsLogRepo" style="stroke:#A80036;stroke-width:1.5;" width="153" x="237.5" y="995"/><ellipse cx="252.5" cy="1011" fill="#B4A7E5" rx="11" ry="11" style="stroke:#A80036;stroke-width:1.0;"/><path d="M253.4531,1007.6406 L253.4531,1014.2969 L255.1719,1014.2969 Q255.7813,1014.2969 256.0469,1014.5313 Q256.3125,1014.7656 256.3125,1015.1563 Q256.3125,1015.5313 256.0469,1015.7656 Q255.7813,1016 255.1719,1016 L250.0313,1016 Q249.4219,1016 249.1563,1015.7656 Q248.8906,1015.5313 248.8906,1015.1406 Q248.8906,1014.7656 249.1563,1014.5313 Q249.4219,1014.2969 250.0313,1014.2969 L251.75,1014.2969 L251.75,1007.6406 L250.0313,1007.6406 Q249.4219,1007.6406 249.1563,1007.4063 Q248.8906,1007.1719 248.8906,1006.7813 Q248.8906,1006.4063 249.1563,1006.1719 Q249.4219,1005.9375 250.0313,1005.9375 L255.1719,1005.9375 Q255.7813,1005.9375 256.0469,1006.1719 Q256.3125,1006.4063 256.3125,1006.7813 Q256.3125,1007.1719 256.0469,1007.4063 Q255.7813,1007.6406 255.1719,1007.6406 L253.4531,1007.6406 Z " fill="#000000"/><text fill="#000000" font-family="sans-serif" font-size="12" font-style="italic" lengthAdjust="spacing" textLength="121" x="266.5" y="1015.9102">TransactionsLogRepo</text><line style="stroke:#A80036;stroke-width:1.5;" x1="238.5" x2="389.5" y1="1027" y2="1027"/><line style="stroke:#A80036;stroke-width:1.5;" x1="238.5" x2="389.5" y1="1035" y2="1035"/><ellipse cx="248.5" cy="1046" fill="#84BE84" rx="3" ry="3" style="stroke:#038048;stroke-width:1.0;"/><text fill="#000000" font-family="sans-serif" font-size="11" lengthAdjust="spacing" textLength="122" x="257.5" y="1050.4189">Account findById(long id)</text><!--MD5=[d0ff23a00683977d87fe89c795304054]
class IUsersRepo--><rect codeLine="37" fill="#FEFECE" filter="url(#f164vnib1glbok)" height="48" id="IUsersRepo" style="stroke:#A80036;stroke-width:1.5;" width="98" x="83" y="68"/><ellipse cx="98" cy="84" fill="#B4A7E5" rx="11" ry="11" style="stroke:#A80036;stroke-width:1.0;"/><path d="M98.9531,80.6406 L98.9531,87.2969 L100.6719,87.2969 Q101.2813,87.2969 101.5469,87.5313 Q101.8125,87.7656 101.8125,88.1563 Q101.8125,88.5313 101.5469,88.7656 Q101.2813,89 100.6719,89 L95.5313,89 Q94.9219,89 94.6563,88.7656 Q94.3906,88.5313 94.3906,88.1406 Q94.3906,87.7656 94.6563,87.5313 Q94.9219,87.2969 95.5313,87.2969 L97.25,87.2969 L97.25,80.6406 L95.5313,80.6406 Q94.9219,80.6406 94.6563,80.4063 Q94.3906,80.1719 94.3906,79.7813 Q94.3906,79.4063 94.6563,79.1719 Q94.9219,78.9375 95.5313,78.9375 L100.6719,78.9375 Q101.2813,78.9375 101.5469,79.1719 Q101.8125,79.4063 101.8125,79.7813 Q101.8125,80.1719 101.5469,80.4063 Q101.2813,80.6406 100.6719,80.6406 L98.9531,80.6406 Z " fill="#000000"/><text fill="#000000" font-family="sans-serif" font-size="12" font-style="italic" lengthAdjust="spacing" textLength="66" x="112" y="88.9102">IUsersRepo</text><line style="stroke:#A80036;stroke-width:1.5;" x1="84" x2="180" y1="100" y2="100"/><line style="stroke:#A80036;stroke-width:1.5;" x1="84" x2="180" y1="108" y2="108"/><!--MD5=[3fd616f346a44cd59a91eb10b19e157c]
class User--><rect codeLine="38" fill="#FEFECE" filter="url(#f164vnib1glbok)" height="48" id="User" style="stroke:#A80036;stroke-width:1.5;" width="59" x="102.5" y="183"/><ellipse cx="117.5" cy="199" fill="#ADD1B2" rx="11" ry="11" style="stroke:#A80036;stroke-width:1.0;"/><path d="M120.2656,194.875 Q120.4219,194.6563 120.6094,194.5469 Q120.7969,194.4375 121.0156,194.4375 Q121.3906,194.4375 121.625,194.7031 Q121.8594,194.9531 121.8594,195.5625 L121.8594,197.0156 Q121.8594,197.625 121.625,197.8906 Q121.3906,198.1563 121.0156,198.1563 Q120.6719,198.1563 120.4688,197.9531 Q120.2656,197.7656 120.1563,197.25 Q120.1094,196.8906 119.9219,196.7031 Q119.5938,196.3281 118.9844,196.1094 Q118.375,195.8906 117.75,195.8906 Q116.9844,195.8906 116.3438,196.2188 Q115.7188,196.5469 115.2188,197.2969 Q114.7344,198.0469 114.7344,199.0781 L114.7344,200.1719 Q114.7344,201.4063 115.625,202.2344 Q116.5156,203.0469 118.1094,203.0469 Q119.0469,203.0469 119.7031,202.7969 Q120.0938,202.6406 120.5156,202.2031 Q120.7813,201.9375 120.9219,201.8594 Q121.0781,201.7813 121.2813,201.7813 Q121.6094,201.7813 121.8594,202.0469 Q122.125,202.2969 122.125,202.6406 Q122.125,202.9844 121.7813,203.3906 Q121.2813,203.9688 120.4844,204.2969 Q119.4063,204.75 118.1094,204.75 Q116.5938,204.75 115.3906,204.125 Q114.4063,203.625 113.7188,202.5625 Q113.0313,201.4844 113.0313,200.2031 L113.0313,199.0469 Q113.0313,197.7188 113.6406,196.5781 Q114.2656,195.4219 115.3594,194.8125 Q116.4531,194.1875 117.6875,194.1875 Q118.4219,194.1875 119.0625,194.3594 Q119.7188,194.5156 120.2656,194.875 Z " fill="#000000"/><text fill="#000000" font-family="sans-serif" font-size="12" lengthAdjust="spacing" textLength="27" x="131.5" y="203.9102">User</text><line style="stroke:#A80036;stroke-width:1.5;" x1="103.5" x2="160.5" y1="215" y2="215"/><line style="stroke:#A80036;stroke-width:1.5;" x1="103.5" x2="160.5" y1="223" y2="223"/><!--MD5=[002ae683d7f409c5ece12e53748bdc0a]
class ICustomersRepo--><rect codeLine="39" fill="#FEFECE" filter="url(#f164vnib1glbok)" height="48" id="ICustomersRepo" style="stroke:#A80036;stroke-width:1.5;" width="126" x="55" y="298"/><ellipse cx="70" cy="314" fill="#B4A7E5" rx="11" ry="11" style="stroke:#A80036;stroke-width:1.0;"/><path d="M70.9531,310.6406 L70.9531,317.2969 L72.6719,317.2969 Q73.2813,317.2969 73.5469,317.5313 Q73.8125,317.7656 73.8125,318.1563 Q73.8125,318.5313 73.5469,318.7656 Q73.2813,319 72.6719,319 L67.5313,319 Q66.9219,319 66.6563,318.7656 Q66.3906,318.5313 66.3906,318.1406 Q66.3906,317.7656 66.6563,317.5313 Q66.9219,317.2969 67.5313,317.2969 L69.25,317.2969 L69.25,310.6406 L67.5313,310.6406 Q66.9219,310.6406 66.6563,310.4063 Q66.3906,310.1719 66.3906,309.7813 Q66.3906,309.4063 66.6563,309.1719 Q66.9219,308.9375 67.5313,308.9375 L72.6719,308.9375 Q73.2813,308.9375 73.5469,309.1719 Q73.8125,309.4063 73.8125,309.7813 Q73.8125,310.1719 73.5469,310.4063 Q73.2813,310.6406 72.6719,310.6406 L70.9531,310.6406 Z " fill="#000000"/><text fill="#000000" font-family="sans-serif" font-size="12" font-style="italic" lengthAdjust="spacing" textLength="94" x="84" y="318.9102">ICustomersRepo</text><line style="stroke:#A80036;stroke-width:1.5;" x1="56" x2="180" y1="330" y2="330"/><line style="stroke:#A80036;stroke-width:1.5;" x1="56" x2="180" y1="338" y2="338"/><!--MD5=[2ce0c9fb7f55b1e256ab28a8ea6b25ec]
class Customer--><rect codeLine="40" fill="#FEFECE" filter="url(#f164vnib1glbok)" height="48" id="Customer" style="stroke:#A80036;stroke-width:1.5;" width="87" x="79.5" y="413"/><ellipse cx="94.5" cy="429" fill="#ADD1B2" rx="11" ry="11" style="stroke:#A80036;stroke-width:1.0;"/><path d="M97.2656,424.875 Q97.4219,424.6563 97.6094,424.5469 Q97.7969,424.4375 98.0156,424.4375 Q98.3906,424.4375 98.625,424.7031 Q98.8594,424.9531 98.8594,425.5625 L98.8594,427.0156 Q98.8594,427.625 98.625,427.8906 Q98.3906,428.1563 98.0156,428.1563 Q97.6719,428.1563 97.4688,427.9531 Q97.2656,427.7656 97.1563,427.25 Q97.1094,426.8906 96.9219,426.7031 Q96.5938,426.3281 95.9844,426.1094 Q95.375,425.8906 94.75,425.8906 Q93.9844,425.8906 93.3438,426.2188 Q92.7188,426.5469 92.2188,427.2969 Q91.7344,428.0469 91.7344,429.0781 L91.7344,430.1719 Q91.7344,431.4063 92.625,432.2344 Q93.5156,433.0469 95.1094,433.0469 Q96.0469,433.0469 96.7031,432.7969 Q97.0938,432.6406 97.5156,432.2031 Q97.7813,431.9375 97.9219,431.8594 Q98.0781,431.7813 98.2813,431.7813 Q98.6094,431.7813 98.8594,432.0469 Q99.125,432.2969 99.125,432.6406 Q99.125,432.9844 98.7813,433.3906 Q98.2813,433.9688 97.4844,434.2969 Q96.4063,434.75 95.1094,434.75 Q93.5938,434.75 92.3906,434.125 Q91.4063,433.625 90.7188,432.5625 Q90.0313,431.4844 90.0313,430.2031 L90.0313,429.0469 Q90.0313,427.7188 90.6406,426.5781 Q91.2656,425.4219 92.3594,424.8125 Q93.4531,424.1875 94.6875,424.1875 Q95.4219,424.1875 96.0625,424.3594 Q96.7188,424.5156 97.2656,424.875 Z " fill="#000000"/><text fill="#000000" font-family="sans-serif" font-size="12" lengthAdjust="spacing" textLength="55" x="108.5" y="433.9102">Customer</text><line style="stroke:#A80036;stroke-width:1.5;" x1="80.5" x2="165.5" y1="445" y2="445"/><line style="stroke:#A80036;stroke-width:1.5;" x1="80.5" x2="165.5" y1="453" y2="453"/><!--MD5=[84f2a341280963c6818f86475dcd9e4a]
class IAccountsRepo--><rect codeLine="41" fill="#FEFECE" filter="url(#f164vnib1glbok)" height="48" id="IAccountsRepo" style="stroke:#A80036;stroke-width:1.5;" width="116" x="65" y="535"/><ellipse cx="80" cy="551" fill="#B4A7E5" rx="11" ry="11" style="stroke:#A80036;stroke-width:1.0;"/><path d="M80.9531,547.6406 L80.9531,554.2969 L82.6719,554.2969 Q83.2813,554.2969 83.5469,554.5313 Q83.8125,554.7656 83.8125,555.1563 Q83.8125,555.5313 83.5469,555.7656 Q83.2813,556 82.6719,556 L77.5313,556 Q76.9219,556 76.6563,555.7656 Q76.3906,555.5313 76.3906,555.1406 Q76.3906,554.7656 76.6563,554.5313 Q76.9219,554.2969 77.5313,554.2969 L79.25,554.2969 L79.25,547.6406 L77.5313,547.6406 Q76.9219,547.6406 76.6563,547.4063 Q76.3906,547.1719 76.3906,546.7813 Q76.3906,546.4063 76.6563,546.1719 Q76.9219,545.9375 77.5313,545.9375 L82.6719,545.9375 Q83.2813,545.9375 83.5469,546.1719 Q83.8125,546.4063 83.8125,546.7813 Q83.8125,547.1719 83.5469,547.4063 Q83.2813,547.6406 82.6719,547.6406 L80.9531,547.6406 Z " fill="#000000"/><text fill="#000000" font-family="sans-serif" font-size="12" font-style="italic" lengthAdjust="spacing" textLength="84" x="94" y="555.9102">IAccountsRepo</text><line style="stroke:#A80036;stroke-width:1.5;" x1="66" x2="180" y1="567" y2="567"/><line style="stroke:#A80036;stroke-width:1.5;" x1="66" x2="180" y1="575" y2="575"/><!--MD5=[f9a29335b499db729be669fd1bd54958]
class Account--><rect codeLine="42" fill="#FEFECE" filter="url(#f164vnib1glbok)" height="48" id="Account" style="stroke:#A80036;stroke-width:1.5;" width="75" x="85.5" y="657"/><ellipse cx="100.5" cy="673" fill="#ADD1B2" rx="11" ry="11" style="stroke:#A80036;stroke-width:1.0;"/><path d="M103.2656,668.875 Q103.4219,668.6563 103.6094,668.5469 Q103.7969,668.4375 104.0156,668.4375 Q104.3906,668.4375 104.625,668.7031 Q104.8594,668.9531 104.8594,669.5625 L104.8594,671.0156 Q104.8594,671.625 104.625,671.8906 Q104.3906,672.1563 104.0156,672.1563 Q103.6719,672.1563 103.4688,671.9531 Q103.2656,671.7656 103.1563,671.25 Q103.1094,670.8906 102.9219,670.7031 Q102.5938,670.3281 101.9844,670.1094 Q101.375,669.8906 100.75,669.8906 Q99.9844,669.8906 99.3438,670.2188 Q98.7188,670.5469 98.2188,671.2969 Q97.7344,672.0469 97.7344,673.0781 L97.7344,674.1719 Q97.7344,675.4063 98.625,676.2344 Q99.5156,677.0469 101.1094,677.0469 Q102.0469,677.0469 102.7031,676.7969 Q103.0938,676.6406 103.5156,676.2031 Q103.7813,675.9375 103.9219,675.8594 Q104.0781,675.7813 104.2813,675.7813 Q104.6094,675.7813 104.8594,676.0469 Q105.125,676.2969 105.125,676.6406 Q105.125,676.9844 104.7813,677.3906 Q104.2813,677.9688 103.4844,678.2969 Q102.4063,678.75 101.1094,678.75 Q99.5938,678.75 98.3906,678.125 Q97.4063,677.625 96.7188,676.5625 Q96.0313,675.4844 96.0313,674.2031 L96.0313,673.0469 Q96.0313,671.7188 96.6406,670.5781 Q97.2656,669.4219 98.3594,668.8125 Q99.4531,668.1875 100.6875,668.1875 Q101.4219,668.1875 102.0625,668.3594 Q102.7188,668.5156 103.2656,668.875 Z " fill="#000000"/><text fill="#000000" font-family="sans-serif" font-size="12" lengthAdjust="spacing" textLength="43" x="114.5" y="677.9102">Account</text><line style="stroke:#A80036;stroke-width:1.5;" x1="86.5" x2="159.5" y1="689" y2="689"/><line style="stroke:#A80036;stroke-width:1.5;" x1="86.5" x2="159.5" y1="697" y2="697"/><!--MD5=[ce8da3c268ad22531c71932ed6f7c72d]
class ITransactionsRepo--><rect codeLine="43" fill="#FEFECE" filter="url(#f164vnib1glbok)" height="48" id="ITransactionsRepo" style="stroke:#A80036;stroke-width:1.5;" width="136" x="45" y="772"/><ellipse cx="60" cy="788" fill="#B4A7E5" rx="11" ry="11" style="stroke:#A80036;stroke-width:1.0;"/><path d="M60.9531,784.6406 L60.9531,791.2969 L62.6719,791.2969 Q63.2813,791.2969 63.5469,791.5313 Q63.8125,791.7656 63.8125,792.1563 Q63.8125,792.5313 63.5469,792.7656 Q63.2813,793 62.6719,793 L57.5313,793 Q56.9219,793 56.6563,792.7656 Q56.3906,792.5313 56.3906,792.1406 Q56.3906,791.7656 56.6563,791.5313 Q56.9219,791.2969 57.5313,791.2969 L59.25,791.2969 L59.25,784.6406 L57.5313,784.6406 Q56.9219,784.6406 56.6563,784.4063 Q56.3906,784.1719 56.3906,783.7813 Q56.3906,783.4063 56.6563,783.1719 Q56.9219,782.9375 57.5313,782.9375 L62.6719,782.9375 Q63.2813,782.9375 63.5469,783.1719 Q63.8125,783.4063 63.8125,783.7813 Q63.8125,784.1719 63.5469,784.4063 Q63.2813,784.6406 62.6719,784.6406 L60.9531,784.6406 Z " fill="#000000"/><text fill="#000000" font-family="sans-serif" font-size="12" font-style="italic" lengthAdjust="spacing" textLength="104" x="74" y="792.9102">ITransactionsRepo</text><line style="stroke:#A80036;stroke-width:1.5;" x1="46" x2="180" y1="804" y2="804"/><line style="stroke:#A80036;stroke-width:1.5;" x1="46" x2="180" y1="812" y2="812"/><!--MD5=[4555bb1b0911a5adf28ce6dbe60fed2e]
class Transaction--><rect codeLine="44" fill="#FEFECE" filter="url(#f164vnib1glbok)" height="48" id="Transaction" style="stroke:#A80036;stroke-width:1.5;" width="97" x="73.5" y="887"/><ellipse cx="88.5" cy="903" fill="#ADD1B2" rx="11" ry="11" style="stroke:#A80036;stroke-width:1.0;"/><path d="M91.2656,898.875 Q91.4219,898.6563 91.6094,898.5469 Q91.7969,898.4375 92.0156,898.4375 Q92.3906,898.4375 92.625,898.7031 Q92.8594,898.9531 92.8594,899.5625 L92.8594,901.0156 Q92.8594,901.625 92.625,901.8906 Q92.3906,902.1563 92.0156,902.1563 Q91.6719,902.1563 91.4688,901.9531 Q91.2656,901.7656 91.1563,901.25 Q91.1094,900.8906 90.9219,900.7031 Q90.5938,900.3281 89.9844,900.1094 Q89.375,899.8906 88.75,899.8906 Q87.9844,899.8906 87.3438,900.2188 Q86.7188,900.5469 86.2188,901.2969 Q85.7344,902.0469 85.7344,903.0781 L85.7344,904.1719 Q85.7344,905.4063 86.625,906.2344 Q87.5156,907.0469 89.1094,907.0469 Q90.0469,907.0469 90.7031,906.7969 Q91.0938,906.6406 91.5156,906.2031 Q91.7813,905.9375 91.9219,905.8594 Q92.0781,905.7813 92.2813,905.7813 Q92.6094,905.7813 92.8594,906.0469 Q93.125,906.2969 93.125,906.6406 Q93.125,906.9844 92.7813,907.3906 Q92.2813,907.9688 91.4844,908.2969 Q90.4063,908.75 89.1094,908.75 Q87.5938,908.75 86.3906,908.125 Q85.4063,907.625 84.7188,906.5625 Q84.0313,905.4844 84.0313,904.2031 L84.0313,903.0469 Q84.0313,901.7188 84.6406,900.5781 Q85.2656,899.4219 86.3594,898.8125 Q87.4531,898.1875 88.6875,898.1875 Q89.4219,898.1875 90.0625,898.3594 Q90.7188,898.5156 91.2656,898.875 Z " fill="#000000"/><text fill="#000000" font-family="sans-serif" font-size="12" lengthAdjust="spacing" textLength="65" x="102.5" y="907.9102">Transaction</text><line style="stroke:#A80036;stroke-width:1.5;" x1="74.5" x2="169.5" y1="919" y2="919"/><line style="stroke:#A80036;stroke-width:1.5;" x1="74.5" x2="169.5" y1="927" y2="927"/><!--MD5=[102b03025ee24d4b51c425a88ecde043]
class ITransactionsLogRepo--><rect codeLine="45" fill="#FEFECE" filter="url(#f164vnib1glbok)" height="48" id="ITransactionsLogRepo" style="stroke:#A80036;stroke-width:1.5;" width="157" x="23.5" y="1002"/><ellipse cx="38.5" cy="1018" fill="#B4A7E5" rx="11" ry="11" style="stroke:#A80036;stroke-width:1.0;"/><path d="M39.4531,1014.6406 L39.4531,1021.2969 L41.1719,1021.2969 Q41.7813,1021.2969 42.0469,1021.5313 Q42.3125,1021.7656 42.3125,1022.1563 Q42.3125,1022.5313 42.0469,1022.7656 Q41.7813,1023 41.1719,1023 L36.0313,1023 Q35.4219,1023 35.1563,1022.7656 Q34.8906,1022.5313 34.8906,1022.1406 Q34.8906,1021.7656 35.1563,1021.5313 Q35.4219,1021.2969 36.0313,1021.2969 L37.75,1021.2969 L37.75,1014.6406 L36.0313,1014.6406 Q35.4219,1014.6406 35.1563,1014.4063 Q34.8906,1014.1719 34.8906,1013.7813 Q34.8906,1013.4063 35.1563,1013.1719 Q35.4219,1012.9375 36.0313,1012.9375 L41.1719,1012.9375 Q41.7813,1012.9375 42.0469,1013.1719 Q42.3125,1013.4063 42.3125,1013.7813 Q42.3125,1014.1719 42.0469,1014.4063 Q41.7813,1014.6406 41.1719,1014.6406 L39.4531,1014.6406 Z " fill="#000000"/><text fill="#000000" font-family="sans-serif" font-size="12" font-style="italic" lengthAdjust="spacing" textLength="125" x="52.5" y="1022.9102">ITransactionsLogRepo</text><line style="stroke:#A80036;stroke-width:1.5;" x1="24.5" x2="179.5" y1="1034" y2="1034"/><line style="stroke:#A80036;stroke-width:1.5;" x1="24.5" x2="179.5" y1="1042" y2="1042"/><!--MD5=[9066e956ebe5b62a90d194ed6cf4a894]
class org.springframework.data.jpa.repository.JpaRepository--><rect codeLine="48" fill="#FEFECE" filter="url(#f164vnib1glbok)" height="48" id="org.springframework.data.jpa.repository.JpaRepository" style="stroke:#A80036;stroke-width:1.5;" width="111" x="517.5" y="68"/><ellipse cx="532.5" cy="84" fill="#B4A7E5" rx="11" ry="11" style="stroke:#A80036;stroke-width:1.0;"/><path d="M533.4531,80.6406 L533.4531,87.2969 L535.1719,87.2969 Q535.7813,87.2969 536.0469,87.5313 Q536.3125,87.7656 536.3125,88.1563 Q536.3125,88.5313 536.0469,88.7656 Q535.7813,89 535.1719,89 L530.0313,89 Q529.4219,89 529.1563,88.7656 Q528.8906,88.5313 528.8906,88.1406 Q528.8906,87.7656 529.1563,87.5313 Q529.4219,87.2969 530.0313,87.2969 L531.75,87.2969 L531.75,80.6406 L530.0313,80.6406 Q529.4219,80.6406 529.1563,80.4063 Q528.8906,80.1719 528.8906,79.7813 Q528.8906,79.4063 529.1563,79.1719 Q529.4219,78.9375 530.0313,78.9375 L535.1719,78.9375 Q535.7813,78.9375 536.0469,79.1719 Q536.3125,79.4063 536.3125,79.7813 Q536.3125,80.1719 536.0469,80.4063 Q535.7813,80.6406 535.1719,80.6406 L533.4531,80.6406 Z " fill="#000000"/><text fill="#000000" font-family="sans-serif" font-size="12" font-style="italic" lengthAdjust="spacing" textLength="79" x="546.5" y="88.9102">JpaRepository</text><line style="stroke:#A80036;stroke-width:1.5;" x1="518.5" x2="627.5" y1="100" y2="100"/><line style="stroke:#A80036;stroke-width:1.5;" x1="518.5" x2="627.5" y1="108" y2="108"/><!--MD5=[aae43b8aaf9c157c56e8b57f4f395ad5]
link UsersRepo to IUsersRepo--><path codeLine="50" d="M239.78,92 C227,92 214.21,92 201.43,92 " fill="none" id="UsersRepo-to-IUsersRepo" style="stroke:#A80036;stroke-width:1.0;"/><polygon fill="none" points="201.33,99,181.33,92,201.33,85,201.33,99" style="stroke:#A80036;stroke-width:1.0;"/><!--MD5=[78d4ec87c63295a15453a85401220cbe]
link UsersRepo to User--><path codeLine="51" d="M258.64,123.28 C229.5,142.32 192.55,166.45 166.09,183.73 " fill="none" id="UsersRepo-to-User" style="stroke:#A80036;stroke-width:1.0;"/><polygon fill="#A80036" points="161.61,186.66,171.3339,185.0961,165.7986,183.9295,166.9651,178.3943,161.61,186.66" style="stroke:#A80036;stroke-width:1.0;"/><!--MD5=[8e79af4426cd8b92acf2611de6a1d6bd]
link UsersRepo to CustomersRepo--><!--MD5=[039ad30bf0e176605d6f15e86a52e318]
link CustomersRepo to ICustomersRepo--><path codeLine="54" d="M237.46,322 C225.44,322 213.42,322 201.4,322 " fill="none" id="CustomersRepo-to-ICustomersRepo" style="stroke:#A80036;stroke-width:1.0;"/><polygon fill="none" points="201.16,329,181.16,322,201.16,315,201.16,329" style="stroke:#A80036;stroke-width:1.0;"/><!--MD5=[32c1685c73a7f0814a315a42f2537228]
link CustomersRepo to Customer--><path codeLine="55" d="M263.07,353.13 C232.96,370.94 195.24,393.26 166.53,410.25 " fill="none" id="CustomersRepo-to-Customer" style="stroke:#A80036;stroke-width:1.0;"/><polygon fill="#A80036" points="162,412.93,171.7845,411.8061,166.3075,410.3912,167.7224,404.9141,162,412.93" style="stroke:#A80036;stroke-width:1.0;"/><!--MD5=[ebd49cbe30ad6ec1ae15b8579851aab1]
link CustomersRepo to AccountsRepo--><!--MD5=[38b8c7fb0620b5d3c78957f03b3b138e]
link AccountsRepo to IAccountsRepo--><path codeLine="58" d="M237.29,559 C225.32,559 213.36,559 201.4,559 " fill="none" id="AccountsRepo-to-IAccountsRepo" style="stroke:#A80036;stroke-width:1.0;"/><polygon fill="none" points="201.27,566,181.27,559,201.27,552,201.27,566" style="stroke:#A80036;stroke-width:1.0;"/><!--MD5=[8ce016fa754a155962b11986ac3d0951]
link AccountsRepo to Account--><path codeLine="59" d="M279.04,597.15 C241.85,616.89 197.34,640.53 165.4,657.49 " fill="none" id="AccountsRepo-to-Account" style="stroke:#A80036;stroke-width:1.0;"/><polygon fill="#A80036" points="160.78,659.94,170.6032,659.2292,165.1906,657.5848,166.8349,652.1722,160.78,659.94" style="stroke:#A80036;stroke-width:1.0;"/><!--MD5=[e6b37619cffc6b0c4cf2eb28f8d3e2d9]
link AccountsRepo to TransactionsRepo--><!--MD5=[3d397610442f5620aff5dba38ea5dccb]
link TransactionsRepo to ITransactionsRepo--><path codeLine="62" d="M237.81,796 C225.68,796 213.56,796 201.43,796 " fill="none" id="TransactionsRepo-to-ITransactionsRepo" style="stroke:#A80036;stroke-width:1.0;"/><polygon fill="none" points="201.02,803,181.02,796,201.02,789,201.02,803" style="stroke:#A80036;stroke-width:1.0;"/><!--MD5=[90e20abe83c371cc28dd9f4c4e8efaea]
link TransactionsRepo to Transaction--><path codeLine="63" d="M261.08,827.28 C231.14,845.09 193.68,867.37 165.19,884.31 " fill="none" id="TransactionsRepo-to-Transaction" style="stroke:#A80036;stroke-width:1.0;"/><polygon fill="#A80036" points="160.69,886.99,170.47,885.8278,164.9875,884.4343,166.381,878.9518,160.69,886.99" style="stroke:#A80036;stroke-width:1.0;"/><!--MD5=[a5d034b99d81d1e723b87cf247af1cdd]
link TransactionsRepo to TransactionsLogRepo--><!--MD5=[94fb7b3f0badea557926f51fb47016e0]
link TransactionsLogRepo to ITransactionsLogRepo--><path codeLine="66" d="M237.44,1026 C225.32,1026 213.2,1026 201.07,1026 " fill="none" id="TransactionsLogRepo-to-ITransactionsLogRepo" style="stroke:#A80036;stroke-width:1.0;"/><polygon fill="none" points="200.67,1033,180.67,1026,200.67,1019,200.67,1033" style="stroke:#A80036;stroke-width:1.0;"/><!--MD5=[0ca8ba16680bc10dee8a677e730a3979]
reverse link Transaction to TransactionsLogRepo--><path codeLine="67" d="M165.86,937.81 C194.68,954.77 232.49,977.03 262.7,994.81 " fill="none" id="Transaction-backto-TransactionsLogRepo" style="stroke:#A80036;stroke-width:1.0;"/><polygon fill="#A80036" points="161.32,935.14,167.0505,943.1501,165.63,937.6745,171.1057,936.254,161.32,935.14" style="stroke:#A80036;stroke-width:1.0;"/><!--MD5=[89740977fd1acb003b8f81662033ac1a]
link IUsersRepo to User--><!--MD5=[d567dfb79ddaa48c88a55b8a460a437b]
link User to ICustomersRepo--><!--MD5=[143a0dcf59eb6a38c7d7f4ac0cb0679d]
link ICustomersRepo to Customer--><!--MD5=[6f98efc9c6ef465827f2174ffb883533]
link Customer to IAccountsRepo--><!--MD5=[9ff4578158bf875387dd15a1f2d5b101]
link IAccountsRepo to Account--><!--MD5=[b1491619241aff0ba2e4cac7e5e5e16c]
link Account to ITransactionsRepo--><!--MD5=[06d6765908ef881c0b232d0649a03510]
link ITransactionsRepo to Transaction--><!--MD5=[fee98cec76fd14768eb054bb9ec9f20e]
link Transaction to ITransactionsLogRepo--><!--MD5=[081a6f0694fe6961f888f269096744d6]
reverse link org.springframework.data.jpa.repository.JpaRepository to UsersRepo--><path codeLine="78" d="M497.05,92 C454.75,92 412.46,92 370.17,92 " fill="none" id="org.springframework.data.jpa.repository.JpaRepository-backto-UsersRepo" style="stroke:#A80036;stroke-width:1.0;"/><polygon fill="none" points="497.14,85,517.14,92,497.14,99,497.14,85" style="stroke:#A80036;stroke-width:1.0;"/><!--MD5=[398b61d7af516a980e7a4c17ea566602]
reverse link org.springframework.data.jpa.repository.JpaRepository to CustomersRepo--><path codeLine="79" d="M531.56,129.48 C480.83,174.13 395.84,248.95 348.5,290.63 " fill="none" id="org.springframework.data.jpa.repository.JpaRepository-backto-CustomersRepo" style="stroke:#A80036;stroke-width:1.0;"/><polygon fill="none" points="527.1,124.08,546.74,116.12,536.35,134.59,527.1,124.08" style="stroke:#A80036;stroke-width:1.0;"/><!--MD5=[639dbfe373bd81279c637056b395d3fd]
reverse link org.springframework.data.jpa.repository.JpaRepository to AccountsRepo--><path codeLine="80" d="M553.16,134.19 C509.99,223.81 408.11,435.29 366.83,520.98 " fill="none" id="org.springframework.data.jpa.repository.JpaRepository-backto-AccountsRepo" style="stroke:#A80036;stroke-width:1.0;"/><polygon fill="none" points="546.91,131.04,561.89,116.06,559.52,137.12,546.91,131.04" style="stroke:#A80036;stroke-width:1.0;"/><!--MD5=[c1512f84b7f6ca9cd1561ab67676f55f]
@startuml ClassRepository

skinparam class {
    BackgroundColor<<Repository>> SkyBlue
    BorderColor<<Repository>> Navy
    BackgroundColor<<Access>> Snow
    BorderColor<<Access>> Plum
    BackgroundColor<<Integration>> SandyBrown
    BorderColor<<Integration>> Tomato
    BackgroundColor<<Domain>> Gold
    BorderColor<<Domain>> Red
}

component "<<Component>>\nRepository" as repository #SkyBlue {
    interface UsersRepo {
        + User findById(long id)
    }

    interface CustomersRepo {
        + Customer findById(long id)
    }

    interface AccountsRepo {
        + Account findById(long id)
        + List<Account> findByCustomerId(long id)
    }

    interface TransactionsRepo {
        + Account findById(long id)
    }

    interface TransactionsLogRepo {
        + Account findById(long id)
    }
}

component "<<Component>>\nDomain" as domain #Gold {
    interface IUsersRepo
    class User
    interface ICustomersRepo
    class Customer
    interface IAccountsRepo
    class Account
    interface ITransactionsRepo
    class Transaction
    interface ITransactionsLogRepo
}

interface org.springframework.data.jpa.repository.JpaRepository

UsersRepo -|> IUsersRepo
UsersRepo - -> User
UsersRepo - - -[hidden]> CustomersRepo

CustomersRepo -|> ICustomersRepo
CustomersRepo - -> Customer
CustomersRepo - - -[hidden]> AccountsRepo

AccountsRepo -|> IAccountsRepo
AccountsRepo - -> Account
AccountsRepo - - -[hidden]> TransactionsRepo

TransactionsRepo -|> ITransactionsRepo
TransactionsRepo - -> Transaction
TransactionsRepo - - -[hidden]> TransactionsLogRepo

TransactionsLogRepo -|> ITransactionsLogRepo
TransactionsLogRepo -up-> Transaction

IUsersRepo - -[hidden]> User
User - -[hidden]> ICustomersRepo
ICustomersRepo - -[hidden]> Customer
Customer - -[hidden]> IAccountsRepo
IAccountsRepo - -[hidden]> Account
Account - -[hidden]> ITransactionsRepo
ITransactionsRepo - -[hidden]> Transaction
Transaction - -[hidden]> ITransactionsLogRepo

org.springframework.data.jpa.repository.JpaRepository <|- UsersRepo
org.springframework.data.jpa.repository.JpaRepository <|- - - CustomersRepo
org.springframework.data.jpa.repository.JpaRepository <|- - - - - AccountsRepo

' note as note1
'     TODO: add new methods.
' end note

' note as note2
'     Idea here is to invert dependencies that
'     Domain layer would not know anything about Repository layer,
'     in this case Spring JPA magic.
' end note

' UsersRepo -up- note1
' UsersRepo -up- note2

@enduml

@startuml ClassRepository

skinparam class {
    BackgroundColor<<Repository>> SkyBlue
    BorderColor<<Repository>> Navy
    BackgroundColor<<Access>> Snow
    BorderColor<<Access>> Plum
    BackgroundColor<<Integration>> SandyBrown
    BorderColor<<Integration>> Tomato
    BackgroundColor<<Domain>> Gold
    BorderColor<<Domain>> Red
}

component "<<Component>>\nRepository" as repository #SkyBlue {
    interface UsersRepo {
        + User findById(long id)
    }

    interface CustomersRepo {
        + Customer findById(long id)
    }

    interface AccountsRepo {
        + Account findById(long id)
        + List<Account> findByCustomerId(long id)
    }

    interface TransactionsRepo {
        + Account findById(long id)
    }

    interface TransactionsLogRepo {
        + Account findById(long id)
    }
}

component "<<Component>>\nDomain" as domain #Gold {
    interface IUsersRepo
    class User
    interface ICustomersRepo
    class Customer
    interface IAccountsRepo
    class Account
    interface ITransactionsRepo
    class Transaction
    interface ITransactionsLogRepo
}

interface org.springframework.data.jpa.repository.JpaRepository

UsersRepo -|> IUsersRepo
UsersRepo - -> User
UsersRepo - - -[hidden]> CustomersRepo

CustomersRepo -|> ICustomersRepo
CustomersRepo - -> Customer
CustomersRepo - - -[hidden]> AccountsRepo

AccountsRepo -|> IAccountsRepo
AccountsRepo - -> Account
AccountsRepo - - -[hidden]> TransactionsRepo

TransactionsRepo -|> ITransactionsRepo
TransactionsRepo - -> Transaction
TransactionsRepo - - -[hidden]> TransactionsLogRepo

TransactionsLogRepo -|> ITransactionsLogRepo
TransactionsLogRepo -up-> Transaction

IUsersRepo - -[hidden]> User
User - -[hidden]> ICustomersRepo
ICustomersRepo - -[hidden]> Customer
Customer - -[hidden]> IAccountsRepo
IAccountsRepo - -[hidden]> Account
Account - -[hidden]> ITransactionsRepo
ITransactionsRepo - -[hidden]> Transaction
Transaction - -[hidden]> ITransactionsLogRepo

org.springframework.data.jpa.repository.JpaRepository <|- UsersRepo
org.springframework.data.jpa.repository.JpaRepository <|- - - CustomersRepo
org.springframework.data.jpa.repository.JpaRepository <|- - - - - AccountsRepo




@enduml

PlantUML version 1.2021.14(Fri Nov 12 18:46:50 EET 2021)
(GPL source distribution)
Java Runtime: Java(TM) SE Runtime Environment
JVM: Java HotSpot(TM) 64-Bit Server VM
Default Encoding: Cp1252
Language: en
Country: US
--></g></svg>