<?xml version="1.0" encoding="UTF-8" standalone="no"?>
<svg xmlns="http://www.w3.org/2000/svg" xmlns:xlink="http://www.w3.org/1999/xlink" contentScriptType="application/ecmascript" contentStyleType="text/css" height="536px" preserveAspectRatio="none" style="width:1300px;height:536px;background:#FFFFFF;" version="1.1" viewBox="0 0 1300 536" width="1300px" zoomAndPan="magnify"><defs><filter height="300%" id="f1ne4jq1o9q08x" width="300%" x="-1" y="-1"><feGaussianBlur result="blurOut" stdDeviation="2.0"/><feColorMatrix in="blurOut" result="blurOut2" type="matrix" values="0 0 0 0 0 0 0 0 0 0 0 0 0 0 0 0 0 0 .4 0"/><feOffset dx="4.0" dy="4.0" in="blurOut2" result="blurOut3"/><feBlend in="SourceGraphic" in2="blurOut3" mode="normal"/></filter></defs><g><!--MD5=[f55d592c5130daf0ceebcd2d990036d6]
class Bank--><rect codeLine="1" fill="#FEFECE" filter="url(#f1ne4jq1o9q08x)" height="163.2422" id="Bank" style="stroke:#A80036;stroke-width:1.5;" width="711" x="182.5" y="170"/><ellipse cx="519.25" cy="186" fill="#ADD1B2" rx="11" ry="11" style="stroke:#A80036;stroke-width:1.0;"/><path d="M521.5938,181.6719 C520.6563,181.2344 520.0625,181.0938 519.1875,181.0938 C516.5625,181.0938 514.5625,183.1719 514.5625,185.8906 L514.5625,187.0156 C514.5625,189.5938 516.6719,191.4844 519.5625,191.4844 C520.7813,191.4844 521.9375,191.1875 522.6875,190.6406 C523.2656,190.2344 523.5938,189.7813 523.5938,189.3906 C523.5938,188.9375 523.2031,188.5469 522.7344,188.5469 C522.5156,188.5469 522.3125,188.625 522.125,188.8125 C521.6719,189.2969 521.6719,189.2969 521.4844,189.3906 C521.0625,189.6563 520.375,189.7813 519.6094,189.7813 C517.5625,189.7813 516.2656,188.6875 516.2656,186.9844 L516.2656,185.8906 C516.2656,184.1094 517.5156,182.7969 519.25,182.7969 C519.8281,182.7969 520.4375,182.9531 520.9063,183.2031 C521.3906,183.4844 521.5625,183.7031 521.6563,184.1094 C521.7188,184.5156 521.75,184.6406 521.8906,184.7656 C522.0313,184.9063 522.2656,185.0156 522.4844,185.0156 C522.75,185.0156 523.0156,184.875 523.1875,184.6563 C523.2969,184.5 523.3281,184.3125 523.3281,183.8906 L523.3281,182.4688 C523.3281,182.0313 523.3125,181.9063 523.2188,181.75 C523.0625,181.4844 522.7813,181.3438 522.4844,181.3438 C522.1875,181.3438 521.9844,181.4375 521.7656,181.75 L521.5938,181.6719 Z " fill="#000000"/><text fill="#000000" font-family="sans-serif" font-size="12" lengthAdjust="spacing" textLength="29" x="539.75" y="190.1543">Bank</text><line style="stroke:#A80036;stroke-width:1.5;" x1="183.5" x2="892.5" y1="202" y2="202"/><rect fill="none" height="6" style="stroke:#C82930;stroke-width:1.0;" width="6" x="190.5" y="210"/><text fill="#000000" font-family="sans-serif" font-size="11" lengthAdjust="spacing" textLength="69" x="202.5" y="216.2104">User[] users</text><rect fill="none" height="6" style="stroke:#C82930;stroke-width:1.0;" width="6" x="190.5" y="222.8047"/><text fill="#000000" font-family="sans-serif" font-size="11" lengthAdjust="spacing" textLength="167" x="202.5" y="229.0151">Administrator[] administrators</text><rect fill="none" height="6" style="stroke:#C82930;stroke-width:1.0;" width="6" x="190.5" y="235.6094"/><text fill="#000000" font-family="sans-serif" font-size="11" lengthAdjust="spacing" textLength="107" x="202.5" y="241.8198">Account[] accounts</text><rect fill="none" height="6" style="stroke:#C82930;stroke-width:1.0;" width="6" x="190.5" y="248.4141"/><text fill="#000000" font-family="sans-serif" font-size="11" lengthAdjust="spacing" textLength="145" x="202.5" y="254.6245">Transaction[] transactions</text><rect fill="none" height="6" style="stroke:#C82930;stroke-width:1.0;" width="6" x="190.5" y="261.2188"/><text fill="#000000" font-family="sans-serif" font-size="11" lengthAdjust="spacing" textLength="209" x="202.5" y="267.4292">TransactionLogger transactionLogger</text><line style="stroke:#A80036;stroke-width:1.5;" x1="183.5" x2="892.5" y1="274.0234" y2="274.0234"/><ellipse cx="193.5" cy="285.0234" fill="#84BE84" rx="3" ry="3" style="stroke:#038048;stroke-width:1.0;"/><text fill="#000000" font-family="sans-serif" font-size="11" lengthAdjust="spacing" textLength="570" x="202.5" y="288.2339">Transaction createTransaction(String senderIBAN, String recipientIBAN, String description, float sum)</text><ellipse cx="193.5" cy="297.8281" fill="#84BE84" rx="3" ry="3" style="stroke:#038048;stroke-width:1.0;"/><text fill="#000000" font-family="sans-serif" font-size="11" lengthAdjust="spacing" textLength="685" x="202.5" y="301.0386">Transaction modifyTransaction(UUID transactionID, String senderIBAN, String recipientIBAN, String description, float sum)</text><ellipse cx="193.5" cy="310.6328" fill="#84BE84" rx="3" ry="3" style="stroke:#038048;stroke-width:1.0;"/><text fill="#000000" font-family="sans-serif" font-size="11" lengthAdjust="spacing" textLength="177" x="202.5" y="313.8433">bool storno(UUID transactionID)</text><ellipse cx="193.5" cy="323.4375" fill="#84BE84" rx="3" ry="3" style="stroke:#038048;stroke-width:1.0;"/><text fill="#000000" font-family="sans-serif" font-size="11" lengthAdjust="spacing" textLength="305" x="202.5" y="326.6479">Transaction addFunds(String recipientIBAN, float sum)</text><!--MD5=[3fd616f346a44cd59a91eb10b19e157c]
class User--><rect codeLine="13" fill="#FEFECE" filter="url(#f1ne4jq1o9q08x)" height="99.2188" id="User" style="stroke:#A80036;stroke-width:1.5;" width="144" x="165" y="416.5"/><ellipse cx="218.25" cy="432.5" fill="#ADD1B2" rx="11" ry="11" style="stroke:#A80036;stroke-width:1.0;"/><path d="M220.5938,428.1719 C219.6563,427.7344 219.0625,427.5938 218.1875,427.5938 C215.5625,427.5938 213.5625,429.6719 213.5625,432.3906 L213.5625,433.5156 C213.5625,436.0938 215.6719,437.9844 218.5625,437.9844 C219.7813,437.9844 220.9375,437.6875 221.6875,437.1406 C222.2656,436.7344 222.5938,436.2813 222.5938,435.8906 C222.5938,435.4375 222.2031,435.0469 221.7344,435.0469 C221.5156,435.0469 221.3125,435.125 221.125,435.3125 C220.6719,435.7969 220.6719,435.7969 220.4844,435.8906 C220.0625,436.1563 219.375,436.2813 218.6094,436.2813 C216.5625,436.2813 215.2656,435.1875 215.2656,433.4844 L215.2656,432.3906 C215.2656,430.6094 216.5156,429.2969 218.25,429.2969 C218.8281,429.2969 219.4375,429.4531 219.9063,429.7031 C220.3906,429.9844 220.5625,430.2031 220.6563,430.6094 C220.7188,431.0156 220.75,431.1406 220.8906,431.2656 C221.0313,431.4063 221.2656,431.5156 221.4844,431.5156 C221.75,431.5156 222.0156,431.375 222.1875,431.1563 C222.2969,431 222.3281,430.8125 222.3281,430.3906 L222.3281,428.9688 C222.3281,428.5313 222.3125,428.4063 222.2188,428.25 C222.0625,427.9844 221.7813,427.8438 221.4844,427.8438 C221.1875,427.8438 220.9844,427.9375 220.7656,428.25 L220.5938,428.1719 Z " fill="#000000"/><text fill="#000000" font-family="sans-serif" font-size="12" lengthAdjust="spacing" textLength="29" x="238.75" y="436.6543">User</text><line style="stroke:#A80036;stroke-width:1.5;" x1="166" x2="308" y1="448.5" y2="448.5"/><rect fill="none" height="6" style="stroke:#C82930;stroke-width:1.0;" width="6" x="173" y="456.5"/><text fill="#000000" font-family="sans-serif" font-size="11" lengthAdjust="spacing" textLength="69" x="185" y="462.7104">String email</text><rect fill="none" height="6" style="stroke:#C82930;stroke-width:1.0;" width="6" x="173" y="469.3047"/><text fill="#000000" font-family="sans-serif" font-size="11" lengthAdjust="spacing" textLength="90" x="185" y="475.5151">String password</text><rect fill="none" height="6" style="stroke:#C82930;stroke-width:1.0;" width="6" x="173" y="482.1094"/><text fill="#000000" font-family="sans-serif" font-size="11" lengthAdjust="spacing" textLength="118" x="185" y="488.3198">String phoneNumber</text><rect fill="none" height="6" style="stroke:#C82930;stroke-width:1.0;" width="6" x="173" y="494.9141"/><text fill="#000000" font-family="sans-serif" font-size="11" lengthAdjust="spacing" textLength="93" x="185" y="501.1245">Account account</text><line style="stroke:#A80036;stroke-width:1.5;" x1="166" x2="308" y1="507.7188" y2="507.7188"/><!--MD5=[f9a29335b499db729be669fd1bd54958]
class Account--><rect codeLine="20" fill="#FEFECE" filter="url(#f1ne4jq1o9q08x)" height="112.0234" id="Account" style="stroke:#A80036;stroke-width:1.5;" width="339" x="368.5" y="410"/><ellipse cx="509.75" cy="426" fill="#ADD1B2" rx="11" ry="11" style="stroke:#A80036;stroke-width:1.0;"/><path d="M512.0938,421.6719 C511.1563,421.2344 510.5625,421.0938 509.6875,421.0938 C507.0625,421.0938 505.0625,423.1719 505.0625,425.8906 L505.0625,427.0156 C505.0625,429.5938 507.1719,431.4844 510.0625,431.4844 C511.2813,431.4844 512.4375,431.1875 513.1875,430.6406 C513.7656,430.2344 514.0938,429.7813 514.0938,429.3906 C514.0938,428.9375 513.7031,428.5469 513.2344,428.5469 C513.0156,428.5469 512.8125,428.625 512.625,428.8125 C512.1719,429.2969 512.1719,429.2969 511.9844,429.3906 C511.5625,429.6563 510.875,429.7813 510.1094,429.7813 C508.0625,429.7813 506.7656,428.6875 506.7656,426.9844 L506.7656,425.8906 C506.7656,424.1094 508.0156,422.7969 509.75,422.7969 C510.3281,422.7969 510.9375,422.9531 511.4063,423.2031 C511.8906,423.4844 512.0625,423.7031 512.1563,424.1094 C512.2188,424.5156 512.25,424.6406 512.3906,424.7656 C512.5313,424.9063 512.7656,425.0156 512.9844,425.0156 C513.25,425.0156 513.5156,424.875 513.6875,424.6563 C513.7969,424.5 513.8281,424.3125 513.8281,423.8906 L513.8281,422.4688 C513.8281,422.0313 513.8125,421.9063 513.7188,421.75 C513.5625,421.4844 513.2813,421.3438 512.9844,421.3438 C512.6875,421.3438 512.4844,421.4375 512.2656,421.75 L512.0938,421.6719 Z " fill="#000000"/><text fill="#000000" font-family="sans-serif" font-size="12" lengthAdjust="spacing" textLength="48" x="530.25" y="430.1543">Account</text><line style="stroke:#A80036;stroke-width:1.5;" x1="369.5" x2="706.5" y1="442" y2="442"/><rect fill="none" height="6" style="stroke:#C82930;stroke-width:1.0;" width="6" x="376.5" y="450"/><text fill="#000000" font-family="sans-serif" font-size="11" lengthAdjust="spacing" textLength="64" x="388.5" y="456.2104">String IBAN</text><rect fill="none" height="6" style="stroke:#C82930;stroke-width:1.0;" width="6" x="376.5" y="462.8047"/><text fill="#000000" font-family="sans-serif" font-size="11" lengthAdjust="spacing" textLength="74" x="388.5" y="469.0151">float balance</text><rect fill="none" height="6" style="stroke:#C82930;stroke-width:1.0;" width="6" x="376.5" y="475.6094"/><text fill="#000000" font-family="sans-serif" font-size="11" lengthAdjust="spacing" textLength="55" x="388.5" y="481.8198">User user</text><rect fill="none" height="6" style="stroke:#C82930;stroke-width:1.0;" width="6" x="376.5" y="488.4141"/><text fill="#000000" font-family="sans-serif" font-size="11" lengthAdjust="spacing" textLength="145" x="388.5" y="494.6245">Transaction[] transactions</text><line style="stroke:#A80036;stroke-width:1.5;" x1="369.5" x2="706.5" y1="501.2188" y2="501.2188"/><ellipse cx="379.5" cy="512.2188" fill="#84BE84" rx="3" ry="3" style="stroke:#038048;stroke-width:1.0;"/><text fill="#000000" font-family="sans-serif" font-size="11" lengthAdjust="spacing" textLength="313" x="388.5" y="515.4292">String requestTransaction(String description, float sum)</text><!--MD5=[da547346deef918ea16944ba046651ef]
class Administrator--><rect codeLine="28" fill="#FEFECE" filter="url(#f1ne4jq1o9q08x)" height="73.6094" id="Administrator" style="stroke:#A80036;stroke-width:1.5;" width="116" x="7" y="214.5"/><ellipse cx="23.8" cy="230.5" fill="#ADD1B2" rx="11" ry="11" style="stroke:#A80036;stroke-width:1.0;"/><path d="M26.1438,226.1719 C25.2063,225.7344 24.6125,225.5938 23.7375,225.5938 C21.1125,225.5938 19.1125,227.6719 19.1125,230.3906 L19.1125,231.5156 C19.1125,234.0938 21.2219,235.9844 24.1125,235.9844 C25.3313,235.9844 26.4875,235.6875 27.2375,235.1406 C27.8156,234.7344 28.1438,234.2813 28.1438,233.8906 C28.1438,233.4375 27.7531,233.0469 27.2844,233.0469 C27.0656,233.0469 26.8625,233.125 26.675,233.3125 C26.2219,233.7969 26.2219,233.7969 26.0344,233.8906 C25.6125,234.1563 24.925,234.2813 24.1594,234.2813 C22.1125,234.2813 20.8156,233.1875 20.8156,231.4844 L20.8156,230.3906 C20.8156,228.6094 22.0656,227.2969 23.8,227.2969 C24.3781,227.2969 24.9875,227.4531 25.4563,227.7031 C25.9406,227.9844 26.1125,228.2031 26.2063,228.6094 C26.2688,229.0156 26.3,229.1406 26.4406,229.2656 C26.5813,229.4063 26.8156,229.5156 27.0344,229.5156 C27.3,229.5156 27.5656,229.375 27.7375,229.1563 C27.8469,229 27.8781,228.8125 27.8781,228.3906 L27.8781,226.9688 C27.8781,226.5313 27.8625,226.4063 27.7688,226.25 C27.6125,225.9844 27.3313,225.8438 27.0344,225.8438 C26.7375,225.8438 26.5344,225.9375 26.3156,226.25 L26.1438,226.1719 Z " fill="#000000"/><text fill="#000000" font-family="sans-serif" font-size="12" lengthAdjust="spacing" textLength="80" x="38.2" y="234.6543">Administrator</text><line style="stroke:#A80036;stroke-width:1.5;" x1="8" x2="122" y1="246.5" y2="246.5"/><rect fill="none" height="6" style="stroke:#C82930;stroke-width:1.0;" width="6" x="15" y="254.5"/><text fill="#000000" font-family="sans-serif" font-size="11" lengthAdjust="spacing" textLength="69" x="27" y="260.7104">String email</text><rect fill="none" height="6" style="stroke:#C82930;stroke-width:1.0;" width="6" x="15" y="267.3047"/><text fill="#000000" font-family="sans-serif" font-size="11" lengthAdjust="spacing" textLength="90" x="27" y="273.5151">String password</text><line style="stroke:#A80036;stroke-width:1.5;" x1="8" x2="122" y1="280.1094" y2="280.1094"/><!--MD5=[4555bb1b0911a5adf28ce6dbe60fed2e]
class Transaction--><rect codeLine="33" fill="#FEFECE" filter="url(#f1ne4jq1o9q08x)" height="112.0234" id="Transaction" style="stroke:#A80036;stroke-width:1.5;" width="125" x="767.5" y="410"/><ellipse cx="793.3" cy="426" fill="#ADD1B2" rx="11" ry="11" style="stroke:#A80036;stroke-width:1.0;"/><path d="M795.6438,421.6719 C794.7063,421.2344 794.1125,421.0938 793.2375,421.0938 C790.6125,421.0938 788.6125,423.1719 788.6125,425.8906 L788.6125,427.0156 C788.6125,429.5938 790.7219,431.4844 793.6125,431.4844 C794.8313,431.4844 795.9875,431.1875 796.7375,430.6406 C797.3156,430.2344 797.6438,429.7813 797.6438,429.3906 C797.6438,428.9375 797.2531,428.5469 796.7844,428.5469 C796.5656,428.5469 796.3625,428.625 796.175,428.8125 C795.7219,429.2969 795.7219,429.2969 795.5344,429.3906 C795.1125,429.6563 794.425,429.7813 793.6594,429.7813 C791.6125,429.7813 790.3156,428.6875 790.3156,426.9844 L790.3156,425.8906 C790.3156,424.1094 791.5656,422.7969 793.3,422.7969 C793.8781,422.7969 794.4875,422.9531 794.9563,423.2031 C795.4406,423.4844 795.6125,423.7031 795.7063,424.1094 C795.7688,424.5156 795.8,424.6406 795.9406,424.7656 C796.0813,424.9063 796.3156,425.0156 796.5344,425.0156 C796.8,425.0156 797.0656,424.875 797.2375,424.6563 C797.3469,424.5 797.3781,424.3125 797.3781,423.8906 L797.3781,422.4688 C797.3781,422.0313 797.3625,421.9063 797.2688,421.75 C797.1125,421.4844 796.8313,421.3438 796.5344,421.3438 C796.2375,421.3438 796.0344,421.4375 795.8156,421.75 L795.6438,421.6719 Z " fill="#000000"/><text fill="#000000" font-family="sans-serif" font-size="12" lengthAdjust="spacing" textLength="69" x="809.7" y="430.1543">Transaction</text><line style="stroke:#A80036;stroke-width:1.5;" x1="768.5" x2="891.5" y1="442" y2="442"/><rect fill="none" height="6" style="stroke:#C82930;stroke-width:1.0;" width="6" x="775.5" y="450"/><text fill="#000000" font-family="sans-serif" font-size="11" lengthAdjust="spacing" textLength="70" x="787.5" y="456.2104">final UUID id</text><rect fill="none" height="6" style="stroke:#C82930;stroke-width:1.0;" width="6" x="775.5" y="462.8047"/><text fill="#000000" font-family="sans-serif" font-size="11" lengthAdjust="spacing" textLength="89" x="787.5" y="469.0151">Account sender</text><rect fill="none" height="6" style="stroke:#C82930;stroke-width:1.0;" width="6" x="775.5" y="475.6094"/><text fill="#000000" font-family="sans-serif" font-size="11" lengthAdjust="spacing" textLength="99" x="787.5" y="481.8198">Account recipient</text><rect fill="none" height="6" style="stroke:#C82930;stroke-width:1.0;" width="6" x="775.5" y="488.4141"/><text fill="#000000" font-family="sans-serif" font-size="11" lengthAdjust="spacing" textLength="99" x="787.5" y="494.6245">String description</text><rect fill="none" height="6" style="stroke:#C82930;stroke-width:1.0;" width="6" x="775.5" y="501.2188"/><text fill="#000000" font-family="sans-serif" font-size="11" lengthAdjust="spacing" textLength="53" x="787.5" y="507.4292">float sum</text><line style="stroke:#A80036;stroke-width:1.5;" x1="768.5" x2="891.5" y1="514.0234" y2="514.0234"/><!--MD5=[03aefd88077143da131d0f7616b492e0]
class TransactionLogger--><rect codeLine="41" fill="#FEFECE" filter="url(#f1ne4jq1o9q08x)" height="73.6094" id="TransactionLogger" style="stroke:#A80036;stroke-width:1.5;" width="333" x="953.5" y="214.5"/><ellipse cx="1059.75" cy="230.5" fill="#B4A7E5" rx="11" ry="11" style="stroke:#A80036;stroke-width:1.0;"/><path d="M1060.7031,227.2813 L1062.4219,227.2813 C1062.8125,227.2813 1063,227.25 1063.125,227.1719 C1063.3906,227.0156 1063.5313,226.7344 1063.5313,226.4375 C1063.5313,226.1719 1063.4219,225.9063 1063.1875,225.7344 C1063.0156,225.625 1062.875,225.5938 1062.4219,225.5938 L1057.2813,225.5938 C1056.8438,225.5938 1056.7188,225.6094 1056.5625,225.7031 C1056.3125,225.8594 1056.1563,226.1563 1056.1563,226.4375 C1056.1563,226.7188 1056.2969,226.9688 1056.5156,227.1406 C1056.6719,227.25 1056.8594,227.2813 1057.2813,227.2813 L1059,227.2813 L1059,233.7969 L1057.2813,233.7969 C1056.8438,233.7969 1056.7188,233.8125 1056.5625,233.9219 C1056.3125,234.0781 1056.1563,234.3594 1056.1563,234.6563 C1056.1563,234.9063 1056.2969,235.1719 1056.5156,235.3281 C1056.6719,235.4531 1056.875,235.5 1057.2813,235.5 L1062.4219,235.5 C1063.1719,235.5 1063.5313,235.2188 1063.5313,234.6563 C1063.5313,234.375 1063.4219,234.125 1063.1875,233.9531 C1063.0156,233.8281 1062.875,233.7969 1062.4219,233.7969 L1060.7031,233.7969 L1060.7031,227.2813 Z " fill="#000000"/><text fill="#000000" font-family="sans-serif" font-size="12" font-style="italic" lengthAdjust="spacing" textLength="112" x="1080.25" y="234.6543">TransactionLogger</text><line style="stroke:#A80036;stroke-width:1.5;" x1="954.5" x2="1285.5" y1="246.5" y2="246.5"/><rect fill="none" height="6" style="stroke:#C82930;stroke-width:1.0;" width="6" x="961.5" y="254.5"/><text fill="#000000" font-family="sans-serif" font-size="11" lengthAdjust="spacing" textLength="149" x="973.5" y="260.7104">TransactionLogEntry[] logs</text><line style="stroke:#A80036;stroke-width:1.5;" x1="954.5" x2="1285.5" y1="267.3047" y2="267.3047"/><ellipse cx="964.5" cy="278.3047" fill="#84BE84" rx="3" ry="3" style="stroke:#038048;stroke-width:1.0;"/><text fill="#000000" font-family="sans-serif" font-size="11" lengthAdjust="spacing" textLength="307" x="973.5" y="281.5151">TransactionLogEntry logTransaction(String description)</text><!--MD5=[b9eba99cba7d2f573d55844532ff7160]
class DBTransactionLogger--><rect codeLine="46" fill="#FEFECE" filter="url(#f1ne4jq1o9q08x)" height="86.4141" id="DBTransactionLogger" style="stroke:#A80036;stroke-width:1.5;" width="333" x="953.5" y="7"/><ellipse cx="1051.25" cy="23" fill="#ADD1B2" rx="11" ry="11" style="stroke:#A80036;stroke-width:1.0;"/><path d="M1053.5938,18.6719 C1052.6563,18.2344 1052.0625,18.0938 1051.1875,18.0938 C1048.5625,18.0938 1046.5625,20.1719 1046.5625,22.8906 L1046.5625,24.0156 C1046.5625,26.5938 1048.6719,28.4844 1051.5625,28.4844 C1052.7813,28.4844 1053.9375,28.1875 1054.6875,27.6406 C1055.2656,27.2344 1055.5938,26.7813 1055.5938,26.3906 C1055.5938,25.9375 1055.2031,25.5469 1054.7344,25.5469 C1054.5156,25.5469 1054.3125,25.625 1054.125,25.8125 C1053.6719,26.2969 1053.6719,26.2969 1053.4844,26.3906 C1053.0625,26.6563 1052.375,26.7813 1051.6094,26.7813 C1049.5625,26.7813 1048.2656,25.6875 1048.2656,23.9844 L1048.2656,22.8906 C1048.2656,21.1094 1049.5156,19.7969 1051.25,19.7969 C1051.8281,19.7969 1052.4375,19.9531 1052.9063,20.2031 C1053.3906,20.4844 1053.5625,20.7031 1053.6563,21.1094 C1053.7188,21.5156 1053.75,21.6406 1053.8906,21.7656 C1054.0313,21.9063 1054.2656,22.0156 1054.4844,22.0156 C1054.75,22.0156 1055.0156,21.875 1055.1875,21.6563 C1055.2969,21.5 1055.3281,21.3125 1055.3281,20.8906 L1055.3281,19.4688 C1055.3281,19.0313 1055.3125,18.9063 1055.2188,18.75 C1055.0625,18.4844 1054.7813,18.3438 1054.4844,18.3438 C1054.1875,18.3438 1053.9844,18.4375 1053.7656,18.75 L1053.5938,18.6719 Z " fill="#000000"/><text fill="#000000" font-family="sans-serif" font-size="12" lengthAdjust="spacing" textLength="129" x="1071.75" y="27.1543">DBTransactionLogger</text><line style="stroke:#A80036;stroke-width:1.5;" x1="954.5" x2="1285.5" y1="39" y2="39"/><rect fill="none" height="6" style="stroke:#C82930;stroke-width:1.0;" width="6" x="961.5" y="47"/><text fill="#000000" font-family="sans-serif" font-size="11" lengthAdjust="spacing" textLength="132" x="973.5" y="53.2104">String connectionString</text><rect fill="none" height="6" style="stroke:#C82930;stroke-width:1.0;" width="6" x="961.5" y="59.8047"/><text fill="#000000" font-family="sans-serif" font-size="11" lengthAdjust="spacing" textLength="149" x="973.5" y="66.0151">TransactionLogEntry[] logs</text><line style="stroke:#A80036;stroke-width:1.5;" x1="954.5" x2="1285.5" y1="72.6094" y2="72.6094"/><ellipse cx="964.5" cy="83.6094" fill="#84BE84" rx="3" ry="3" style="stroke:#038048;stroke-width:1.0;"/><text fill="#000000" font-family="sans-serif" font-size="11" lengthAdjust="spacing" textLength="307" x="973.5" y="86.8198">TransactionLogEntry logTransaction(String description)</text><!--MD5=[b39503a05e369018e1bb5e982801ff5b]
class TransactionLogEntry--><rect codeLine="52" fill="#FEFECE" filter="url(#f1ne4jq1o9q08x)" height="73.6094" id="TransactionLogEntry" style="stroke:#A80036;stroke-width:1.5;" width="171" x="1034.5" y="429"/><ellipse cx="1057.6" cy="445" fill="#ADD1B2" rx="11" ry="11" style="stroke:#A80036;stroke-width:1.0;"/><path d="M1059.9438,440.6719 C1059.0063,440.2344 1058.4125,440.0938 1057.5375,440.0938 C1054.9125,440.0938 1052.9125,442.1719 1052.9125,444.8906 L1052.9125,446.0156 C1052.9125,448.5938 1055.0219,450.4844 1057.9125,450.4844 C1059.1313,450.4844 1060.2875,450.1875 1061.0375,449.6406 C1061.6156,449.2344 1061.9438,448.7813 1061.9438,448.3906 C1061.9438,447.9375 1061.5531,447.5469 1061.0844,447.5469 C1060.8656,447.5469 1060.6625,447.625 1060.475,447.8125 C1060.0219,448.2969 1060.0219,448.2969 1059.8344,448.3906 C1059.4125,448.6563 1058.725,448.7813 1057.9594,448.7813 C1055.9125,448.7813 1054.6156,447.6875 1054.6156,445.9844 L1054.6156,444.8906 C1054.6156,443.1094 1055.8656,441.7969 1057.6,441.7969 C1058.1781,441.7969 1058.7875,441.9531 1059.2563,442.2031 C1059.7406,442.4844 1059.9125,442.7031 1060.0063,443.1094 C1060.0688,443.5156 1060.1,443.6406 1060.2406,443.7656 C1060.3813,443.9063 1060.6156,444.0156 1060.8344,444.0156 C1061.1,444.0156 1061.3656,443.875 1061.5375,443.6563 C1061.6469,443.5 1061.6781,443.3125 1061.6781,442.8906 L1061.6781,441.4688 C1061.6781,441.0313 1061.6625,440.9063 1061.5688,440.75 C1061.4125,440.4844 1061.1313,440.3438 1060.8344,440.3438 C1060.5375,440.3438 1060.3344,440.4375 1060.1156,440.75 L1059.9438,440.6719 Z " fill="#000000"/><text fill="#000000" font-family="sans-serif" font-size="12" lengthAdjust="spacing" textLength="121" x="1073.4" y="449.1543">TransactionLogEntry</text><line style="stroke:#A80036;stroke-width:1.5;" x1="1035.5" x2="1204.5" y1="461" y2="461"/><rect fill="none" height="6" style="stroke:#C82930;stroke-width:1.0;" width="6" x="1042.5" y="469"/><text fill="#000000" font-family="sans-serif" font-size="11" lengthAdjust="spacing" textLength="145" x="1054.5" y="475.2104">LocalDateTime dateTime</text><rect fill="none" height="6" style="stroke:#C82930;stroke-width:1.0;" width="6" x="1042.5" y="481.8047"/><text fill="#000000" font-family="sans-serif" font-size="11" lengthAdjust="spacing" textLength="99" x="1054.5" y="488.0151">String desctiption</text><line style="stroke:#A80036;stroke-width:1.5;" x1="1035.5" x2="1204.5" y1="494.6094" y2="494.6094"/><!--MD5=[7f2ec9193cabc561eccbabfdd8fc5cf0]
reverse link Bank to User--><path codeLine="57" d="M412.984,340.759 C376.308,366.651 337.553,394.012 305.775,416.446 " fill="none" id="Bank-backto-User" style="stroke:#A80036;stroke-width:1.0;"/><polygon fill="#A80036" points="423.776,333.14,416.5675,333.3332,413.9733,340.0615,421.1818,339.8683,423.776,333.14" style="stroke:#A80036;stroke-width:1.0;"/><text fill="#000000" font-family="sans-serif" font-size="13" lengthAdjust="spacing" textLength="23" x="380" y="376.0669">has</text><text fill="#000000" font-family="sans-serif" font-size="13" lengthAdjust="spacing" textLength="8" x="404.8772" y="353.4194">1</text><text fill="#000000" font-family="sans-serif" font-size="13" lengthAdjust="spacing" textLength="24" x="289.759" y="405.4836">0..n</text><!--MD5=[055c695d14c8196d06c767641b92c860]
link Administrator to Bank--><path codeLine="58" d="M123.473,251.5 C137.064,251.5 152.516,251.5 169.274,251.5 " fill="none" id="Administrator-to-Bank" style="stroke:#A80036;stroke-width:1.0;"/><polygon fill="#A80036" points="182.333,251.5,176.333,247.5,170.333,251.5,176.333,255.5,182.333,251.5" style="stroke:#A80036;stroke-width:1.0;"/><text fill="#000000" font-family="sans-serif" font-size="13" lengthAdjust="spacing" textLength="23" x="141.25" y="244.5669">has</text><text fill="#000000" font-family="sans-serif" font-size="13" lengthAdjust="spacing" textLength="24" x="131.181" y="264.4158">0..n</text><text fill="#000000" font-family="sans-serif" font-size="13" lengthAdjust="spacing" textLength="8" x="167.0273" y="248.4134">1</text><!--MD5=[df31310f88c89a50785f4fea2c961cfa]
reverse link Bank to Account--><path codeLine="59" d="M538,346.186 C538,367.921 538,390.367 538,409.817 " fill="none" id="Bank-backto-Account" style="stroke:#A80036;stroke-width:1.0;"/><polygon fill="#A80036" points="538,333.14,534,339.14,538,345.14,542,339.14,538,333.14" style="stroke:#A80036;stroke-width:1.0;"/><text fill="#000000" font-family="sans-serif" font-size="13" lengthAdjust="spacing" textLength="23" x="539" y="376.0669">has</text><text fill="#000000" font-family="sans-serif" font-size="13" lengthAdjust="spacing" textLength="8" x="529.6313" y="353.4194">1</text><text fill="#000000" font-family="sans-serif" font-size="13" lengthAdjust="spacing" textLength="24" x="512.5375" y="399.1292">0..n</text><!--MD5=[7dea497c5e8b34a1909306c96d49654e]
reverse link Bank to Transaction--><path codeLine="60" d="M659.719,341.08 C696.804,368.068 736.039,396.621 767.49,419.509 " fill="none" id="Bank-backto-Transaction" style="stroke:#A80036;stroke-width:1.0;"/><polygon fill="#A80036" points="648.809,333.14,651.3065,339.9048,658.5115,340.2013,656.014,333.4365,648.809,333.14" style="stroke:#A80036;stroke-width:1.0;"/><text fill="#000000" font-family="sans-serif" font-size="13" lengthAdjust="spacing" textLength="23" x="712" y="376.0669">has</text><text fill="#000000" font-family="sans-serif" font-size="13" lengthAdjust="spacing" textLength="8" x="650.6555" y="353.4194">1</text><text fill="#000000" font-family="sans-serif" font-size="13" lengthAdjust="spacing" textLength="24" x="735.3405" y="410.6766">0..n</text><!--MD5=[4905afafad191cd81fb6bf4c999699c4]
reverse link Bank to TransactionLogger--><path codeLine="61" d="M907.08,251.5 C922.881,251.5 938.35,251.5 953.281,251.5 " fill="none" id="Bank-backto-TransactionLogger" style="stroke:#A80036;stroke-width:1.0;"/><polygon fill="#A80036" points="893.734,251.5,899.734,255.5,905.734,251.5,899.734,247.5,893.734,251.5" style="stroke:#A80036;stroke-width:1.0;"/><text fill="#000000" font-family="sans-serif" font-size="13" lengthAdjust="spacing" textLength="23" x="912" y="244.5669">has</text><text fill="#000000" font-family="sans-serif" font-size="13" lengthAdjust="spacing" textLength="8" x="901.0411" y="248.4134">1</text><text fill="#000000" font-family="sans-serif" font-size="13" lengthAdjust="spacing" textLength="8" x="937.5453" y="248.2389">1</text><!--MD5=[87e802f94dff5db0b14b612664619da8]
link User to Account--><path codeLine="63" d="M309.097,466 C323.438,466 339.097,466 355.277,466 " fill="none" id="User-to-Account" style="stroke:#A80036;stroke-width:1.0;"/><polygon fill="#A80036" points="368.35,466,362.35,462,356.35,466,362.35,470,368.35,466" style="stroke:#A80036;stroke-width:1.0;"/><text fill="#000000" font-family="sans-serif" font-size="13" lengthAdjust="spacing" textLength="23" x="327.25" y="459.0669">has</text><text fill="#000000" font-family="sans-serif" font-size="13" lengthAdjust="spacing" textLength="8" x="316.9445" y="462.289">1</text><text fill="#000000" font-family="sans-serif" font-size="13" lengthAdjust="spacing" textLength="8" x="352.4815" y="462.7295">1</text><!--MD5=[7134eeda2c1ed95996caa1ed0bb8f979]
reverse link Account to Transaction--><path codeLine="64" d="M721.088,466 C737.429,466 753.106,466 767.224,466 " fill="none" id="Account-backto-Transaction" style="stroke:#A80036;stroke-width:1.0;"/><polygon fill="#FFFFFF" points="707.858,466,713.858,470,719.858,466,713.858,462,707.858,466" style="stroke:#A80036;stroke-width:1.0;"/><text fill="#000000" font-family="sans-serif" font-size="13" lengthAdjust="spacing" textLength="23" x="726" y="459.0669">has</text><text fill="#000000" font-family="sans-serif" font-size="13" lengthAdjust="spacing" textLength="8" x="715.7359" y="462.7295">1</text><text fill="#000000" font-family="sans-serif" font-size="13" lengthAdjust="spacing" textLength="32" x="727.4695" y="478.8106">0 .. n</text><!--MD5=[756f330e56d62fffb6922bd28e38ab12]
link DBTransactionLogger to TransactionLogger--><path codeLine="66" d="M1120,93.309 C1120,122.63 1120,161.995 1120,193.997 " fill="none" id="DBTransactionLogger-to-TransactionLogger" style="stroke:#A80036;stroke-width:1.0;"/><polygon fill="none" points="1127,194.271,1120,214.271,1113,194.271,1127,194.271" style="stroke:#A80036;stroke-width:1.0;"/><text fill="#000000" font-family="sans-serif" font-size="13" lengthAdjust="spacing" textLength="76" x="1121" y="136.0669">implements</text><!--MD5=[759aa79c6228a4c51c5c95e38505eee5]
reverse link TransactionLogger to TransactionLogEntry--><path codeLine="67" d="M1120,301.623 C1120,340.449 1120,393.759 1120,428.7754 " fill="none" id="TransactionLogger-backto-TransactionLogEntry" style="stroke:#A80036;stroke-width:1.0;"/><polygon fill="#A80036" points="1120,288.548,1116,294.548,1120,300.548,1124,294.548,1120,288.548" style="stroke:#A80036;stroke-width:1.0;"/><text fill="#000000" font-family="sans-serif" font-size="13" lengthAdjust="spacing" textLength="54" x="1121" y="376.0669">contains</text><text fill="#000000" font-family="sans-serif" font-size="13" lengthAdjust="spacing" textLength="8" x="1111.3375" y="308.0365">1</text><text fill="#000000" font-family="sans-serif" font-size="13" lengthAdjust="spacing" textLength="24" x="1093.8625" y="417.9219">0..n</text><!--MD5=[2394564e7b757d77903eb88fec87ea22]
@startuml
class Bank {
    - User[] users
    - Administrator[] administrators
    - Account[] accounts
    - Transaction[] transactions
    - TransactionLogger transactionLogger
    + Transaction createTransaction(String senderIBAN, String recipientIBAN, String description, float sum)
    + Transaction modifyTransaction(UUID transactionID, String senderIBAN, String recipientIBAN, String description, float sum)
    + bool storno(UUID transactionID)
    + Transaction addFunds(String recipientIBAN, float sum)
}

class User {
    - String email
    - String password
    - String phoneNumber
    - Account account
}

class Account {
    - String IBAN
    - float balance
    - User user
    - Transaction[] transactions
    + String requestTransaction(String description, float sum)
}

class Administrator {
    - String email
    - String password
}

class Transaction {
    - final UUID id
    - Account sender
    - Account recipient
    - String description
    - float sum
}

interface TransactionLogger {
    - TransactionLogEntry[] logs
    + TransactionLogEntry logTransaction(String description)
}

class DBTransactionLogger {
    - String connectionString
    - TransactionLogEntry[] logs
    + TransactionLogEntry logTransaction(String description)
}

class TransactionLogEntry {
    - LocalDateTime dateTime
    - String desctiption
}

Bank "1" *-down- "0..n" User : has
Bank "1" *-left- "0..n" Administrator : has
Bank "1" *- - "0..n" Account : has
Bank "1" *- - "0..n" Transaction : has
Bank "1" *-right- "1" TransactionLogger : has

Account "1" *-left- "1" User : has
Account "1" o-right- "0 .. n" Transaction : has

DBTransactionLogger - -|> TransactionLogger : implements
TransactionLogger "1" *- - "0..n" TransactionLogEntry  : contains
@enduml

PlantUML version 1.2021.15beta6(Unknown compile time)
(GPL source distribution)
Java Runtime: Java(TM) SE Runtime Environment
JVM: Java HotSpot(TM) 64-Bit Server VM
Default Encoding: UTF-8
Language: en
Country: US
--></g></svg>