<?xml version="1.0" encoding="UTF-8" standalone="no"?><svg xmlns="http://www.w3.org/2000/svg" xmlns:xlink="http://www.w3.org/1999/xlink" contentScriptType="application/ecmascript" contentStyleType="text/css" height="2152px" preserveAspectRatio="none" style="width:1223px;height:2152px;background:#FFFFFF;" version="1.1" viewBox="0 0 1223 2152" width="1223px" zoomAndPan="magnify"><defs><filter height="300%" id="f1q3w22trne85i" width="300%" x="-1" y="-1"><feGaussianBlur result="blurOut" stdDeviation="2.0"/><feColorMatrix in="blurOut" result="blurOut2" type="matrix" values="0 0 0 0 0 0 0 0 0 0 0 0 0 0 0 0 0 0 .4 0"/><feOffset dx="4.0" dy="4.0" in="blurOut2" result="blurOut3"/><feBlend in="SourceGraphic" in2="blurOut3" mode="normal"/></filter></defs><g><!--MD5=[27f772719433d509ddbc20ff768eba08]
cluster domain--><rect fill="#FFD700" filter="url(#f1q3w22trne85i)" height="2049" style="stroke:#000000;stroke-width:1.5;" width="798" x="14.5" y="89"/><rect fill="#FFD700" height="10" style="stroke:#000000;stroke-width:1.5;" width="15" x="792.5" y="94"/><rect fill="#FFD700" height="2" style="stroke:#000000;stroke-width:1.5;" width="4" x="790.5" y="96"/><rect fill="#FFD700" height="2" style="stroke:#000000;stroke-width:1.5;" width="4" x="790.5" y="100"/><text fill="#000000" font-family="sans-serif" font-size="14" font-weight="bold" lengthAdjust="spacing" textLength="113" x="357" y="116.5332">&lt;&lt;Component&gt;&gt;</text><text fill="#000000" font-family="sans-serif" font-size="14" font-weight="bold" lengthAdjust="spacing" textLength="52" x="387.5" y="134.1426">Domain</text><!--MD5=[cb8ac4b308bf29cccff4fabd2ec04d9c]
cluster user--><rect fill="#FFE4C4" filter="url(#f1q3w22trne85i)" height="530" style="stroke:#000000;stroke-width:1.5;" width="710" x="54.5" y="167"/><rect fill="#FFE4C4" height="10" style="stroke:#000000;stroke-width:1.5;" width="15" x="744.5" y="172"/><rect fill="#FFE4C4" height="2" style="stroke:#000000;stroke-width:1.5;" width="4" x="742.5" y="174"/><rect fill="#FFE4C4" height="2" style="stroke:#000000;stroke-width:1.5;" width="4" x="742.5" y="178"/><text fill="#000000" font-family="sans-serif" font-size="14" font-weight="bold" lengthAdjust="spacing" textLength="101" x="359" y="194.5332">&lt;&lt;sub-comp&gt;&gt;</text><text fill="#000000" font-family="sans-serif" font-size="14" font-weight="bold" lengthAdjust="spacing" textLength="32" x="393.5" y="212.1426">user</text><!--MD5=[c3f73ca7a1e85901c8e4bfbb11c9c20a]
cluster account--><rect fill="#FFE4C4" filter="url(#f1q3w22trne85i)" height="395" style="stroke:#000000;stroke-width:1.5;" width="444" x="320.5" y="758"/><rect fill="#FFE4C4" height="10" style="stroke:#000000;stroke-width:1.5;" width="15" x="744.5" y="763"/><rect fill="#FFE4C4" height="2" style="stroke:#000000;stroke-width:1.5;" width="4" x="742.5" y="765"/><rect fill="#FFE4C4" height="2" style="stroke:#000000;stroke-width:1.5;" width="4" x="742.5" y="769"/><text fill="#000000" font-family="sans-serif" font-size="14" font-weight="bold" lengthAdjust="spacing" textLength="101" x="492" y="785.5332">&lt;&lt;sub-comp&gt;&gt;</text><text fill="#000000" font-family="sans-serif" font-size="14" font-weight="bold" lengthAdjust="spacing" textLength="56" x="514.5" y="803.1426">account</text><!--MD5=[f9c58d90839a0c7c212d8c6553ac9eb7]
cluster transaction--><rect fill="#FFE4C4" filter="url(#f1q3w22trne85i)" height="884" style="stroke:#000000;stroke-width:1.5;" width="506" x="258.5" y="1214"/><rect fill="#FFE4C4" height="10" style="stroke:#000000;stroke-width:1.5;" width="15" x="744.5" y="1219"/><rect fill="#FFE4C4" height="2" style="stroke:#000000;stroke-width:1.5;" width="4" x="742.5" y="1221"/><rect fill="#FFE4C4" height="2" style="stroke:#000000;stroke-width:1.5;" width="4" x="742.5" y="1225"/><text fill="#000000" font-family="sans-serif" font-size="14" font-weight="bold" lengthAdjust="spacing" textLength="101" x="461" y="1241.5332">&lt;&lt;sub-comp&gt;&gt;</text><text fill="#000000" font-family="sans-serif" font-size="14" font-weight="bold" lengthAdjust="spacing" textLength="79" x="472" y="1259.1426">transaction</text><!--MD5=[24add822970012a00cd97a40cd79feff]
class UserManager--><rect codeLine="16" fill="#FEFECE" filter="url(#f1q3w22trne85i)" height="89.5078" id="UserManager" style="stroke:#A80036;stroke-width:1.5;" width="197" x="118" y="229"/><ellipse cx="174.75" cy="245" fill="#ADD1B2" rx="11" ry="11" style="stroke:#A80036;stroke-width:1.0;"/><path d="M177.5156,240.875 Q177.6719,240.6563 177.8594,240.5469 Q178.0469,240.4375 178.2656,240.4375 Q178.6406,240.4375 178.875,240.7031 Q179.1094,240.9531 179.1094,241.5625 L179.1094,243.0156 Q179.1094,243.625 178.875,243.8906 Q178.6406,244.1563 178.2656,244.1563 Q177.9219,244.1563 177.7188,243.9531 Q177.5156,243.7656 177.4063,243.25 Q177.3594,242.8906 177.1719,242.7031 Q176.8438,242.3281 176.2344,242.1094 Q175.625,241.8906 175,241.8906 Q174.2344,241.8906 173.5938,242.2188 Q172.9688,242.5469 172.4688,243.2969 Q171.9844,244.0469 171.9844,245.0781 L171.9844,246.1719 Q171.9844,247.4063 172.875,248.2344 Q173.7656,249.0469 175.3594,249.0469 Q176.2969,249.0469 176.9531,248.7969 Q177.3438,248.6406 177.7656,248.2031 Q178.0313,247.9375 178.1719,247.8594 Q178.3281,247.7813 178.5313,247.7813 Q178.8594,247.7813 179.1094,248.0469 Q179.375,248.2969 179.375,248.6406 Q179.375,248.9844 179.0313,249.3906 Q178.5313,249.9688 177.7344,250.2969 Q176.6563,250.75 175.3594,250.75 Q173.8438,250.75 172.6406,250.125 Q171.6563,249.625 170.9688,248.5625 Q170.2813,247.4844 170.2813,246.2031 L170.2813,245.0469 Q170.2813,243.7188 170.8906,242.5781 Q171.5156,241.4219 172.6094,240.8125 Q173.7031,240.1875 174.9375,240.1875 Q175.6719,240.1875 176.3125,240.3594 Q176.9688,240.5156 177.5156,240.875 Z " fill="#000000"/><text fill="#000000" font-family="sans-serif" font-size="12" lengthAdjust="spacing" textLength="75" x="195.25" y="249.9102">UserManager</text><line style="stroke:#A80036;stroke-width:1.5;" x1="119" x2="314" y1="261" y2="261"/><line style="stroke:#A80036;stroke-width:1.5;" x1="119" x2="314" y1="269" y2="269"/><ellipse cx="129" cy="280" fill="#84BE84" rx="3" ry="3" style="stroke:#038048;stroke-width:1.0;"/><text fill="#000000" font-family="sans-serif" font-size="11" lengthAdjust="spacing" textLength="124" x="138" y="284.4189">User getUserById(long id)</text><ellipse cx="129" cy="293.8359" fill="#84BE84" rx="3" ry="3" style="stroke:#038048;stroke-width:1.0;"/><text fill="#000000" font-family="sans-serif" font-size="11" lengthAdjust="spacing" textLength="90" x="138" y="298.2549">List&lt;User&gt; getAll()</text><ellipse cx="129" cy="307.6719" fill="#84BE84" rx="3" ry="3" style="stroke:#038048;stroke-width:1.0;"/><text fill="#000000" font-family="sans-serif" font-size="11" lengthAdjust="spacing" textLength="171" x="138" y="312.0908">User addAdmin(Administrator user)</text><!--MD5=[d0ff23a00683977d87fe89c795304054]
class IUsersRepo--><rect codeLine="22" fill="#FEFECE" filter="url(#f1q3w22trne85i)" height="75.6719" id="IUsersRepo" style="stroke:#A80036;stroke-width:1.5;" width="130" x="350.5" y="236"/><ellipse cx="379.9" cy="252" fill="#B4A7E5" rx="11" ry="11" style="stroke:#A80036;stroke-width:1.0;"/><path d="M380.8531,248.6406 L380.8531,255.2969 L382.5719,255.2969 Q383.1813,255.2969 383.4469,255.5313 Q383.7125,255.7656 383.7125,256.1563 Q383.7125,256.5313 383.4469,256.7656 Q383.1813,257 382.5719,257 L377.4313,257 Q376.8219,257 376.5563,256.7656 Q376.2906,256.5313 376.2906,256.1406 Q376.2906,255.7656 376.5563,255.5313 Q376.8219,255.2969 377.4313,255.2969 L379.15,255.2969 L379.15,248.6406 L377.4313,248.6406 Q376.8219,248.6406 376.5563,248.4063 Q376.2906,248.1719 376.2906,247.7813 Q376.2906,247.4063 376.5563,247.1719 Q376.8219,246.9375 377.4313,246.9375 L382.5719,246.9375 Q383.1813,246.9375 383.4469,247.1719 Q383.7125,247.4063 383.7125,247.7813 Q383.7125,248.1719 383.4469,248.4063 Q383.1813,248.6406 382.5719,248.6406 L380.8531,248.6406 Z " fill="#000000"/><text fill="#000000" font-family="sans-serif" font-size="12" font-style="italic" lengthAdjust="spacing" textLength="66" x="397.1" y="256.9102">IUsersRepo</text><line style="stroke:#A80036;stroke-width:1.5;" x1="351.5" x2="479.5" y1="268" y2="268"/><line style="stroke:#A80036;stroke-width:1.5;" x1="351.5" x2="479.5" y1="276" y2="276"/><ellipse cx="361.5" cy="287" fill="#84BE84" rx="3" ry="3" style="stroke:#038048;stroke-width:1.0;"/><text fill="#000000" font-family="sans-serif" font-size="11" lengthAdjust="spacing" textLength="64" x="370.5" y="291.4189">User findAll()</text><ellipse cx="361.5" cy="300.8359" fill="#84BE84" rx="3" ry="3" style="stroke:#038048;stroke-width:1.0;"/><text fill="#000000" font-family="sans-serif" font-size="11" lengthAdjust="spacing" textLength="104" x="370.5" y="305.2549">User findById(long id)</text><!--MD5=[3fd616f346a44cd59a91eb10b19e157c]
class User--><rect codeLine="27" fill="#FEFECE" filter="url(#f1q3w22trne85i)" height="131.0156" id="User" style="stroke:#A80036;stroke-width:1.5;" width="107" x="353" y="379"/><ellipse cx="389.6" cy="395" fill="#ADD1B2" rx="11" ry="11" style="stroke:#A80036;stroke-width:1.0;"/><path d="M392.3656,390.875 Q392.5219,390.6563 392.7094,390.5469 Q392.8969,390.4375 393.1156,390.4375 Q393.4906,390.4375 393.725,390.7031 Q393.9594,390.9531 393.9594,391.5625 L393.9594,393.0156 Q393.9594,393.625 393.725,393.8906 Q393.4906,394.1563 393.1156,394.1563 Q392.7719,394.1563 392.5688,393.9531 Q392.3656,393.7656 392.2563,393.25 Q392.2094,392.8906 392.0219,392.7031 Q391.6938,392.3281 391.0844,392.1094 Q390.475,391.8906 389.85,391.8906 Q389.0844,391.8906 388.4438,392.2188 Q387.8188,392.5469 387.3188,393.2969 Q386.8344,394.0469 386.8344,395.0781 L386.8344,396.1719 Q386.8344,397.4063 387.725,398.2344 Q388.6156,399.0469 390.2094,399.0469 Q391.1469,399.0469 391.8031,398.7969 Q392.1938,398.6406 392.6156,398.2031 Q392.8813,397.9375 393.0219,397.8594 Q393.1781,397.7813 393.3813,397.7813 Q393.7094,397.7813 393.9594,398.0469 Q394.225,398.2969 394.225,398.6406 Q394.225,398.9844 393.8813,399.3906 Q393.3813,399.9688 392.5844,400.2969 Q391.5063,400.75 390.2094,400.75 Q388.6938,400.75 387.4906,400.125 Q386.5063,399.625 385.8188,398.5625 Q385.1313,397.4844 385.1313,396.2031 L385.1313,395.0469 Q385.1313,393.7188 385.7406,392.5781 Q386.3656,391.4219 387.4594,390.8125 Q388.5531,390.1875 389.7875,390.1875 Q390.5219,390.1875 391.1625,390.3594 Q391.8188,390.5156 392.3656,390.875 Z " fill="#000000"/><text fill="#000000" font-family="sans-serif" font-size="12" lengthAdjust="spacing" textLength="27" x="408.4" y="399.9102">User</text><line style="stroke:#A80036;stroke-width:1.5;" x1="354" x2="459" y1="411" y2="411"/><rect fill="none" height="6" style="stroke:#C82930;stroke-width:1.0;" width="6" x="361" y="419"/><text fill="#000000" font-family="sans-serif" font-size="11" lengthAdjust="spacing" textLength="31" x="373" y="426.4189">long id</text><rect fill="none" height="6" style="stroke:#C82930;stroke-width:1.0;" width="6" x="361" y="432.8359"/><text fill="#000000" font-family="sans-serif" font-size="11" lengthAdjust="spacing" textLength="44" x="373" y="440.2549">int userId</text><rect fill="none" height="6" style="stroke:#C82930;stroke-width:1.0;" width="6" x="361" y="446.6719"/><text fill="#000000" font-family="sans-serif" font-size="11" lengthAdjust="spacing" textLength="55" x="373" y="454.0908">String email</text><rect fill="none" height="6" style="stroke:#C82930;stroke-width:1.0;" width="6" x="361" y="460.5078"/><text fill="#000000" font-family="sans-serif" font-size="11" lengthAdjust="spacing" textLength="81" x="373" y="467.9268">String password</text><rect fill="none" height="6" style="stroke:#C82930;stroke-width:1.0;" width="6" x="361" y="474.3438"/><text fill="#000000" font-family="sans-serif" font-size="11" lengthAdjust="spacing" textLength="72" x="373" y="481.7627">String fullName</text><rect fill="none" height="6" style="stroke:#C82930;stroke-width:1.0;" width="6" x="361" y="488.1797"/><text fill="#000000" font-family="sans-serif" font-size="11" lengthAdjust="spacing" textLength="42" x="373" y="495.5986">Role role</text><line style="stroke:#A80036;stroke-width:1.5;" x1="354" x2="459" y1="502.0156" y2="502.0156"/><!--MD5=[da547346deef918ea16944ba046651ef]
class Administrator--><rect codeLine="36" fill="#FEFECE" filter="url(#f1q3w22trne85i)" height="48" id="Administrator" style="stroke:#A80036;stroke-width:1.5;" width="105" x="495" y="420.5"/><ellipse cx="510" cy="436.5" fill="#ADD1B2" rx="11" ry="11" style="stroke:#A80036;stroke-width:1.0;"/><path d="M512.7656,432.375 Q512.9219,432.1563 513.1094,432.0469 Q513.2969,431.9375 513.5156,431.9375 Q513.8906,431.9375 514.125,432.2031 Q514.3594,432.4531 514.3594,433.0625 L514.3594,434.5156 Q514.3594,435.125 514.125,435.3906 Q513.8906,435.6563 513.5156,435.6563 Q513.1719,435.6563 512.9688,435.4531 Q512.7656,435.2656 512.6563,434.75 Q512.6094,434.3906 512.4219,434.2031 Q512.0938,433.8281 511.4844,433.6094 Q510.875,433.3906 510.25,433.3906 Q509.4844,433.3906 508.8438,433.7188 Q508.2188,434.0469 507.7188,434.7969 Q507.2344,435.5469 507.2344,436.5781 L507.2344,437.6719 Q507.2344,438.9063 508.125,439.7344 Q509.0156,440.5469 510.6094,440.5469 Q511.5469,440.5469 512.2031,440.2969 Q512.5938,440.1406 513.0156,439.7031 Q513.2813,439.4375 513.4219,439.3594 Q513.5781,439.2813 513.7813,439.2813 Q514.1094,439.2813 514.3594,439.5469 Q514.625,439.7969 514.625,440.1406 Q514.625,440.4844 514.2813,440.8906 Q513.7813,441.4688 512.9844,441.7969 Q511.9063,442.25 510.6094,442.25 Q509.0938,442.25 507.8906,441.625 Q506.9063,441.125 506.2188,440.0625 Q505.5313,438.9844 505.5313,437.7031 L505.5313,436.5469 Q505.5313,435.2188 506.1406,434.0781 Q506.7656,432.9219 507.8594,432.3125 Q508.9531,431.6875 510.1875,431.6875 Q510.9219,431.6875 511.5625,431.8594 Q512.2188,432.0156 512.7656,432.375 Z " fill="#000000"/><text fill="#000000" font-family="sans-serif" font-size="12" lengthAdjust="spacing" textLength="73" x="524" y="441.4102">Administrator</text><line style="stroke:#A80036;stroke-width:1.5;" x1="496" x2="599" y1="452.5" y2="452.5"/><line style="stroke:#A80036;stroke-width:1.5;" x1="496" x2="599" y1="460.5" y2="460.5"/><!--MD5=[a3638c1e5b65d287ecad7f06f5c0f212]
class Role--><rect codeLine="40" fill="#FEFECE" filter="url(#f1q3w22trne85i)" height="75.6719" id="Role" style="stroke:#A80036;stroke-width:1.5;" width="58" x="255.5" y="406.5"/><ellipse cx="270.5" cy="422.5" fill="#EB937F" rx="11" ry="11" style="stroke:#A80036;stroke-width:1.0;"/><path d="M269.3594,423.2969 L269.3594,425.7969 L273.6875,425.7969 L273.6875,424.875 Q273.6875,424.2656 273.9219,424 Q274.1719,423.7344 274.5469,423.7344 Q274.9219,423.7344 275.1563,424 Q275.3906,424.2656 275.3906,424.875 L275.3906,427.5 L267.3906,427.5 Q266.7656,427.5 266.5,427.2656 Q266.25,427.0313 266.25,426.6406 Q266.25,426.2656 266.5156,426.0313 Q266.7813,425.7969 267.3906,425.7969 L267.6563,425.7969 L267.6563,419.1406 L267.3906,419.1406 Q266.7656,419.1406 266.5,418.9063 Q266.25,418.6719 266.25,418.2813 Q266.25,417.9063 266.5,417.6719 Q266.7656,417.4375 267.3906,417.4375 L275.0156,417.4375 L275.0156,420.0313 Q275.0156,420.6406 274.7813,420.9063 Q274.5625,421.1563 274.1719,421.1563 Q273.7969,421.1563 273.5625,420.9063 Q273.3281,420.6406 273.3281,420.0313 L273.3281,419.1406 L269.3594,419.1406 L269.3594,421.5938 L270.8438,421.5938 Q270.8438,420.9375 270.9688,420.75 Q271.2344,420.3438 271.7031,420.3438 Q272.0781,420.3438 272.3125,420.6094 Q272.5469,420.8594 272.5469,421.4688 L272.5469,423.4375 Q272.5469,423.9844 272.4219,424.1719 Q272.1563,424.5625 271.7031,424.5625 Q271.2344,424.5625 270.9688,424.1563 Q270.8438,423.9688 270.8438,423.2969 L269.3594,423.2969 Z " fill="#000000"/><text fill="#000000" font-family="sans-serif" font-size="12" lengthAdjust="spacing" textLength="26" x="284.5" y="427.4102">Role</text><line style="stroke:#A80036;stroke-width:1.5;" x1="256.5" x2="312.5" y1="438.5" y2="438.5"/><text fill="#000000" font-family="sans-serif" font-size="11" lengthAdjust="spacing" textLength="27" x="261.5" y="453.9189">USER</text><text fill="#000000" font-family="sans-serif" font-size="11" lengthAdjust="spacing" textLength="32" x="261.5" y="467.7549">ADMIN</text><line style="stroke:#A80036;stroke-width:1.5;" x1="256.5" x2="312.5" y1="474.1719" y2="474.1719"/><!--MD5=[f0038396a8717327c40983dd0a817a23]
class CustomerManager--><rect codeLine="45" fill="#FEFECE" filter="url(#f1q3w22trne85i)" height="89.5078" id="CustomerManager" style="stroke:#A80036;stroke-width:1.5;" width="246" x="78.5" y="576.5"/><ellipse cx="145.75" cy="592.5" fill="#ADD1B2" rx="11" ry="11" style="stroke:#A80036;stroke-width:1.0;"/><path d="M148.5156,588.375 Q148.6719,588.1563 148.8594,588.0469 Q149.0469,587.9375 149.2656,587.9375 Q149.6406,587.9375 149.875,588.2031 Q150.1094,588.4531 150.1094,589.0625 L150.1094,590.5156 Q150.1094,591.125 149.875,591.3906 Q149.6406,591.6563 149.2656,591.6563 Q148.9219,591.6563 148.7188,591.4531 Q148.5156,591.2656 148.4063,590.75 Q148.3594,590.3906 148.1719,590.2031 Q147.8438,589.8281 147.2344,589.6094 Q146.625,589.3906 146,589.3906 Q145.2344,589.3906 144.5938,589.7188 Q143.9688,590.0469 143.4688,590.7969 Q142.9844,591.5469 142.9844,592.5781 L142.9844,593.6719 Q142.9844,594.9063 143.875,595.7344 Q144.7656,596.5469 146.3594,596.5469 Q147.2969,596.5469 147.9531,596.2969 Q148.3438,596.1406 148.7656,595.7031 Q149.0313,595.4375 149.1719,595.3594 Q149.3281,595.2813 149.5313,595.2813 Q149.8594,595.2813 150.1094,595.5469 Q150.375,595.7969 150.375,596.1406 Q150.375,596.4844 150.0313,596.8906 Q149.5313,597.4688 148.7344,597.7969 Q147.6563,598.25 146.3594,598.25 Q144.8438,598.25 143.6406,597.625 Q142.6563,597.125 141.9688,596.0625 Q141.2813,594.9844 141.2813,593.7031 L141.2813,592.5469 Q141.2813,591.2188 141.8906,590.0781 Q142.5156,588.9219 143.6094,588.3125 Q144.7031,587.6875 145.9375,587.6875 Q146.6719,587.6875 147.3125,587.8594 Q147.9688,588.0156 148.5156,588.375 Z " fill="#000000"/><text fill="#000000" font-family="sans-serif" font-size="12" lengthAdjust="spacing" textLength="103" x="166.25" y="597.4102">CustomerManager</text><line style="stroke:#A80036;stroke-width:1.5;" x1="79.5" x2="323.5" y1="608.5" y2="608.5"/><line style="stroke:#A80036;stroke-width:1.5;" x1="79.5" x2="323.5" y1="616.5" y2="616.5"/><ellipse cx="89.5" cy="627.5" fill="#84BE84" rx="3" ry="3" style="stroke:#038048;stroke-width:1.0;"/><text fill="#000000" font-family="sans-serif" font-size="11" lengthAdjust="spacing" textLength="113" x="98.5" y="631.9189">List&lt;Customer&gt; getAll()</text><ellipse cx="89.5" cy="641.3359" fill="#84BE84" rx="3" ry="3" style="stroke:#038048;stroke-width:1.0;"/><text fill="#000000" font-family="sans-serif" font-size="11" lengthAdjust="spacing" textLength="170" x="98.5" y="645.7549">Customer getCustomerById(long id)</text><ellipse cx="89.5" cy="655.1719" fill="#84BE84" rx="3" ry="3" style="stroke:#038048;stroke-width:1.0;"/><text fill="#000000" font-family="sans-serif" font-size="11" lengthAdjust="spacing" textLength="220" x="98.5" y="659.5908">boolean createCustomer(Customer customer)</text><!--MD5=[002ae683d7f409c5ece12e53748bdc0a]
class ICustomersRepo--><rect codeLine="51" fill="#FEFECE" filter="url(#f1q3w22trne85i)" height="61.8359" id="ICustomersRepo" style="stroke:#A80036;stroke-width:1.5;" width="153" x="579" y="590.5"/><ellipse cx="606.15" cy="606.5" fill="#B4A7E5" rx="11" ry="11" style="stroke:#A80036;stroke-width:1.0;"/><path d="M607.1031,603.1406 L607.1031,609.7969 L608.8219,609.7969 Q609.4313,609.7969 609.6969,610.0313 Q609.9625,610.2656 609.9625,610.6563 Q609.9625,611.0313 609.6969,611.2656 Q609.4313,611.5 608.8219,611.5 L603.6813,611.5 Q603.0719,611.5 602.8063,611.2656 Q602.5406,611.0313 602.5406,610.6406 Q602.5406,610.2656 602.8063,610.0313 Q603.0719,609.7969 603.6813,609.7969 L605.4,609.7969 L605.4,603.1406 L603.6813,603.1406 Q603.0719,603.1406 602.8063,602.9063 Q602.5406,602.6719 602.5406,602.2813 Q602.5406,601.9063 602.8063,601.6719 Q603.0719,601.4375 603.6813,601.4375 L608.8219,601.4375 Q609.4313,601.4375 609.6969,601.6719 Q609.9625,601.9063 609.9625,602.2813 Q609.9625,602.6719 609.6969,602.9063 Q609.4313,603.1406 608.8219,603.1406 L607.1031,603.1406 Z " fill="#000000"/><text fill="#000000" font-family="sans-serif" font-size="12" font-style="italic" lengthAdjust="spacing" textLength="94" x="622.85" y="611.4102">ICustomersRepo</text><line style="stroke:#A80036;stroke-width:1.5;" x1="580" x2="731" y1="622.5" y2="622.5"/><line style="stroke:#A80036;stroke-width:1.5;" x1="580" x2="731" y1="630.5" y2="630.5"/><ellipse cx="590" cy="641.5" fill="#84BE84" rx="3" ry="3" style="stroke:#038048;stroke-width:1.0;"/><text fill="#000000" font-family="sans-serif" font-size="11" lengthAdjust="spacing" textLength="127" x="599" y="645.9189">Customer findById(long id)</text><!--MD5=[2ce0c9fb7f55b1e256ab28a8ea6b25ec]
class Customer--><rect codeLine="55" fill="#FEFECE" filter="url(#f1q3w22trne85i)" height="103.3438" id="Customer" style="stroke:#A80036;stroke-width:1.5;" width="184" x="359.5" y="570"/><ellipse cx="419.75" cy="586" fill="#ADD1B2" rx="11" ry="11" style="stroke:#A80036;stroke-width:1.0;"/><path d="M422.5156,581.875 Q422.6719,581.6563 422.8594,581.5469 Q423.0469,581.4375 423.2656,581.4375 Q423.6406,581.4375 423.875,581.7031 Q424.1094,581.9531 424.1094,582.5625 L424.1094,584.0156 Q424.1094,584.625 423.875,584.8906 Q423.6406,585.1563 423.2656,585.1563 Q422.9219,585.1563 422.7188,584.9531 Q422.5156,584.7656 422.4063,584.25 Q422.3594,583.8906 422.1719,583.7031 Q421.8438,583.3281 421.2344,583.1094 Q420.625,582.8906 420,582.8906 Q419.2344,582.8906 418.5938,583.2188 Q417.9688,583.5469 417.4688,584.2969 Q416.9844,585.0469 416.9844,586.0781 L416.9844,587.1719 Q416.9844,588.4063 417.875,589.2344 Q418.7656,590.0469 420.3594,590.0469 Q421.2969,590.0469 421.9531,589.7969 Q422.3438,589.6406 422.7656,589.2031 Q423.0313,588.9375 423.1719,588.8594 Q423.3281,588.7813 423.5313,588.7813 Q423.8594,588.7813 424.1094,589.0469 Q424.375,589.2969 424.375,589.6406 Q424.375,589.9844 424.0313,590.3906 Q423.5313,590.9688 422.7344,591.2969 Q421.6563,591.75 420.3594,591.75 Q418.8438,591.75 417.6406,591.125 Q416.6563,590.625 415.9688,589.5625 Q415.2813,588.4844 415.2813,587.2031 L415.2813,586.0469 Q415.2813,584.7188 415.8906,583.5781 Q416.5156,582.4219 417.6094,581.8125 Q418.7031,581.1875 419.9375,581.1875 Q420.6719,581.1875 421.3125,581.3594 Q421.9688,581.5156 422.5156,581.875 Z " fill="#000000"/><text fill="#000000" font-family="sans-serif" font-size="12" lengthAdjust="spacing" textLength="55" x="440.25" y="590.9102">Customer</text><line style="stroke:#A80036;stroke-width:1.5;" x1="360.5" x2="542.5" y1="602" y2="602"/><rect fill="none" height="6" style="stroke:#C82930;stroke-width:1.0;" width="6" x="367.5" y="610"/><text fill="#000000" font-family="sans-serif" font-size="11" lengthAdjust="spacing" textLength="98" x="379.5" y="617.4189">String phoneNumber</text><rect fill="none" height="6" style="stroke:#C82930;stroke-width:1.0;" width="6" x="367.5" y="623.8359"/><text fill="#000000" font-family="sans-serif" font-size="11" lengthAdjust="spacing" textLength="118" x="379.5" y="631.2549">List&lt;Account&gt; accounts</text><rect fill="none" height="6" style="stroke:#C82930;stroke-width:1.0;" width="6" x="367.5" y="637.6719"/><text fill="#000000" font-family="sans-serif" font-size="11" lengthAdjust="spacing" textLength="158" x="379.5" y="645.0908">ICustomersRepo customersRepo</text><rect fill="none" height="6" style="stroke:#C82930;stroke-width:1.0;" width="6" x="367.5" y="651.5078"/><text fill="#000000" font-family="sans-serif" font-size="11" lengthAdjust="spacing" textLength="112" x="379.5" y="658.9268">IUsersRepo usersRepo</text><line style="stroke:#A80036;stroke-width:1.5;" x1="360.5" x2="542.5" y1="665.3438" y2="665.3438"/><!--MD5=[6007011eca2e8fa8fa5ff82c58f58b50]
class AccountManager--><rect codeLine="81" fill="#FEFECE" filter="url(#f1q3w22trne85i)" height="89.5078" id="AccountManager" style="stroke:#A80036;stroke-width:1.5;" width="194" x="363.5" y="820"/><ellipse cx="410.75" cy="836" fill="#ADD1B2" rx="11" ry="11" style="stroke:#A80036;stroke-width:1.0;"/><path d="M413.5156,831.875 Q413.6719,831.6563 413.8594,831.5469 Q414.0469,831.4375 414.2656,831.4375 Q414.6406,831.4375 414.875,831.7031 Q415.1094,831.9531 415.1094,832.5625 L415.1094,834.0156 Q415.1094,834.625 414.875,834.8906 Q414.6406,835.1563 414.2656,835.1563 Q413.9219,835.1563 413.7188,834.9531 Q413.5156,834.7656 413.4063,834.25 Q413.3594,833.8906 413.1719,833.7031 Q412.8438,833.3281 412.2344,833.1094 Q411.625,832.8906 411,832.8906 Q410.2344,832.8906 409.5938,833.2188 Q408.9688,833.5469 408.4688,834.2969 Q407.9844,835.0469 407.9844,836.0781 L407.9844,837.1719 Q407.9844,838.4063 408.875,839.2344 Q409.7656,840.0469 411.3594,840.0469 Q412.2969,840.0469 412.9531,839.7969 Q413.3438,839.6406 413.7656,839.2031 Q414.0313,838.9375 414.1719,838.8594 Q414.3281,838.7813 414.5313,838.7813 Q414.8594,838.7813 415.1094,839.0469 Q415.375,839.2969 415.375,839.6406 Q415.375,839.9844 415.0313,840.3906 Q414.5313,840.9688 413.7344,841.2969 Q412.6563,841.75 411.3594,841.75 Q409.8438,841.75 408.6406,841.125 Q407.6563,840.625 406.9688,839.5625 Q406.2813,838.4844 406.2813,837.2031 L406.2813,836.0469 Q406.2813,834.7188 406.8906,833.5781 Q407.5156,832.4219 408.6094,831.8125 Q409.7031,831.1875 410.9375,831.1875 Q411.6719,831.1875 412.3125,831.3594 Q412.9688,831.5156 413.5156,831.875 Z " fill="#000000"/><text fill="#000000" font-family="sans-serif" font-size="12" lengthAdjust="spacing" textLength="91" x="431.25" y="840.9102">AccountManager</text><line style="stroke:#A80036;stroke-width:1.5;" x1="364.5" x2="556.5" y1="852" y2="852"/><line style="stroke:#A80036;stroke-width:1.5;" x1="364.5" x2="556.5" y1="860" y2="860"/><ellipse cx="374.5" cy="871" fill="#84BE84" rx="3" ry="3" style="stroke:#038048;stroke-width:1.0;"/><text fill="#000000" font-family="sans-serif" font-size="11" lengthAdjust="spacing" textLength="160" x="383.5" y="875.4189">Account getAccountById(long id)</text><ellipse cx="374.5" cy="884.8359" fill="#84BE84" rx="3" ry="3" style="stroke:#038048;stroke-width:1.0;"/><text fill="#000000" font-family="sans-serif" font-size="11" lengthAdjust="spacing" textLength="108" x="383.5" y="889.2549">List&lt;Account&gt; getAll()</text><ellipse cx="374.5" cy="898.6719" fill="#84BE84" rx="3" ry="3" style="stroke:#038048;stroke-width:1.0;"/><text fill="#000000" font-family="sans-serif" font-size="11" lengthAdjust="spacing" textLength="168" x="383.5" y="903.0908">getAccountsByCustomerId(long id)</text><!--MD5=[84f2a341280963c6818f86475dcd9e4a]
class IAccountsRepo--><rect codeLine="87" fill="#FEFECE" filter="url(#f1q3w22trne85i)" height="61.8359" id="IAccountsRepo" style="stroke:#A80036;stroke-width:1.5;" width="148" x="592.5" y="834"/><ellipse cx="621.9" cy="850" fill="#B4A7E5" rx="11" ry="11" style="stroke:#A80036;stroke-width:1.0;"/><path d="M622.8531,846.6406 L622.8531,853.2969 L624.5719,853.2969 Q625.1813,853.2969 625.4469,853.5313 Q625.7125,853.7656 625.7125,854.1563 Q625.7125,854.5313 625.4469,854.7656 Q625.1813,855 624.5719,855 L619.4313,855 Q618.8219,855 618.5563,854.7656 Q618.2906,854.5313 618.2906,854.1406 Q618.2906,853.7656 618.5563,853.5313 Q618.8219,853.2969 619.4313,853.2969 L621.15,853.2969 L621.15,846.6406 L619.4313,846.6406 Q618.8219,846.6406 618.5563,846.4063 Q618.2906,846.1719 618.2906,845.7813 Q618.2906,845.4063 618.5563,845.1719 Q618.8219,844.9375 619.4313,844.9375 L624.5719,844.9375 Q625.1813,844.9375 625.4469,845.1719 Q625.7125,845.4063 625.7125,845.7813 Q625.7125,846.1719 625.4469,846.4063 Q625.1813,846.6406 624.5719,846.6406 L622.8531,846.6406 Z " fill="#000000"/><text fill="#000000" font-family="sans-serif" font-size="12" font-style="italic" lengthAdjust="spacing" textLength="84" x="639.1" y="854.9102">IAccountsRepo</text><line style="stroke:#A80036;stroke-width:1.5;" x1="593.5" x2="739.5" y1="866" y2="866"/><line style="stroke:#A80036;stroke-width:1.5;" x1="593.5" x2="739.5" y1="874" y2="874"/><ellipse cx="603.5" cy="885" fill="#84BE84" rx="3" ry="3" style="stroke:#038048;stroke-width:1.0;"/><text fill="#000000" font-family="sans-serif" font-size="11" lengthAdjust="spacing" textLength="122" x="612.5" y="889.4189">Account findById(long id)</text><!--MD5=[f9a29335b499db729be669fd1bd54958]
class Account--><rect codeLine="91" fill="#FEFECE" filter="url(#f1q3w22trne85i)" height="158.6875" id="Account" style="stroke:#A80036;stroke-width:1.5;" width="175" x="501" y="970"/><ellipse cx="562.75" cy="986" fill="#ADD1B2" rx="11" ry="11" style="stroke:#A80036;stroke-width:1.0;"/><path d="M565.5156,981.875 Q565.6719,981.6563 565.8594,981.5469 Q566.0469,981.4375 566.2656,981.4375 Q566.6406,981.4375 566.875,981.7031 Q567.1094,981.9531 567.1094,982.5625 L567.1094,984.0156 Q567.1094,984.625 566.875,984.8906 Q566.6406,985.1563 566.2656,985.1563 Q565.9219,985.1563 565.7188,984.9531 Q565.5156,984.7656 565.4063,984.25 Q565.3594,983.8906 565.1719,983.7031 Q564.8438,983.3281 564.2344,983.1094 Q563.625,982.8906 563,982.8906 Q562.2344,982.8906 561.5938,983.2188 Q560.9688,983.5469 560.4688,984.2969 Q559.9844,985.0469 559.9844,986.0781 L559.9844,987.1719 Q559.9844,988.4063 560.875,989.2344 Q561.7656,990.0469 563.3594,990.0469 Q564.2969,990.0469 564.9531,989.7969 Q565.3438,989.6406 565.7656,989.2031 Q566.0313,988.9375 566.1719,988.8594 Q566.3281,988.7813 566.5313,988.7813 Q566.8594,988.7813 567.1094,989.0469 Q567.375,989.2969 567.375,989.6406 Q567.375,989.9844 567.0313,990.3906 Q566.5313,990.9688 565.7344,991.2969 Q564.6563,991.75 563.3594,991.75 Q561.8438,991.75 560.6406,991.125 Q559.6563,990.625 558.9688,989.5625 Q558.2813,988.4844 558.2813,987.2031 L558.2813,986.0469 Q558.2813,984.7188 558.8906,983.5781 Q559.5156,982.4219 560.6094,981.8125 Q561.7031,981.1875 562.9375,981.1875 Q563.6719,981.1875 564.3125,981.3594 Q564.9688,981.5156 565.5156,981.875 Z " fill="#000000"/><text fill="#000000" font-family="sans-serif" font-size="12" lengthAdjust="spacing" textLength="43" x="583.25" y="990.9102">Account</text><line style="stroke:#A80036;stroke-width:1.5;" x1="502" x2="675" y1="1002" y2="1002"/><rect fill="none" height="6" style="stroke:#C82930;stroke-width:1.0;" width="6" x="509" y="1010"/><text fill="#000000" font-family="sans-serif" font-size="11" lengthAdjust="spacing" textLength="31" x="521" y="1017.4189">long id</text><rect fill="none" height="6" style="stroke:#C82930;stroke-width:1.0;" width="6" x="509" y="1023.8359"/><text fill="#000000" font-family="sans-serif" font-size="11" lengthAdjust="spacing" textLength="55" x="521" y="1031.2549">String IBAN</text><rect fill="none" height="6" style="stroke:#C82930;stroke-width:1.0;" width="6" x="509" y="1037.6719"/><text fill="#000000" font-family="sans-serif" font-size="11" lengthAdjust="spacing" textLength="131" x="521" y="1045.0908">AccountType accountType</text><rect fill="none" height="6" style="stroke:#C82930;stroke-width:1.0;" width="6" x="509" y="1051.5078"/><text fill="#000000" font-family="sans-serif" font-size="11" lengthAdjust="spacing" textLength="71" x="521" y="1058.9268">Date openDate</text><rect fill="none" height="6" style="stroke:#C82930;stroke-width:1.0;" width="6" x="509" y="1065.3438"/><text fill="#000000" font-family="sans-serif" font-size="11" lengthAdjust="spacing" textLength="93" x="521" y="1072.7627">BigDecimal balance</text><rect fill="none" height="6" style="stroke:#C82930;stroke-width:1.0;" width="6" x="509" y="1079.1797"/><text fill="#000000" font-family="sans-serif" font-size="11" lengthAdjust="spacing" textLength="96" x="521" y="1086.5986">ICustomer customer</text><rect fill="none" height="6" style="stroke:#C82930;stroke-width:1.0;" width="6" x="509" y="1093.0156"/><text fill="#000000" font-family="sans-serif" font-size="11" lengthAdjust="spacing" textLength="149" x="521" y="1100.4346">List&lt;Transaction&gt; transactions</text><rect fill="none" height="6" style="stroke:#C82930;stroke-width:1.0;" width="6" x="509" y="1106.8516"/><text fill="#000000" font-family="sans-serif" font-size="11" lengthAdjust="spacing" textLength="147" x="521" y="1114.2705">IAccountsRepo accountsRepo</text><line style="stroke:#A80036;stroke-width:1.5;" x1="502" x2="675" y1="1120.6875" y2="1120.6875"/><!--MD5=[c74927aacb7973460d2c24e2e8ccb9a0]
class AccountType--><rect codeLine="102" fill="#FEFECE" filter="url(#f1q3w22trne85i)" height="75.6719" id="AccountType" style="stroke:#A80036;stroke-width:1.5;" width="101" x="365" y="1011.5"/><ellipse cx="380" cy="1027.5" fill="#EB937F" rx="11" ry="11" style="stroke:#A80036;stroke-width:1.0;"/><path d="M378.8594,1028.2969 L378.8594,1030.7969 L383.1875,1030.7969 L383.1875,1029.875 Q383.1875,1029.2656 383.4219,1029 Q383.6719,1028.7344 384.0469,1028.7344 Q384.4219,1028.7344 384.6563,1029 Q384.8906,1029.2656 384.8906,1029.875 L384.8906,1032.5 L376.8906,1032.5 Q376.2656,1032.5 376,1032.2656 Q375.75,1032.0313 375.75,1031.6406 Q375.75,1031.2656 376.0156,1031.0313 Q376.2813,1030.7969 376.8906,1030.7969 L377.1563,1030.7969 L377.1563,1024.1406 L376.8906,1024.1406 Q376.2656,1024.1406 376,1023.9063 Q375.75,1023.6719 375.75,1023.2813 Q375.75,1022.9063 376,1022.6719 Q376.2656,1022.4375 376.8906,1022.4375 L384.5156,1022.4375 L384.5156,1025.0313 Q384.5156,1025.6406 384.2813,1025.9063 Q384.0625,1026.1563 383.6719,1026.1563 Q383.2969,1026.1563 383.0625,1025.9063 Q382.8281,1025.6406 382.8281,1025.0313 L382.8281,1024.1406 L378.8594,1024.1406 L378.8594,1026.5938 L380.3438,1026.5938 Q380.3438,1025.9375 380.4688,1025.75 Q380.7344,1025.3438 381.2031,1025.3438 Q381.5781,1025.3438 381.8125,1025.6094 Q382.0469,1025.8594 382.0469,1026.4688 L382.0469,1028.4375 Q382.0469,1028.9844 381.9219,1029.1719 Q381.6563,1029.5625 381.2031,1029.5625 Q380.7344,1029.5625 380.4688,1029.1563 Q380.3438,1028.9688 380.3438,1028.2969 L378.8594,1028.2969 Z " fill="#000000"/><text fill="#000000" font-family="sans-serif" font-size="12" lengthAdjust="spacing" textLength="69" x="394" y="1032.4102">AccountType</text><line style="stroke:#A80036;stroke-width:1.5;" x1="366" x2="465" y1="1043.5" y2="1043.5"/><text fill="#000000" font-family="sans-serif" font-size="11" lengthAdjust="spacing" textLength="46" x="371" y="1058.9189">PRIMARY</text><text fill="#000000" font-family="sans-serif" font-size="11" lengthAdjust="spacing" textLength="65" x="371" y="1072.7549">SECONDARY</text><line style="stroke:#A80036;stroke-width:1.5;" x1="366" x2="465" y1="1079.1719" y2="1079.1719"/><!--MD5=[e53526c0f050b9edca6a8358e072d9e5]
class TransactionManager--><rect codeLine="119" fill="#FEFECE" filter="url(#f1q3w22trne85i)" height="131.0156" id="TransactionManager" style="stroke:#A80036;stroke-width:1.5;" width="220" x="321.5" y="1276"/><ellipse cx="370.75" cy="1292" fill="#ADD1B2" rx="11" ry="11" style="stroke:#A80036;stroke-width:1.0;"/><path d="M373.5156,1287.875 Q373.6719,1287.6563 373.8594,1287.5469 Q374.0469,1287.4375 374.2656,1287.4375 Q374.6406,1287.4375 374.875,1287.7031 Q375.1094,1287.9531 375.1094,1288.5625 L375.1094,1290.0156 Q375.1094,1290.625 374.875,1290.8906 Q374.6406,1291.1563 374.2656,1291.1563 Q373.9219,1291.1563 373.7188,1290.9531 Q373.5156,1290.7656 373.4063,1290.25 Q373.3594,1289.8906 373.1719,1289.7031 Q372.8438,1289.3281 372.2344,1289.1094 Q371.625,1288.8906 371,1288.8906 Q370.2344,1288.8906 369.5938,1289.2188 Q368.9688,1289.5469 368.4688,1290.2969 Q367.9844,1291.0469 367.9844,1292.0781 L367.9844,1293.1719 Q367.9844,1294.4063 368.875,1295.2344 Q369.7656,1296.0469 371.3594,1296.0469 Q372.2969,1296.0469 372.9531,1295.7969 Q373.3438,1295.6406 373.7656,1295.2031 Q374.0313,1294.9375 374.1719,1294.8594 Q374.3281,1294.7813 374.5313,1294.7813 Q374.8594,1294.7813 375.1094,1295.0469 Q375.375,1295.2969 375.375,1295.6406 Q375.375,1295.9844 375.0313,1296.3906 Q374.5313,1296.9688 373.7344,1297.2969 Q372.6563,1297.75 371.3594,1297.75 Q369.8438,1297.75 368.6406,1297.125 Q367.6563,1296.625 366.9688,1295.5625 Q366.2813,1294.4844 366.2813,1293.2031 L366.2813,1292.0469 Q366.2813,1290.7188 366.8906,1289.5781 Q367.5156,1288.4219 368.6094,1287.8125 Q369.7031,1287.1875 370.9375,1287.1875 Q371.6719,1287.1875 372.3125,1287.3594 Q372.9688,1287.5156 373.5156,1287.875 Z " fill="#000000"/><text fill="#000000" font-family="sans-serif" font-size="12" lengthAdjust="spacing" textLength="113" x="391.25" y="1296.9102">TransactionManager</text><line style="stroke:#A80036;stroke-width:1.5;" x1="322.5" x2="540.5" y1="1308" y2="1308"/><line style="stroke:#A80036;stroke-width:1.5;" x1="322.5" x2="540.5" y1="1316" y2="1316"/><ellipse cx="332.5" cy="1327" fill="#84BE84" rx="3" ry="3" style="stroke:#038048;stroke-width:1.0;"/><text fill="#000000" font-family="sans-serif" font-size="11" lengthAdjust="spacing" textLength="124" x="341.5" y="1331.4189">List&lt;Transaction&gt; getAll()</text><ellipse cx="332.5" cy="1340.8359" fill="#84BE84" rx="3" ry="3" style="stroke:#038048;stroke-width:1.0;"/><text fill="#000000" font-family="sans-serif" font-size="11" lengthAdjust="spacing" textLength="124" x="341.5" y="1345.2549">Transaction getById(long)</text><ellipse cx="332.5" cy="1354.6719" fill="#84BE84" rx="3" ry="3" style="stroke:#038048;stroke-width:1.0;"/><text fill="#000000" font-family="sans-serif" font-size="11" lengthAdjust="spacing" textLength="194" x="341.5" y="1359.0908">List&lt;Transaction&gt; getByAccountId(long)</text><ellipse cx="332.5" cy="1368.5078" fill="#84BE84" rx="3" ry="3" style="stroke:#038048;stroke-width:1.0;"/><text fill="#000000" font-family="sans-serif" font-size="11" lengthAdjust="spacing" textLength="176" x="341.5" y="1372.9268">void createTransaction(Transaction)</text><ellipse cx="332.5" cy="1382.3438" fill="#84BE84" rx="3" ry="3" style="stroke:#038048;stroke-width:1.0;"/><text fill="#000000" font-family="sans-serif" font-size="11" lengthAdjust="spacing" textLength="162" x="341.5" y="1386.7627">void editTransaction(Transaction)</text><ellipse cx="332.5" cy="1396.1797" fill="#84BE84" rx="3" ry="3" style="stroke:#038048;stroke-width:1.0;"/><text fill="#000000" font-family="sans-serif" font-size="11" lengthAdjust="spacing" textLength="176" x="341.5" y="1400.5986">void stornoTransaction(Transaction)</text><!--MD5=[ce8da3c268ad22531c71932ed6f7c72d]
class ITransactionsRepo--><rect codeLine="128" fill="#FEFECE" filter="url(#f1q3w22trne85i)" height="61.8359" id="ITransactionsRepo" style="stroke:#A80036;stroke-width:1.5;" width="164" x="576.5" y="1310.5"/><ellipse cx="604.1" cy="1326.5" fill="#B4A7E5" rx="11" ry="11" style="stroke:#A80036;stroke-width:1.0;"/><path d="M605.0531,1323.1406 L605.0531,1329.7969 L606.7719,1329.7969 Q607.3813,1329.7969 607.6469,1330.0313 Q607.9125,1330.2656 607.9125,1330.6563 Q607.9125,1331.0313 607.6469,1331.2656 Q607.3813,1331.5 606.7719,1331.5 L601.6313,1331.5 Q601.0219,1331.5 600.7563,1331.2656 Q600.4906,1331.0313 600.4906,1330.6406 Q600.4906,1330.2656 600.7563,1330.0313 Q601.0219,1329.7969 601.6313,1329.7969 L603.35,1329.7969 L603.35,1323.1406 L601.6313,1323.1406 Q601.0219,1323.1406 600.7563,1322.9063 Q600.4906,1322.6719 600.4906,1322.2813 Q600.4906,1321.9063 600.7563,1321.6719 Q601.0219,1321.4375 601.6313,1321.4375 L606.7719,1321.4375 Q607.3813,1321.4375 607.6469,1321.6719 Q607.9125,1321.9063 607.9125,1322.2813 Q607.9125,1322.6719 607.6469,1322.9063 Q607.3813,1323.1406 606.7719,1323.1406 L605.0531,1323.1406 Z " fill="#000000"/><text fill="#000000" font-family="sans-serif" font-size="12" font-style="italic" lengthAdjust="spacing" textLength="104" x="620.9" y="1331.4102">ITransactionsRepo</text><line style="stroke:#A80036;stroke-width:1.5;" x1="577.5" x2="739.5" y1="1342.5" y2="1342.5"/><line style="stroke:#A80036;stroke-width:1.5;" x1="577.5" x2="739.5" y1="1350.5" y2="1350.5"/><ellipse cx="587.5" cy="1361.5" fill="#84BE84" rx="3" ry="3" style="stroke:#038048;stroke-width:1.0;"/><text fill="#000000" font-family="sans-serif" font-size="11" lengthAdjust="spacing" textLength="138" x="596.5" y="1365.9189">Transaction findById(long id)</text><!--MD5=[102b03025ee24d4b51c425a88ecde043]
class ITransactionsLogRepo--><rect codeLine="132" fill="#FEFECE" filter="url(#f1q3w22trne85i)" height="61.8359" id="ITransactionsLogRepo" style="stroke:#A80036;stroke-width:1.5;" width="164" x="467.5" y="1467"/><ellipse cx="485.65" cy="1483" fill="#B4A7E5" rx="11" ry="11" style="stroke:#A80036;stroke-width:1.0;"/><path d="M486.6031,1479.6406 L486.6031,1486.2969 L488.3219,1486.2969 Q488.9313,1486.2969 489.1969,1486.5313 Q489.4625,1486.7656 489.4625,1487.1563 Q489.4625,1487.5313 489.1969,1487.7656 Q488.9313,1488 488.3219,1488 L483.1813,1488 Q482.5719,1488 482.3063,1487.7656 Q482.0406,1487.5313 482.0406,1487.1406 Q482.0406,1486.7656 482.3063,1486.5313 Q482.5719,1486.2969 483.1813,1486.2969 L484.9,1486.2969 L484.9,1479.6406 L483.1813,1479.6406 Q482.5719,1479.6406 482.3063,1479.4063 Q482.0406,1479.1719 482.0406,1478.7813 Q482.0406,1478.4063 482.3063,1478.1719 Q482.5719,1477.9375 483.1813,1477.9375 L488.3219,1477.9375 Q488.9313,1477.9375 489.1969,1478.1719 Q489.4625,1478.4063 489.4625,1478.7813 Q489.4625,1479.1719 489.1969,1479.4063 Q488.9313,1479.6406 488.3219,1479.6406 L486.6031,1479.6406 Z " fill="#000000"/><text fill="#000000" font-family="sans-serif" font-size="12" font-style="italic" lengthAdjust="spacing" textLength="125" x="500.35" y="1487.9102">ITransactionsLogRepo</text><line style="stroke:#A80036;stroke-width:1.5;" x1="468.5" x2="630.5" y1="1499" y2="1499"/><line style="stroke:#A80036;stroke-width:1.5;" x1="468.5" x2="630.5" y1="1507" y2="1507"/><ellipse cx="478.5" cy="1518" fill="#84BE84" rx="3" ry="3" style="stroke:#038048;stroke-width:1.0;"/><text fill="#000000" font-family="sans-serif" font-size="11" lengthAdjust="spacing" textLength="138" x="487.5" y="1522.4189">Transaction findById(long id)</text><!--MD5=[4555bb1b0911a5adf28ce6dbe60fed2e]
class Transaction--><rect codeLine="136" fill="#FEFECE" filter="url(#f1q3w22trne85i)" height="144.8516" id="Transaction" style="stroke:#A80036;stroke-width:1.5;" width="245" x="495" y="1589"/><ellipse cx="580.75" cy="1605" fill="#ADD1B2" rx="11" ry="11" style="stroke:#A80036;stroke-width:1.0;"/><path d="M583.5156,1600.875 Q583.6719,1600.6563 583.8594,1600.5469 Q584.0469,1600.4375 584.2656,1600.4375 Q584.6406,1600.4375 584.875,1600.7031 Q585.1094,1600.9531 585.1094,1601.5625 L585.1094,1603.0156 Q585.1094,1603.625 584.875,1603.8906 Q584.6406,1604.1563 584.2656,1604.1563 Q583.9219,1604.1563 583.7188,1603.9531 Q583.5156,1603.7656 583.4063,1603.25 Q583.3594,1602.8906 583.1719,1602.7031 Q582.8438,1602.3281 582.2344,1602.1094 Q581.625,1601.8906 581,1601.8906 Q580.2344,1601.8906 579.5938,1602.2188 Q578.9688,1602.5469 578.4688,1603.2969 Q577.9844,1604.0469 577.9844,1605.0781 L577.9844,1606.1719 Q577.9844,1607.4063 578.875,1608.2344 Q579.7656,1609.0469 581.3594,1609.0469 Q582.2969,1609.0469 582.9531,1608.7969 Q583.3438,1608.6406 583.7656,1608.2031 Q584.0313,1607.9375 584.1719,1607.8594 Q584.3281,1607.7813 584.5313,1607.7813 Q584.8594,1607.7813 585.1094,1608.0469 Q585.375,1608.2969 585.375,1608.6406 Q585.375,1608.9844 585.0313,1609.3906 Q584.5313,1609.9688 583.7344,1610.2969 Q582.6563,1610.75 581.3594,1610.75 Q579.8438,1610.75 578.6406,1610.125 Q577.6563,1609.625 576.9688,1608.5625 Q576.2813,1607.4844 576.2813,1606.2031 L576.2813,1605.0469 Q576.2813,1603.7188 576.8906,1602.5781 Q577.5156,1601.4219 578.6094,1600.8125 Q579.7031,1600.1875 580.9375,1600.1875 Q581.6719,1600.1875 582.3125,1600.3594 Q582.9688,1600.5156 583.5156,1600.875 Z " fill="#000000"/><text fill="#000000" font-family="sans-serif" font-size="12" lengthAdjust="spacing" textLength="65" x="601.25" y="1609.9102">Transaction</text><line style="stroke:#A80036;stroke-width:1.5;" x1="496" x2="739" y1="1621" y2="1621"/><rect fill="none" height="6" style="stroke:#C82930;stroke-width:1.0;" width="6" x="503" y="1629"/><text fill="#000000" font-family="sans-serif" font-size="11" lengthAdjust="spacing" textLength="31" x="515" y="1636.4189">long id</text><rect fill="none" height="6" style="stroke:#C82930;stroke-width:1.0;" width="6" x="503" y="1642.8359"/><text fill="#000000" font-family="sans-serif" font-size="11" lengthAdjust="spacing" textLength="87" x="515" y="1650.2549">User sessionUser</text><rect fill="none" height="6" style="stroke:#C82930;stroke-width:1.0;" width="6" x="503" y="1656.6719"/><text fill="#000000" font-family="sans-serif" font-size="11" lengthAdjust="spacing" textLength="121" x="515" y="1664.0908">TransactionStatus status</text><rect fill="none" height="6" style="stroke:#C82930;stroke-width:1.0;" width="6" x="503" y="1670.5078"/><text fill="#000000" font-family="sans-serif" font-size="11" lengthAdjust="spacing" textLength="84" x="515" y="1677.9268">String description</text><rect fill="none" height="6" style="stroke:#C82930;stroke-width:1.0;" width="6" x="503" y="1684.3438"/><text fill="#000000" font-family="sans-serif" font-size="11" lengthAdjust="spacing" textLength="116" x="515" y="1691.7627">LocalDateTime dateTime</text><rect fill="none" height="6" style="stroke:#C82930;stroke-width:1.0;" width="6" x="503" y="1698.1797"/><text fill="#000000" font-family="sans-serif" font-size="11" lengthAdjust="spacing" textLength="219" x="515" y="1705.5986">List&lt;TransactionRecord&gt; transactionRecords</text><rect fill="none" height="6" style="stroke:#C82930;stroke-width:1.0;" width="6" x="503" y="1712.0156"/><text fill="#000000" font-family="sans-serif" font-size="11" lengthAdjust="spacing" textLength="178" x="515" y="1719.4346">ITransactionsRepo transactionsRepo</text><line style="stroke:#A80036;stroke-width:1.5;" x1="496" x2="739" y1="1725.8516" y2="1725.8516"/><!--MD5=[2550263cdaad177f73c4ad0f861dcf34]
class TransactionStatus--><rect codeLine="146" fill="#FEFECE" filter="url(#f1q3w22trne85i)" height="103.3438" id="TransactionStatus" style="stroke:#A80036;stroke-width:1.5;" width="132" x="290.5" y="1610"/><ellipse cx="305.5" cy="1626" fill="#EB937F" rx="11" ry="11" style="stroke:#A80036;stroke-width:1.0;"/><path d="M304.3594,1626.7969 L304.3594,1629.2969 L308.6875,1629.2969 L308.6875,1628.375 Q308.6875,1627.7656 308.9219,1627.5 Q309.1719,1627.2344 309.5469,1627.2344 Q309.9219,1627.2344 310.1563,1627.5 Q310.3906,1627.7656 310.3906,1628.375 L310.3906,1631 L302.3906,1631 Q301.7656,1631 301.5,1630.7656 Q301.25,1630.5313 301.25,1630.1406 Q301.25,1629.7656 301.5156,1629.5313 Q301.7813,1629.2969 302.3906,1629.2969 L302.6563,1629.2969 L302.6563,1622.6406 L302.3906,1622.6406 Q301.7656,1622.6406 301.5,1622.4063 Q301.25,1622.1719 301.25,1621.7813 Q301.25,1621.4063 301.5,1621.1719 Q301.7656,1620.9375 302.3906,1620.9375 L310.0156,1620.9375 L310.0156,1623.5313 Q310.0156,1624.1406 309.7813,1624.4063 Q309.5625,1624.6563 309.1719,1624.6563 Q308.7969,1624.6563 308.5625,1624.4063 Q308.3281,1624.1406 308.3281,1623.5313 L308.3281,1622.6406 L304.3594,1622.6406 L304.3594,1625.0938 L305.8438,1625.0938 Q305.8438,1624.4375 305.9688,1624.25 Q306.2344,1623.8438 306.7031,1623.8438 Q307.0781,1623.8438 307.3125,1624.1094 Q307.5469,1624.3594 307.5469,1624.9688 L307.5469,1626.9375 Q307.5469,1627.4844 307.4219,1627.6719 Q307.1563,1628.0625 306.7031,1628.0625 Q306.2344,1628.0625 305.9688,1627.6563 Q305.8438,1627.4688 305.8438,1626.7969 L304.3594,1626.7969 Z " fill="#000000"/><text fill="#000000" font-family="sans-serif" font-size="12" lengthAdjust="spacing" textLength="100" x="319.5" y="1630.9102">TransactionStatus</text><line style="stroke:#A80036;stroke-width:1.5;" x1="291.5" x2="421.5" y1="1642" y2="1642"/><text fill="#000000" font-family="sans-serif" font-size="11" lengthAdjust="spacing" textLength="15" x="296.5" y="1657.4189">OK</text><text fill="#000000" font-family="sans-serif" font-size="11" lengthAdjust="spacing" textLength="58" x="296.5" y="1671.2549">CORECTION</text><text fill="#000000" font-family="sans-serif" font-size="11" lengthAdjust="spacing" textLength="48" x="296.5" y="1685.0908">STORNED</text><text fill="#000000" font-family="sans-serif" font-size="11" lengthAdjust="spacing" textLength="43" x="296.5" y="1698.9268">STORNO</text><line style="stroke:#A80036;stroke-width:1.5;" x1="291.5" x2="421.5" y1="1705.3438" y2="1705.3438"/><!--MD5=[77630cde98bd2a27fb0d26409ebe7473]
class TransactionRecord--><rect codeLine="153" fill="#FEFECE" filter="url(#f1q3w22trne85i)" height="117.1797" id="TransactionRecord" style="stroke:#A80036;stroke-width:1.5;" width="140" x="483.5" y="1794"/><ellipse cx="499.85" cy="1810" fill="#ADD1B2" rx="11" ry="11" style="stroke:#A80036;stroke-width:1.0;"/><path d="M502.6156,1805.875 Q502.7719,1805.6563 502.9594,1805.5469 Q503.1469,1805.4375 503.3656,1805.4375 Q503.7406,1805.4375 503.975,1805.7031 Q504.2094,1805.9531 504.2094,1806.5625 L504.2094,1808.0156 Q504.2094,1808.625 503.975,1808.8906 Q503.7406,1809.1563 503.3656,1809.1563 Q503.0219,1809.1563 502.8188,1808.9531 Q502.6156,1808.7656 502.5063,1808.25 Q502.4594,1807.8906 502.2719,1807.7031 Q501.9438,1807.3281 501.3344,1807.1094 Q500.725,1806.8906 500.1,1806.8906 Q499.3344,1806.8906 498.6938,1807.2188 Q498.0688,1807.5469 497.5688,1808.2969 Q497.0844,1809.0469 497.0844,1810.0781 L497.0844,1811.1719 Q497.0844,1812.4063 497.975,1813.2344 Q498.8656,1814.0469 500.4594,1814.0469 Q501.3969,1814.0469 502.0531,1813.7969 Q502.4438,1813.6406 502.8656,1813.2031 Q503.1313,1812.9375 503.2719,1812.8594 Q503.4281,1812.7813 503.6313,1812.7813 Q503.9594,1812.7813 504.2094,1813.0469 Q504.475,1813.2969 504.475,1813.6406 Q504.475,1813.9844 504.1313,1814.3906 Q503.6313,1814.9688 502.8344,1815.2969 Q501.7563,1815.75 500.4594,1815.75 Q498.9438,1815.75 497.7406,1815.125 Q496.7563,1814.625 496.0688,1813.5625 Q495.3813,1812.4844 495.3813,1811.2031 L495.3813,1810.0469 Q495.3813,1808.7188 495.9906,1807.5781 Q496.6156,1806.4219 497.7094,1805.8125 Q498.8031,1805.1875 500.0375,1805.1875 Q500.7719,1805.1875 501.4125,1805.3594 Q502.0688,1805.5156 502.6156,1805.875 Z " fill="#000000"/><text fill="#000000" font-family="sans-serif" font-size="12" lengthAdjust="spacing" textLength="105" x="514.15" y="1814.9102">TransactionRecord</text><line style="stroke:#A80036;stroke-width:1.5;" x1="484.5" x2="622.5" y1="1826" y2="1826"/><rect fill="none" height="6" style="stroke:#C82930;stroke-width:1.0;" width="6" x="491.5" y="1834"/><text fill="#000000" font-family="sans-serif" font-size="11" lengthAdjust="spacing" textLength="31" x="503.5" y="1841.4189">long id</text><rect fill="none" height="6" style="stroke:#C82930;stroke-width:1.0;" width="6" x="491.5" y="1847.8359"/><text fill="#000000" font-family="sans-serif" font-size="11" lengthAdjust="spacing" textLength="83" x="503.5" y="1855.2549">Account account</text><rect fill="none" height="6" style="stroke:#C82930;stroke-width:1.0;" width="6" x="491.5" y="1861.6719"/><text fill="#000000" font-family="sans-serif" font-size="11" lengthAdjust="spacing" textLength="86" x="503.5" y="1869.0908">Direction direction</text><rect fill="none" height="6" style="stroke:#C82930;stroke-width:1.0;" width="6" x="491.5" y="1875.5078"/><text fill="#000000" font-family="sans-serif" font-size="11" lengthAdjust="spacing" textLength="90" x="503.5" y="1882.9268">BigDecimal amount</text><rect fill="none" height="6" style="stroke:#C82930;stroke-width:1.0;" width="6" x="491.5" y="1889.3438"/><text fill="#000000" font-family="sans-serif" font-size="11" lengthAdjust="spacing" textLength="114" x="503.5" y="1896.7627">Transaction transaction</text><line style="stroke:#A80036;stroke-width:1.5;" x1="484.5" x2="622.5" y1="1903.1797" y2="1903.1797"/><!--MD5=[02f7077ed79257124e28b791f351f1d7]
class Direction--><rect codeLine="161" fill="#FEFECE" filter="url(#f1q3w22trne85i)" height="75.6719" id="Direction" style="stroke:#A80036;stroke-width:1.5;" width="81" x="659" y="1814.5"/><ellipse cx="674" cy="1830.5" fill="#ADD1B2" rx="11" ry="11" style="stroke:#A80036;stroke-width:1.0;"/><path d="M676.7656,1826.375 Q676.9219,1826.1563 677.1094,1826.0469 Q677.2969,1825.9375 677.5156,1825.9375 Q677.8906,1825.9375 678.125,1826.2031 Q678.3594,1826.4531 678.3594,1827.0625 L678.3594,1828.5156 Q678.3594,1829.125 678.125,1829.3906 Q677.8906,1829.6563 677.5156,1829.6563 Q677.1719,1829.6563 676.9688,1829.4531 Q676.7656,1829.2656 676.6563,1828.75 Q676.6094,1828.3906 676.4219,1828.2031 Q676.0938,1827.8281 675.4844,1827.6094 Q674.875,1827.3906 674.25,1827.3906 Q673.4844,1827.3906 672.8438,1827.7188 Q672.2188,1828.0469 671.7188,1828.7969 Q671.2344,1829.5469 671.2344,1830.5781 L671.2344,1831.6719 Q671.2344,1832.9063 672.125,1833.7344 Q673.0156,1834.5469 674.6094,1834.5469 Q675.5469,1834.5469 676.2031,1834.2969 Q676.5938,1834.1406 677.0156,1833.7031 Q677.2813,1833.4375 677.4219,1833.3594 Q677.5781,1833.2813 677.7813,1833.2813 Q678.1094,1833.2813 678.3594,1833.5469 Q678.625,1833.7969 678.625,1834.1406 Q678.625,1834.4844 678.2813,1834.8906 Q677.7813,1835.4688 676.9844,1835.7969 Q675.9063,1836.25 674.6094,1836.25 Q673.0938,1836.25 671.8906,1835.625 Q670.9063,1835.125 670.2188,1834.0625 Q669.5313,1832.9844 669.5313,1831.7031 L669.5313,1830.5469 Q669.5313,1829.2188 670.1406,1828.0781 Q670.7656,1826.9219 671.8594,1826.3125 Q672.9531,1825.6875 674.1875,1825.6875 Q674.9219,1825.6875 675.5625,1825.8594 Q676.2188,1826.0156 676.7656,1826.375 Z " fill="#000000"/><text fill="#000000" font-family="sans-serif" font-size="12" lengthAdjust="spacing" textLength="49" x="688" y="1835.4102">Direction</text><line style="stroke:#A80036;stroke-width:1.5;" x1="660" x2="739" y1="1846.5" y2="1846.5"/><text fill="#000000" font-family="sans-serif" font-size="11" lengthAdjust="spacing" textLength="35" x="665" y="1861.9189">CREDIT</text><text fill="#000000" font-family="sans-serif" font-size="11" lengthAdjust="spacing" textLength="28" x="665" y="1875.7549">DEBIT</text><line style="stroke:#A80036;stroke-width:1.5;" x1="660" x2="739" y1="1882.1719" y2="1882.1719"/><!--MD5=[dd16168fc711c6a2afc257d469fa0498]
class TransferManager--><rect codeLine="166" fill="#FEFECE" filter="url(#f1q3w22trne85i)" height="89.5078" id="TransferManager" style="stroke:#A80036;stroke-width:1.5;" width="194" x="350.5" y="1977.5"/><ellipse cx="396.25" cy="1993.5" fill="#ADD1B2" rx="11" ry="11" style="stroke:#A80036;stroke-width:1.0;"/><path d="M399.0156,1989.375 Q399.1719,1989.1563 399.3594,1989.0469 Q399.5469,1988.9375 399.7656,1988.9375 Q400.1406,1988.9375 400.375,1989.2031 Q400.6094,1989.4531 400.6094,1990.0625 L400.6094,1991.5156 Q400.6094,1992.125 400.375,1992.3906 Q400.1406,1992.6563 399.7656,1992.6563 Q399.4219,1992.6563 399.2188,1992.4531 Q399.0156,1992.2656 398.9063,1991.75 Q398.8594,1991.3906 398.6719,1991.2031 Q398.3438,1990.8281 397.7344,1990.6094 Q397.125,1990.3906 396.5,1990.3906 Q395.7344,1990.3906 395.0938,1990.7188 Q394.4688,1991.0469 393.9688,1991.7969 Q393.4844,1992.5469 393.4844,1993.5781 L393.4844,1994.6719 Q393.4844,1995.9063 394.375,1996.7344 Q395.2656,1997.5469 396.8594,1997.5469 Q397.7969,1997.5469 398.4531,1997.2969 Q398.8438,1997.1406 399.2656,1996.7031 Q399.5313,1996.4375 399.6719,1996.3594 Q399.8281,1996.2813 400.0313,1996.2813 Q400.3594,1996.2813 400.6094,1996.5469 Q400.875,1996.7969 400.875,1997.1406 Q400.875,1997.4844 400.5313,1997.8906 Q400.0313,1998.4688 399.2344,1998.7969 Q398.1563,1999.25 396.8594,1999.25 Q395.3438,1999.25 394.1406,1998.625 Q393.1563,1998.125 392.4688,1997.0625 Q391.7813,1995.9844 391.7813,1994.7031 L391.7813,1993.5469 Q391.7813,1992.2188 392.3906,1991.0781 Q393.0156,1989.9219 394.1094,1989.3125 Q395.2031,1988.6875 396.4375,1988.6875 Q397.1719,1988.6875 397.8125,1988.8594 Q398.4688,1989.0156 399.0156,1989.375 Z " fill="#000000"/><text fill="#000000" font-family="sans-serif" font-size="12" lengthAdjust="spacing" textLength="94" x="416.75" y="1998.4102">TransferManager</text><line style="stroke:#A80036;stroke-width:1.5;" x1="351.5" x2="543.5" y1="2009.5" y2="2009.5"/><line style="stroke:#A80036;stroke-width:1.5;" x1="351.5" x2="543.5" y1="2017.5" y2="2017.5"/><ellipse cx="361.5" cy="2028.5" fill="#84BE84" rx="3" ry="3" style="stroke:#038048;stroke-width:1.0;"/><text fill="#000000" font-family="sans-serif" font-size="11" lengthAdjust="spacing" textLength="109" x="370.5" y="2032.9189">List&lt;Transfer&gt; getAll()</text><ellipse cx="361.5" cy="2042.3359" fill="#84BE84" rx="3" ry="3" style="stroke:#038048;stroke-width:1.0;"/><text fill="#000000" font-family="sans-serif" font-size="11" lengthAdjust="spacing" textLength="140" x="370.5" y="2046.7549">void makeTransfer(Transfer)</text><ellipse cx="361.5" cy="2056.1719" fill="#84BE84" rx="3" ry="3" style="stroke:#038048;stroke-width:1.0;"/><text fill="#000000" font-family="sans-serif" font-size="11" lengthAdjust="spacing" textLength="168" x="370.5" y="2060.5908">void requestForTransfer(Transfer)</text><!--MD5=[02f52dd76b6d93c484e98adf8cb1a92d]
class Transfer--><rect codeLine="172" fill="#FEFECE" filter="url(#f1q3w22trne85i)" height="103.3438" id="Transfer" style="stroke:#A80036;stroke-width:1.5;" width="146" x="579.5" y="1971"/><ellipse cx="625.25" cy="1987" fill="#ADD1B2" rx="11" ry="11" style="stroke:#A80036;stroke-width:1.0;"/><path d="M628.0156,1982.875 Q628.1719,1982.6563 628.3594,1982.5469 Q628.5469,1982.4375 628.7656,1982.4375 Q629.1406,1982.4375 629.375,1982.7031 Q629.6094,1982.9531 629.6094,1983.5625 L629.6094,1985.0156 Q629.6094,1985.625 629.375,1985.8906 Q629.1406,1986.1563 628.7656,1986.1563 Q628.4219,1986.1563 628.2188,1985.9531 Q628.0156,1985.7656 627.9063,1985.25 Q627.8594,1984.8906 627.6719,1984.7031 Q627.3438,1984.3281 626.7344,1984.1094 Q626.125,1983.8906 625.5,1983.8906 Q624.7344,1983.8906 624.0938,1984.2188 Q623.4688,1984.5469 622.9688,1985.2969 Q622.4844,1986.0469 622.4844,1987.0781 L622.4844,1988.1719 Q622.4844,1989.4063 623.375,1990.2344 Q624.2656,1991.0469 625.8594,1991.0469 Q626.7969,1991.0469 627.4531,1990.7969 Q627.8438,1990.6406 628.2656,1990.2031 Q628.5313,1989.9375 628.6719,1989.8594 Q628.8281,1989.7813 629.0313,1989.7813 Q629.3594,1989.7813 629.6094,1990.0469 Q629.875,1990.2969 629.875,1990.6406 Q629.875,1990.9844 629.5313,1991.3906 Q629.0313,1991.9688 628.2344,1992.2969 Q627.1563,1992.75 625.8594,1992.75 Q624.3438,1992.75 623.1406,1992.125 Q622.1563,1991.625 621.4688,1990.5625 Q620.7813,1989.4844 620.7813,1988.2031 L620.7813,1987.0469 Q620.7813,1985.7188 621.3906,1984.5781 Q622.0156,1983.4219 623.1094,1982.8125 Q624.2031,1982.1875 625.4375,1982.1875 Q626.1719,1982.1875 626.8125,1982.3594 Q627.4688,1982.5156 628.0156,1982.875 Z " fill="#000000"/><text fill="#000000" font-family="sans-serif" font-size="12" lengthAdjust="spacing" textLength="46" x="645.75" y="1991.9102">Transfer</text><line style="stroke:#A80036;stroke-width:1.5;" x1="580.5" x2="724.5" y1="2003" y2="2003"/><rect fill="none" height="6" style="stroke:#C82930;stroke-width:1.0;" width="6" x="587.5" y="2011"/><text fill="#000000" font-family="sans-serif" font-size="11" lengthAdjust="spacing" textLength="84" x="599.5" y="2018.4189">String description</text><rect fill="none" height="6" style="stroke:#C82930;stroke-width:1.0;" width="6" x="587.5" y="2024.8359"/><text fill="#000000" font-family="sans-serif" font-size="11" lengthAdjust="spacing" textLength="120" x="599.5" y="2032.2549">String receiversFullName</text><rect fill="none" height="6" style="stroke:#C82930;stroke-width:1.0;" width="6" x="587.5" y="2038.6719"/><text fill="#000000" font-family="sans-serif" font-size="11" lengthAdjust="spacing" textLength="94" x="599.5" y="2046.0908">String accountIBAN</text><rect fill="none" height="6" style="stroke:#C82930;stroke-width:1.0;" width="6" x="587.5" y="2052.5078"/><text fill="#000000" font-family="sans-serif" font-size="11" lengthAdjust="spacing" textLength="90" x="599.5" y="2059.9268">BigDecimal amount</text><line style="stroke:#A80036;stroke-width:1.5;" x1="580.5" x2="724.5" y1="2066.3438" y2="2066.3438"/><path d="M935,22.5 L935,48.8516 L1214,48.8516 L1214,32.5 L1204,22.5 L935,22.5 " fill="#FBFB77" filter="url(#f1q3w22trne85i)" style="stroke:#A80036;stroke-width:1.0;"/><path d="M1204,22.5 L1204,32.5 L1214,32.5 L1204,22.5 " fill="#FBFB77" style="stroke:#A80036;stroke-width:1.0;"/><text fill="#000000" font-family="sans-serif" font-size="13" lengthAdjust="spacing" textLength="258" x="941" y="40.9951">TODO: add missing methods and properties.</text><path d="M607.5,14 L607.5,56.7031 L899.5,56.7031 L899.5,24 L889.5,14 L607.5,14 " fill="#FBFB77" filter="url(#f1q3w22trne85i)" style="stroke:#A80036;stroke-width:1.0;"/><path d="M889.5,14 L889.5,24 L899.5,24 L889.5,14 " fill="#FBFB77" style="stroke:#A80036;stroke-width:1.0;"/><text fill="#000000" font-family="sans-serif" font-size="13" lengthAdjust="spacing" textLength="271" x="613.5" y="32.4951">It is better to split these classes into 3 different</text><text fill="#000000" font-family="sans-serif" font-size="13" lengthAdjust="spacing" textLength="229" x="613.5" y="48.8467">subcomponents to have a clearlier view.</text><path d="M286,14 L286,56.7031 A0,0 0 0 0 286,56.7031 L414.24,56.7031 L415.97,235.8 L422.24,56.7031 L551,56.7031 A0,0 0 0 0 551,56.7031 L551,24 L541,14 L286,14 A0,0 0 0 0 286,14 " fill="#FBFB77" filter="url(#f1q3w22trne85i)" style="stroke:#A80036;stroke-width:1.0;"/><path d="M541,14 L541,24 L551,24 L541,14 " fill="#FBFB77" style="stroke:#A80036;stroke-width:1.0;"/><text fill="#000000" font-family="sans-serif" font-size="13" lengthAdjust="spacing" textLength="244" x="292" y="32.4951">Repo interfaces inside Domain component</text><text fill="#000000" font-family="sans-serif" font-size="13" lengthAdjust="spacing" textLength="215" x="292" y="48.8467">should not know anything about JPA.</text><path d="M6,6 L6,65.0547 A0,0 0 0 0 6,65.0547 L135.11,65.0547 L200,228.65 L143.11,65.0547 L251,65.0547 A0,0 0 0 0 251,65.0547 L251,16 L241,6 L6,6 A0,0 0 0 0 6,6 " fill="#FBFB77" filter="url(#f1q3w22trne85i)" style="stroke:#A80036;stroke-width:1.0;"/><path d="M241,6 L241,16 L251,16 L241,6 " fill="#FBFB77" style="stroke:#A80036;stroke-width:1.0;"/><text fill="#000000" font-family="sans-serif" font-size="13" lengthAdjust="spacing" textLength="224" x="12" y="24.4951">It it better to have as much as possible</text><text fill="#000000" font-family="sans-serif" font-size="13" lengthAdjust="spacing" textLength="224" x="12" y="40.8467">business logic inside manager classes</text><text fill="#000000" font-family="sans-serif" font-size="13" lengthAdjust="spacing" textLength="124" x="12" y="57.1982">instead of controllers.</text><!--MD5=[7bc161a3346b811eb8ebd384473853c5]
link UserManager to CustomerManager--><!--MD5=[a9026419919f15845b3401e3443232fb]
link UserManager to IUsersRepo--><path codeLine="64" d="M327.22,274 C327.22,274 334.41,274 337.39,274 " fill="none" id="UserManager-IUsersRepo" style="stroke:#A80036;stroke-width:1.0;"/><polygon fill="#A80036" points="350.48,274,341.48,270,345.48,274,341.48,278,350.48,274" style="stroke:#A80036;stroke-width:1.0;"/><line style="stroke:#A80036;stroke-width:1.0;" x1="345.48" x2="337.48" y1="274" y2="274"/><polygon fill="#FFFFFF" points="315.22,274,321.22,278,327.22,274,321.22,270,315.22,274" style="stroke:#A80036;stroke-width:1.0;"/><!--MD5=[04099762baa36f536b34882b20eeb77e]
link UserManager to User--><path codeLine="65" d="M266.42,319.27 C291.78,341.76 322.72,369.2 349.07,392.57 " fill="none" id="UserManager-to-User" style="stroke:#A80036;stroke-width:1.0;"/><polygon fill="#A80036" points="352.92,395.98,348.8338,387.0188,349.1767,392.6653,343.5302,393.0082,352.92,395.98" style="stroke:#A80036;stroke-width:1.0;"/><!--MD5=[2c4c47e214141b227d2bd4bcf80a5f0b]
link UserManager to Role--><path codeLine="66" d="M234.37,319.27 C244.62,344.68 257.43,376.41 267.53,401.45 " fill="none" id="UserManager-to-Role" style="stroke:#A80036;stroke-width:1.0;"/><polygon fill="#A80036" points="269.51,406.36,269.8448,396.5168,267.6358,401.7246,262.4281,399.5156,269.51,406.36" style="stroke:#A80036;stroke-width:1.0;"/><!--MD5=[70c37dc9bfbc8656942103c36f1181e4]
link User to Role--><path codeLine="67" d="M340.78,444.4868 C340.78,444.4868 331.08,444.5 326.74,444.5 " fill="none" id="User-Role" style="stroke:#A80036;stroke-width:1.0;"/><polygon fill="#A80036" points="313.57,444.5,322.57,448.5,318.57,444.5,322.57,440.5,313.57,444.5" style="stroke:#A80036;stroke-width:1.0;"/><line style="stroke:#A80036;stroke-width:1.0;" x1="318.57" x2="326.57" y1="444.5" y2="444.5"/><polygon fill="#FFFFFF" points="352.78,444.5,346.7844,440.4934,340.78,444.4868,346.7756,448.4934,352.78,444.5" style="stroke:#A80036;stroke-width:1.0;"/><!--MD5=[c0f029b9f128166d3cb885e52bfdfcda]
link CustomerManager to ICustomersRepo--><path codeLine="69" d="M281.7558,570.6797 C281.7558,570.6797 333.03,546.32 359,540 C438.46,520.66 465.21,514.78 543,540 C569.18,548.49 594.37,565.6 614.26,581.96 " fill="none" id="CustomerManager-ICustomersRepo" style="stroke:#A80036;stroke-width:1.0;"/><polygon fill="#A80036" points="624.15,590.4,619.8902,581.52,620.3429,587.1587,614.7042,587.6114,624.15,590.4" style="stroke:#A80036;stroke-width:1.0;"/><line style="stroke:#A80036;stroke-width:1.0;" x1="620.3429" x2="614.26" y1="587.1587" y2="581.965"/><polygon fill="#FFFFFF" points="271.18,576.35,278.358,577.0401,281.7558,570.6797,274.5778,569.9896,271.18,576.35" style="stroke:#A80036;stroke-width:1.0;"/><!--MD5=[e9e85f692808b84677da88daefb125f6]
link CustomerManager to Customer--><path codeLine="70" d="M324.55,621.5 C334.4,621.5 344.25,621.5 354.11,621.5 " fill="none" id="CustomerManager-to-Customer" style="stroke:#A80036;stroke-width:1.0;"/><polygon fill="#A80036" points="359.26,621.5,350.26,617.5,354.26,621.5,350.26,625.5,359.26,621.5" style="stroke:#A80036;stroke-width:1.0;"/><!--MD5=[01a41ffe728356ae3116655ed66131ce]
reverse link User to Customer--><path codeLine="72" d="M428.2,529.91 C431.71,543.54 435.24,557.26 438.45,569.77 " fill="none" id="User-backto-Customer" style="stroke:#A80036;stroke-width:1.0;"/><polygon fill="none" points="421.33,531.28,423.13,510.17,434.89,527.79,421.33,531.28" style="stroke:#A80036;stroke-width:1.0;"/><!--MD5=[b4e501b81d36e0a0ad004b01a879159d]
reverse link User to Administrator--><path codeLine="73" d="M480.31,444.5 C485.2,444.5 490.09,444.5 494.98,444.5 " fill="none" id="User-backto-Administrator" style="stroke:#A80036;stroke-width:1.0;"/><polygon fill="none" points="480.2,451.5,460.2,444.5,480.2,437.5,480.2,451.5" style="stroke:#A80036;stroke-width:1.0;"/><!--MD5=[89740977fd1acb003b8f81662033ac1a]
link IUsersRepo to User--><path codeLine="75" d="M412.8534,324.3826 C412.8534,324.3826 411.39,351.95 410.67,365.4 " fill="none" id="IUsersRepo-User" style="stroke:#A80036;stroke-width:1.0;"/><polygon fill="#A80036" points="409.96,378.72,414.4386,369.9484,410.2291,373.7272,406.4502,369.5177,409.96,378.72" style="stroke:#A80036;stroke-width:1.0;"/><line style="stroke:#A80036;stroke-width:1.0;" x1="410.2291" x2="410.655" y1="373.7272" y2="365.735"/><polygon fill="#FFFFFF" points="413.5,312.4,409.1825,318.1757,412.8534,324.3826,417.1709,318.6068,413.5,312.4" style="stroke:#A80036;stroke-width:1.0;"/><!--MD5=[143a0dcf59eb6a38c7d7f4ac0cb0679d]
link ICustomersRepo to Customer--><path codeLine="76" d="M566.96,621.5 C566.96,621.5 559.58,621.5 556.55,621.5 " fill="none" id="ICustomersRepo-Customer" style="stroke:#A80036;stroke-width:1.0;"/><polygon fill="#A80036" points="543.54,621.5,552.54,625.5,548.54,621.5,552.54,617.5,543.54,621.5" style="stroke:#A80036;stroke-width:1.0;"/><line style="stroke:#A80036;stroke-width:1.0;" x1="548.54" x2="556.54" y1="621.5" y2="621.5"/><polygon fill="#FFFFFF" points="578.96,621.5,572.96,617.5,566.96,621.5,572.96,625.5,578.96,621.5" style="stroke:#A80036;stroke-width:1.0;"/><!--MD5=[3d4e40144f49d2e7defccbd200a10e43]
link AccountManager to IAccountsRepo--><path codeLine="107" d="M569.87,865 C569.87,865 576.33,865 578.98,865 " fill="none" id="AccountManager-IAccountsRepo" style="stroke:#A80036;stroke-width:1.0;"/><polygon fill="#A80036" points="592.24,865,583.24,861,587.24,865,583.24,869,592.24,865" style="stroke:#A80036;stroke-width:1.0;"/><line style="stroke:#A80036;stroke-width:1.0;" x1="587.24" x2="579.24" y1="865" y2="865"/><polygon fill="#FFFFFF" points="557.87,865,563.87,869,569.87,865,563.87,861,557.87,865" style="stroke:#A80036;stroke-width:1.0;"/><!--MD5=[5df15bedf6a6be9ab8ced9df8a1d8af9]
link AccountManager to Account--><path codeLine="108" d="M491.49,910.18 C503.18,926.85 516.9,946.41 530.28,965.49 " fill="none" id="AccountManager-to-Account" style="stroke:#A80036;stroke-width:1.0;"/><polygon fill="#A80036" points="533.31,969.8,531.4235,960.1335,530.4417,965.7045,524.8707,964.7227,533.31,969.8" style="stroke:#A80036;stroke-width:1.0;"/><!--MD5=[242a6e964aa151ee91d0a1d3b727c1e2]
link AccountManager to AccountType--><path codeLine="109" d="M449.61,910.18 C442.38,939.5 432.95,977.74 425.84,1006.59 " fill="none" id="AccountManager-to-AccountType" style="stroke:#A80036;stroke-width:1.0;"/><polygon fill="#A80036" points="424.63,1011.49,430.6719,1003.7121,425.8292,1006.6359,422.9054,1001.7933,424.63,1011.49" style="stroke:#A80036;stroke-width:1.0;"/><!--MD5=[9ff4578158bf875387dd15a1f2d5b101]
link IAccountsRepo to Account--><path codeLine="111" d="M648.8962,907.1711 C648.8962,907.1711 634.65,940.51 627.23,957.89 " fill="none" id="IAccountsRepo-Account" style="stroke:#A80036;stroke-width:1.0;"/><polygon fill="#A80036" points="622.1,969.88,629.3199,963.1813,624.0683,965.2837,621.9658,960.0321,622.1,969.88" style="stroke:#A80036;stroke-width:1.0;"/><line style="stroke:#A80036;stroke-width:1.0;" x1="624.0683" x2="627.21" y1="965.2837" y2="957.93"/><polygon fill="#FFFFFF" points="653.62,896.14,647.581,900.0809,648.8962,907.1711,654.9351,903.2302,653.62,896.14" style="stroke:#A80036;stroke-width:1.0;"/><!--MD5=[1a0f3950aea44cf48f445cfd977d0e2d]
link Account to AccountType--><path codeLine="112" d="M488.59,1049.5 C488.59,1049.5 482.01,1049.5 479.35,1049.5 " fill="none" id="Account-AccountType" style="stroke:#A80036;stroke-width:1.0;"/><polygon fill="#A80036" points="466.18,1049.5,475.18,1053.5,471.18,1049.5,475.18,1045.5,466.18,1049.5" style="stroke:#A80036;stroke-width:1.0;"/><line style="stroke:#A80036;stroke-width:1.0;" x1="471.18" x2="479.18" y1="1049.5" y2="1049.5"/><polygon fill="#FFFFFF" points="500.59,1049.5,494.59,1045.5,488.59,1049.5,494.59,1053.5,500.59,1049.5" style="stroke:#A80036;stroke-width:1.0;"/><!--MD5=[97184228edf75e075871ef3d2a9ea388]
reverse link ICustomersRepo to AccountManager--><path codeLine="115" d="M627.93,656.64 C593.35,699.47 533.99,772.98 496.04,819.99 " fill="none" id="ICustomersRepo-backto-AccountManager" style="stroke:#A80036;stroke-width:1.0;"/><polygon fill="#A80036" points="631.2,652.6,622.4382,657.0978,628.0626,656.4932,628.6673,662.1176,631.2,652.6" style="stroke:#A80036;stroke-width:1.0;"/><!--MD5=[55dac25b53b9494606c2ce64ca33cfc4]
reverse link Customer to AccountManager--><path codeLine="116" d="M453.58,678.3 C455.18,721.36 457.37,780.12 458.86,819.93 " fill="none" id="Customer-backto-AccountManager" style="stroke:#A80036;stroke-width:1.0;"/><polygon fill="#A80036" points="453.39,673.13,449.7268,682.2723,453.5756,678.1266,457.7213,681.9753,453.39,673.13" style="stroke:#A80036;stroke-width:1.0;"/><!--MD5=[af0e3622bb5a4a915d7686526b4b685b]
link TransactionManager to TransferManager--><!--MD5=[af0e3622bb5a4a915d7686526b4b685b]
link TransactionManager to TransferManager--><path codeLine="194" d="M449.82,1420.06 C453.97,1468.6 456.06,1532.44 457.5,1589 C460.92,1723.41 458.4575,1965.3179 458.4575,1965.3179 " fill="none" id="TransactionManager-TransferManager" style="stroke:#A80036;stroke-width:1.0;"/><polygon fill="#FFFFFF" points="457.64,1977.29,462.0394,1971.5764,458.4575,1965.3179,454.058,1971.0314,457.64,1977.29" style="stroke:#A80036;stroke-width:1.0;"/><polygon fill="#A80036" points="448.62,1407.11,445.4577,1416.4374,449.0761,1412.0891,453.4244,1415.7076,448.62,1407.11" style="stroke:#A80036;stroke-width:1.0;"/><line style="stroke:#A80036;stroke-width:1.0;" x1="449.0761" x2="449.82" y1="1412.0891" y2="1420.055"/><!--MD5=[898fbbeebfbd213e53176122281ac043]
link TransactionManager to ITransactionsRepo--><path codeLine="182" d="M553.9,1341.5 C553.9,1341.5 560.24,1341.5 562.88,1341.5 " fill="none" id="TransactionManager-ITransactionsRepo" style="stroke:#A80036;stroke-width:1.0;"/><polygon fill="#A80036" points="576.06,1341.5,567.06,1337.5,571.06,1341.5,567.06,1345.5,576.06,1341.5" style="stroke:#A80036;stroke-width:1.0;"/><line style="stroke:#A80036;stroke-width:1.0;" x1="571.06" x2="563.06" y1="1341.5" y2="1341.5"/><polygon fill="#FFFFFF" points="541.9,1341.5,547.9,1345.5,553.9,1341.5,547.9,1337.5,541.9,1341.5" style="stroke:#A80036;stroke-width:1.0;"/><!--MD5=[9d508d3ef3717defa372b3526d0d99b8]
link TransactionManager to ITransactionsLogRepo--><path codeLine="183" d="M488.1357,1416.6728 C488.1357,1416.6728 509.37,1444.46 518.42,1456.31 " fill="none" id="TransactionManager-ITransactionsLogRepo" style="stroke:#A80036;stroke-width:1.0;"/><polygon fill="#A80036" points="526.38,1466.72,524.0978,1457.1392,523.3458,1462.7459,517.7392,1461.9939,526.38,1466.72" style="stroke:#A80036;stroke-width:1.0;"/><line style="stroke:#A80036;stroke-width:1.0;" x1="523.3458" x2="518.485" y1="1462.7459" y2="1456.39"/><polygon fill="#FFFFFF" points="480.86,1407.13,481.3169,1414.3266,488.1357,1416.6728,487.6788,1409.4761,480.86,1407.13" style="stroke:#A80036;stroke-width:1.0;"/><!--MD5=[b59c0813786aceaf5240b3b5bca14d26]
link TransactionManager to Transaction--><path codeLine="184" d="M541.55,1399.37 C591.86,1426.49 641.83,1455.49 648.5,1467 C668.82,1502.08 663.51,1546.42 652.02,1583.81 " fill="none" id="TransactionManager-to-Transaction" style="stroke:#A80036;stroke-width:1.0;"/><polygon fill="#A80036" points="650.44,1588.8,656.9751,1581.4316,651.9525,1584.0342,649.3499,1579.0117,650.44,1588.8" style="stroke:#A80036;stroke-width:1.0;"/><!--MD5=[c6457ff4883b9b3bd9eb8eaee33d678f]
link TransactionManager to TransactionStatus--><path codeLine="185" d="M416.23,1407.24 C402.51,1465.41 382.58,1549.93 369.58,1605.05 " fill="none" id="TransactionManager-to-TransactionStatus" style="stroke:#A80036;stroke-width:1.0;"/><polygon fill="#A80036" points="368.42,1609.96,374.3917,1602.1281,369.5755,1605.0954,366.6082,1600.2792,368.42,1609.96" style="stroke:#A80036;stroke-width:1.0;"/><!--MD5=[6c8f9dbf35cbbdff39dc1dea29fd1431]
reverse link ITransactionsRepo to Transaction--><path codeLine="186" d="M670.07,1385.67 C678.53,1423.75 686.87,1480.56 676.5,1529 C672.18,1549.19 664.52,1570.02 656.11,1588.98 " fill="none" id="ITransactionsRepo-backto-Transaction" style="stroke:#A80036;stroke-width:1.0;"/><polygon fill="#FFFFFF" points="666.99,1372.54,664.4744,1379.2981,669.7451,1384.2194,672.2607,1377.4614,666.99,1372.54" style="stroke:#A80036;stroke-width:1.0;"/><!--MD5=[28c72fdc240ebd8d3c74686668a23c4b]
reverse link ITransactionsLogRepo to Transaction--><path codeLine="187" d="M567.39,1541.49 C573.48,1555.96 580.48,1572.58 587.27,1588.71 " fill="none" id="ITransactionsLogRepo-backto-Transaction" style="stroke:#A80036;stroke-width:1.0;"/><polygon fill="#FFFFFF" points="562.29,1529.38,560.9299,1536.4617,566.9437,1540.4409,568.3038,1533.3592,562.29,1529.38" style="stroke:#A80036;stroke-width:1.0;"/><!--MD5=[57def9d965bb9d3615c7dfcec7671dc9]
link Transaction to TransactionStatus--><path codeLine="188" d="M482.87,1661.5 C482.87,1661.5 450.82,1661.5 435.52,1661.5 " fill="none" id="Transaction-TransactionStatus" style="stroke:#A80036;stroke-width:1.0;"/><polygon fill="#A80036" points="422.51,1661.5,431.51,1665.5,427.51,1661.5,431.51,1657.5,422.51,1661.5" style="stroke:#A80036;stroke-width:1.0;"/><line style="stroke:#A80036;stroke-width:1.0;" x1="427.51" x2="435.51" y1="1661.5" y2="1661.5"/><polygon fill="#FFFFFF" points="494.87,1661.5,488.87,1657.5,482.87,1661.5,488.87,1665.5,494.87,1661.5" style="stroke:#A80036;stroke-width:1.0;"/><!--MD5=[2bcff3ab89b2db22218bf4e7ff8374e7]
link Transaction to TransactionRecord--><path codeLine="190" d="M589.3718,1745.5896 C589.3718,1745.5896 581.03,1770.19 577.22,1781.46 " fill="none" id="Transaction-TransactionRecord" style="stroke:#A80036;stroke-width:1.0;"/><polygon fill="#A80036" points="572.99,1793.93,579.6661,1786.6892,574.5942,1789.1943,572.089,1784.1224,572.99,1793.93" style="stroke:#A80036;stroke-width:1.0;"/><line style="stroke:#A80036;stroke-width:1.0;" x1="574.5942" x2="577.16" y1="1789.1943" y2="1781.62"/><polygon fill="#FFFFFF" points="593.21,1734.22,587.501,1738.6254,589.3718,1745.5896,595.0808,1741.1842,593.21,1734.22" style="stroke:#A80036;stroke-width:1.0;"/><!--MD5=[772d740367d337b7f40b81821072c195]
link TransactionRecord to Direction--><path codeLine="191" d="M635.65,1852.5 C635.65,1852.5 642.84,1852.5 645.82,1852.5 " fill="none" id="TransactionRecord-Direction" style="stroke:#A80036;stroke-width:1.0;"/><polygon fill="#A80036" points="658.91,1852.5,649.91,1848.5,653.91,1852.5,649.91,1856.5,658.91,1852.5" style="stroke:#A80036;stroke-width:1.0;"/><line style="stroke:#A80036;stroke-width:1.0;" x1="653.91" x2="645.91" y1="1852.5" y2="1852.5"/><polygon fill="#FFFFFF" points="623.65,1852.5,629.65,1856.5,635.65,1852.5,629.65,1848.5,623.65,1852.5" style="stroke:#A80036;stroke-width:1.0;"/><!--MD5=[f3a5fc8b08b4cd066689595ed78a9755]
link TransferManager to Transfer--><path codeLine="193" d="M544.79,2022.5 C554.59,2022.5 564.38,2022.5 574.17,2022.5 " fill="none" id="TransferManager-to-Transfer" style="stroke:#A80036;stroke-width:1.0;"/><polygon fill="#A80036" points="579.29,2022.5,570.29,2018.5,574.29,2022.5,570.29,2026.5,579.29,2022.5" style="stroke:#A80036;stroke-width:1.0;"/><!--MD5=[b13562d8e7a70c2caa4e78e93b534238]
reverse link IAccountsRepo to TransactionManager--><path codeLine="197" d="M683.73,900.9 C711.35,962.45 756.42,1091.13 693.5,1169 C654.93,1216.73 611.54,1167.12 558.5,1198 C525.57,1217.17 496.59,1247.88 474.67,1275.88 " fill="none" id="IAccountsRepo-backto-TransactionManager" style="stroke:#A80036;stroke-width:1.0;"/><polygon fill="#A80036" points="681.6,896.23,681.6944,906.0784,683.6744,900.7794,688.9734,902.7594,681.6,896.23" style="stroke:#A80036;stroke-width:1.0;"/><!--MD5=[f3b760849c393ffe0ee45d9644143739]
reverse link Account to TransactionManager--><path codeLine="198" d="M543.31,1133.97 C518.88,1179.1 489.16,1233.99 466.51,1275.84 " fill="none" id="Account-backto-TransactionManager" style="stroke:#A80036;stroke-width:1.0;"/><polygon fill="#A80036" points="545.81,1129.36,537.9956,1135.3546,543.4208,1133.7522,545.0231,1139.1774,545.81,1129.36" style="stroke:#A80036;stroke-width:1.0;"/><!--MD5=[19a51b439c0d7d4bbf98db03d99cc6f1]
reverse link ICustomersRepo to TransactionManager--><path codeLine="199" d="M629.46,656.55 C612.2,676.5 587.76,700.21 560.5,713 C510.27,736.57 352.78,703.84 312.5,742 C272.56,779.84 291.5,808.98 291.5,864 C291.5,864 291.5,864 291.5,1050.5 C291.5,1134.5 339.73,1219.79 379.57,1275.93 " fill="none" id="ICustomersRepo-backto-TransactionManager" style="stroke:#A80036;stroke-width:1.0;"/><polygon fill="#A80036" points="632.81,652.62,623.9251,656.8694,629.5643,656.4233,630.0104,662.0626,632.81,652.62" style="stroke:#A80036;stroke-width:1.0;"/><!--MD5=[f74ee223e04ee253645d77265828dec5]
reverse link Customer to TransactionManager--><path codeLine="200" d="M393.78,676.54 C377.69,689.72 359.63,702.92 341.5,713 C317.3,726.46 300.91,712.32 282.5,733 C242.92,777.47 254.5,804.46 254.5,864 C254.5,864 254.5,864 254.5,1050.5 C254.5,1113.74 238.38,1144.69 282.5,1190 C293.63,1201.43 303.98,1189.52 317.5,1198 C348.23,1217.28 374.27,1247.82 393.68,1275.69 " fill="none" id="Customer-backto-TransactionManager" style="stroke:#A80036;stroke-width:1.0;"/><polygon fill="#A80036" points="397.83,673.19,388.3436,675.8372,393.9749,676.374,393.438,682.0054,397.83,673.19" style="stroke:#A80036;stroke-width:1.0;"/><!--MD5=[72f27f29b95d385624474c8bcff4891d]
link user to account--><!--MD5=[2f6668734ca3a6fc2923b684e37b0558]
link account to transaction--><!--MD5=[d0a3b25bac08f7c0c58f1ff1007a7442]
link note1 to domain--><path codeLine="226" d="M1060.74,48.55 C1033.66,72.27 971.1625,127.0125 914.6725,176.4937 C886.4275,201.2344 859.6844,224.6597 839.6213,242.2342 C829.5897,251.0215 821.2281,258.3461 815.1838,263.641 C814.4283,264.3029 813.709,264.933 813.0271,265.5304 C812.8566,265.6797 812.6885,265.827 812.5228,265.9722 " fill="none" id="note1-domain" style="stroke:#A80036;stroke-width:1.0;"/><!--MD5=[d586e5af2f34bc08f57af550b18a16df]
link note2 to user--><path codeLine="227" d="M753.76,57.07 C753.94,71.23 754.1975,91.4981 754.4834,114.0103 C754.6264,125.2664 754.7765,137.0835 754.9275,148.9786 C755.0031,154.9262 755.0788,160.8933 755.1541,166.8194 " fill="none" id="note2-user" style="stroke:#A80036;stroke-width:1.0;"/><!--MD5=[81f6c86d84336d3be675fcb074971dd2]
@startuml ClassDomain

skinparam class {
    BackgroundColor<<Repository>> SkyBlue
    BorderColor<<Repository>> Navy
    BackgroundColor<<Access>> Snow
    BorderColor<<Access>> Plum
    BackgroundColor<<Integration>> SandyBrown
    BorderColor<<Integration>> Tomato
    BackgroundColor<<Domain>> Gold
    BorderColor<<Domain>> Red
}

component "<<Component>>\nDomain" as domain #Gold {
    
    component "<<sub-comp>>\nuser" as user #Bisque {
        class UserManager {
            + User getUserById(long id)
            + List<User> getAll()
            + User addAdmin(Administrator user)
        }

        interface IUsersRepo {
            + User findAll()
            + User findById(long id)
        }

        class User {
            - long id
            - int userId
            - String email
            - String password
            - String fullName
            - Role role
        }

        class Administrator {

        }

        enum Role {
            USER
            ADMIN
        }

        class CustomerManager {
            + List<Customer> getAll()
            + Customer getCustomerById(long id)
            + boolean createCustomer(Customer customer)
        }

        interface ICustomersRepo {
            + Customer findById(long id)
        }

        class Customer {
            - String phoneNumber
            - List<Account> accounts
            - ICustomersRepo customersRepo
            - IUsersRepo usersRepo
        }

        UserManager - - -[hidden]> CustomerManager

        UserManager o-> IUsersRepo
        UserManager - -> User
        UserManager - -> Role
        User o-> Role

        CustomerManager o-> ICustomersRepo
        CustomerManager -> Customer

        User <|- - Customer
        User <|- Administrator

        IUsersRepo o- -> User
        ICustomersRepo o-> Customer

    }

    component "<<sub-comp>>\naccount" as account #Bisque {
        class AccountManager {
            + Account getAccountById(long id)
            + List<Account> getAll()
            + getAccountsByCustomerId(long id)
        }

        interface IAccountsRepo {
            + Account findById(long id)
        }

        class Account {
            - long id
            - String IBAN
            - AccountType accountType
            - Date openDate
            - BigDecimal balance
            - ICustomer customer
            - List<Transaction> transactions
            - IAccountsRepo accountsRepo
        }

        enum AccountType {
            PRIMARY
            SECONDARY
        }

        AccountManager o-> IAccountsRepo
        AccountManager - -> Account
        AccountManager - -> AccountType

        IAccountsRepo o- -> Account
        Account o-> AccountType
    }

    ICustomersRepo <- - AccountManager
    Customer <- - AccountManager

    component "<<sub-comp>>\ntransaction" as transaction #Bisque {
        class TransactionManager {
            + List<Transaction> getAll()
            + Transaction getById(long)
            + List<Transaction> getByAccountId(long)
            + void createTransaction(Transaction)
            + void editTransaction(Transaction)
            + void stornoTransaction(Transaction)
        }

        interface ITransactionsRepo {
            + Transaction findById(long id)
        }

        interface ITransactionsLogRepo {
            + Transaction findById(long id)
        }

        class Transaction {
            - long id
            - User sessionUser
            - TransactionStatus status
            - String description
            - LocalDateTime dateTime
            - List<TransactionRecord> transactionRecords
            - ITransactionsRepo transactionsRepo
        }

        enum TransactionStatus {
            OK
            CORECTION
            STORNED
            STORNO
        }

        class TransactionRecord {
            - long id
            - Account account
            - Direction direction
            - BigDecimal amount
            - Transaction transaction
        }

        class Direction {
            CREDIT
            DEBIT
        }

        class TransferManager {
            + List<Transfer> getAll()
            + void makeTransfer(Transfer)
            + void requestForTransfer(Transfer)
        }

        class Transfer {
            - String description
            - String receiversFullName
            - String accountIBAN
            - BigDecimal amount
        }


        TransactionManager - - - - -[hidden]> TransferManager

        TransactionManager o-> ITransactionsRepo
        TransactionManager o- -> ITransactionsLogRepo
        TransactionManager - - -> Transaction
        TransactionManager - - -> TransactionStatus
        ITransactionsRepo o- - - Transaction
        ITransactionsLogRepo o- - Transaction
        Transaction o-> TransactionStatus

        Transaction o- -> TransactionRecord
        TransactionRecord o-> Direction

        TransferManager -> Transfer
        TransactionManager <- - - - -o TransferManager
    }

    IAccountsRepo <- - - - TransactionManager
    Account <- - - TransactionManager
    ICustomersRepo <- - - - - - TransactionManager
    Customer <- - - - - - TransactionManager
}

user - - - - -[hidden]> account
account - - - -[hidden]> transaction

note as note1
    TODO: add missing methods and properties.
end note

note as note2
    It is better to split these classes into 3 different
    subcomponents to have a clearlier view.
end note

note as note3
    Repo interfaces inside Domain component
    should not know anything about JPA.
end note

note as note4
    It it better to have as much as possible
    business logic inside manager classes
    instead of controllers.
end note

domain -up- note1
user -up- note2
IUsersRepo -up- note3
UserManager -up- note4

@enduml

PlantUML version 1.2021.7(Sun May 23 15:40:07 EEST 2021)
(GPL source distribution)
Java Runtime: OpenJDK Runtime Environment
JVM: OpenJDK 64-Bit Server VM
Default Encoding: Cp1252
Language: en
Country: US
--></g></svg>