<?xml version="1.0" encoding="UTF-8" standalone="no"?><svg xmlns="http://www.w3.org/2000/svg" xmlns:xlink="http://www.w3.org/1999/xlink" contentScriptType="application/ecmascript" contentStyleType="text/css" height="1550px" preserveAspectRatio="none" style="width:830px;height:1550px;background:#FFFFFF;" version="1.1" viewBox="0 0 830 1550" width="830px" zoomAndPan="magnify"><defs><filter height="300%" id="fvmswabylfhet" width="300%" x="-1" y="-1"><feGaussianBlur result="blurOut" stdDeviation="2.0"/><feColorMatrix in="blurOut" result="blurOut2" type="matrix" values="0 0 0 0 0 0 0 0 0 0 0 0 0 0 0 0 0 0 .4 0"/><feOffset dx="4.0" dy="4.0" in="blurOut2" result="blurOut3"/><feBlend in="SourceGraphic" in2="blurOut3" mode="normal"/></filter></defs><g><!--MD5=[74a5e6b216f1574913a389b07d811aab]
cluster integration--><rect fill="#F4A460" filter="url(#fvmswabylfhet)" height="1347" style="stroke:#000000;stroke-width:1.5;" width="599" x="7" y="89"/><rect fill="#F4A460" height="10" style="stroke:#000000;stroke-width:1.5;" width="15" x="586" y="94"/><rect fill="#F4A460" height="2" style="stroke:#000000;stroke-width:1.5;" width="4" x="584" y="96"/><rect fill="#F4A460" height="2" style="stroke:#000000;stroke-width:1.5;" width="4" x="584" y="100"/><text fill="#000000" font-family="sans-serif" font-size="14" font-weight="bold" lengthAdjust="spacing" textLength="113" x="250" y="116.5332">&lt;&lt;Component&gt;&gt;</text><text fill="#000000" font-family="sans-serif" font-size="14" font-weight="bold" lengthAdjust="spacing" textLength="77" x="268" y="134.1426">Integration</text><!--MD5=[27f772719433d509ddbc20ff768eba08]
cluster domain--><rect fill="#FFD700" filter="url(#fvmswabylfhet)" height="1439" style="stroke:#000000;stroke-width:1.5;" width="178" x="638" y="97"/><rect fill="#FFD700" height="10" style="stroke:#000000;stroke-width:1.5;" width="15" x="796" y="102"/><rect fill="#FFD700" height="2" style="stroke:#000000;stroke-width:1.5;" width="4" x="794" y="104"/><rect fill="#FFD700" height="2" style="stroke:#000000;stroke-width:1.5;" width="4" x="794" y="108"/><text fill="#000000" font-family="sans-serif" font-size="14" font-weight="bold" lengthAdjust="spacing" textLength="113" x="670.5" y="124.5332">&lt;&lt;Component&gt;&gt;</text><text fill="#000000" font-family="sans-serif" font-size="14" font-weight="bold" lengthAdjust="spacing" textLength="52" x="701" y="142.1426">Domain</text><!--MD5=[1d7ba1c7002d54515419844fbd155368]
class Controller--><rect codeLine="14" fill="#FEFECE" filter="url(#fvmswabylfhet)" height="48" id="Controller" style="stroke:#A80036;stroke-width:1.5;" width="86" x="176" y="151"/><ellipse cx="191" cy="167" fill="#A9DCDF" rx="11" ry="11" style="stroke:#A80036;stroke-width:1.0;"/><path d="M193.1875,168.7656 L189.0469,168.7656 L188.625,169.7969 L189.0469,169.7969 Q189.6563,169.7969 189.9219,170.0313 Q190.1875,170.2656 190.1875,170.6563 Q190.1875,171.0313 189.9219,171.2656 Q189.6563,171.5 189.0469,171.5 L186.75,171.5 Q186.1406,171.5 185.8906,171.2656 Q185.625,171.0313 185.625,170.6406 Q185.625,170.2656 185.9063,170.0313 Q186.1719,169.7813 186.7969,169.7969 L189.4688,163.1406 L188.3594,163.1406 Q187.75,163.1406 187.4844,162.9063 Q187.2188,162.6719 187.2188,162.2813 Q187.2188,161.9063 187.4844,161.6719 Q187.75,161.4375 188.3594,161.4375 L192.0313,161.4375 L195.4219,169.7969 Q196.0156,169.7969 196.2031,169.9375 Q196.5938,170.2031 196.5938,170.6563 Q196.5938,171.0313 196.3281,171.2656 Q196.0781,171.5 195.4688,171.5 L193.1719,171.5 Q192.5625,171.5 192.2969,171.2656 Q192.0313,171.0313 192.0313,170.6406 Q192.0313,170.2656 192.2969,170.0313 Q192.5625,169.7969 193.1719,169.7969 L193.5938,169.7969 L193.1875,168.7656 Z M192.4688,167.0625 L191.1094,163.6875 L189.7344,167.0625 L192.4688,167.0625 Z " fill="#000000"/><text fill="#000000" font-family="sans-serif" font-size="12" font-style="italic" lengthAdjust="spacing" textLength="54" x="205" y="171.9102">Controller</text><line style="stroke:#A80036;stroke-width:1.5;" x1="177" x2="261" y1="183" y2="183"/><line style="stroke:#A80036;stroke-width:1.5;" x1="177" x2="261" y1="191" y2="191"/><!--MD5=[29f97d496cbdc4ec81664c6d94dc9bf6]
class UserController--><rect codeLine="18" fill="#FEFECE" filter="url(#fvmswabylfhet)" height="131.0156" id="UserController" style="stroke:#A80036;stroke-width:1.5;" width="374" x="190" y="367"/><ellipse cx="332.25" cy="383" fill="#ADD1B2" rx="11" ry="11" style="stroke:#A80036;stroke-width:1.0;"/><path d="M335.0156,378.875 Q335.1719,378.6563 335.3594,378.5469 Q335.5469,378.4375 335.7656,378.4375 Q336.1406,378.4375 336.375,378.7031 Q336.6094,378.9531 336.6094,379.5625 L336.6094,381.0156 Q336.6094,381.625 336.375,381.8906 Q336.1406,382.1563 335.7656,382.1563 Q335.4219,382.1563 335.2188,381.9531 Q335.0156,381.7656 334.9063,381.25 Q334.8594,380.8906 334.6719,380.7031 Q334.3438,380.3281 333.7344,380.1094 Q333.125,379.8906 332.5,379.8906 Q331.7344,379.8906 331.0938,380.2188 Q330.4688,380.5469 329.9688,381.2969 Q329.4844,382.0469 329.4844,383.0781 L329.4844,384.1719 Q329.4844,385.4063 330.375,386.2344 Q331.2656,387.0469 332.8594,387.0469 Q333.7969,387.0469 334.4531,386.7969 Q334.8438,386.6406 335.2656,386.2031 Q335.5313,385.9375 335.6719,385.8594 Q335.8281,385.7813 336.0313,385.7813 Q336.3594,385.7813 336.6094,386.0469 Q336.875,386.2969 336.875,386.6406 Q336.875,386.9844 336.5313,387.3906 Q336.0313,387.9688 335.2344,388.2969 Q334.1563,388.75 332.8594,388.75 Q331.3438,388.75 330.1406,388.125 Q329.1563,387.625 328.4688,386.5625 Q327.7813,385.4844 327.7813,384.2031 L327.7813,383.0469 Q327.7813,381.7188 328.3906,380.5781 Q329.0156,379.4219 330.1094,378.8125 Q331.2031,378.1875 332.4375,378.1875 Q333.1719,378.1875 333.8125,378.3594 Q334.4688,378.5156 335.0156,378.875 Z " fill="#000000"/><text fill="#000000" font-family="sans-serif" font-size="12" lengthAdjust="spacing" textLength="81" x="352.75" y="387.9102">UserController</text><line style="stroke:#A80036;stroke-width:1.5;" x1="191" x2="563" y1="399" y2="399"/><line style="stroke:#A80036;stroke-width:1.5;" x1="191" x2="563" y1="407" y2="407"/><ellipse cx="201" cy="418" fill="#84BE84" rx="3" ry="3" style="stroke:#038048;stroke-width:1.0;"/><text fill="#000000" font-family="sans-serif" font-size="11" lengthAdjust="spacing" textLength="301" x="210" y="422.4189">ResponseEntity&lt;User&gt; getUserById(User currentUser, long id)</text><ellipse cx="201" cy="431.8359" fill="#84BE84" rx="3" ry="3" style="stroke:#038048;stroke-width:1.0;"/><text fill="#000000" font-family="sans-serif" font-size="11" lengthAdjust="spacing" textLength="261" x="210" y="436.2549">ResponseEntity&lt;List&lt;User&gt;&gt; getAll(User currentUser)</text><ellipse cx="201" cy="445.6719" fill="#84BE84" rx="3" ry="3" style="stroke:#038048;stroke-width:1.0;"/><text fill="#000000" font-family="sans-serif" font-size="11" lengthAdjust="spacing" textLength="348" x="210" y="450.0908">ResponseEntity&lt;User&gt; addAdmin(User currentUser, Administrator user)</text><ellipse cx="201" cy="459.5078" fill="#84BE84" rx="3" ry="3" style="stroke:#038048;stroke-width:1.0;"/><text fill="#000000" font-family="sans-serif" font-size="11" lengthAdjust="spacing" textLength="203" x="210" y="463.9268">String login(String email, String password)</text><ellipse cx="201" cy="473.3438" fill="#84BE84" rx="3" ry="3" style="stroke:#038048;stroke-width:1.0;"/><text fill="#000000" font-family="sans-serif" font-size="11" lengthAdjust="spacing" textLength="169" x="210" y="477.7627">User getCurrent(User currentUser)</text><ellipse cx="201" cy="487.1797" fill="#84BE84" rx="3" ry="3" style="stroke:#038048;stroke-width:1.0;"/><text fill="#000000" font-family="sans-serif" font-size="11" lengthAdjust="spacing" textLength="162" x="210" y="491.5986">boolean logout(User currentUser)</text><!--MD5=[41e4e6f85c405453ee6ea8718bf314e6]
class CustomerController--><rect codeLine="27" fill="#FEFECE" filter="url(#fvmswabylfhet)" height="89.5078" id="CustomerController" style="stroke:#A80036;stroke-width:1.5;" width="431" x="142.5" y="619"/><ellipse cx="299.25" cy="635" fill="#ADD1B2" rx="11" ry="11" style="stroke:#A80036;stroke-width:1.0;"/><path d="M302.0156,630.875 Q302.1719,630.6563 302.3594,630.5469 Q302.5469,630.4375 302.7656,630.4375 Q303.1406,630.4375 303.375,630.7031 Q303.6094,630.9531 303.6094,631.5625 L303.6094,633.0156 Q303.6094,633.625 303.375,633.8906 Q303.1406,634.1563 302.7656,634.1563 Q302.4219,634.1563 302.2188,633.9531 Q302.0156,633.7656 301.9063,633.25 Q301.8594,632.8906 301.6719,632.7031 Q301.3438,632.3281 300.7344,632.1094 Q300.125,631.8906 299.5,631.8906 Q298.7344,631.8906 298.0938,632.2188 Q297.4688,632.5469 296.9688,633.2969 Q296.4844,634.0469 296.4844,635.0781 L296.4844,636.1719 Q296.4844,637.4063 297.375,638.2344 Q298.2656,639.0469 299.8594,639.0469 Q300.7969,639.0469 301.4531,638.7969 Q301.8438,638.6406 302.2656,638.2031 Q302.5313,637.9375 302.6719,637.8594 Q302.8281,637.7813 303.0313,637.7813 Q303.3594,637.7813 303.6094,638.0469 Q303.875,638.2969 303.875,638.6406 Q303.875,638.9844 303.5313,639.3906 Q303.0313,639.9688 302.2344,640.2969 Q301.1563,640.75 299.8594,640.75 Q298.3438,640.75 297.1406,640.125 Q296.1563,639.625 295.4688,638.5625 Q294.7813,637.4844 294.7813,636.2031 L294.7813,635.0469 Q294.7813,633.7188 295.3906,632.5781 Q296.0156,631.4219 297.1094,630.8125 Q298.2031,630.1875 299.4375,630.1875 Q300.1719,630.1875 300.8125,630.3594 Q301.4688,630.5156 302.0156,630.875 Z " fill="#000000"/><text fill="#000000" font-family="sans-serif" font-size="12" lengthAdjust="spacing" textLength="109" x="319.75" y="639.9102">CustomerController</text><line style="stroke:#A80036;stroke-width:1.5;" x1="143.5" x2="572.5" y1="651" y2="651"/><line style="stroke:#A80036;stroke-width:1.5;" x1="143.5" x2="572.5" y1="659" y2="659"/><ellipse cx="153.5" cy="670" fill="#84BE84" rx="3" ry="3" style="stroke:#038048;stroke-width:1.0;"/><text fill="#000000" font-family="sans-serif" font-size="11" lengthAdjust="spacing" textLength="347" x="162.5" y="674.4189">ResponseEntity&lt;Customer&gt; getCustomerById(User currentUser, long id)</text><ellipse cx="153.5" cy="683.8359" fill="#84BE84" rx="3" ry="3" style="stroke:#038048;stroke-width:1.0;"/><text fill="#000000" font-family="sans-serif" font-size="11" lengthAdjust="spacing" textLength="284" x="162.5" y="688.2549">ResponseEntity&lt;List&lt;Customer&gt;&gt; getAll(User currentUser)</text><ellipse cx="153.5" cy="697.6719" fill="#84BE84" rx="3" ry="3" style="stroke:#038048;stroke-width:1.0;"/><text fill="#000000" font-family="sans-serif" font-size="11" lengthAdjust="spacing" textLength="405" x="162.5" y="702.0908">ResponseEntity&lt;Customer&gt; createCustomer(User currentUser, Customer customer)</text><!--MD5=[ba4b3a21b82b5b1922f6a1f65058143c]
class AccountController--><rect codeLine="33" fill="#FEFECE" filter="url(#fvmswabylfhet)" height="103.3438" id="AccountController" style="stroke:#A80036;stroke-width:1.5;" width="444" x="130" y="877"/><ellipse cx="299.25" cy="893" fill="#ADD1B2" rx="11" ry="11" style="stroke:#A80036;stroke-width:1.0;"/><path d="M302.0156,888.875 Q302.1719,888.6563 302.3594,888.5469 Q302.5469,888.4375 302.7656,888.4375 Q303.1406,888.4375 303.375,888.7031 Q303.6094,888.9531 303.6094,889.5625 L303.6094,891.0156 Q303.6094,891.625 303.375,891.8906 Q303.1406,892.1563 302.7656,892.1563 Q302.4219,892.1563 302.2188,891.9531 Q302.0156,891.7656 301.9063,891.25 Q301.8594,890.8906 301.6719,890.7031 Q301.3438,890.3281 300.7344,890.1094 Q300.125,889.8906 299.5,889.8906 Q298.7344,889.8906 298.0938,890.2188 Q297.4688,890.5469 296.9688,891.2969 Q296.4844,892.0469 296.4844,893.0781 L296.4844,894.1719 Q296.4844,895.4063 297.375,896.2344 Q298.2656,897.0469 299.8594,897.0469 Q300.7969,897.0469 301.4531,896.7969 Q301.8438,896.6406 302.2656,896.2031 Q302.5313,895.9375 302.6719,895.8594 Q302.8281,895.7813 303.0313,895.7813 Q303.3594,895.7813 303.6094,896.0469 Q303.875,896.2969 303.875,896.6406 Q303.875,896.9844 303.5313,897.3906 Q303.0313,897.9688 302.2344,898.2969 Q301.1563,898.75 299.8594,898.75 Q298.3438,898.75 297.1406,898.125 Q296.1563,897.625 295.4688,896.5625 Q294.7813,895.4844 294.7813,894.2031 L294.7813,893.0469 Q294.7813,891.7188 295.3906,890.5781 Q296.0156,889.4219 297.1094,888.8125 Q298.2031,888.1875 299.4375,888.1875 Q300.1719,888.1875 300.8125,888.3594 Q301.4688,888.5156 302.0156,888.875 Z " fill="#000000"/><text fill="#000000" font-family="sans-serif" font-size="12" lengthAdjust="spacing" textLength="97" x="319.75" y="897.9102">AccountController</text><line style="stroke:#A80036;stroke-width:1.5;" x1="131" x2="573" y1="909" y2="909"/><line style="stroke:#A80036;stroke-width:1.5;" x1="131" x2="573" y1="917" y2="917"/><ellipse cx="141" cy="928" fill="#84BE84" rx="3" ry="3" style="stroke:#038048;stroke-width:1.0;"/><text fill="#000000" font-family="sans-serif" font-size="11" lengthAdjust="spacing" textLength="337" x="150" y="932.4189">ResponseEntity&lt;Account&gt; getAccountById(User currentUser, long id)</text><ellipse cx="141" cy="941.8359" fill="#84BE84" rx="3" ry="3" style="stroke:#038048;stroke-width:1.0;"/><text fill="#000000" font-family="sans-serif" font-size="11" lengthAdjust="spacing" textLength="279" x="150" y="946.2549">ResponseEntity&lt;List&lt;Account&gt;&gt; getAll(User currentUser)</text><ellipse cx="141" cy="955.6719" fill="#84BE84" rx="3" ry="3" style="stroke:#038048;stroke-width:1.0;"/><text fill="#000000" font-family="sans-serif" font-size="11" lengthAdjust="spacing" textLength="418" x="150" y="960.0908">ResponseEntity&lt;List&lt;Account&gt;&gt; getAccountsByCustomerId(User currentUser, long id)</text><ellipse cx="141" cy="969.5078" fill="#84BE84" rx="3" ry="3" style="stroke:#038048;stroke-width:1.0;"/><text fill="#000000" font-family="sans-serif" font-size="11" lengthAdjust="spacing" textLength="360" x="150" y="973.9268">ResponseEntity&lt;List&lt;Account&gt;&gt; getCustomerAccounts(User currentUser)</text><!--MD5=[73ad5e1502ea164349990f756202b7f3]
class TransactionController--><rect codeLine="40" fill="#FEFECE" filter="url(#fvmswabylfhet)" height="48" id="TransactionController" style="stroke:#A80036;stroke-width:1.5;" width="151" x="422.5" y="1148"/><ellipse cx="437.5" cy="1164" fill="#ADD1B2" rx="11" ry="11" style="stroke:#A80036;stroke-width:1.0;"/><path d="M440.2656,1159.875 Q440.4219,1159.6563 440.6094,1159.5469 Q440.7969,1159.4375 441.0156,1159.4375 Q441.3906,1159.4375 441.625,1159.7031 Q441.8594,1159.9531 441.8594,1160.5625 L441.8594,1162.0156 Q441.8594,1162.625 441.625,1162.8906 Q441.3906,1163.1563 441.0156,1163.1563 Q440.6719,1163.1563 440.4688,1162.9531 Q440.2656,1162.7656 440.1563,1162.25 Q440.1094,1161.8906 439.9219,1161.7031 Q439.5938,1161.3281 438.9844,1161.1094 Q438.375,1160.8906 437.75,1160.8906 Q436.9844,1160.8906 436.3438,1161.2188 Q435.7188,1161.5469 435.2188,1162.2969 Q434.7344,1163.0469 434.7344,1164.0781 L434.7344,1165.1719 Q434.7344,1166.4063 435.625,1167.2344 Q436.5156,1168.0469 438.1094,1168.0469 Q439.0469,1168.0469 439.7031,1167.7969 Q440.0938,1167.6406 440.5156,1167.2031 Q440.7813,1166.9375 440.9219,1166.8594 Q441.0781,1166.7813 441.2813,1166.7813 Q441.6094,1166.7813 441.8594,1167.0469 Q442.125,1167.2969 442.125,1167.6406 Q442.125,1167.9844 441.7813,1168.3906 Q441.2813,1168.9688 440.4844,1169.2969 Q439.4063,1169.75 438.1094,1169.75 Q436.5938,1169.75 435.3906,1169.125 Q434.4063,1168.625 433.7188,1167.5625 Q433.0313,1166.4844 433.0313,1165.2031 L433.0313,1164.0469 Q433.0313,1162.7188 433.6406,1161.5781 Q434.2656,1160.4219 435.3594,1159.8125 Q436.4531,1159.1875 437.6875,1159.1875 Q438.4219,1159.1875 439.0625,1159.3594 Q439.7188,1159.5156 440.2656,1159.875 Z " fill="#000000"/><text fill="#000000" font-family="sans-serif" font-size="12" lengthAdjust="spacing" textLength="119" x="451.5" y="1168.9102">TransactionController</text><line style="stroke:#A80036;stroke-width:1.5;" x1="423.5" x2="572.5" y1="1180" y2="1180"/><line style="stroke:#A80036;stroke-width:1.5;" x1="423.5" x2="572.5" y1="1188" y2="1188"/><!--MD5=[f670c4435da7dbe3aa41092c51f6f29f]
class TransferController--><rect codeLine="43" fill="#FEFECE" filter="url(#fvmswabylfhet)" height="48" id="TransferController" style="stroke:#A80036;stroke-width:1.5;" width="132" x="439" y="1364"/><ellipse cx="454" cy="1380" fill="#ADD1B2" rx="11" ry="11" style="stroke:#A80036;stroke-width:1.0;"/><path d="M456.7656,1375.875 Q456.9219,1375.6563 457.1094,1375.5469 Q457.2969,1375.4375 457.5156,1375.4375 Q457.8906,1375.4375 458.125,1375.7031 Q458.3594,1375.9531 458.3594,1376.5625 L458.3594,1378.0156 Q458.3594,1378.625 458.125,1378.8906 Q457.8906,1379.1563 457.5156,1379.1563 Q457.1719,1379.1563 456.9688,1378.9531 Q456.7656,1378.7656 456.6563,1378.25 Q456.6094,1377.8906 456.4219,1377.7031 Q456.0938,1377.3281 455.4844,1377.1094 Q454.875,1376.8906 454.25,1376.8906 Q453.4844,1376.8906 452.8438,1377.2188 Q452.2188,1377.5469 451.7188,1378.2969 Q451.2344,1379.0469 451.2344,1380.0781 L451.2344,1381.1719 Q451.2344,1382.4063 452.125,1383.2344 Q453.0156,1384.0469 454.6094,1384.0469 Q455.5469,1384.0469 456.2031,1383.7969 Q456.5938,1383.6406 457.0156,1383.2031 Q457.2813,1382.9375 457.4219,1382.8594 Q457.5781,1382.7813 457.7813,1382.7813 Q458.1094,1382.7813 458.3594,1383.0469 Q458.625,1383.2969 458.625,1383.6406 Q458.625,1383.9844 458.2813,1384.3906 Q457.7813,1384.9688 456.9844,1385.2969 Q455.9063,1385.75 454.6094,1385.75 Q453.0938,1385.75 451.8906,1385.125 Q450.9063,1384.625 450.2188,1383.5625 Q449.5313,1382.4844 449.5313,1381.2031 L449.5313,1380.0469 Q449.5313,1378.7188 450.1406,1377.5781 Q450.7656,1376.4219 451.8594,1375.8125 Q452.9531,1375.1875 454.1875,1375.1875 Q454.9219,1375.1875 455.5625,1375.3594 Q456.2188,1375.5156 456.7656,1375.875 Z " fill="#000000"/><text fill="#000000" font-family="sans-serif" font-size="12" lengthAdjust="spacing" textLength="100" x="468" y="1384.9102">TransferController</text><line style="stroke:#A80036;stroke-width:1.5;" x1="440" x2="570" y1="1396" y2="1396"/><line style="stroke:#A80036;stroke-width:1.5;" x1="440" x2="570" y1="1404" y2="1404"/><!--MD5=[3fd616f346a44cd59a91eb10b19e157c]
class User--><rect codeLine="48" fill="#FEFECE" filter="url(#fvmswabylfhet)" height="48" id="User" style="stroke:#A80036;stroke-width:1.5;" width="59" x="654.5" y="151"/><ellipse cx="669.5" cy="167" fill="#ADD1B2" rx="11" ry="11" style="stroke:#A80036;stroke-width:1.0;"/><path d="M672.2656,162.875 Q672.4219,162.6563 672.6094,162.5469 Q672.7969,162.4375 673.0156,162.4375 Q673.3906,162.4375 673.625,162.7031 Q673.8594,162.9531 673.8594,163.5625 L673.8594,165.0156 Q673.8594,165.625 673.625,165.8906 Q673.3906,166.1563 673.0156,166.1563 Q672.6719,166.1563 672.4688,165.9531 Q672.2656,165.7656 672.1563,165.25 Q672.1094,164.8906 671.9219,164.7031 Q671.5938,164.3281 670.9844,164.1094 Q670.375,163.8906 669.75,163.8906 Q668.9844,163.8906 668.3438,164.2188 Q667.7188,164.5469 667.2188,165.2969 Q666.7344,166.0469 666.7344,167.0781 L666.7344,168.1719 Q666.7344,169.4063 667.625,170.2344 Q668.5156,171.0469 670.1094,171.0469 Q671.0469,171.0469 671.7031,170.7969 Q672.0938,170.6406 672.5156,170.2031 Q672.7813,169.9375 672.9219,169.8594 Q673.0781,169.7813 673.2813,169.7813 Q673.6094,169.7813 673.8594,170.0469 Q674.125,170.2969 674.125,170.6406 Q674.125,170.9844 673.7813,171.3906 Q673.2813,171.9688 672.4844,172.2969 Q671.4063,172.75 670.1094,172.75 Q668.5938,172.75 667.3906,172.125 Q666.4063,171.625 665.7188,170.5625 Q665.0313,169.4844 665.0313,168.2031 L665.0313,167.0469 Q665.0313,165.7188 665.6406,164.5781 Q666.2656,163.4219 667.3594,162.8125 Q668.4531,162.1875 669.6875,162.1875 Q670.4219,162.1875 671.0625,162.3594 Q671.7188,162.5156 672.2656,162.875 Z " fill="#000000"/><text fill="#000000" font-family="sans-serif" font-size="12" lengthAdjust="spacing" textLength="27" x="683.5" y="171.9102">User</text><line style="stroke:#A80036;stroke-width:1.5;" x1="655.5" x2="712.5" y1="183" y2="183"/><line style="stroke:#A80036;stroke-width:1.5;" x1="655.5" x2="712.5" y1="191" y2="191"/><!--MD5=[a3638c1e5b65d287ecad7f06f5c0f212]
class Role--><rect codeLine="49" fill="#FEFECE" filter="url(#fvmswabylfhet)" height="48" id="Role" style="stroke:#A80036;stroke-width:1.5;" width="58" x="655" y="259"/><ellipse cx="670" cy="275" fill="#EB937F" rx="11" ry="11" style="stroke:#A80036;stroke-width:1.0;"/><path d="M668.8594,275.7969 L668.8594,278.2969 L673.1875,278.2969 L673.1875,277.375 Q673.1875,276.7656 673.4219,276.5 Q673.6719,276.2344 674.0469,276.2344 Q674.4219,276.2344 674.6563,276.5 Q674.8906,276.7656 674.8906,277.375 L674.8906,280 L666.8906,280 Q666.2656,280 666,279.7656 Q665.75,279.5313 665.75,279.1406 Q665.75,278.7656 666.0156,278.5313 Q666.2813,278.2969 666.8906,278.2969 L667.1563,278.2969 L667.1563,271.6406 L666.8906,271.6406 Q666.2656,271.6406 666,271.4063 Q665.75,271.1719 665.75,270.7813 Q665.75,270.4063 666,270.1719 Q666.2656,269.9375 666.8906,269.9375 L674.5156,269.9375 L674.5156,272.5313 Q674.5156,273.1406 674.2813,273.4063 Q674.0625,273.6563 673.6719,273.6563 Q673.2969,273.6563 673.0625,273.4063 Q672.8281,273.1406 672.8281,272.5313 L672.8281,271.6406 L668.8594,271.6406 L668.8594,274.0938 L670.3438,274.0938 Q670.3438,273.4375 670.4688,273.25 Q670.7344,272.8438 671.2031,272.8438 Q671.5781,272.8438 671.8125,273.1094 Q672.0469,273.3594 672.0469,273.9688 L672.0469,275.9375 Q672.0469,276.4844 671.9219,276.6719 Q671.6563,277.0625 671.2031,277.0625 Q670.7344,277.0625 670.4688,276.6563 Q670.3438,276.4688 670.3438,275.7969 L668.8594,275.7969 Z " fill="#000000"/><text fill="#000000" font-family="sans-serif" font-size="12" lengthAdjust="spacing" textLength="26" x="684" y="279.9102">Role</text><line style="stroke:#A80036;stroke-width:1.5;" x1="656" x2="712" y1="291" y2="291"/><line style="stroke:#A80036;stroke-width:1.5;" x1="656" x2="712" y1="299" y2="299"/><!--MD5=[24add822970012a00cd97a40cd79feff]
class UserManager--><rect codeLine="50" fill="#FEFECE" filter="url(#fvmswabylfhet)" height="48" id="UserManager" style="stroke:#A80036;stroke-width:1.5;" width="107" x="654.5" y="408.5"/><ellipse cx="669.5" cy="424.5" fill="#ADD1B2" rx="11" ry="11" style="stroke:#A80036;stroke-width:1.0;"/><path d="M672.2656,420.375 Q672.4219,420.1563 672.6094,420.0469 Q672.7969,419.9375 673.0156,419.9375 Q673.3906,419.9375 673.625,420.2031 Q673.8594,420.4531 673.8594,421.0625 L673.8594,422.5156 Q673.8594,423.125 673.625,423.3906 Q673.3906,423.6563 673.0156,423.6563 Q672.6719,423.6563 672.4688,423.4531 Q672.2656,423.2656 672.1563,422.75 Q672.1094,422.3906 671.9219,422.2031 Q671.5938,421.8281 670.9844,421.6094 Q670.375,421.3906 669.75,421.3906 Q668.9844,421.3906 668.3438,421.7188 Q667.7188,422.0469 667.2188,422.7969 Q666.7344,423.5469 666.7344,424.5781 L666.7344,425.6719 Q666.7344,426.9063 667.625,427.7344 Q668.5156,428.5469 670.1094,428.5469 Q671.0469,428.5469 671.7031,428.2969 Q672.0938,428.1406 672.5156,427.7031 Q672.7813,427.4375 672.9219,427.3594 Q673.0781,427.2813 673.2813,427.2813 Q673.6094,427.2813 673.8594,427.5469 Q674.125,427.7969 674.125,428.1406 Q674.125,428.4844 673.7813,428.8906 Q673.2813,429.4688 672.4844,429.7969 Q671.4063,430.25 670.1094,430.25 Q668.5938,430.25 667.3906,429.625 Q666.4063,429.125 665.7188,428.0625 Q665.0313,426.9844 665.0313,425.7031 L665.0313,424.5469 Q665.0313,423.2188 665.6406,422.0781 Q666.2656,420.9219 667.3594,420.3125 Q668.4531,419.6875 669.6875,419.6875 Q670.4219,419.6875 671.0625,419.8594 Q671.7188,420.0156 672.2656,420.375 Z " fill="#000000"/><text fill="#000000" font-family="sans-serif" font-size="12" lengthAdjust="spacing" textLength="75" x="683.5" y="429.4102">UserManager</text><line style="stroke:#A80036;stroke-width:1.5;" x1="655.5" x2="760.5" y1="440.5" y2="440.5"/><line style="stroke:#A80036;stroke-width:1.5;" x1="655.5" x2="760.5" y1="448.5" y2="448.5"/><!--MD5=[f0038396a8717327c40983dd0a817a23]
class CustomerManager--><rect codeLine="51" fill="#FEFECE" filter="url(#fvmswabylfhet)" height="48" id="CustomerManager" style="stroke:#A80036;stroke-width:1.5;" width="135" x="654.5" y="640"/><ellipse cx="669.5" cy="656" fill="#ADD1B2" rx="11" ry="11" style="stroke:#A80036;stroke-width:1.0;"/><path d="M672.2656,651.875 Q672.4219,651.6563 672.6094,651.5469 Q672.7969,651.4375 673.0156,651.4375 Q673.3906,651.4375 673.625,651.7031 Q673.8594,651.9531 673.8594,652.5625 L673.8594,654.0156 Q673.8594,654.625 673.625,654.8906 Q673.3906,655.1563 673.0156,655.1563 Q672.6719,655.1563 672.4688,654.9531 Q672.2656,654.7656 672.1563,654.25 Q672.1094,653.8906 671.9219,653.7031 Q671.5938,653.3281 670.9844,653.1094 Q670.375,652.8906 669.75,652.8906 Q668.9844,652.8906 668.3438,653.2188 Q667.7188,653.5469 667.2188,654.2969 Q666.7344,655.0469 666.7344,656.0781 L666.7344,657.1719 Q666.7344,658.4063 667.625,659.2344 Q668.5156,660.0469 670.1094,660.0469 Q671.0469,660.0469 671.7031,659.7969 Q672.0938,659.6406 672.5156,659.2031 Q672.7813,658.9375 672.9219,658.8594 Q673.0781,658.7813 673.2813,658.7813 Q673.6094,658.7813 673.8594,659.0469 Q674.125,659.2969 674.125,659.6406 Q674.125,659.9844 673.7813,660.3906 Q673.2813,660.9688 672.4844,661.2969 Q671.4063,661.75 670.1094,661.75 Q668.5938,661.75 667.3906,661.125 Q666.4063,660.625 665.7188,659.5625 Q665.0313,658.4844 665.0313,657.2031 L665.0313,656.0469 Q665.0313,654.7188 665.6406,653.5781 Q666.2656,652.4219 667.3594,651.8125 Q668.4531,651.1875 669.6875,651.1875 Q670.4219,651.1875 671.0625,651.3594 Q671.7188,651.5156 672.2656,651.875 Z " fill="#000000"/><text fill="#000000" font-family="sans-serif" font-size="12" lengthAdjust="spacing" textLength="103" x="683.5" y="660.9102">CustomerManager</text><line style="stroke:#A80036;stroke-width:1.5;" x1="655.5" x2="788.5" y1="672" y2="672"/><line style="stroke:#A80036;stroke-width:1.5;" x1="655.5" x2="788.5" y1="680" y2="680"/><!--MD5=[2ce0c9fb7f55b1e256ab28a8ea6b25ec]
class Customer--><rect codeLine="52" fill="#FEFECE" filter="url(#fvmswabylfhet)" height="48" id="Customer" style="stroke:#A80036;stroke-width:1.5;" width="87" x="672.5" y="769"/><ellipse cx="687.5" cy="785" fill="#ADD1B2" rx="11" ry="11" style="stroke:#A80036;stroke-width:1.0;"/><path d="M690.2656,780.875 Q690.4219,780.6563 690.6094,780.5469 Q690.7969,780.4375 691.0156,780.4375 Q691.3906,780.4375 691.625,780.7031 Q691.8594,780.9531 691.8594,781.5625 L691.8594,783.0156 Q691.8594,783.625 691.625,783.8906 Q691.3906,784.1563 691.0156,784.1563 Q690.6719,784.1563 690.4688,783.9531 Q690.2656,783.7656 690.1563,783.25 Q690.1094,782.8906 689.9219,782.7031 Q689.5938,782.3281 688.9844,782.1094 Q688.375,781.8906 687.75,781.8906 Q686.9844,781.8906 686.3438,782.2188 Q685.7188,782.5469 685.2188,783.2969 Q684.7344,784.0469 684.7344,785.0781 L684.7344,786.1719 Q684.7344,787.4063 685.625,788.2344 Q686.5156,789.0469 688.1094,789.0469 Q689.0469,789.0469 689.7031,788.7969 Q690.0938,788.6406 690.5156,788.2031 Q690.7813,787.9375 690.9219,787.8594 Q691.0781,787.7813 691.2813,787.7813 Q691.6094,787.7813 691.8594,788.0469 Q692.125,788.2969 692.125,788.6406 Q692.125,788.9844 691.7813,789.3906 Q691.2813,789.9688 690.4844,790.2969 Q689.4063,790.75 688.1094,790.75 Q686.5938,790.75 685.3906,790.125 Q684.4063,789.625 683.7188,788.5625 Q683.0313,787.4844 683.0313,786.2031 L683.0313,785.0469 Q683.0313,783.7188 683.6406,782.5781 Q684.2656,781.4219 685.3594,780.8125 Q686.4531,780.1875 687.6875,780.1875 Q688.4219,780.1875 689.0625,780.3594 Q689.7188,780.5156 690.2656,780.875 Z " fill="#000000"/><text fill="#000000" font-family="sans-serif" font-size="12" lengthAdjust="spacing" textLength="55" x="701.5" y="789.9102">Customer</text><line style="stroke:#A80036;stroke-width:1.5;" x1="673.5" x2="758.5" y1="801" y2="801"/><line style="stroke:#A80036;stroke-width:1.5;" x1="673.5" x2="758.5" y1="809" y2="809"/><!--MD5=[6007011eca2e8fa8fa5ff82c58f58b50]
class AccountManager--><rect codeLine="53" fill="#FEFECE" filter="url(#fvmswabylfhet)" height="48" id="AccountManager" style="stroke:#A80036;stroke-width:1.5;" width="123" x="654.5" y="904.5"/><ellipse cx="669.5" cy="920.5" fill="#ADD1B2" rx="11" ry="11" style="stroke:#A80036;stroke-width:1.0;"/><path d="M672.2656,916.375 Q672.4219,916.1563 672.6094,916.0469 Q672.7969,915.9375 673.0156,915.9375 Q673.3906,915.9375 673.625,916.2031 Q673.8594,916.4531 673.8594,917.0625 L673.8594,918.5156 Q673.8594,919.125 673.625,919.3906 Q673.3906,919.6563 673.0156,919.6563 Q672.6719,919.6563 672.4688,919.4531 Q672.2656,919.2656 672.1563,918.75 Q672.1094,918.3906 671.9219,918.2031 Q671.5938,917.8281 670.9844,917.6094 Q670.375,917.3906 669.75,917.3906 Q668.9844,917.3906 668.3438,917.7188 Q667.7188,918.0469 667.2188,918.7969 Q666.7344,919.5469 666.7344,920.5781 L666.7344,921.6719 Q666.7344,922.9063 667.625,923.7344 Q668.5156,924.5469 670.1094,924.5469 Q671.0469,924.5469 671.7031,924.2969 Q672.0938,924.1406 672.5156,923.7031 Q672.7813,923.4375 672.9219,923.3594 Q673.0781,923.2813 673.2813,923.2813 Q673.6094,923.2813 673.8594,923.5469 Q674.125,923.7969 674.125,924.1406 Q674.125,924.4844 673.7813,924.8906 Q673.2813,925.4688 672.4844,925.7969 Q671.4063,926.25 670.1094,926.25 Q668.5938,926.25 667.3906,925.625 Q666.4063,925.125 665.7188,924.0625 Q665.0313,922.9844 665.0313,921.7031 L665.0313,920.5469 Q665.0313,919.2188 665.6406,918.0781 Q666.2656,916.9219 667.3594,916.3125 Q668.4531,915.6875 669.6875,915.6875 Q670.4219,915.6875 671.0625,915.8594 Q671.7188,916.0156 672.2656,916.375 Z " fill="#000000"/><text fill="#000000" font-family="sans-serif" font-size="12" lengthAdjust="spacing" textLength="91" x="683.5" y="925.4102">AccountManager</text><line style="stroke:#A80036;stroke-width:1.5;" x1="655.5" x2="776.5" y1="936.5" y2="936.5"/><line style="stroke:#A80036;stroke-width:1.5;" x1="655.5" x2="776.5" y1="944.5" y2="944.5"/><!--MD5=[f9a29335b499db729be669fd1bd54958]
class Account--><rect codeLine="54" fill="#FEFECE" filter="url(#fvmswabylfhet)" height="48" id="Account" style="stroke:#A80036;stroke-width:1.5;" width="75" x="678.5" y="1040"/><ellipse cx="693.5" cy="1056" fill="#ADD1B2" rx="11" ry="11" style="stroke:#A80036;stroke-width:1.0;"/><path d="M696.2656,1051.875 Q696.4219,1051.6563 696.6094,1051.5469 Q696.7969,1051.4375 697.0156,1051.4375 Q697.3906,1051.4375 697.625,1051.7031 Q697.8594,1051.9531 697.8594,1052.5625 L697.8594,1054.0156 Q697.8594,1054.625 697.625,1054.8906 Q697.3906,1055.1563 697.0156,1055.1563 Q696.6719,1055.1563 696.4688,1054.9531 Q696.2656,1054.7656 696.1563,1054.25 Q696.1094,1053.8906 695.9219,1053.7031 Q695.5938,1053.3281 694.9844,1053.1094 Q694.375,1052.8906 693.75,1052.8906 Q692.9844,1052.8906 692.3438,1053.2188 Q691.7188,1053.5469 691.2188,1054.2969 Q690.7344,1055.0469 690.7344,1056.0781 L690.7344,1057.1719 Q690.7344,1058.4063 691.625,1059.2344 Q692.5156,1060.0469 694.1094,1060.0469 Q695.0469,1060.0469 695.7031,1059.7969 Q696.0938,1059.6406 696.5156,1059.2031 Q696.7813,1058.9375 696.9219,1058.8594 Q697.0781,1058.7813 697.2813,1058.7813 Q697.6094,1058.7813 697.8594,1059.0469 Q698.125,1059.2969 698.125,1059.6406 Q698.125,1059.9844 697.7813,1060.3906 Q697.2813,1060.9688 696.4844,1061.2969 Q695.4063,1061.75 694.1094,1061.75 Q692.5938,1061.75 691.3906,1061.125 Q690.4063,1060.625 689.7188,1059.5625 Q689.0313,1058.4844 689.0313,1057.2031 L689.0313,1056.0469 Q689.0313,1054.7188 689.6406,1053.5781 Q690.2656,1052.4219 691.3594,1051.8125 Q692.4531,1051.1875 693.6875,1051.1875 Q694.4219,1051.1875 695.0625,1051.3594 Q695.7188,1051.5156 696.2656,1051.875 Z " fill="#000000"/><text fill="#000000" font-family="sans-serif" font-size="12" lengthAdjust="spacing" textLength="43" x="707.5" y="1060.9102">Account</text><line style="stroke:#A80036;stroke-width:1.5;" x1="679.5" x2="752.5" y1="1072" y2="1072"/><line style="stroke:#A80036;stroke-width:1.5;" x1="679.5" x2="752.5" y1="1080" y2="1080"/><!--MD5=[e53526c0f050b9edca6a8358e072d9e5]
class TransactionManager--><rect codeLine="55" fill="#FEFECE" filter="url(#fvmswabylfhet)" height="48" id="TransactionManager" style="stroke:#A80036;stroke-width:1.5;" width="145" x="654.5" y="1148"/><ellipse cx="669.5" cy="1164" fill="#ADD1B2" rx="11" ry="11" style="stroke:#A80036;stroke-width:1.0;"/><path d="M672.2656,1159.875 Q672.4219,1159.6563 672.6094,1159.5469 Q672.7969,1159.4375 673.0156,1159.4375 Q673.3906,1159.4375 673.625,1159.7031 Q673.8594,1159.9531 673.8594,1160.5625 L673.8594,1162.0156 Q673.8594,1162.625 673.625,1162.8906 Q673.3906,1163.1563 673.0156,1163.1563 Q672.6719,1163.1563 672.4688,1162.9531 Q672.2656,1162.7656 672.1563,1162.25 Q672.1094,1161.8906 671.9219,1161.7031 Q671.5938,1161.3281 670.9844,1161.1094 Q670.375,1160.8906 669.75,1160.8906 Q668.9844,1160.8906 668.3438,1161.2188 Q667.7188,1161.5469 667.2188,1162.2969 Q666.7344,1163.0469 666.7344,1164.0781 L666.7344,1165.1719 Q666.7344,1166.4063 667.625,1167.2344 Q668.5156,1168.0469 670.1094,1168.0469 Q671.0469,1168.0469 671.7031,1167.7969 Q672.0938,1167.6406 672.5156,1167.2031 Q672.7813,1166.9375 672.9219,1166.8594 Q673.0781,1166.7813 673.2813,1166.7813 Q673.6094,1166.7813 673.8594,1167.0469 Q674.125,1167.2969 674.125,1167.6406 Q674.125,1167.9844 673.7813,1168.3906 Q673.2813,1168.9688 672.4844,1169.2969 Q671.4063,1169.75 670.1094,1169.75 Q668.5938,1169.75 667.3906,1169.125 Q666.4063,1168.625 665.7188,1167.5625 Q665.0313,1166.4844 665.0313,1165.2031 L665.0313,1164.0469 Q665.0313,1162.7188 665.6406,1161.5781 Q666.2656,1160.4219 667.3594,1159.8125 Q668.4531,1159.1875 669.6875,1159.1875 Q670.4219,1159.1875 671.0625,1159.3594 Q671.7188,1159.5156 672.2656,1159.875 Z " fill="#000000"/><text fill="#000000" font-family="sans-serif" font-size="12" lengthAdjust="spacing" textLength="113" x="683.5" y="1168.9102">TransactionManager</text><line style="stroke:#A80036;stroke-width:1.5;" x1="655.5" x2="798.5" y1="1180" y2="1180"/><line style="stroke:#A80036;stroke-width:1.5;" x1="655.5" x2="798.5" y1="1188" y2="1188"/><!--MD5=[4555bb1b0911a5adf28ce6dbe60fed2e]
class Transaction--><rect codeLine="56" fill="#FEFECE" filter="url(#fvmswabylfhet)" height="48" id="Transaction" style="stroke:#A80036;stroke-width:1.5;" width="97" x="668.5" y="1256"/><ellipse cx="683.5" cy="1272" fill="#ADD1B2" rx="11" ry="11" style="stroke:#A80036;stroke-width:1.0;"/><path d="M686.2656,1267.875 Q686.4219,1267.6563 686.6094,1267.5469 Q686.7969,1267.4375 687.0156,1267.4375 Q687.3906,1267.4375 687.625,1267.7031 Q687.8594,1267.9531 687.8594,1268.5625 L687.8594,1270.0156 Q687.8594,1270.625 687.625,1270.8906 Q687.3906,1271.1563 687.0156,1271.1563 Q686.6719,1271.1563 686.4688,1270.9531 Q686.2656,1270.7656 686.1563,1270.25 Q686.1094,1269.8906 685.9219,1269.7031 Q685.5938,1269.3281 684.9844,1269.1094 Q684.375,1268.8906 683.75,1268.8906 Q682.9844,1268.8906 682.3438,1269.2188 Q681.7188,1269.5469 681.2188,1270.2969 Q680.7344,1271.0469 680.7344,1272.0781 L680.7344,1273.1719 Q680.7344,1274.4063 681.625,1275.2344 Q682.5156,1276.0469 684.1094,1276.0469 Q685.0469,1276.0469 685.7031,1275.7969 Q686.0938,1275.6406 686.5156,1275.2031 Q686.7813,1274.9375 686.9219,1274.8594 Q687.0781,1274.7813 687.2813,1274.7813 Q687.6094,1274.7813 687.8594,1275.0469 Q688.125,1275.2969 688.125,1275.6406 Q688.125,1275.9844 687.7813,1276.3906 Q687.2813,1276.9688 686.4844,1277.2969 Q685.4063,1277.75 684.1094,1277.75 Q682.5938,1277.75 681.3906,1277.125 Q680.4063,1276.625 679.7188,1275.5625 Q679.0313,1274.4844 679.0313,1273.2031 L679.0313,1272.0469 Q679.0313,1270.7188 679.6406,1269.5781 Q680.2656,1268.4219 681.3594,1267.8125 Q682.4531,1267.1875 683.6875,1267.1875 Q684.4219,1267.1875 685.0625,1267.3594 Q685.7188,1267.5156 686.2656,1267.875 Z " fill="#000000"/><text fill="#000000" font-family="sans-serif" font-size="12" lengthAdjust="spacing" textLength="65" x="697.5" y="1276.9102">Transaction</text><line style="stroke:#A80036;stroke-width:1.5;" x1="669.5" x2="764.5" y1="1288" y2="1288"/><line style="stroke:#A80036;stroke-width:1.5;" x1="669.5" x2="764.5" y1="1296" y2="1296"/><!--MD5=[dd16168fc711c6a2afc257d469fa0498]
class TransferManager--><rect codeLine="57" fill="#FEFECE" filter="url(#fvmswabylfhet)" height="48" id="TransferManager" style="stroke:#A80036;stroke-width:1.5;" width="126" x="654" y="1364"/><ellipse cx="669" cy="1380" fill="#ADD1B2" rx="11" ry="11" style="stroke:#A80036;stroke-width:1.0;"/><path d="M671.7656,1375.875 Q671.9219,1375.6563 672.1094,1375.5469 Q672.2969,1375.4375 672.5156,1375.4375 Q672.8906,1375.4375 673.125,1375.7031 Q673.3594,1375.9531 673.3594,1376.5625 L673.3594,1378.0156 Q673.3594,1378.625 673.125,1378.8906 Q672.8906,1379.1563 672.5156,1379.1563 Q672.1719,1379.1563 671.9688,1378.9531 Q671.7656,1378.7656 671.6563,1378.25 Q671.6094,1377.8906 671.4219,1377.7031 Q671.0938,1377.3281 670.4844,1377.1094 Q669.875,1376.8906 669.25,1376.8906 Q668.4844,1376.8906 667.8438,1377.2188 Q667.2188,1377.5469 666.7188,1378.2969 Q666.2344,1379.0469 666.2344,1380.0781 L666.2344,1381.1719 Q666.2344,1382.4063 667.125,1383.2344 Q668.0156,1384.0469 669.6094,1384.0469 Q670.5469,1384.0469 671.2031,1383.7969 Q671.5938,1383.6406 672.0156,1383.2031 Q672.2813,1382.9375 672.4219,1382.8594 Q672.5781,1382.7813 672.7813,1382.7813 Q673.1094,1382.7813 673.3594,1383.0469 Q673.625,1383.2969 673.625,1383.6406 Q673.625,1383.9844 673.2813,1384.3906 Q672.7813,1384.9688 671.9844,1385.2969 Q670.9063,1385.75 669.6094,1385.75 Q668.0938,1385.75 666.8906,1385.125 Q665.9063,1384.625 665.2188,1383.5625 Q664.5313,1382.4844 664.5313,1381.2031 L664.5313,1380.0469 Q664.5313,1378.7188 665.1406,1377.5781 Q665.7656,1376.4219 666.8594,1375.8125 Q667.9531,1375.1875 669.1875,1375.1875 Q669.9219,1375.1875 670.5625,1375.3594 Q671.2188,1375.5156 671.7656,1375.875 Z " fill="#000000"/><text fill="#000000" font-family="sans-serif" font-size="12" lengthAdjust="spacing" textLength="94" x="683" y="1384.9102">TransferManager</text><line style="stroke:#A80036;stroke-width:1.5;" x1="655" x2="779" y1="1396" y2="1396"/><line style="stroke:#A80036;stroke-width:1.5;" x1="655" x2="779" y1="1404" y2="1404"/><!--MD5=[02f52dd76b6d93c484e98adf8cb1a92d]
class Transfer--><rect codeLine="58" fill="#FEFECE" filter="url(#fvmswabylfhet)" height="48" id="Transfer" style="stroke:#A80036;stroke-width:1.5;" width="78" x="666" y="1472"/><ellipse cx="681" cy="1488" fill="#ADD1B2" rx="11" ry="11" style="stroke:#A80036;stroke-width:1.0;"/><path d="M683.7656,1483.875 Q683.9219,1483.6563 684.1094,1483.5469 Q684.2969,1483.4375 684.5156,1483.4375 Q684.8906,1483.4375 685.125,1483.7031 Q685.3594,1483.9531 685.3594,1484.5625 L685.3594,1486.0156 Q685.3594,1486.625 685.125,1486.8906 Q684.8906,1487.1563 684.5156,1487.1563 Q684.1719,1487.1563 683.9688,1486.9531 Q683.7656,1486.7656 683.6563,1486.25 Q683.6094,1485.8906 683.4219,1485.7031 Q683.0938,1485.3281 682.4844,1485.1094 Q681.875,1484.8906 681.25,1484.8906 Q680.4844,1484.8906 679.8438,1485.2188 Q679.2188,1485.5469 678.7188,1486.2969 Q678.2344,1487.0469 678.2344,1488.0781 L678.2344,1489.1719 Q678.2344,1490.4063 679.125,1491.2344 Q680.0156,1492.0469 681.6094,1492.0469 Q682.5469,1492.0469 683.2031,1491.7969 Q683.5938,1491.6406 684.0156,1491.2031 Q684.2813,1490.9375 684.4219,1490.8594 Q684.5781,1490.7813 684.7813,1490.7813 Q685.1094,1490.7813 685.3594,1491.0469 Q685.625,1491.2969 685.625,1491.6406 Q685.625,1491.9844 685.2813,1492.3906 Q684.7813,1492.9688 683.9844,1493.2969 Q682.9063,1493.75 681.6094,1493.75 Q680.0938,1493.75 678.8906,1493.125 Q677.9063,1492.625 677.2188,1491.5625 Q676.5313,1490.4844 676.5313,1489.2031 L676.5313,1488.0469 Q676.5313,1486.7188 677.1406,1485.5781 Q677.7656,1484.4219 678.8594,1483.8125 Q679.9531,1483.1875 681.1875,1483.1875 Q681.9219,1483.1875 682.5625,1483.3594 Q683.2188,1483.5156 683.7656,1483.875 Z " fill="#000000"/><text fill="#000000" font-family="sans-serif" font-size="12" lengthAdjust="spacing" textLength="46" x="695" y="1492.9102">Transfer</text><line style="stroke:#A80036;stroke-width:1.5;" x1="667" x2="743" y1="1504" y2="1504"/><line style="stroke:#A80036;stroke-width:1.5;" x1="667" x2="743" y1="1512" y2="1512"/><path d="M464.5,22.5 L464.5,48.8516 L731.5,48.8516 L731.5,32.5 L721.5,22.5 L464.5,22.5 " fill="#FBFB77" filter="url(#fvmswabylfhet)" style="stroke:#A80036;stroke-width:1.0;"/><path d="M721.5,22.5 L721.5,32.5 L731.5,32.5 L721.5,22.5 " fill="#FBFB77" style="stroke:#A80036;stroke-width:1.0;"/><text fill="#000000" font-family="sans-serif" font-size="13" lengthAdjust="spacing" textLength="246" x="470.5" y="40.9951">TODO: add new methods to all controllers.</text><path d="M84,6 L84,65.0547 A0,0 0 0 0 84,65.0547 L215,65.0547 L219,150.69 L223,65.0547 L354,65.0547 A0,0 0 0 0 354,65.0547 L354,16 L344,6 L84,6 A0,0 0 0 0 84,6 " fill="#FBFB77" filter="url(#fvmswabylfhet)" style="stroke:#A80036;stroke-width:1.0;"/><path d="M344,6 L344,16 L354,16 L344,6 " fill="#FBFB77" style="stroke:#A80036;stroke-width:1.0;"/><text fill="#000000" font-family="sans-serif" font-size="13" lengthAdjust="spacing" textLength="186" x="90" y="24.4951">Every controller deals with User,</text><text fill="#000000" font-family="sans-serif" font-size="13" lengthAdjust="spacing" textLength="245" x="90" y="40.8467">so it's better to move this common logic to</text><text fill="#000000" font-family="sans-serif" font-size="13" lengthAdjust="spacing" textLength="145" x="90" y="57.1982">abstract Controller class.</text><!--MD5=[5a58a3c9f2a63d50a7d76e4c4f9f6877]
link Controller to User--><path codeLine="61" d="M223.76,150.58 C229.63,127.15 241.93,92.54 266,73 C272.19,67.97 275.57,69.89 283.5,69 C318.06,65.1 561.94,65.1 596.5,69 C604.43,69.89 607.4,68.51 614,73 C640.64,91.11 660.1,123.02 671.64,146.33 " fill="none" id="Controller-to-User" style="stroke:#A80036;stroke-width:1.0;"/><polygon fill="#A80036" points="673.84,150.88,673.5059,141.0368,671.6555,146.3825,666.3098,144.532,673.84,150.88" style="stroke:#A80036;stroke-width:1.0;"/><!--MD5=[a612438f26c190de08de708f514889fa]
link Controller to Role--><path codeLine="62" d="M262.09,197.64 C263.4,198.12 264.71,198.57 266,199 C405.06,244.94 446.82,228.25 590,259 C609.97,263.29 632.17,268.69 649.98,273.18 " fill="none" id="Controller-to-Role" style="stroke:#A80036;stroke-width:1.0;"/><polygon fill="#A80036" points="654.88,274.42,647.1399,268.3297,650.0335,273.1905,645.1727,276.0841,654.88,274.42" style="stroke:#A80036;stroke-width:1.0;"/><!--MD5=[23dbcb00f89abcba44525fb7e512fb02]
link Controller to UserController--><!--MD5=[f2be55d3c0fcc5ca5f5b73b86cf930c5]
reverse link Controller to UserController--><path codeLine="83" d="M253.44,215.4 C282.24,255.77 322.07,319.19 348.97,366.9 " fill="none" id="Controller-backto-UserController" style="stroke:#A80036;stroke-width:1.0;"/><polygon fill="none" points="247.68,219.38,241.46,199.12,258.95,211.08,247.68,219.38" style="stroke:#A80036;stroke-width:1.0;"/><!--MD5=[476a0fee8ce402880a79b33f109616b2]
link UserController to UserManager--><path codeLine="65" d="M564.16,432.5 C592.46,432.5 620.76,432.5 649.06,432.5 " fill="none" id="UserController-to-UserManager" style="stroke:#A80036;stroke-width:1.0;"/><polygon fill="#A80036" points="654.34,432.5,645.34,428.5,649.34,432.5,645.34,436.5,654.34,432.5" style="stroke:#A80036;stroke-width:1.0;"/><!--MD5=[0ffbee903726b0d74321d0ce50008020]
link UserController to CustomerController--><!--MD5=[ca37d7b23beb2306eb7b6d2e43219ca3]
link CustomerController to CustomerManager--><path codeLine="68" d="M573.77,664 C598.92,664 624.07,664 649.22,664 " fill="none" id="CustomerController-to-CustomerManager" style="stroke:#A80036;stroke-width:1.0;"/><polygon fill="#A80036" points="654.25,664,645.25,660,649.25,664,645.25,668,654.25,664" style="stroke:#A80036;stroke-width:1.0;"/><!--MD5=[b9fabefa485d7ee65587dff11fc0f6d7]
link CustomerController to Customer--><path codeLine="69" d="M482.21,709.06 C546.05,731.71 620.19,758.01 667.57,774.82 " fill="none" id="CustomerController-to-Customer" style="stroke:#A80036;stroke-width:1.0;"/><polygon fill="#A80036" points="672.35,776.52,665.2105,769.7356,667.639,774.8447,662.53,777.2732,672.35,776.52" style="stroke:#A80036;stroke-width:1.0;"/><!--MD5=[1434e992f1dc5075fbaa3f084c55017f]
link CustomerController to AccountController--><!--MD5=[741e7b812f7498ff09ff1ae12efbe687]
link AccountController to AccountManager--><path codeLine="72" d="M574.17,928.5 C599.19,928.5 624.2,928.5 649.22,928.5 " fill="none" id="AccountController-to-AccountManager" style="stroke:#A80036;stroke-width:1.0;"/><polygon fill="#A80036" points="654.23,928.5,645.23,924.5,649.23,928.5,645.23,932.5,654.23,928.5" style="stroke:#A80036;stroke-width:1.0;"/><!--MD5=[f6cdb946c437b14b3d696cf5e8de18f6]
link AccountController to Account--><path codeLine="73" d="M489.87,980.07 C555.11,1003.99 628.39,1030.87 673.37,1047.37 " fill="none" id="AccountController-to-Account" style="stroke:#A80036;stroke-width:1.0;"/><polygon fill="#A80036" points="678.18,1049.13,671.1139,1042.2693,673.4873,1047.4041,668.3525,1049.7776,678.18,1049.13" style="stroke:#A80036;stroke-width:1.0;"/><!--MD5=[2e0a514b1a6a229f9f33a869dd852677]
link AccountController to TransactionController--><!--MD5=[a6c281e42c7feae71b8883d7e46f336f]
link TransactionController to TransactionManager--><path codeLine="76" d="M573.59,1172 C598.87,1172 624.15,1172 649.43,1172 " fill="none" id="TransactionController-to-TransactionManager" style="stroke:#A80036;stroke-width:1.0;"/><polygon fill="#A80036" points="654.49,1172,645.49,1168,649.49,1172,645.49,1176,654.49,1172" style="stroke:#A80036;stroke-width:1.0;"/><!--MD5=[cbec4e5b0e50e3d9139cbc61a3762be6]
link TransactionController to Transaction--><path codeLine="77" d="M545.52,1196 C580.55,1212.96 628.21,1236.02 664.39,1253.54 " fill="none" id="TransactionController-to-Transaction" style="stroke:#A80036;stroke-width:1.0;"/><polygon fill="#A80036" points="669.2,1255.86,662.852,1248.3298,664.7025,1253.6755,659.3568,1255.5259,669.2,1255.86" style="stroke:#A80036;stroke-width:1.0;"/><!--MD5=[8eaa498afae45f4ccd177dccde76b84d]
link TransactionController to TransferController--><!--MD5=[448dcae6e313ccbb2ee6d76cc8fbdbde]
link TransferController to TransferManager--><path codeLine="80" d="M571.25,1388 C597.05,1388 622.85,1388 648.64,1388 " fill="none" id="TransferController-to-TransferManager" style="stroke:#A80036;stroke-width:1.0;"/><polygon fill="#A80036" points="653.8,1388,644.8,1384,648.8,1388,644.8,1392,653.8,1388" style="stroke:#A80036;stroke-width:1.0;"/><!--MD5=[36bcc9f87d67c6a72e7c4d6ae93db5ee]
link TransferController to Transfer--><path codeLine="81" d="M548.4,1412 C581.82,1429.72 627.83,1454.1 661.32,1471.85 " fill="none" id="TransferController-to-Transfer" style="stroke:#A80036;stroke-width:1.0;"/><polygon fill="#A80036" points="665.75,1474.2,659.6755,1466.4475,661.3335,1471.856,655.9251,1473.5139,665.75,1474.2" style="stroke:#A80036;stroke-width:1.0;"/><!--MD5=[3ee38fd4fb2087b73ed9a9ac5d8e3956]
reverse link Controller to CustomerController--><path codeLine="84" d="M199.04,217.37 C171.5,280.67 129.77,404.08 172,498 C194.84,548.79 241.89,590.29 282.95,618.96 " fill="none" id="Controller-backto-CustomerController" style="stroke:#A80036;stroke-width:1.0;"/><polygon fill="none" points="192.72,214.36,207.36,199.04,205.47,220.15,192.72,214.36" style="stroke:#A80036;stroke-width:1.0;"/><!--MD5=[ff8b3d33169089105f186ca5e89c0ef2]
reverse link Controller to AccountController--><path codeLine="85" d="M187.9,215.32 C178.35,228.66 168.42,243.99 161,259 C125.33,331.13 106,351.03 106,431.5 C106,431.5 106,431.5 106,665 C106,757.9 189.06,831.47 258.65,876.8 " fill="none" id="Controller-backto-AccountController" style="stroke:#A80036;stroke-width:1.0;"/><polygon fill="none" points="182.4,210.98,199.97,199.14,193.62,219.35,182.4,210.98" style="stroke:#A80036;stroke-width:1.0;"/><!--MD5=[42ef73344fbbd78dff0e96d9d6867bb3]
reverse link Controller to TransactionController--><path codeLine="86" d="M171.51,211.93 C156.28,225.34 140.42,241.59 129,259 C84.5,326.88 69,350.33 69,431.5 C69,431.5 69,431.5 69,929.5 C69,1089.76 299.13,1144.81 422.29,1162.8 " fill="none" id="Controller-backto-TransactionController" style="stroke:#A80036;stroke-width:1.0;"/><polygon fill="none" points="167.1,206.49,186.94,199.04,176.07,217.23,167.1,206.49" style="stroke:#A80036;stroke-width:1.0;"/><!--MD5=[37538bd849a93a2f9536d69f279079f2]
reverse link Controller to TransferController--><path codeLine="87" d="M158.2,204.73 C134.78,218.36 109.49,236.62 92,259 C42.02,322.96 32,350.33 32,431.5 C32,431.5 32,431.5 32,1173 C32,1349.43 308.56,1381.17 438.73,1386.34 " fill="none" id="Controller-backto-TransferController" style="stroke:#A80036;stroke-width:1.0;"/><polygon fill="none" points="155.08,198.46,175.99,195.01,161.79,210.74,155.08,198.46" style="stroke:#A80036;stroke-width:1.0;"/><!--MD5=[70c37dc9bfbc8656942103c36f1181e4]
link User to Role--><!--MD5=[0ce9c3b21bf41bb963955a49d51bbb71]
link Role to UserManager--><!--MD5=[7bc161a3346b811eb8ebd384473853c5]
link UserManager to CustomerManager--><!--MD5=[e9e85f692808b84677da88daefb125f6]
link CustomerManager to Customer--><!--MD5=[421f33cdcbbb423809ce0835006bea0f]
link Customer to AccountManager--><!--MD5=[5df15bedf6a6be9ab8ced9df8a1d8af9]
link AccountManager to Account--><!--MD5=[c278a1d01c1557127ee559341275dc51]
link Account to TransactionManager--><!--MD5=[b59c0813786aceaf5240b3b5bca14d26]
link TransactionManager to Transaction--><!--MD5=[da8afb532f267eb08e39833963fea516]
link Transaction to TransferManager--><!--MD5=[f3a5fc8b08b4cd066689595ed78a9755]
link TransferManager to Transfer--><!--MD5=[94c34d239c9191d1ee997c962ce4140f]
link note1 to integration--><path codeLine="110" d="M598,48.7 C598,56.9825 598,68.7769 598,81.853 C598,83.4875 598,85.142 598,86.8122 C598,87.2298 598,87.6483 598,88.0678 C598,88.2775 598,88.4874 598,88.6976 " fill="none" id="note1-integration" style="stroke:#A80036;stroke-width:1.0;"/><!--MD5=[9b3dcf9bafd8cd66cfadd352a99d9c2b]
@startuml ClassIntegration

skinparam class {
    BackgroundColor<<Repository>> SkyBlue
    BorderColor<<Repository>> Navy
    BackgroundColor<<Access>> Snow
    BorderColor<<Access>> Plum
    BackgroundColor<<Integration>> SandyBrown
    BorderColor<<Integration>> Tomato
    BackgroundColor<<Domain>> Gold
    BorderColor<<Domain>> Red
}

component "<<Component>>\nIntegration" as integration #SandyBrown {
    abstract Controller {

    }
    
    class UserController {
        + ResponseEntity<User> getUserById(User currentUser, long id)
        + ResponseEntity<List<User>> getAll(User currentUser)
        + ResponseEntity<User> addAdmin(User currentUser, Administrator user)
        + String login(String email, String password)
        + User getCurrent(User currentUser)
        + boolean logout(User currentUser)
    }

    class CustomerController {
        + ResponseEntity<Customer> getCustomerById(User currentUser, long id)
        + ResponseEntity<List<Customer>> getAll(User currentUser)
        + ResponseEntity<Customer> createCustomer(User currentUser, Customer customer)
    }

    class AccountController {
        + ResponseEntity<Account> getAccountById(User currentUser, long id)
        + ResponseEntity<List<Account>> getAll(User currentUser)
        + ResponseEntity<List<Account>> getAccountsByCustomerId(User currentUser, long id)
        + ResponseEntity<List<Account>> getCustomerAccounts(User currentUser)
    }

    class TransactionController {
    }

    class TransferController {
    }
}

component "<<Component>>\nDomain" as domain #Gold {
    class User
    enum Role
    class UserManager
    class CustomerManager
    class Customer
    class AccountManager
    class Account
    class TransactionManager
    class Transaction
    class TransferManager
    class Transfer
}

Controller -> User
Controller - -> Role
Controller - - -[hidden]> UserController

UserController ->  UserManager
UserController - - -[hidden]> CustomerController

CustomerController ->  CustomerManager
CustomerController - -> Customer
CustomerController - - -[hidden]> AccountController

AccountController -> AccountManager
AccountController - -> Account
AccountController - - -[hidden]> TransactionController

TransactionController -> TransactionManager
TransactionController - -> Transaction
TransactionController - - -[hidden]> TransferController

TransferController -> TransferManager
TransferController - -> Transfer

Controller <|- - UserController
Controller <|- - - - CustomerController
Controller <|- - - - - - AccountController
Controller <|- - - - - - - - TransactionController
Controller <|- - - - - - - - - - TransferController

User - -[hidden]> Role
Role - -[hidden]> UserManager
UserManager - - -[hidden]> CustomerManager
CustomerManager - -[hidden]> Customer
Customer - -[hidden]> AccountManager
AccountManager - -[hidden]> Account
Account - -[hidden]> TransactionManager
TransactionManager - -[hidden]> Transaction
Transaction - -[hidden]> TransferManager
TransferManager - -[hidden]> Transfer

note as note1
    TODO: add new methods to all controllers.
end note

note as note2
    Every controller deals with User,
    so it's better to move this common logic to 
    abstract Controller class.
end note

integration -up- note1
Controller -up- note2

@enduml

PlantUML version 1.2021.7(Sun May 23 15:40:07 EEST 2021)
(GPL source distribution)
Java Runtime: OpenJDK Runtime Environment
JVM: OpenJDK 64-Bit Server VM
Default Encoding: Cp1252
Language: en
Country: US
--></g></svg>