<?xml version="1.0" encoding="UTF-8" standalone="no"?><svg xmlns="http://www.w3.org/2000/svg" xmlns:xlink="http://www.w3.org/1999/xlink" contentScriptType="application/ecmascript" contentStyleType="text/css" height="1460px" preserveAspectRatio="none" style="width:798px;height:1460px;background:#FFFFFF;" version="1.1" viewBox="0 0 798 1460" width="798px" zoomAndPan="magnify"><defs><filter height="300%" id="f198d3e802c2mf" width="300%" x="-1" y="-1"><feGaussianBlur result="blurOut" stdDeviation="2.0"/><feColorMatrix in="blurOut" result="blurOut2" type="matrix" values="0 0 0 0 0 0 0 0 0 0 0 0 0 0 0 0 0 0 .4 0"/><feOffset dx="4.0" dy="4.0" in="blurOut2" result="blurOut3"/><feBlend in="SourceGraphic" in2="blurOut3" mode="normal"/></filter></defs><g><!--MD5=[74a5e6b216f1574913a389b07d811aab]
cluster integration--><rect fill="#F4A460" filter="url(#f198d3e802c2mf)" height="1331" style="stroke:#000000;stroke-width:1.5;" width="575" x="7" y="7"/><rect fill="#F4A460" height="10" style="stroke:#000000;stroke-width:1.5;" width="15" x="562" y="12"/><rect fill="#F4A460" height="2" style="stroke:#000000;stroke-width:1.5;" width="4" x="560" y="14"/><rect fill="#F4A460" height="2" style="stroke:#000000;stroke-width:1.5;" width="4" x="560" y="18"/><text fill="#000000" font-family="sans-serif" font-size="14" font-weight="bold" lengthAdjust="spacing" textLength="113" x="238" y="34.5332">&lt;&lt;Component&gt;&gt;</text><text fill="#000000" font-family="sans-serif" font-size="14" font-weight="bold" lengthAdjust="spacing" textLength="77" x="256" y="52.1426">Integration</text><!--MD5=[27f772719433d509ddbc20ff768eba08]
cluster domain--><rect fill="#FFD700" filter="url(#f198d3e802c2mf)" height="1439" style="stroke:#000000;stroke-width:1.5;" width="178" x="606" y="7"/><rect fill="#FFD700" height="10" style="stroke:#000000;stroke-width:1.5;" width="15" x="764" y="12"/><rect fill="#FFD700" height="2" style="stroke:#000000;stroke-width:1.5;" width="4" x="762" y="14"/><rect fill="#FFD700" height="2" style="stroke:#000000;stroke-width:1.5;" width="4" x="762" y="18"/><text fill="#000000" font-family="sans-serif" font-size="14" font-weight="bold" lengthAdjust="spacing" textLength="113" x="638.5" y="34.5332">&lt;&lt;Component&gt;&gt;</text><text fill="#000000" font-family="sans-serif" font-size="14" font-weight="bold" lengthAdjust="spacing" textLength="52" x="669" y="52.1426">Domain</text><!--MD5=[1d7ba1c7002d54515419844fbd155368]
class Controller--><rect codeLine="14" fill="#FEFECE" filter="url(#f198d3e802c2mf)" height="48" id="Controller" style="stroke:#A80036;stroke-width:1.5;" width="86" x="167" y="61"/><ellipse cx="182" cy="77" fill="#A9DCDF" rx="11" ry="11" style="stroke:#A80036;stroke-width:1.0;"/><path d="M184.1875,78.7656 L180.0469,78.7656 L179.625,79.7969 L180.0469,79.7969 Q180.6563,79.7969 180.9219,80.0313 Q181.1875,80.2656 181.1875,80.6563 Q181.1875,81.0313 180.9219,81.2656 Q180.6563,81.5 180.0469,81.5 L177.75,81.5 Q177.1406,81.5 176.8906,81.2656 Q176.625,81.0313 176.625,80.6406 Q176.625,80.2656 176.9063,80.0313 Q177.1719,79.7813 177.7969,79.7969 L180.4688,73.1406 L179.3594,73.1406 Q178.75,73.1406 178.4844,72.9063 Q178.2188,72.6719 178.2188,72.2813 Q178.2188,71.9063 178.4844,71.6719 Q178.75,71.4375 179.3594,71.4375 L183.0313,71.4375 L186.4219,79.7969 Q187.0156,79.7969 187.2031,79.9375 Q187.5938,80.2031 187.5938,80.6563 Q187.5938,81.0313 187.3281,81.2656 Q187.0781,81.5 186.4688,81.5 L184.1719,81.5 Q183.5625,81.5 183.2969,81.2656 Q183.0313,81.0313 183.0313,80.6406 Q183.0313,80.2656 183.2969,80.0313 Q183.5625,79.7969 184.1719,79.7969 L184.5938,79.7969 L184.1875,78.7656 Z M183.4688,77.0625 L182.1094,73.6875 L180.7344,77.0625 L183.4688,77.0625 Z " fill="#000000"/><text fill="#000000" font-family="sans-serif" font-size="12" font-style="italic" lengthAdjust="spacing" textLength="54" x="196" y="81.9102">Controller</text><line style="stroke:#A80036;stroke-width:1.5;" x1="168" x2="252" y1="93" y2="93"/><line style="stroke:#A80036;stroke-width:1.5;" x1="168" x2="252" y1="101" y2="101"/><!--MD5=[29f97d496cbdc4ec81664c6d94dc9bf6]
class UserController--><rect codeLine="18" fill="#FEFECE" filter="url(#f198d3e802c2mf)" height="131.0156" id="UserController" style="stroke:#A80036;stroke-width:1.5;" width="374" x="181" y="277"/><ellipse cx="323.25" cy="293" fill="#ADD1B2" rx="11" ry="11" style="stroke:#A80036;stroke-width:1.0;"/><path d="M326.0156,288.875 Q326.1719,288.6563 326.3594,288.5469 Q326.5469,288.4375 326.7656,288.4375 Q327.1406,288.4375 327.375,288.7031 Q327.6094,288.9531 327.6094,289.5625 L327.6094,291.0156 Q327.6094,291.625 327.375,291.8906 Q327.1406,292.1563 326.7656,292.1563 Q326.4219,292.1563 326.2188,291.9531 Q326.0156,291.7656 325.9063,291.25 Q325.8594,290.8906 325.6719,290.7031 Q325.3438,290.3281 324.7344,290.1094 Q324.125,289.8906 323.5,289.8906 Q322.7344,289.8906 322.0938,290.2188 Q321.4688,290.5469 320.9688,291.2969 Q320.4844,292.0469 320.4844,293.0781 L320.4844,294.1719 Q320.4844,295.4063 321.375,296.2344 Q322.2656,297.0469 323.8594,297.0469 Q324.7969,297.0469 325.4531,296.7969 Q325.8438,296.6406 326.2656,296.2031 Q326.5313,295.9375 326.6719,295.8594 Q326.8281,295.7813 327.0313,295.7813 Q327.3594,295.7813 327.6094,296.0469 Q327.875,296.2969 327.875,296.6406 Q327.875,296.9844 327.5313,297.3906 Q327.0313,297.9688 326.2344,298.2969 Q325.1563,298.75 323.8594,298.75 Q322.3438,298.75 321.1406,298.125 Q320.1563,297.625 319.4688,296.5625 Q318.7813,295.4844 318.7813,294.2031 L318.7813,293.0469 Q318.7813,291.7188 319.3906,290.5781 Q320.0156,289.4219 321.1094,288.8125 Q322.2031,288.1875 323.4375,288.1875 Q324.1719,288.1875 324.8125,288.3594 Q325.4688,288.5156 326.0156,288.875 Z " fill="#000000"/><text fill="#000000" font-family="sans-serif" font-size="12" lengthAdjust="spacing" textLength="81" x="343.75" y="297.9102">UserController</text><line style="stroke:#A80036;stroke-width:1.5;" x1="182" x2="554" y1="309" y2="309"/><line style="stroke:#A80036;stroke-width:1.5;" x1="182" x2="554" y1="317" y2="317"/><ellipse cx="192" cy="328" fill="#84BE84" rx="3" ry="3" style="stroke:#038048;stroke-width:1.0;"/><text fill="#000000" font-family="sans-serif" font-size="11" lengthAdjust="spacing" textLength="301" x="201" y="332.4189">ResponseEntity&lt;User&gt; getUserById(User currentUser, long id)</text><ellipse cx="192" cy="341.8359" fill="#84BE84" rx="3" ry="3" style="stroke:#038048;stroke-width:1.0;"/><text fill="#000000" font-family="sans-serif" font-size="11" lengthAdjust="spacing" textLength="261" x="201" y="346.2549">ResponseEntity&lt;List&lt;User&gt;&gt; getAll(User currentUser)</text><ellipse cx="192" cy="355.6719" fill="#84BE84" rx="3" ry="3" style="stroke:#038048;stroke-width:1.0;"/><text fill="#000000" font-family="sans-serif" font-size="11" lengthAdjust="spacing" textLength="348" x="201" y="360.0908">ResponseEntity&lt;User&gt; addAdmin(User currentUser, Administrator user)</text><ellipse cx="192" cy="369.5078" fill="#84BE84" rx="3" ry="3" style="stroke:#038048;stroke-width:1.0;"/><text fill="#000000" font-family="sans-serif" font-size="11" lengthAdjust="spacing" textLength="203" x="201" y="373.9268">String login(String email, String password)</text><ellipse cx="192" cy="383.3438" fill="#84BE84" rx="3" ry="3" style="stroke:#038048;stroke-width:1.0;"/><text fill="#000000" font-family="sans-serif" font-size="11" lengthAdjust="spacing" textLength="169" x="201" y="387.7627">User getCurrent(User currentUser)</text><ellipse cx="192" cy="397.1797" fill="#84BE84" rx="3" ry="3" style="stroke:#038048;stroke-width:1.0;"/><text fill="#000000" font-family="sans-serif" font-size="11" lengthAdjust="spacing" textLength="162" x="201" y="401.5986">boolean logout(User currentUser)</text><!--MD5=[41e4e6f85c405453ee6ea8718bf314e6]
class CustomerController--><rect codeLine="27" fill="#FEFECE" filter="url(#f198d3e802c2mf)" height="89.5078" id="CustomerController" style="stroke:#A80036;stroke-width:1.5;" width="431" x="134.5" y="529"/><ellipse cx="291.25" cy="545" fill="#ADD1B2" rx="11" ry="11" style="stroke:#A80036;stroke-width:1.0;"/><path d="M294.0156,540.875 Q294.1719,540.6563 294.3594,540.5469 Q294.5469,540.4375 294.7656,540.4375 Q295.1406,540.4375 295.375,540.7031 Q295.6094,540.9531 295.6094,541.5625 L295.6094,543.0156 Q295.6094,543.625 295.375,543.8906 Q295.1406,544.1563 294.7656,544.1563 Q294.4219,544.1563 294.2188,543.9531 Q294.0156,543.7656 293.9063,543.25 Q293.8594,542.8906 293.6719,542.7031 Q293.3438,542.3281 292.7344,542.1094 Q292.125,541.8906 291.5,541.8906 Q290.7344,541.8906 290.0938,542.2188 Q289.4688,542.5469 288.9688,543.2969 Q288.4844,544.0469 288.4844,545.0781 L288.4844,546.1719 Q288.4844,547.4063 289.375,548.2344 Q290.2656,549.0469 291.8594,549.0469 Q292.7969,549.0469 293.4531,548.7969 Q293.8438,548.6406 294.2656,548.2031 Q294.5313,547.9375 294.6719,547.8594 Q294.8281,547.7813 295.0313,547.7813 Q295.3594,547.7813 295.6094,548.0469 Q295.875,548.2969 295.875,548.6406 Q295.875,548.9844 295.5313,549.3906 Q295.0313,549.9688 294.2344,550.2969 Q293.1563,550.75 291.8594,550.75 Q290.3438,550.75 289.1406,550.125 Q288.1563,549.625 287.4688,548.5625 Q286.7813,547.4844 286.7813,546.2031 L286.7813,545.0469 Q286.7813,543.7188 287.3906,542.5781 Q288.0156,541.4219 289.1094,540.8125 Q290.2031,540.1875 291.4375,540.1875 Q292.1719,540.1875 292.8125,540.3594 Q293.4688,540.5156 294.0156,540.875 Z " fill="#000000"/><text fill="#000000" font-family="sans-serif" font-size="12" lengthAdjust="spacing" textLength="109" x="311.75" y="549.9102">CustomerController</text><line style="stroke:#A80036;stroke-width:1.5;" x1="135.5" x2="564.5" y1="561" y2="561"/><line style="stroke:#A80036;stroke-width:1.5;" x1="135.5" x2="564.5" y1="569" y2="569"/><ellipse cx="145.5" cy="580" fill="#84BE84" rx="3" ry="3" style="stroke:#038048;stroke-width:1.0;"/><text fill="#000000" font-family="sans-serif" font-size="11" lengthAdjust="spacing" textLength="347" x="154.5" y="584.4189">ResponseEntity&lt;Customer&gt; getCustomerById(User currentUser, long id)</text><ellipse cx="145.5" cy="593.8359" fill="#84BE84" rx="3" ry="3" style="stroke:#038048;stroke-width:1.0;"/><text fill="#000000" font-family="sans-serif" font-size="11" lengthAdjust="spacing" textLength="284" x="154.5" y="598.2549">ResponseEntity&lt;List&lt;Customer&gt;&gt; getAll(User currentUser)</text><ellipse cx="145.5" cy="607.6719" fill="#84BE84" rx="3" ry="3" style="stroke:#038048;stroke-width:1.0;"/><text fill="#000000" font-family="sans-serif" font-size="11" lengthAdjust="spacing" textLength="405" x="154.5" y="612.0908">ResponseEntity&lt;Customer&gt; createCustomer(User currentUser, Customer customer)</text><!--MD5=[ba4b3a21b82b5b1922f6a1f65058143c]
class AccountController--><rect codeLine="33" fill="#FEFECE" filter="url(#f198d3e802c2mf)" height="103.3438" id="AccountController" style="stroke:#A80036;stroke-width:1.5;" width="444" x="122" y="787"/><ellipse cx="291.25" cy="803" fill="#ADD1B2" rx="11" ry="11" style="stroke:#A80036;stroke-width:1.0;"/><path d="M294.0156,798.875 Q294.1719,798.6563 294.3594,798.5469 Q294.5469,798.4375 294.7656,798.4375 Q295.1406,798.4375 295.375,798.7031 Q295.6094,798.9531 295.6094,799.5625 L295.6094,801.0156 Q295.6094,801.625 295.375,801.8906 Q295.1406,802.1563 294.7656,802.1563 Q294.4219,802.1563 294.2188,801.9531 Q294.0156,801.7656 293.9063,801.25 Q293.8594,800.8906 293.6719,800.7031 Q293.3438,800.3281 292.7344,800.1094 Q292.125,799.8906 291.5,799.8906 Q290.7344,799.8906 290.0938,800.2188 Q289.4688,800.5469 288.9688,801.2969 Q288.4844,802.0469 288.4844,803.0781 L288.4844,804.1719 Q288.4844,805.4063 289.375,806.2344 Q290.2656,807.0469 291.8594,807.0469 Q292.7969,807.0469 293.4531,806.7969 Q293.8438,806.6406 294.2656,806.2031 Q294.5313,805.9375 294.6719,805.8594 Q294.8281,805.7813 295.0313,805.7813 Q295.3594,805.7813 295.6094,806.0469 Q295.875,806.2969 295.875,806.6406 Q295.875,806.9844 295.5313,807.3906 Q295.0313,807.9688 294.2344,808.2969 Q293.1563,808.75 291.8594,808.75 Q290.3438,808.75 289.1406,808.125 Q288.1563,807.625 287.4688,806.5625 Q286.7813,805.4844 286.7813,804.2031 L286.7813,803.0469 Q286.7813,801.7188 287.3906,800.5781 Q288.0156,799.4219 289.1094,798.8125 Q290.2031,798.1875 291.4375,798.1875 Q292.1719,798.1875 292.8125,798.3594 Q293.4688,798.5156 294.0156,798.875 Z " fill="#000000"/><text fill="#000000" font-family="sans-serif" font-size="12" lengthAdjust="spacing" textLength="97" x="311.75" y="807.9102">AccountController</text><line style="stroke:#A80036;stroke-width:1.5;" x1="123" x2="565" y1="819" y2="819"/><line style="stroke:#A80036;stroke-width:1.5;" x1="123" x2="565" y1="827" y2="827"/><ellipse cx="133" cy="838" fill="#84BE84" rx="3" ry="3" style="stroke:#038048;stroke-width:1.0;"/><text fill="#000000" font-family="sans-serif" font-size="11" lengthAdjust="spacing" textLength="337" x="142" y="842.4189">ResponseEntity&lt;Account&gt; getAccountById(User currentUser, long id)</text><ellipse cx="133" cy="851.8359" fill="#84BE84" rx="3" ry="3" style="stroke:#038048;stroke-width:1.0;"/><text fill="#000000" font-family="sans-serif" font-size="11" lengthAdjust="spacing" textLength="279" x="142" y="856.2549">ResponseEntity&lt;List&lt;Account&gt;&gt; getAll(User currentUser)</text><ellipse cx="133" cy="865.6719" fill="#84BE84" rx="3" ry="3" style="stroke:#038048;stroke-width:1.0;"/><text fill="#000000" font-family="sans-serif" font-size="11" lengthAdjust="spacing" textLength="418" x="142" y="870.0908">ResponseEntity&lt;List&lt;Account&gt;&gt; getAccountsByCustomerId(User currentUser, long id)</text><ellipse cx="133" cy="879.5078" fill="#84BE84" rx="3" ry="3" style="stroke:#038048;stroke-width:1.0;"/><text fill="#000000" font-family="sans-serif" font-size="11" lengthAdjust="spacing" textLength="360" x="142" y="883.9268">ResponseEntity&lt;List&lt;Account&gt;&gt; getCustomerAccounts(User currentUser)</text><!--MD5=[73ad5e1502ea164349990f756202b7f3]
class TransactionController--><rect codeLine="40" fill="#FEFECE" filter="url(#f198d3e802c2mf)" height="48" id="TransactionController" style="stroke:#A80036;stroke-width:1.5;" width="151" x="414.5" y="1058"/><ellipse cx="429.5" cy="1074" fill="#ADD1B2" rx="11" ry="11" style="stroke:#A80036;stroke-width:1.0;"/><path d="M432.2656,1069.875 Q432.4219,1069.6563 432.6094,1069.5469 Q432.7969,1069.4375 433.0156,1069.4375 Q433.3906,1069.4375 433.625,1069.7031 Q433.8594,1069.9531 433.8594,1070.5625 L433.8594,1072.0156 Q433.8594,1072.625 433.625,1072.8906 Q433.3906,1073.1563 433.0156,1073.1563 Q432.6719,1073.1563 432.4688,1072.9531 Q432.2656,1072.7656 432.1563,1072.25 Q432.1094,1071.8906 431.9219,1071.7031 Q431.5938,1071.3281 430.9844,1071.1094 Q430.375,1070.8906 429.75,1070.8906 Q428.9844,1070.8906 428.3438,1071.2188 Q427.7188,1071.5469 427.2188,1072.2969 Q426.7344,1073.0469 426.7344,1074.0781 L426.7344,1075.1719 Q426.7344,1076.4063 427.625,1077.2344 Q428.5156,1078.0469 430.1094,1078.0469 Q431.0469,1078.0469 431.7031,1077.7969 Q432.0938,1077.6406 432.5156,1077.2031 Q432.7813,1076.9375 432.9219,1076.8594 Q433.0781,1076.7813 433.2813,1076.7813 Q433.6094,1076.7813 433.8594,1077.0469 Q434.125,1077.2969 434.125,1077.6406 Q434.125,1077.9844 433.7813,1078.3906 Q433.2813,1078.9688 432.4844,1079.2969 Q431.4063,1079.75 430.1094,1079.75 Q428.5938,1079.75 427.3906,1079.125 Q426.4063,1078.625 425.7188,1077.5625 Q425.0313,1076.4844 425.0313,1075.2031 L425.0313,1074.0469 Q425.0313,1072.7188 425.6406,1071.5781 Q426.2656,1070.4219 427.3594,1069.8125 Q428.4531,1069.1875 429.6875,1069.1875 Q430.4219,1069.1875 431.0625,1069.3594 Q431.7188,1069.5156 432.2656,1069.875 Z " fill="#000000"/><text fill="#000000" font-family="sans-serif" font-size="12" lengthAdjust="spacing" textLength="119" x="443.5" y="1078.9102">TransactionController</text><line style="stroke:#A80036;stroke-width:1.5;" x1="415.5" x2="564.5" y1="1090" y2="1090"/><line style="stroke:#A80036;stroke-width:1.5;" x1="415.5" x2="564.5" y1="1098" y2="1098"/><!--MD5=[f670c4435da7dbe3aa41092c51f6f29f]
class TransferController--><rect codeLine="43" fill="#FEFECE" filter="url(#f198d3e802c2mf)" height="48" id="TransferController" style="stroke:#A80036;stroke-width:1.5;" width="132" x="431" y="1274"/><ellipse cx="446" cy="1290" fill="#ADD1B2" rx="11" ry="11" style="stroke:#A80036;stroke-width:1.0;"/><path d="M448.7656,1285.875 Q448.9219,1285.6563 449.1094,1285.5469 Q449.2969,1285.4375 449.5156,1285.4375 Q449.8906,1285.4375 450.125,1285.7031 Q450.3594,1285.9531 450.3594,1286.5625 L450.3594,1288.0156 Q450.3594,1288.625 450.125,1288.8906 Q449.8906,1289.1563 449.5156,1289.1563 Q449.1719,1289.1563 448.9688,1288.9531 Q448.7656,1288.7656 448.6563,1288.25 Q448.6094,1287.8906 448.4219,1287.7031 Q448.0938,1287.3281 447.4844,1287.1094 Q446.875,1286.8906 446.25,1286.8906 Q445.4844,1286.8906 444.8438,1287.2188 Q444.2188,1287.5469 443.7188,1288.2969 Q443.2344,1289.0469 443.2344,1290.0781 L443.2344,1291.1719 Q443.2344,1292.4063 444.125,1293.2344 Q445.0156,1294.0469 446.6094,1294.0469 Q447.5469,1294.0469 448.2031,1293.7969 Q448.5938,1293.6406 449.0156,1293.2031 Q449.2813,1292.9375 449.4219,1292.8594 Q449.5781,1292.7813 449.7813,1292.7813 Q450.1094,1292.7813 450.3594,1293.0469 Q450.625,1293.2969 450.625,1293.6406 Q450.625,1293.9844 450.2813,1294.3906 Q449.7813,1294.9688 448.9844,1295.2969 Q447.9063,1295.75 446.6094,1295.75 Q445.0938,1295.75 443.8906,1295.125 Q442.9063,1294.625 442.2188,1293.5625 Q441.5313,1292.4844 441.5313,1291.2031 L441.5313,1290.0469 Q441.5313,1288.7188 442.1406,1287.5781 Q442.7656,1286.4219 443.8594,1285.8125 Q444.9531,1285.1875 446.1875,1285.1875 Q446.9219,1285.1875 447.5625,1285.3594 Q448.2188,1285.5156 448.7656,1285.875 Z " fill="#000000"/><text fill="#000000" font-family="sans-serif" font-size="12" lengthAdjust="spacing" textLength="100" x="460" y="1294.9102">TransferController</text><line style="stroke:#A80036;stroke-width:1.5;" x1="432" x2="562" y1="1306" y2="1306"/><line style="stroke:#A80036;stroke-width:1.5;" x1="432" x2="562" y1="1314" y2="1314"/><!--MD5=[3fd616f346a44cd59a91eb10b19e157c]
class User--><rect codeLine="48" fill="#FEFECE" filter="url(#f198d3e802c2mf)" height="48" id="User" style="stroke:#A80036;stroke-width:1.5;" width="59" x="622.5" y="61"/><ellipse cx="637.5" cy="77" fill="#ADD1B2" rx="11" ry="11" style="stroke:#A80036;stroke-width:1.0;"/><path d="M640.2656,72.875 Q640.4219,72.6563 640.6094,72.5469 Q640.7969,72.4375 641.0156,72.4375 Q641.3906,72.4375 641.625,72.7031 Q641.8594,72.9531 641.8594,73.5625 L641.8594,75.0156 Q641.8594,75.625 641.625,75.8906 Q641.3906,76.1563 641.0156,76.1563 Q640.6719,76.1563 640.4688,75.9531 Q640.2656,75.7656 640.1563,75.25 Q640.1094,74.8906 639.9219,74.7031 Q639.5938,74.3281 638.9844,74.1094 Q638.375,73.8906 637.75,73.8906 Q636.9844,73.8906 636.3438,74.2188 Q635.7188,74.5469 635.2188,75.2969 Q634.7344,76.0469 634.7344,77.0781 L634.7344,78.1719 Q634.7344,79.4063 635.625,80.2344 Q636.5156,81.0469 638.1094,81.0469 Q639.0469,81.0469 639.7031,80.7969 Q640.0938,80.6406 640.5156,80.2031 Q640.7813,79.9375 640.9219,79.8594 Q641.0781,79.7813 641.2813,79.7813 Q641.6094,79.7813 641.8594,80.0469 Q642.125,80.2969 642.125,80.6406 Q642.125,80.9844 641.7813,81.3906 Q641.2813,81.9688 640.4844,82.2969 Q639.4063,82.75 638.1094,82.75 Q636.5938,82.75 635.3906,82.125 Q634.4063,81.625 633.7188,80.5625 Q633.0313,79.4844 633.0313,78.2031 L633.0313,77.0469 Q633.0313,75.7188 633.6406,74.5781 Q634.2656,73.4219 635.3594,72.8125 Q636.4531,72.1875 637.6875,72.1875 Q638.4219,72.1875 639.0625,72.3594 Q639.7188,72.5156 640.2656,72.875 Z " fill="#000000"/><text fill="#000000" font-family="sans-serif" font-size="12" lengthAdjust="spacing" textLength="27" x="651.5" y="81.9102">User</text><line style="stroke:#A80036;stroke-width:1.5;" x1="623.5" x2="680.5" y1="93" y2="93"/><line style="stroke:#A80036;stroke-width:1.5;" x1="623.5" x2="680.5" y1="101" y2="101"/><!--MD5=[a3638c1e5b65d287ecad7f06f5c0f212]
class Role--><rect codeLine="49" fill="#FEFECE" filter="url(#f198d3e802c2mf)" height="48" id="Role" style="stroke:#A80036;stroke-width:1.5;" width="58" x="623" y="169"/><ellipse cx="638" cy="185" fill="#EB937F" rx="11" ry="11" style="stroke:#A80036;stroke-width:1.0;"/><path d="M636.8594,185.7969 L636.8594,188.2969 L641.1875,188.2969 L641.1875,187.375 Q641.1875,186.7656 641.4219,186.5 Q641.6719,186.2344 642.0469,186.2344 Q642.4219,186.2344 642.6563,186.5 Q642.8906,186.7656 642.8906,187.375 L642.8906,190 L634.8906,190 Q634.2656,190 634,189.7656 Q633.75,189.5313 633.75,189.1406 Q633.75,188.7656 634.0156,188.5313 Q634.2813,188.2969 634.8906,188.2969 L635.1563,188.2969 L635.1563,181.6406 L634.8906,181.6406 Q634.2656,181.6406 634,181.4063 Q633.75,181.1719 633.75,180.7813 Q633.75,180.4063 634,180.1719 Q634.2656,179.9375 634.8906,179.9375 L642.5156,179.9375 L642.5156,182.5313 Q642.5156,183.1406 642.2813,183.4063 Q642.0625,183.6563 641.6719,183.6563 Q641.2969,183.6563 641.0625,183.4063 Q640.8281,183.1406 640.8281,182.5313 L640.8281,181.6406 L636.8594,181.6406 L636.8594,184.0938 L638.3438,184.0938 Q638.3438,183.4375 638.4688,183.25 Q638.7344,182.8438 639.2031,182.8438 Q639.5781,182.8438 639.8125,183.1094 Q640.0469,183.3594 640.0469,183.9688 L640.0469,185.9375 Q640.0469,186.4844 639.9219,186.6719 Q639.6563,187.0625 639.2031,187.0625 Q638.7344,187.0625 638.4688,186.6563 Q638.3438,186.4688 638.3438,185.7969 L636.8594,185.7969 Z " fill="#000000"/><text fill="#000000" font-family="sans-serif" font-size="12" lengthAdjust="spacing" textLength="26" x="652" y="189.9102">Role</text><line style="stroke:#A80036;stroke-width:1.5;" x1="624" x2="680" y1="201" y2="201"/><line style="stroke:#A80036;stroke-width:1.5;" x1="624" x2="680" y1="209" y2="209"/><!--MD5=[24add822970012a00cd97a40cd79feff]
class UserManager--><rect codeLine="50" fill="#FEFECE" filter="url(#f198d3e802c2mf)" height="48" id="UserManager" style="stroke:#A80036;stroke-width:1.5;" width="107" x="622.5" y="318.5"/><ellipse cx="637.5" cy="334.5" fill="#ADD1B2" rx="11" ry="11" style="stroke:#A80036;stroke-width:1.0;"/><path d="M640.2656,330.375 Q640.4219,330.1563 640.6094,330.0469 Q640.7969,329.9375 641.0156,329.9375 Q641.3906,329.9375 641.625,330.2031 Q641.8594,330.4531 641.8594,331.0625 L641.8594,332.5156 Q641.8594,333.125 641.625,333.3906 Q641.3906,333.6563 641.0156,333.6563 Q640.6719,333.6563 640.4688,333.4531 Q640.2656,333.2656 640.1563,332.75 Q640.1094,332.3906 639.9219,332.2031 Q639.5938,331.8281 638.9844,331.6094 Q638.375,331.3906 637.75,331.3906 Q636.9844,331.3906 636.3438,331.7188 Q635.7188,332.0469 635.2188,332.7969 Q634.7344,333.5469 634.7344,334.5781 L634.7344,335.6719 Q634.7344,336.9063 635.625,337.7344 Q636.5156,338.5469 638.1094,338.5469 Q639.0469,338.5469 639.7031,338.2969 Q640.0938,338.1406 640.5156,337.7031 Q640.7813,337.4375 640.9219,337.3594 Q641.0781,337.2813 641.2813,337.2813 Q641.6094,337.2813 641.8594,337.5469 Q642.125,337.7969 642.125,338.1406 Q642.125,338.4844 641.7813,338.8906 Q641.2813,339.4688 640.4844,339.7969 Q639.4063,340.25 638.1094,340.25 Q636.5938,340.25 635.3906,339.625 Q634.4063,339.125 633.7188,338.0625 Q633.0313,336.9844 633.0313,335.7031 L633.0313,334.5469 Q633.0313,333.2188 633.6406,332.0781 Q634.2656,330.9219 635.3594,330.3125 Q636.4531,329.6875 637.6875,329.6875 Q638.4219,329.6875 639.0625,329.8594 Q639.7188,330.0156 640.2656,330.375 Z " fill="#000000"/><text fill="#000000" font-family="sans-serif" font-size="12" lengthAdjust="spacing" textLength="75" x="651.5" y="339.4102">UserManager</text><line style="stroke:#A80036;stroke-width:1.5;" x1="623.5" x2="728.5" y1="350.5" y2="350.5"/><line style="stroke:#A80036;stroke-width:1.5;" x1="623.5" x2="728.5" y1="358.5" y2="358.5"/><!--MD5=[f0038396a8717327c40983dd0a817a23]
class CustomerManager--><rect codeLine="51" fill="#FEFECE" filter="url(#f198d3e802c2mf)" height="48" id="CustomerManager" style="stroke:#A80036;stroke-width:1.5;" width="135" x="622.5" y="550"/><ellipse cx="637.5" cy="566" fill="#ADD1B2" rx="11" ry="11" style="stroke:#A80036;stroke-width:1.0;"/><path d="M640.2656,561.875 Q640.4219,561.6563 640.6094,561.5469 Q640.7969,561.4375 641.0156,561.4375 Q641.3906,561.4375 641.625,561.7031 Q641.8594,561.9531 641.8594,562.5625 L641.8594,564.0156 Q641.8594,564.625 641.625,564.8906 Q641.3906,565.1563 641.0156,565.1563 Q640.6719,565.1563 640.4688,564.9531 Q640.2656,564.7656 640.1563,564.25 Q640.1094,563.8906 639.9219,563.7031 Q639.5938,563.3281 638.9844,563.1094 Q638.375,562.8906 637.75,562.8906 Q636.9844,562.8906 636.3438,563.2188 Q635.7188,563.5469 635.2188,564.2969 Q634.7344,565.0469 634.7344,566.0781 L634.7344,567.1719 Q634.7344,568.4063 635.625,569.2344 Q636.5156,570.0469 638.1094,570.0469 Q639.0469,570.0469 639.7031,569.7969 Q640.0938,569.6406 640.5156,569.2031 Q640.7813,568.9375 640.9219,568.8594 Q641.0781,568.7813 641.2813,568.7813 Q641.6094,568.7813 641.8594,569.0469 Q642.125,569.2969 642.125,569.6406 Q642.125,569.9844 641.7813,570.3906 Q641.2813,570.9688 640.4844,571.2969 Q639.4063,571.75 638.1094,571.75 Q636.5938,571.75 635.3906,571.125 Q634.4063,570.625 633.7188,569.5625 Q633.0313,568.4844 633.0313,567.2031 L633.0313,566.0469 Q633.0313,564.7188 633.6406,563.5781 Q634.2656,562.4219 635.3594,561.8125 Q636.4531,561.1875 637.6875,561.1875 Q638.4219,561.1875 639.0625,561.3594 Q639.7188,561.5156 640.2656,561.875 Z " fill="#000000"/><text fill="#000000" font-family="sans-serif" font-size="12" lengthAdjust="spacing" textLength="103" x="651.5" y="570.9102">CustomerManager</text><line style="stroke:#A80036;stroke-width:1.5;" x1="623.5" x2="756.5" y1="582" y2="582"/><line style="stroke:#A80036;stroke-width:1.5;" x1="623.5" x2="756.5" y1="590" y2="590"/><!--MD5=[2ce0c9fb7f55b1e256ab28a8ea6b25ec]
class Customer--><rect codeLine="52" fill="#FEFECE" filter="url(#f198d3e802c2mf)" height="48" id="Customer" style="stroke:#A80036;stroke-width:1.5;" width="87" x="640.5" y="679"/><ellipse cx="655.5" cy="695" fill="#ADD1B2" rx="11" ry="11" style="stroke:#A80036;stroke-width:1.0;"/><path d="M658.2656,690.875 Q658.4219,690.6563 658.6094,690.5469 Q658.7969,690.4375 659.0156,690.4375 Q659.3906,690.4375 659.625,690.7031 Q659.8594,690.9531 659.8594,691.5625 L659.8594,693.0156 Q659.8594,693.625 659.625,693.8906 Q659.3906,694.1563 659.0156,694.1563 Q658.6719,694.1563 658.4688,693.9531 Q658.2656,693.7656 658.1563,693.25 Q658.1094,692.8906 657.9219,692.7031 Q657.5938,692.3281 656.9844,692.1094 Q656.375,691.8906 655.75,691.8906 Q654.9844,691.8906 654.3438,692.2188 Q653.7188,692.5469 653.2188,693.2969 Q652.7344,694.0469 652.7344,695.0781 L652.7344,696.1719 Q652.7344,697.4063 653.625,698.2344 Q654.5156,699.0469 656.1094,699.0469 Q657.0469,699.0469 657.7031,698.7969 Q658.0938,698.6406 658.5156,698.2031 Q658.7813,697.9375 658.9219,697.8594 Q659.0781,697.7813 659.2813,697.7813 Q659.6094,697.7813 659.8594,698.0469 Q660.125,698.2969 660.125,698.6406 Q660.125,698.9844 659.7813,699.3906 Q659.2813,699.9688 658.4844,700.2969 Q657.4063,700.75 656.1094,700.75 Q654.5938,700.75 653.3906,700.125 Q652.4063,699.625 651.7188,698.5625 Q651.0313,697.4844 651.0313,696.2031 L651.0313,695.0469 Q651.0313,693.7188 651.6406,692.5781 Q652.2656,691.4219 653.3594,690.8125 Q654.4531,690.1875 655.6875,690.1875 Q656.4219,690.1875 657.0625,690.3594 Q657.7188,690.5156 658.2656,690.875 Z " fill="#000000"/><text fill="#000000" font-family="sans-serif" font-size="12" lengthAdjust="spacing" textLength="55" x="669.5" y="699.9102">Customer</text><line style="stroke:#A80036;stroke-width:1.5;" x1="641.5" x2="726.5" y1="711" y2="711"/><line style="stroke:#A80036;stroke-width:1.5;" x1="641.5" x2="726.5" y1="719" y2="719"/><!--MD5=[6007011eca2e8fa8fa5ff82c58f58b50]
class AccountManager--><rect codeLine="53" fill="#FEFECE" filter="url(#f198d3e802c2mf)" height="48" id="AccountManager" style="stroke:#A80036;stroke-width:1.5;" width="123" x="622.5" y="814.5"/><ellipse cx="637.5" cy="830.5" fill="#ADD1B2" rx="11" ry="11" style="stroke:#A80036;stroke-width:1.0;"/><path d="M640.2656,826.375 Q640.4219,826.1563 640.6094,826.0469 Q640.7969,825.9375 641.0156,825.9375 Q641.3906,825.9375 641.625,826.2031 Q641.8594,826.4531 641.8594,827.0625 L641.8594,828.5156 Q641.8594,829.125 641.625,829.3906 Q641.3906,829.6563 641.0156,829.6563 Q640.6719,829.6563 640.4688,829.4531 Q640.2656,829.2656 640.1563,828.75 Q640.1094,828.3906 639.9219,828.2031 Q639.5938,827.8281 638.9844,827.6094 Q638.375,827.3906 637.75,827.3906 Q636.9844,827.3906 636.3438,827.7188 Q635.7188,828.0469 635.2188,828.7969 Q634.7344,829.5469 634.7344,830.5781 L634.7344,831.6719 Q634.7344,832.9063 635.625,833.7344 Q636.5156,834.5469 638.1094,834.5469 Q639.0469,834.5469 639.7031,834.2969 Q640.0938,834.1406 640.5156,833.7031 Q640.7813,833.4375 640.9219,833.3594 Q641.0781,833.2813 641.2813,833.2813 Q641.6094,833.2813 641.8594,833.5469 Q642.125,833.7969 642.125,834.1406 Q642.125,834.4844 641.7813,834.8906 Q641.2813,835.4688 640.4844,835.7969 Q639.4063,836.25 638.1094,836.25 Q636.5938,836.25 635.3906,835.625 Q634.4063,835.125 633.7188,834.0625 Q633.0313,832.9844 633.0313,831.7031 L633.0313,830.5469 Q633.0313,829.2188 633.6406,828.0781 Q634.2656,826.9219 635.3594,826.3125 Q636.4531,825.6875 637.6875,825.6875 Q638.4219,825.6875 639.0625,825.8594 Q639.7188,826.0156 640.2656,826.375 Z " fill="#000000"/><text fill="#000000" font-family="sans-serif" font-size="12" lengthAdjust="spacing" textLength="91" x="651.5" y="835.4102">AccountManager</text><line style="stroke:#A80036;stroke-width:1.5;" x1="623.5" x2="744.5" y1="846.5" y2="846.5"/><line style="stroke:#A80036;stroke-width:1.5;" x1="623.5" x2="744.5" y1="854.5" y2="854.5"/><!--MD5=[f9a29335b499db729be669fd1bd54958]
class Account--><rect codeLine="54" fill="#FEFECE" filter="url(#f198d3e802c2mf)" height="48" id="Account" style="stroke:#A80036;stroke-width:1.5;" width="75" x="646.5" y="950"/><ellipse cx="661.5" cy="966" fill="#ADD1B2" rx="11" ry="11" style="stroke:#A80036;stroke-width:1.0;"/><path d="M664.2656,961.875 Q664.4219,961.6563 664.6094,961.5469 Q664.7969,961.4375 665.0156,961.4375 Q665.3906,961.4375 665.625,961.7031 Q665.8594,961.9531 665.8594,962.5625 L665.8594,964.0156 Q665.8594,964.625 665.625,964.8906 Q665.3906,965.1563 665.0156,965.1563 Q664.6719,965.1563 664.4688,964.9531 Q664.2656,964.7656 664.1563,964.25 Q664.1094,963.8906 663.9219,963.7031 Q663.5938,963.3281 662.9844,963.1094 Q662.375,962.8906 661.75,962.8906 Q660.9844,962.8906 660.3438,963.2188 Q659.7188,963.5469 659.2188,964.2969 Q658.7344,965.0469 658.7344,966.0781 L658.7344,967.1719 Q658.7344,968.4063 659.625,969.2344 Q660.5156,970.0469 662.1094,970.0469 Q663.0469,970.0469 663.7031,969.7969 Q664.0938,969.6406 664.5156,969.2031 Q664.7813,968.9375 664.9219,968.8594 Q665.0781,968.7813 665.2813,968.7813 Q665.6094,968.7813 665.8594,969.0469 Q666.125,969.2969 666.125,969.6406 Q666.125,969.9844 665.7813,970.3906 Q665.2813,970.9688 664.4844,971.2969 Q663.4063,971.75 662.1094,971.75 Q660.5938,971.75 659.3906,971.125 Q658.4063,970.625 657.7188,969.5625 Q657.0313,968.4844 657.0313,967.2031 L657.0313,966.0469 Q657.0313,964.7188 657.6406,963.5781 Q658.2656,962.4219 659.3594,961.8125 Q660.4531,961.1875 661.6875,961.1875 Q662.4219,961.1875 663.0625,961.3594 Q663.7188,961.5156 664.2656,961.875 Z " fill="#000000"/><text fill="#000000" font-family="sans-serif" font-size="12" lengthAdjust="spacing" textLength="43" x="675.5" y="970.9102">Account</text><line style="stroke:#A80036;stroke-width:1.5;" x1="647.5" x2="720.5" y1="982" y2="982"/><line style="stroke:#A80036;stroke-width:1.5;" x1="647.5" x2="720.5" y1="990" y2="990"/><!--MD5=[e53526c0f050b9edca6a8358e072d9e5]
class TransactionManager--><rect codeLine="55" fill="#FEFECE" filter="url(#f198d3e802c2mf)" height="48" id="TransactionManager" style="stroke:#A80036;stroke-width:1.5;" width="145" x="622.5" y="1058"/><ellipse cx="637.5" cy="1074" fill="#ADD1B2" rx="11" ry="11" style="stroke:#A80036;stroke-width:1.0;"/><path d="M640.2656,1069.875 Q640.4219,1069.6563 640.6094,1069.5469 Q640.7969,1069.4375 641.0156,1069.4375 Q641.3906,1069.4375 641.625,1069.7031 Q641.8594,1069.9531 641.8594,1070.5625 L641.8594,1072.0156 Q641.8594,1072.625 641.625,1072.8906 Q641.3906,1073.1563 641.0156,1073.1563 Q640.6719,1073.1563 640.4688,1072.9531 Q640.2656,1072.7656 640.1563,1072.25 Q640.1094,1071.8906 639.9219,1071.7031 Q639.5938,1071.3281 638.9844,1071.1094 Q638.375,1070.8906 637.75,1070.8906 Q636.9844,1070.8906 636.3438,1071.2188 Q635.7188,1071.5469 635.2188,1072.2969 Q634.7344,1073.0469 634.7344,1074.0781 L634.7344,1075.1719 Q634.7344,1076.4063 635.625,1077.2344 Q636.5156,1078.0469 638.1094,1078.0469 Q639.0469,1078.0469 639.7031,1077.7969 Q640.0938,1077.6406 640.5156,1077.2031 Q640.7813,1076.9375 640.9219,1076.8594 Q641.0781,1076.7813 641.2813,1076.7813 Q641.6094,1076.7813 641.8594,1077.0469 Q642.125,1077.2969 642.125,1077.6406 Q642.125,1077.9844 641.7813,1078.3906 Q641.2813,1078.9688 640.4844,1079.2969 Q639.4063,1079.75 638.1094,1079.75 Q636.5938,1079.75 635.3906,1079.125 Q634.4063,1078.625 633.7188,1077.5625 Q633.0313,1076.4844 633.0313,1075.2031 L633.0313,1074.0469 Q633.0313,1072.7188 633.6406,1071.5781 Q634.2656,1070.4219 635.3594,1069.8125 Q636.4531,1069.1875 637.6875,1069.1875 Q638.4219,1069.1875 639.0625,1069.3594 Q639.7188,1069.5156 640.2656,1069.875 Z " fill="#000000"/><text fill="#000000" font-family="sans-serif" font-size="12" lengthAdjust="spacing" textLength="113" x="651.5" y="1078.9102">TransactionManager</text><line style="stroke:#A80036;stroke-width:1.5;" x1="623.5" x2="766.5" y1="1090" y2="1090"/><line style="stroke:#A80036;stroke-width:1.5;" x1="623.5" x2="766.5" y1="1098" y2="1098"/><!--MD5=[4555bb1b0911a5adf28ce6dbe60fed2e]
class Transaction--><rect codeLine="56" fill="#FEFECE" filter="url(#f198d3e802c2mf)" height="48" id="Transaction" style="stroke:#A80036;stroke-width:1.5;" width="97" x="636.5" y="1166"/><ellipse cx="651.5" cy="1182" fill="#ADD1B2" rx="11" ry="11" style="stroke:#A80036;stroke-width:1.0;"/><path d="M654.2656,1177.875 Q654.4219,1177.6563 654.6094,1177.5469 Q654.7969,1177.4375 655.0156,1177.4375 Q655.3906,1177.4375 655.625,1177.7031 Q655.8594,1177.9531 655.8594,1178.5625 L655.8594,1180.0156 Q655.8594,1180.625 655.625,1180.8906 Q655.3906,1181.1563 655.0156,1181.1563 Q654.6719,1181.1563 654.4688,1180.9531 Q654.2656,1180.7656 654.1563,1180.25 Q654.1094,1179.8906 653.9219,1179.7031 Q653.5938,1179.3281 652.9844,1179.1094 Q652.375,1178.8906 651.75,1178.8906 Q650.9844,1178.8906 650.3438,1179.2188 Q649.7188,1179.5469 649.2188,1180.2969 Q648.7344,1181.0469 648.7344,1182.0781 L648.7344,1183.1719 Q648.7344,1184.4063 649.625,1185.2344 Q650.5156,1186.0469 652.1094,1186.0469 Q653.0469,1186.0469 653.7031,1185.7969 Q654.0938,1185.6406 654.5156,1185.2031 Q654.7813,1184.9375 654.9219,1184.8594 Q655.0781,1184.7813 655.2813,1184.7813 Q655.6094,1184.7813 655.8594,1185.0469 Q656.125,1185.2969 656.125,1185.6406 Q656.125,1185.9844 655.7813,1186.3906 Q655.2813,1186.9688 654.4844,1187.2969 Q653.4063,1187.75 652.1094,1187.75 Q650.5938,1187.75 649.3906,1187.125 Q648.4063,1186.625 647.7188,1185.5625 Q647.0313,1184.4844 647.0313,1183.2031 L647.0313,1182.0469 Q647.0313,1180.7188 647.6406,1179.5781 Q648.2656,1178.4219 649.3594,1177.8125 Q650.4531,1177.1875 651.6875,1177.1875 Q652.4219,1177.1875 653.0625,1177.3594 Q653.7188,1177.5156 654.2656,1177.875 Z " fill="#000000"/><text fill="#000000" font-family="sans-serif" font-size="12" lengthAdjust="spacing" textLength="65" x="665.5" y="1186.9102">Transaction</text><line style="stroke:#A80036;stroke-width:1.5;" x1="637.5" x2="732.5" y1="1198" y2="1198"/><line style="stroke:#A80036;stroke-width:1.5;" x1="637.5" x2="732.5" y1="1206" y2="1206"/><!--MD5=[dd16168fc711c6a2afc257d469fa0498]
class TransferManager--><rect codeLine="57" fill="#FEFECE" filter="url(#f198d3e802c2mf)" height="48" id="TransferManager" style="stroke:#A80036;stroke-width:1.5;" width="126" x="622" y="1274"/><ellipse cx="637" cy="1290" fill="#ADD1B2" rx="11" ry="11" style="stroke:#A80036;stroke-width:1.0;"/><path d="M639.7656,1285.875 Q639.9219,1285.6563 640.1094,1285.5469 Q640.2969,1285.4375 640.5156,1285.4375 Q640.8906,1285.4375 641.125,1285.7031 Q641.3594,1285.9531 641.3594,1286.5625 L641.3594,1288.0156 Q641.3594,1288.625 641.125,1288.8906 Q640.8906,1289.1563 640.5156,1289.1563 Q640.1719,1289.1563 639.9688,1288.9531 Q639.7656,1288.7656 639.6563,1288.25 Q639.6094,1287.8906 639.4219,1287.7031 Q639.0938,1287.3281 638.4844,1287.1094 Q637.875,1286.8906 637.25,1286.8906 Q636.4844,1286.8906 635.8438,1287.2188 Q635.2188,1287.5469 634.7188,1288.2969 Q634.2344,1289.0469 634.2344,1290.0781 L634.2344,1291.1719 Q634.2344,1292.4063 635.125,1293.2344 Q636.0156,1294.0469 637.6094,1294.0469 Q638.5469,1294.0469 639.2031,1293.7969 Q639.5938,1293.6406 640.0156,1293.2031 Q640.2813,1292.9375 640.4219,1292.8594 Q640.5781,1292.7813 640.7813,1292.7813 Q641.1094,1292.7813 641.3594,1293.0469 Q641.625,1293.2969 641.625,1293.6406 Q641.625,1293.9844 641.2813,1294.3906 Q640.7813,1294.9688 639.9844,1295.2969 Q638.9063,1295.75 637.6094,1295.75 Q636.0938,1295.75 634.8906,1295.125 Q633.9063,1294.625 633.2188,1293.5625 Q632.5313,1292.4844 632.5313,1291.2031 L632.5313,1290.0469 Q632.5313,1288.7188 633.1406,1287.5781 Q633.7656,1286.4219 634.8594,1285.8125 Q635.9531,1285.1875 637.1875,1285.1875 Q637.9219,1285.1875 638.5625,1285.3594 Q639.2188,1285.5156 639.7656,1285.875 Z " fill="#000000"/><text fill="#000000" font-family="sans-serif" font-size="12" lengthAdjust="spacing" textLength="94" x="651" y="1294.9102">TransferManager</text><line style="stroke:#A80036;stroke-width:1.5;" x1="623" x2="747" y1="1306" y2="1306"/><line style="stroke:#A80036;stroke-width:1.5;" x1="623" x2="747" y1="1314" y2="1314"/><!--MD5=[02f52dd76b6d93c484e98adf8cb1a92d]
class Transfer--><rect codeLine="58" fill="#FEFECE" filter="url(#f198d3e802c2mf)" height="48" id="Transfer" style="stroke:#A80036;stroke-width:1.5;" width="78" x="634" y="1382"/><ellipse cx="649" cy="1398" fill="#ADD1B2" rx="11" ry="11" style="stroke:#A80036;stroke-width:1.0;"/><path d="M651.7656,1393.875 Q651.9219,1393.6563 652.1094,1393.5469 Q652.2969,1393.4375 652.5156,1393.4375 Q652.8906,1393.4375 653.125,1393.7031 Q653.3594,1393.9531 653.3594,1394.5625 L653.3594,1396.0156 Q653.3594,1396.625 653.125,1396.8906 Q652.8906,1397.1563 652.5156,1397.1563 Q652.1719,1397.1563 651.9688,1396.9531 Q651.7656,1396.7656 651.6563,1396.25 Q651.6094,1395.8906 651.4219,1395.7031 Q651.0938,1395.3281 650.4844,1395.1094 Q649.875,1394.8906 649.25,1394.8906 Q648.4844,1394.8906 647.8438,1395.2188 Q647.2188,1395.5469 646.7188,1396.2969 Q646.2344,1397.0469 646.2344,1398.0781 L646.2344,1399.1719 Q646.2344,1400.4063 647.125,1401.2344 Q648.0156,1402.0469 649.6094,1402.0469 Q650.5469,1402.0469 651.2031,1401.7969 Q651.5938,1401.6406 652.0156,1401.2031 Q652.2813,1400.9375 652.4219,1400.8594 Q652.5781,1400.7813 652.7813,1400.7813 Q653.1094,1400.7813 653.3594,1401.0469 Q653.625,1401.2969 653.625,1401.6406 Q653.625,1401.9844 653.2813,1402.3906 Q652.7813,1402.9688 651.9844,1403.2969 Q650.9063,1403.75 649.6094,1403.75 Q648.0938,1403.75 646.8906,1403.125 Q645.9063,1402.625 645.2188,1401.5625 Q644.5313,1400.4844 644.5313,1399.2031 L644.5313,1398.0469 Q644.5313,1396.7188 645.1406,1395.5781 Q645.7656,1394.4219 646.8594,1393.8125 Q647.9531,1393.1875 649.1875,1393.1875 Q649.9219,1393.1875 650.5625,1393.3594 Q651.2188,1393.5156 651.7656,1393.875 Z " fill="#000000"/><text fill="#000000" font-family="sans-serif" font-size="12" lengthAdjust="spacing" textLength="46" x="663" y="1402.9102">Transfer</text><line style="stroke:#A80036;stroke-width:1.5;" x1="635" x2="711" y1="1414" y2="1414"/><line style="stroke:#A80036;stroke-width:1.5;" x1="635" x2="711" y1="1422" y2="1422"/><!--MD5=[5a58a3c9f2a63d50a7d76e4c4f9f6877]
link Controller to User--><path codeLine="61" d="M253.16,85 C374.56,85 495.96,85 617.35,85 " fill="none" id="Controller-to-User" style="stroke:#A80036;stroke-width:1.0;"/><polygon fill="#A80036" points="622.4,85,613.4,81,617.4,85,613.4,89,622.4,85" style="stroke:#A80036;stroke-width:1.0;"/><!--MD5=[a612438f26c190de08de708f514889fa]
link Controller to Role--><path codeLine="62" d="M253.02,94.17 C322.64,107.72 464.13,136.57 582,169 C593.87,172.27 606.71,176.33 618.11,180.12 " fill="none" id="Controller-to-Role" style="stroke:#A80036;stroke-width:1.0;"/><polygon fill="#A80036" points="622.9,181.73,615.6328,175.0826,618.158,180.1446,613.0961,182.6698,622.9,181.73" style="stroke:#A80036;stroke-width:1.0;"/><!--MD5=[23dbcb00f89abcba44525fb7e512fb02]
link Controller to UserController--><!--MD5=[f2be55d3c0fcc5ca5f5b73b86cf930c5]
reverse link Controller to UserController--><path codeLine="83" d="M244.44,125.4 C273.24,165.77 313.07,229.19 339.97,276.9 " fill="none" id="Controller-backto-UserController" style="stroke:#A80036;stroke-width:1.0;"/><polygon fill="none" points="238.68,129.38,232.46,109.12,249.95,121.08,238.68,129.38" style="stroke:#A80036;stroke-width:1.0;"/><!--MD5=[476a0fee8ce402880a79b33f109616b2]
link UserController to UserManager--><path codeLine="65" d="M555.09,342.5 C575.7,342.5 596.31,342.5 616.92,342.5 " fill="none" id="UserController-to-UserManager" style="stroke:#A80036;stroke-width:1.0;"/><polygon fill="#A80036" points="622.16,342.5,613.16,338.5,617.16,342.5,613.16,346.5,622.16,342.5" style="stroke:#A80036;stroke-width:1.0;"/><!--MD5=[0ffbee903726b0d74321d0ce50008020]
link UserController to CustomerController--><!--MD5=[ca37d7b23beb2306eb7b6d2e43219ca3]
link CustomerController to CustomerManager--><path codeLine="68" d="M565.82,574 C582.82,574 599.82,574 616.81,574 " fill="none" id="CustomerController-to-CustomerManager" style="stroke:#A80036;stroke-width:1.0;"/><polygon fill="#A80036" points="622.09,574,613.09,570,617.09,574,613.09,578,622.09,574" style="stroke:#A80036;stroke-width:1.0;"/><!--MD5=[b9fabefa485d7ee65587dff11fc0f6d7]
link CustomerController to Customer--><path codeLine="69" d="M465.88,619.06 C524.05,641.18 591.38,666.78 635.67,683.62 " fill="none" id="CustomerController-to-Customer" style="stroke:#A80036;stroke-width:1.0;"/><polygon fill="#A80036" points="640.42,685.43,633.423,678.4988,635.7448,683.6572,630.5865,685.979,640.42,685.43" style="stroke:#A80036;stroke-width:1.0;"/><!--MD5=[1434e992f1dc5075fbaa3f084c55017f]
link CustomerController to AccountController--><!--MD5=[741e7b812f7498ff09ff1ae12efbe687]
link AccountController to AccountManager--><path codeLine="72" d="M566.13,838.5 C583.1,838.5 600.07,838.5 617.04,838.5 " fill="none" id="AccountController-to-AccountManager" style="stroke:#A80036;stroke-width:1.0;"/><polygon fill="#A80036" points="622.3,838.5,613.3,834.5,617.3,838.5,613.3,842.5,622.3,838.5" style="stroke:#A80036;stroke-width:1.0;"/><!--MD5=[f6cdb946c437b14b3d696cf5e8de18f6]
link AccountController to Account--><path codeLine="73" d="M473.02,890.16 C532.72,913.6 599.58,939.85 641.72,956.4 " fill="none" id="AccountController-to-Account" style="stroke:#A80036;stroke-width:1.0;"/><polygon fill="#A80036" points="646.48,958.27,639.5645,951.2574,641.8259,956.4426,636.6407,958.704,646.48,958.27" style="stroke:#A80036;stroke-width:1.0;"/><!--MD5=[2e0a514b1a6a229f9f33a869dd852677]
link AccountController to TransactionController--><!--MD5=[a6c281e42c7feae71b8883d7e46f336f]
link TransactionController to TransactionManager--><path codeLine="76" d="M565.67,1082 C582.77,1082 599.86,1082 616.95,1082 " fill="none" id="TransactionController-to-TransactionManager" style="stroke:#A80036;stroke-width:1.0;"/><polygon fill="#A80036" points="622.25,1082,613.25,1078,617.25,1082,613.25,1086,622.25,1082" style="stroke:#A80036;stroke-width:1.0;"/><!--MD5=[cbec4e5b0e50e3d9139cbc61a3762be6]
link TransactionController to Transaction--><path codeLine="77" d="M532.31,1106 C563.38,1122.89 605.6,1145.84 637.76,1163.32 " fill="none" id="TransactionController-to-Transaction" style="stroke:#A80036;stroke-width:1.0;"/><polygon fill="#A80036" points="642.43,1165.86,636.4354,1158.0456,638.0378,1163.4708,632.6126,1165.0731,642.43,1165.86" style="stroke:#A80036;stroke-width:1.0;"/><!--MD5=[8eaa498afae45f4ccd177dccde76b84d]
link TransactionController to TransferController--><!--MD5=[448dcae6e313ccbb2ee6d76cc8fbdbde]
link TransferController to TransferManager--><path codeLine="80" d="M563.09,1298 C580.94,1298 598.79,1298 616.63,1298 " fill="none" id="TransferController-to-TransferManager" style="stroke:#A80036;stroke-width:1.0;"/><polygon fill="#A80036" points="621.67,1298,612.67,1294,616.67,1298,612.67,1302,621.67,1298" style="stroke:#A80036;stroke-width:1.0;"/><!--MD5=[36bcc9f87d67c6a72e7c4d6ae93db5ee]
link TransferController to Transfer--><path codeLine="81" d="M535.19,1322 C563.12,1338.82 601.02,1361.65 630.01,1379.11 " fill="none" id="TransferController-to-Transfer" style="stroke:#A80036;stroke-width:1.0;"/><polygon fill="#A80036" points="634.58,1381.86,628.9205,1373.7996,630.2925,1379.2875,624.8046,1380.6595,634.58,1381.86" style="stroke:#A80036;stroke-width:1.0;"/><!--MD5=[3ee38fd4fb2087b73ed9a9ac5d8e3956]
reverse link Controller to CustomerController--><path codeLine="84" d="M190.25,127.38 C163.01,190.69 121.79,314.12 164,408 C186.84,458.79 233.89,500.29 274.95,528.96 " fill="none" id="Controller-backto-CustomerController" style="stroke:#A80036;stroke-width:1.0;"/><polygon fill="none" points="183.9,124.43,198.48,109.05,196.67,130.16,183.9,124.43" style="stroke:#A80036;stroke-width:1.0;"/><!--MD5=[ff8b3d33169089105f186ca5e89c0ef2]
reverse link Controller to AccountController--><path codeLine="85" d="M178.24,125.21 C168.52,138.54 158.45,153.89 151,169 C115.54,240.94 98,261.3 98,341.5 C98,341.5 98,341.5 98,575 C98,667.9 181.06,741.47 250.65,786.8 " fill="none" id="Controller-backto-AccountController" style="stroke:#A80036;stroke-width:1.0;"/><polygon fill="none" points="172.86,120.71,190.55,109.05,184,129.2,172.86,120.71" style="stroke:#A80036;stroke-width:1.0;"/><!--MD5=[42ef73344fbbd78dff0e96d9d6867bb3]
reverse link Controller to TransactionController--><path codeLine="86" d="M160.92,121.96 C145.44,135.3 129.43,151.48 118,169 C73.89,236.63 61,260.76 61,341.5 C61,341.5 61,341.5 61,839.5 C61,999.76 291.13,1054.81 414.29,1072.8 " fill="none" id="Controller-backto-TransactionController" style="stroke:#A80036;stroke-width:1.0;"/><polygon fill="none" points="156.7,116.37,176.63,109.16,165.55,127.22,156.7,116.37" style="stroke:#A80036;stroke-width:1.0;"/><!--MD5=[37538bd849a93a2f9536d69f279079f2]
reverse link Controller to TransferController--><path codeLine="87" d="M148.94,113.91 C124.88,127.54 98.8,146.02 81,169 C31.55,232.83 24,260.76 24,341.5 C24,341.5 24,341.5 24,1083 C24,1259.43 300.56,1291.17 430.73,1296.34 " fill="none" id="Controller-backto-TransferController" style="stroke:#A80036;stroke-width:1.0;"/><polygon fill="none" points="145.83,107.64,166.78,104.43,152.4,120,145.83,107.64" style="stroke:#A80036;stroke-width:1.0;"/><!--MD5=[70c37dc9bfbc8656942103c36f1181e4]
link User to Role--><!--MD5=[0ce9c3b21bf41bb963955a49d51bbb71]
link Role to UserManager--><!--MD5=[7bc161a3346b811eb8ebd384473853c5]
link UserManager to CustomerManager--><!--MD5=[e9e85f692808b84677da88daefb125f6]
link CustomerManager to Customer--><!--MD5=[421f33cdcbbb423809ce0835006bea0f]
link Customer to AccountManager--><!--MD5=[5df15bedf6a6be9ab8ced9df8a1d8af9]
link AccountManager to Account--><!--MD5=[c278a1d01c1557127ee559341275dc51]
link Account to TransactionManager--><!--MD5=[b59c0813786aceaf5240b3b5bca14d26]
link TransactionManager to Transaction--><!--MD5=[da8afb532f267eb08e39833963fea516]
link Transaction to TransferManager--><!--MD5=[f3a5fc8b08b4cd066689595ed78a9755]
link TransferManager to Transfer--><!--MD5=[9a890d66387c0610ffac4ce4fc2d8f2f]
@startuml ClassIntegration

skinparam class {
    BackgroundColor<<Repository>> SkyBlue
    BorderColor<<Repository>> Navy
    BackgroundColor<<Access>> Snow
    BorderColor<<Access>> Plum
    BackgroundColor<<Integration>> SandyBrown
    BorderColor<<Integration>> Tomato
    BackgroundColor<<Domain>> Gold
    BorderColor<<Domain>> Red
}

component "<<Component>>\nIntegration" as integration #SandyBrown {
    abstract Controller {

    }
    
    class UserController {
        + ResponseEntity<User> getUserById(User currentUser, long id)
        + ResponseEntity<List<User>> getAll(User currentUser)
        + ResponseEntity<User> addAdmin(User currentUser, Administrator user)
        + String login(String email, String password)
        + User getCurrent(User currentUser)
        + boolean logout(User currentUser)
    }

    class CustomerController {
        + ResponseEntity<Customer> getCustomerById(User currentUser, long id)
        + ResponseEntity<List<Customer>> getAll(User currentUser)
        + ResponseEntity<Customer> createCustomer(User currentUser, Customer customer)
    }

    class AccountController {
        + ResponseEntity<Account> getAccountById(User currentUser, long id)
        + ResponseEntity<List<Account>> getAll(User currentUser)
        + ResponseEntity<List<Account>> getAccountsByCustomerId(User currentUser, long id)
        + ResponseEntity<List<Account>> getCustomerAccounts(User currentUser)
    }

    class TransactionController {
    }

    class TransferController {
    }
}

component "<<Component>>\nDomain" as domain #Gold {
    class User
    enum Role
    class UserManager
    class CustomerManager
    class Customer
    class AccountManager
    class Account
    class TransactionManager
    class Transaction
    class TransferManager
    class Transfer
}

Controller -> User
Controller - -> Role
Controller - - -[hidden]> UserController

UserController ->  UserManager
UserController - - -[hidden]> CustomerController

CustomerController ->  CustomerManager
CustomerController - -> Customer
CustomerController - - -[hidden]> AccountController

AccountController -> AccountManager
AccountController - -> Account
AccountController - - -[hidden]> TransactionController

TransactionController -> TransactionManager
TransactionController - -> Transaction
TransactionController - - -[hidden]> TransferController

TransferController -> TransferManager
TransferController - -> Transfer

Controller <|- - UserController
Controller <|- - - - CustomerController
Controller <|- - - - - - AccountController
Controller <|- - - - - - - - TransactionController
Controller <|- - - - - - - - - - TransferController

User - -[hidden]> Role
Role - -[hidden]> UserManager
UserManager - - -[hidden]> CustomerManager
CustomerManager - -[hidden]> Customer
Customer - -[hidden]> AccountManager
AccountManager - -[hidden]> Account
Account - -[hidden]> TransactionManager
TransactionManager - -[hidden]> Transaction
Transaction - -[hidden]> TransferManager
TransferManager - -[hidden]> Transfer

' note as note1
'     TODO: add new methods to all controllers.
' end note

' note as note2
'     Every controller deals with User,
'     so it's better to move this common logic to 
'     abstract Controller class.
' end note

' integration -up- note1
' Controller -up- note2

@enduml

@startuml ClassIntegration

skinparam class {
    BackgroundColor<<Repository>> SkyBlue
    BorderColor<<Repository>> Navy
    BackgroundColor<<Access>> Snow
    BorderColor<<Access>> Plum
    BackgroundColor<<Integration>> SandyBrown
    BorderColor<<Integration>> Tomato
    BackgroundColor<<Domain>> Gold
    BorderColor<<Domain>> Red
}

component "<<Component>>\nIntegration" as integration #SandyBrown {
    abstract Controller {

    }
    
    class UserController {
        + ResponseEntity<User> getUserById(User currentUser, long id)
        + ResponseEntity<List<User>> getAll(User currentUser)
        + ResponseEntity<User> addAdmin(User currentUser, Administrator user)
        + String login(String email, String password)
        + User getCurrent(User currentUser)
        + boolean logout(User currentUser)
    }

    class CustomerController {
        + ResponseEntity<Customer> getCustomerById(User currentUser, long id)
        + ResponseEntity<List<Customer>> getAll(User currentUser)
        + ResponseEntity<Customer> createCustomer(User currentUser, Customer customer)
    }

    class AccountController {
        + ResponseEntity<Account> getAccountById(User currentUser, long id)
        + ResponseEntity<List<Account>> getAll(User currentUser)
        + ResponseEntity<List<Account>> getAccountsByCustomerId(User currentUser, long id)
        + ResponseEntity<List<Account>> getCustomerAccounts(User currentUser)
    }

    class TransactionController {
    }

    class TransferController {
    }
}

component "<<Component>>\nDomain" as domain #Gold {
    class User
    enum Role
    class UserManager
    class CustomerManager
    class Customer
    class AccountManager
    class Account
    class TransactionManager
    class Transaction
    class TransferManager
    class Transfer
}

Controller -> User
Controller - -> Role
Controller - - -[hidden]> UserController

UserController ->  UserManager
UserController - - -[hidden]> CustomerController

CustomerController ->  CustomerManager
CustomerController - -> Customer
CustomerController - - -[hidden]> AccountController

AccountController -> AccountManager
AccountController - -> Account
AccountController - - -[hidden]> TransactionController

TransactionController -> TransactionManager
TransactionController - -> Transaction
TransactionController - - -[hidden]> TransferController

TransferController -> TransferManager
TransferController - -> Transfer

Controller <|- - UserController
Controller <|- - - - CustomerController
Controller <|- - - - - - AccountController
Controller <|- - - - - - - - TransactionController
Controller <|- - - - - - - - - - TransferController

User - -[hidden]> Role
Role - -[hidden]> UserManager
UserManager - - -[hidden]> CustomerManager
CustomerManager - -[hidden]> Customer
Customer - -[hidden]> AccountManager
AccountManager - -[hidden]> Account
Account - -[hidden]> TransactionManager
TransactionManager - -[hidden]> Transaction
Transaction - -[hidden]> TransferManager
TransferManager - -[hidden]> Transfer




@enduml

PlantUML version 1.2021.14(Fri Nov 12 18:46:50 EET 2021)
(GPL source distribution)
Java Runtime: Java(TM) SE Runtime Environment
JVM: Java HotSpot(TM) 64-Bit Server VM
Default Encoding: Cp1252
Language: en
Country: US
--></g></svg>